%TF.GenerationSoftware,KiCad,Pcbnew,8.0.4*%
%TF.CreationDate,2024-12-17T16:17:44+07:00*%
%TF.ProjectId,cpld_mux,63706c64-5f6d-4757-982e-6b696361645f,rev?*%
%TF.SameCoordinates,Original*%
%TF.FileFunction,Soldermask,Top*%
%TF.FilePolarity,Negative*%
%FSLAX46Y46*%
G04 Gerber Fmt 4.6, Leading zero omitted, Abs format (unit mm)*
G04 Created by KiCad (PCBNEW 8.0.4) date 2024-12-17 16:17:44*
%MOMM*%
%LPD*%
G01*
G04 APERTURE LIST*
G04 Aperture macros list*
%AMRoundRect*
0 Rectangle with rounded corners*
0 $1 Rounding radius*
0 $2 $3 $4 $5 $6 $7 $8 $9 X,Y pos of 4 corners*
0 Add a 4 corners polygon primitive as box body*
4,1,4,$2,$3,$4,$5,$6,$7,$8,$9,$2,$3,0*
0 Add four circle primitives for the rounded corners*
1,1,$1+$1,$2,$3*
1,1,$1+$1,$4,$5*
1,1,$1+$1,$6,$7*
1,1,$1+$1,$8,$9*
0 Add four rect primitives between the rounded corners*
20,1,$1+$1,$2,$3,$4,$5,0*
20,1,$1+$1,$4,$5,$6,$7,0*
20,1,$1+$1,$6,$7,$8,$9,0*
20,1,$1+$1,$8,$9,$2,$3,0*%
%AMHorizOval*
0 Thick line with rounded ends*
0 $1 width*
0 $2 $3 position (X,Y) of the first rounded end (center of the circle)*
0 $4 $5 position (X,Y) of the second rounded end (center of the circle)*
0 Add line between two ends*
20,1,$1,$2,$3,$4,$5,0*
0 Add two circle primitives to create the rounded ends*
1,1,$1,$2,$3*
1,1,$1,$4,$5*%
%AMRotRect*
0 Rectangle, with rotation*
0 The origin of the aperture is its center*
0 $1 length*
0 $2 width*
0 $3 Rotation angle, in degrees counterclockwise*
0 Add horizontal line*
21,1,$1,$2,0,0,$3*%
G04 Aperture macros list end*
%ADD10RotRect,0.800000X0.500000X315.000000*%
%ADD11RotRect,0.800000X0.400000X315.000000*%
%ADD12R,0.500000X0.800000*%
%ADD13R,0.400000X0.800000*%
%ADD14R,1.700000X1.700000*%
%ADD15O,1.700000X1.700000*%
%ADD16RoundRect,0.243750X0.243750X0.456250X-0.243750X0.456250X-0.243750X-0.456250X0.243750X-0.456250X0*%
%ADD17RoundRect,0.250000X0.450000X-0.262500X0.450000X0.262500X-0.450000X0.262500X-0.450000X-0.262500X0*%
%ADD18RotRect,1.000000X1.500000X45.000000*%
%ADD19RoundRect,0.250000X0.475000X-0.250000X0.475000X0.250000X-0.475000X0.250000X-0.475000X-0.250000X0*%
%ADD20RotRect,1.000000X1.500000X135.000000*%
%ADD21R,2.000000X1.800000*%
%ADD22RoundRect,0.075000X-0.459619X-0.565685X0.565685X0.459619X0.459619X0.565685X-0.565685X-0.459619X0*%
%ADD23RoundRect,0.075000X0.459619X-0.565685X0.565685X-0.459619X-0.459619X0.565685X-0.565685X0.459619X0*%
%ADD24RotRect,1.700000X1.700000X315.000000*%
%ADD25HorizOval,1.700000X0.000000X0.000000X0.000000X0.000000X0*%
G04 APERTURE END LIST*
D10*
%TO.C,RN6*%
X35499409Y-54274961D03*
D11*
X34933724Y-54840646D03*
X34368038Y-55406332D03*
D10*
X33802353Y-55972017D03*
X35075145Y-57244809D03*
D11*
X35640830Y-56679124D03*
X36206516Y-56113438D03*
D10*
X36772201Y-55547753D03*
%TD*%
%TO.C,RN9*%
X41387465Y-47624905D03*
D11*
X40821780Y-48190590D03*
X40256094Y-48756276D03*
D10*
X39690409Y-49321961D03*
X40963201Y-50594753D03*
D11*
X41528886Y-50029068D03*
X42094572Y-49463382D03*
D10*
X42660257Y-48897697D03*
%TD*%
D12*
%TO.C,RN5*%
X29590201Y-51472753D03*
D13*
X28790201Y-51472753D03*
X27990201Y-51472753D03*
D12*
X27190201Y-51472753D03*
X27190201Y-53272753D03*
D13*
X27990201Y-53272753D03*
X28790201Y-53272753D03*
D12*
X29590201Y-53272753D03*
%TD*%
D14*
%TO.C,JTAG1*%
X25850201Y-73962753D03*
D15*
X23310201Y-73962753D03*
X25850201Y-71422753D03*
X23310201Y-71422753D03*
X25850201Y-68882754D03*
X23310201Y-68882753D03*
X25850201Y-66342753D03*
X23310201Y-66342753D03*
X25850201Y-63802753D03*
X23310201Y-63802753D03*
%TD*%
D16*
%TO.C,D2*%
X59121902Y-46052753D03*
X57246900Y-46052753D03*
%TD*%
D12*
%TO.C,RN8*%
X53720201Y-50710753D03*
D13*
X52920201Y-50710753D03*
X52120201Y-50710753D03*
D12*
X51320201Y-50710753D03*
X51320201Y-52510753D03*
D13*
X52120201Y-52510753D03*
X52920201Y-52510753D03*
D12*
X53720201Y-52510753D03*
%TD*%
%TO.C,RN7*%
X45700201Y-50572753D03*
D13*
X44900201Y-50572753D03*
X44100201Y-50572753D03*
D12*
X43300201Y-50572753D03*
X43300201Y-52372753D03*
D13*
X44100201Y-52372753D03*
X44900201Y-52372753D03*
D12*
X45700201Y-52372753D03*
%TD*%
D17*
%TO.C,R8*%
X56203201Y-53308753D03*
X56203201Y-51483753D03*
%TD*%
D18*
%TO.C,JP7*%
X56269723Y-33129231D03*
X57188962Y-32209992D03*
X58108201Y-31290753D03*
%TD*%
D19*
%TO.C,C26*%
X79825201Y-75100751D03*
X79825201Y-73200753D03*
%TD*%
D14*
%TO.C,J27*%
X30168201Y-23924753D03*
D15*
X30168201Y-21384753D03*
X32708201Y-23924753D03*
X32708201Y-21384753D03*
X35248200Y-23924753D03*
X35248201Y-21384753D03*
X37788201Y-23924753D03*
X37788201Y-21384753D03*
X40328201Y-23924753D03*
X40328201Y-21384753D03*
X42868201Y-23924753D03*
X42868201Y-21384753D03*
X45408201Y-23924753D03*
X45408201Y-21384753D03*
X47948202Y-23924753D03*
X47948201Y-21384753D03*
X50488201Y-23924753D03*
X50488201Y-21384753D03*
X53028201Y-23924753D03*
X53028201Y-21384753D03*
X55568201Y-23924753D03*
X55568201Y-21384753D03*
X58108200Y-23924753D03*
X58108201Y-21384753D03*
X60648201Y-23924753D03*
X60648201Y-21384753D03*
%TD*%
D17*
%TO.C,R7*%
X58362201Y-53308753D03*
X58362201Y-51483753D03*
%TD*%
D20*
%TO.C,JP6*%
X54328440Y-30812992D03*
X53409201Y-29893753D03*
X52489962Y-28974514D03*
%TD*%
D21*
%TO.C,X1*%
X76269201Y-72946753D03*
X76269201Y-67866753D03*
X72269201Y-67866753D03*
X72269201Y-72946753D03*
%TD*%
D22*
%TO.C,U4*%
X40310516Y-66257157D03*
X40664069Y-66610710D03*
X41017623Y-66964264D03*
X41371176Y-67317817D03*
X41724729Y-67671370D03*
X42078283Y-68024924D03*
X42431836Y-68378477D03*
X42785390Y-68732031D03*
X43138943Y-69085584D03*
X43492496Y-69439137D03*
X43846050Y-69792691D03*
X44199603Y-70146244D03*
X44553156Y-70499798D03*
X44906710Y-70853351D03*
X45260263Y-71206904D03*
X45613817Y-71560458D03*
X45967370Y-71914011D03*
X46320923Y-72267564D03*
X46674477Y-72621118D03*
X47028030Y-72974671D03*
X47381584Y-73328225D03*
X47735137Y-73681778D03*
X48088690Y-74035331D03*
X48442244Y-74388885D03*
X48795797Y-74742438D03*
D23*
X51164605Y-74742438D03*
X51518158Y-74388885D03*
X51871712Y-74035331D03*
X52225265Y-73681778D03*
X52578818Y-73328225D03*
X52932372Y-72974671D03*
X53285925Y-72621118D03*
X53639479Y-72267564D03*
X53993032Y-71914011D03*
X54346585Y-71560458D03*
X54700139Y-71206904D03*
X55053692Y-70853351D03*
X55407246Y-70499798D03*
X55760799Y-70146244D03*
X56114352Y-69792691D03*
X56467906Y-69439137D03*
X56821459Y-69085584D03*
X57175012Y-68732031D03*
X57528566Y-68378477D03*
X57882119Y-68024924D03*
X58235673Y-67671370D03*
X58589226Y-67317817D03*
X58942779Y-66964264D03*
X59296333Y-66610710D03*
X59649886Y-66257157D03*
D22*
X59649886Y-63888349D03*
X59296333Y-63534796D03*
X58942779Y-63181242D03*
X58589226Y-62827689D03*
X58235673Y-62474136D03*
X57882119Y-62120582D03*
X57528566Y-61767029D03*
X57175012Y-61413475D03*
X56821459Y-61059922D03*
X56467906Y-60706369D03*
X56114352Y-60352815D03*
X55760799Y-59999262D03*
X55407246Y-59645708D03*
X55053692Y-59292155D03*
X54700139Y-58938602D03*
X54346585Y-58585048D03*
X53993032Y-58231495D03*
X53639479Y-57877942D03*
X53285925Y-57524388D03*
X52932372Y-57170835D03*
X52578818Y-56817281D03*
X52225265Y-56463728D03*
X51871712Y-56110175D03*
X51518158Y-55756621D03*
X51164605Y-55403068D03*
D23*
X48795797Y-55403068D03*
X48442244Y-55756621D03*
X48088690Y-56110175D03*
X47735137Y-56463728D03*
X47381584Y-56817281D03*
X47028030Y-57170835D03*
X46674477Y-57524388D03*
X46320923Y-57877942D03*
X45967370Y-58231495D03*
X45613817Y-58585048D03*
X45260263Y-58938602D03*
X44906710Y-59292155D03*
X44553156Y-59645708D03*
X44199603Y-59999262D03*
X43846050Y-60352815D03*
X43492496Y-60706369D03*
X43138943Y-61059922D03*
X42785390Y-61413475D03*
X42431836Y-61767029D03*
X42078283Y-62120582D03*
X41724729Y-62474136D03*
X41371176Y-62827689D03*
X41017623Y-63181242D03*
X40664069Y-63534796D03*
X40310516Y-63888349D03*
%TD*%
D16*
%TO.C,D1*%
X59147302Y-48308753D03*
X57272300Y-48308753D03*
%TD*%
D24*
%TO.C,J26*%
X52520201Y-45768753D03*
D25*
X50724150Y-43972702D03*
X54316252Y-43972702D03*
X52520201Y-42176651D03*
X56112303Y-42176651D03*
X54316252Y-40380599D03*
X57908355Y-40380599D03*
X56112303Y-38584548D03*
X59704406Y-38584548D03*
X57908355Y-36788497D03*
X61500457Y-36788497D03*
X59704406Y-34992446D03*
X63296508Y-34992446D03*
X61500457Y-33196394D03*
X65092560Y-33196394D03*
X63296508Y-31400343D03*
%TD*%
D14*
%TO.C,J10_AD2*%
X79190201Y-77772753D03*
D15*
X79190201Y-80312753D03*
X76650201Y-77772753D03*
X76650201Y-80312753D03*
X74110202Y-77772753D03*
X74110201Y-80312753D03*
X71570201Y-77772753D03*
X71570201Y-80312753D03*
X69030201Y-77772753D03*
X69030201Y-80312753D03*
X66490201Y-77772753D03*
X66490201Y-80312753D03*
X63950201Y-77772753D03*
X63950201Y-80312753D03*
X61410200Y-77772753D03*
X61410201Y-80312753D03*
X58870201Y-77772753D03*
X58870201Y-80312753D03*
X56330201Y-77772753D03*
X56330201Y-80312753D03*
X53790201Y-77772753D03*
X53790201Y-80312753D03*
X51250202Y-77772753D03*
X51250201Y-80312753D03*
X48710201Y-77772753D03*
X48710201Y-80312753D03*
X46170201Y-77772753D03*
X46170201Y-80312753D03*
X43630201Y-77772753D03*
X43630201Y-80312753D03*
X41090202Y-77772753D03*
X41090201Y-80312753D03*
X38550200Y-77772753D03*
X38550201Y-80312753D03*
X36010201Y-77772753D03*
X36010201Y-80312753D03*
X33470201Y-77772753D03*
X33470201Y-80312753D03*
X30930201Y-77772753D03*
X30930201Y-80312753D03*
X28390202Y-77772753D03*
X28390201Y-80312753D03*
X25850201Y-77772753D03*
X25850201Y-80312753D03*
X23310201Y-77772753D03*
X23310201Y-80312753D03*
%TD*%
D24*
%TO.C,J24*%
X25596201Y-45768753D03*
D25*
X23800150Y-43972702D03*
X27392252Y-43972702D03*
X25596201Y-42176651D03*
X29188303Y-42176651D03*
X27392252Y-40380599D03*
X30984355Y-40380599D03*
X29188303Y-38584548D03*
X32780406Y-38584548D03*
X30984355Y-36788497D03*
X34576457Y-36788497D03*
X32780406Y-34992446D03*
X36372508Y-34992446D03*
X34576457Y-33196394D03*
X38168560Y-33196394D03*
X36372508Y-31400343D03*
%TD*%
D24*
%TO.C,J25*%
X39058201Y-45768753D03*
D25*
X37262150Y-43972702D03*
X40854252Y-43972702D03*
X39058201Y-42176651D03*
X42650303Y-42176651D03*
X40854252Y-40380599D03*
X44446355Y-40380599D03*
X42650303Y-38584548D03*
X46242406Y-38584548D03*
X44446355Y-36788497D03*
X48038457Y-36788497D03*
X46242406Y-34992446D03*
X49834508Y-34992446D03*
X48038457Y-33196394D03*
X51630560Y-33196394D03*
X49834508Y-31400343D03*
%TD*%
M02*
