%TF.GenerationSoftware,KiCad,Pcbnew,8.0.4*%
%TF.CreationDate,2024-12-17T16:17:44+07:00*%
%TF.ProjectId,cpld_mux,63706c64-5f6d-4757-982e-6b696361645f,rev?*%
%TF.SameCoordinates,Original*%
%TF.FileFunction,Soldermask,Bot*%
%TF.FilePolarity,Negative*%
%FSLAX46Y46*%
G04 Gerber Fmt 4.6, Leading zero omitted, Abs format (unit mm)*
G04 Created by KiCad (PCBNEW 8.0.4) date 2024-12-17 16:17:44*
%MOMM*%
%LPD*%
G01*
G04 APERTURE LIST*
G04 Aperture macros list*
%AMRoundRect*
0 Rectangle with rounded corners*
0 $1 Rounding radius*
0 $2 $3 $4 $5 $6 $7 $8 $9 X,Y pos of 4 corners*
0 Add a 4 corners polygon primitive as box body*
4,1,4,$2,$3,$4,$5,$6,$7,$8,$9,$2,$3,0*
0 Add four circle primitives for the rounded corners*
1,1,$1+$1,$2,$3*
1,1,$1+$1,$4,$5*
1,1,$1+$1,$6,$7*
1,1,$1+$1,$8,$9*
0 Add four rect primitives between the rounded corners*
20,1,$1+$1,$2,$3,$4,$5,0*
20,1,$1+$1,$4,$5,$6,$7,0*
20,1,$1+$1,$6,$7,$8,$9,0*
20,1,$1+$1,$8,$9,$2,$3,0*%
%AMHorizOval*
0 Thick line with rounded ends*
0 $1 width*
0 $2 $3 position (X,Y) of the first rounded end (center of the circle)*
0 $4 $5 position (X,Y) of the second rounded end (center of the circle)*
0 Add line between two ends*
20,1,$1,$2,$3,$4,$5,0*
0 Add two circle primitives to create the rounded ends*
1,1,$1,$2,$3*
1,1,$1,$4,$5*%
%AMRotRect*
0 Rectangle, with rotation*
0 The origin of the aperture is its center*
0 $1 length*
0 $2 width*
0 $3 Rotation angle, in degrees counterclockwise*
0 Add horizontal line*
21,1,$1,$2,0,0,$3*%
G04 Aperture macros list end*
%ADD10R,1.700000X1.700000*%
%ADD11O,1.700000X1.700000*%
%ADD12RoundRect,0.237500X0.250000X0.237500X-0.250000X0.237500X-0.250000X-0.237500X0.250000X-0.237500X0*%
%ADD13RoundRect,0.250000X-0.512652X-0.159099X-0.159099X-0.512652X0.512652X0.159099X0.159099X0.512652X0*%
%ADD14RotRect,1.700000X1.700000X315.000000*%
%ADD15HorizOval,1.700000X0.000000X0.000000X0.000000X0.000000X0*%
%ADD16RoundRect,0.250000X-0.159099X0.512652X-0.512652X0.159099X0.159099X-0.512652X0.512652X-0.159099X0*%
%ADD17RoundRect,0.250000X0.159099X-0.512652X0.512652X-0.159099X-0.159099X0.512652X-0.512652X0.159099X0*%
%ADD18RoundRect,0.375000X-0.625000X-0.375000X0.625000X-0.375000X0.625000X0.375000X-0.625000X0.375000X0*%
%ADD19RoundRect,0.500000X-0.500000X-1.400000X0.500000X-1.400000X0.500000X1.400000X-0.500000X1.400000X0*%
%ADD20RoundRect,0.250000X-0.475000X0.250000X-0.475000X-0.250000X0.475000X-0.250000X0.475000X0.250000X0*%
%ADD21RoundRect,0.237500X-0.250000X-0.237500X0.250000X-0.237500X0.250000X0.237500X-0.250000X0.237500X0*%
%ADD22RoundRect,0.375000X-0.707107X0.176777X0.176777X-0.707107X0.707107X-0.176777X-0.176777X0.707107X0*%
%ADD23RoundRect,0.500000X-1.343503X-0.636396X-0.636396X-1.343503X1.343503X0.636396X0.636396X1.343503X0*%
G04 APERTURE END LIST*
D10*
%TO.C,JTAG1*%
X25850201Y-73962753D03*
D11*
X23310201Y-73962753D03*
X25850201Y-71422753D03*
X23310201Y-71422753D03*
X25850201Y-68882754D03*
X23310201Y-68882753D03*
X25850201Y-66342753D03*
X23310201Y-66342753D03*
X25850201Y-63802753D03*
X23310201Y-63802753D03*
%TD*%
D10*
%TO.C,J27*%
X30168201Y-23924753D03*
D11*
X30168201Y-21384753D03*
X32708201Y-23924753D03*
X32708201Y-21384753D03*
X35248200Y-23924753D03*
X35248201Y-21384753D03*
X37788201Y-23924753D03*
X37788201Y-21384753D03*
X40328201Y-23924753D03*
X40328201Y-21384753D03*
X42868201Y-23924753D03*
X42868201Y-21384753D03*
X45408201Y-23924753D03*
X45408201Y-21384753D03*
X47948202Y-23924753D03*
X47948201Y-21384753D03*
X50488201Y-23924753D03*
X50488201Y-21384753D03*
X53028201Y-23924753D03*
X53028201Y-21384753D03*
X55568201Y-23924753D03*
X55568201Y-21384753D03*
X58108200Y-23924753D03*
X58108201Y-21384753D03*
X60648201Y-23924753D03*
X60648201Y-21384753D03*
%TD*%
D12*
%TO.C,R1*%
X30572701Y-73962753D03*
X28747701Y-73962753D03*
%TD*%
D13*
%TO.C,C13*%
X53663201Y-61389753D03*
X55006703Y-62733255D03*
%TD*%
D14*
%TO.C,J26*%
X52520201Y-45768753D03*
D15*
X50724150Y-43972702D03*
X54316252Y-43972702D03*
X52520201Y-42176651D03*
X56112303Y-42176651D03*
X54316252Y-40380599D03*
X57908355Y-40380599D03*
X56112303Y-38584548D03*
X59704406Y-38584548D03*
X57908355Y-36788497D03*
X61500457Y-36788497D03*
X59704406Y-34992446D03*
X63296508Y-34992446D03*
X61500457Y-33196394D03*
X65092560Y-33196394D03*
X63296508Y-31400343D03*
%TD*%
D16*
%TO.C,C21*%
X24362952Y-51955002D03*
X23019450Y-53298504D03*
%TD*%
D17*
%TO.C,C15*%
X43376201Y-63548753D03*
X44719703Y-62205251D03*
%TD*%
D18*
%TO.C,U5*%
X31717201Y-68642753D03*
X31717202Y-66342753D03*
D19*
X38017200Y-66342753D03*
D18*
X31717201Y-64042753D03*
%TD*%
D10*
%TO.C,J10_AD2*%
X79190201Y-77772753D03*
D11*
X79190201Y-80312753D03*
X76650201Y-77772753D03*
X76650201Y-80312753D03*
X74110202Y-77772753D03*
X74110201Y-80312753D03*
X71570201Y-77772753D03*
X71570201Y-80312753D03*
X69030201Y-77772753D03*
X69030201Y-80312753D03*
X66490201Y-77772753D03*
X66490201Y-80312753D03*
X63950201Y-77772753D03*
X63950201Y-80312753D03*
X61410200Y-77772753D03*
X61410201Y-80312753D03*
X58870201Y-77772753D03*
X58870201Y-80312753D03*
X56330201Y-77772753D03*
X56330201Y-80312753D03*
X53790201Y-77772753D03*
X53790201Y-80312753D03*
X51250202Y-77772753D03*
X51250201Y-80312753D03*
X48710201Y-77772753D03*
X48710201Y-80312753D03*
X46170201Y-77772753D03*
X46170201Y-80312753D03*
X43630201Y-77772753D03*
X43630201Y-80312753D03*
X41090202Y-77772753D03*
X41090201Y-80312753D03*
X38550200Y-77772753D03*
X38550201Y-80312753D03*
X36010201Y-77772753D03*
X36010201Y-80312753D03*
X33470201Y-77772753D03*
X33470201Y-80312753D03*
X30930201Y-77772753D03*
X30930201Y-80312753D03*
X28390202Y-77772753D03*
X28390201Y-80312753D03*
X25850201Y-77772753D03*
X25850201Y-80312753D03*
X23310201Y-77772753D03*
X23310201Y-80312753D03*
%TD*%
D17*
%TO.C,C17*%
X73248450Y-70951504D03*
X74591952Y-69608002D03*
%TD*%
D20*
%TO.C,C16*%
X29152201Y-66662754D03*
X29152201Y-68562752D03*
%TD*%
D14*
%TO.C,J24*%
X25596201Y-45768753D03*
D15*
X23800150Y-43972702D03*
X27392252Y-43972702D03*
X25596201Y-42176651D03*
X29188303Y-42176651D03*
X27392252Y-40380599D03*
X30984355Y-40380599D03*
X29188303Y-38584548D03*
X32780406Y-38584548D03*
X30984355Y-36788497D03*
X34576457Y-36788497D03*
X32780406Y-34992446D03*
X36372508Y-34992446D03*
X34576457Y-33196394D03*
X38168560Y-33196394D03*
X36372508Y-31400343D03*
%TD*%
D14*
%TO.C,J25*%
X39058201Y-45768753D03*
D15*
X37262150Y-43972702D03*
X40854252Y-43972702D03*
X39058201Y-42176651D03*
X42650303Y-42176651D03*
X40854252Y-40380599D03*
X44446355Y-40380599D03*
X42650303Y-38584548D03*
X46242406Y-38584548D03*
X44446355Y-36788497D03*
X48038457Y-36788497D03*
X46242406Y-34992446D03*
X49834508Y-34992446D03*
X48038457Y-33196394D03*
X51630560Y-33196394D03*
X49834508Y-31400343D03*
%TD*%
D20*
%TO.C,C19*%
X34613201Y-59042754D03*
X34613201Y-60942752D03*
%TD*%
D12*
%TO.C,R2*%
X30572701Y-71422753D03*
X28747701Y-71422753D03*
%TD*%
D17*
%TO.C,C14*%
X55404450Y-66887504D03*
X56747952Y-65544002D03*
%TD*%
D21*
%TO.C,R4*%
X23564201Y-61008753D03*
X25389201Y-61008753D03*
%TD*%
%TO.C,R5*%
X73412201Y-73327753D03*
X75237201Y-73327753D03*
%TD*%
D20*
%TO.C,C22*%
X29152201Y-63106754D03*
X29152201Y-65006752D03*
%TD*%
D17*
%TO.C,C12*%
X51504201Y-72057753D03*
X52847703Y-70714251D03*
%TD*%
D20*
%TO.C,C23*%
X40531401Y-65961753D03*
X40531401Y-67861751D03*
%TD*%
D21*
%TO.C,R3*%
X32153201Y-71422753D03*
X33978201Y-71422753D03*
%TD*%
D16*
%TO.C,C18*%
X43576703Y-68174251D03*
X42233201Y-69517753D03*
%TD*%
D22*
%TO.C,U3*%
X24028469Y-55581712D03*
X25654815Y-53955367D03*
D23*
X30109587Y-58410139D03*
D22*
X27281160Y-52329021D03*
%TD*%
D13*
%TO.C,C20*%
X30348699Y-51918251D03*
X31692201Y-53261753D03*
%TD*%
D17*
%TO.C,C24*%
X48202201Y-58595753D03*
X49545703Y-57252251D03*
%TD*%
D16*
%TO.C,C25*%
X45227703Y-69698251D03*
X43884201Y-71041753D03*
%TD*%
M02*
