%TF.GenerationSoftware,KiCad,Pcbnew,8.0.4*%
%TF.CreationDate,2024-12-17T16:17:44+07:00*%
%TF.ProjectId,cpld_mux,63706c64-5f6d-4757-982e-6b696361645f,rev?*%
%TF.SameCoordinates,Original*%
%TF.FileFunction,Legend,Bot*%
%TF.FilePolarity,Positive*%
%FSLAX46Y46*%
G04 Gerber Fmt 4.6, Leading zero omitted, Abs format (unit mm)*
G04 Created by KiCad (PCBNEW 8.0.4) date 2024-12-17 16:17:44*
%MOMM*%
%LPD*%
G01*
G04 APERTURE LIST*
%ADD10C,0.150000*%
%ADD11C,0.120000*%
G04 APERTURE END LIST*
D10*
X29699867Y-75814572D02*
X30033200Y-75338381D01*
X30271295Y-75814572D02*
X30271295Y-74814572D01*
X30271295Y-74814572D02*
X29890343Y-74814572D01*
X29890343Y-74814572D02*
X29795105Y-74862191D01*
X29795105Y-74862191D02*
X29747486Y-74909810D01*
X29747486Y-74909810D02*
X29699867Y-75005048D01*
X29699867Y-75005048D02*
X29699867Y-75147905D01*
X29699867Y-75147905D02*
X29747486Y-75243143D01*
X29747486Y-75243143D02*
X29795105Y-75290762D01*
X29795105Y-75290762D02*
X29890343Y-75338381D01*
X29890343Y-75338381D02*
X30271295Y-75338381D01*
X28747486Y-75814572D02*
X29318914Y-75814572D01*
X29033200Y-75814572D02*
X29033200Y-74814572D01*
X29033200Y-74814572D02*
X29128438Y-74957429D01*
X29128438Y-74957429D02*
X29223676Y-75052667D01*
X29223676Y-75052667D02*
X29318914Y-75100286D01*
X53347319Y-63958273D02*
X53347319Y-64025617D01*
X53347319Y-64025617D02*
X53414663Y-64160304D01*
X53414663Y-64160304D02*
X53482006Y-64227647D01*
X53482006Y-64227647D02*
X53616693Y-64294991D01*
X53616693Y-64294991D02*
X53751380Y-64294991D01*
X53751380Y-64294991D02*
X53852395Y-64261319D01*
X53852395Y-64261319D02*
X54020754Y-64160304D01*
X54020754Y-64160304D02*
X54121769Y-64059289D01*
X54121769Y-64059289D02*
X54222785Y-63890930D01*
X54222785Y-63890930D02*
X54256456Y-63789915D01*
X54256456Y-63789915D02*
X54256456Y-63655228D01*
X54256456Y-63655228D02*
X54189113Y-63520541D01*
X54189113Y-63520541D02*
X54121769Y-63453197D01*
X54121769Y-63453197D02*
X53987082Y-63385854D01*
X53987082Y-63385854D02*
X53919739Y-63385854D01*
X52606541Y-63352182D02*
X53010602Y-63756243D01*
X52808571Y-63554212D02*
X53515678Y-62847106D01*
X53515678Y-62847106D02*
X53482006Y-63015464D01*
X53482006Y-63015464D02*
X53482006Y-63150151D01*
X53482006Y-63150151D02*
X53515678Y-63251167D01*
X53077945Y-62409373D02*
X52640212Y-61971640D01*
X52640212Y-61971640D02*
X52606540Y-62476716D01*
X52606540Y-62476716D02*
X52505525Y-62375701D01*
X52505525Y-62375701D02*
X52404510Y-62342029D01*
X52404510Y-62342029D02*
X52337166Y-62342029D01*
X52337166Y-62342029D02*
X52236151Y-62375701D01*
X52236151Y-62375701D02*
X52067792Y-62544060D01*
X52067792Y-62544060D02*
X52034121Y-62645075D01*
X52034121Y-62645075D02*
X52034121Y-62712418D01*
X52034121Y-62712418D02*
X52067792Y-62813434D01*
X52067792Y-62813434D02*
X52269823Y-63015464D01*
X52269823Y-63015464D02*
X52370838Y-63049136D01*
X52370838Y-63049136D02*
X52438182Y-63049136D01*
X50621410Y-47016331D02*
X50116334Y-47521407D01*
X50116334Y-47521407D02*
X50048990Y-47656094D01*
X50048990Y-47656094D02*
X50048990Y-47790781D01*
X50048990Y-47790781D02*
X50116334Y-47925468D01*
X50116334Y-47925468D02*
X50183677Y-47992812D01*
X50251021Y-46780628D02*
X50251021Y-46713285D01*
X50251021Y-46713285D02*
X50217349Y-46612270D01*
X50217349Y-46612270D02*
X50048990Y-46443911D01*
X50048990Y-46443911D02*
X49947975Y-46410239D01*
X49947975Y-46410239D02*
X49880631Y-46410239D01*
X49880631Y-46410239D02*
X49779616Y-46443911D01*
X49779616Y-46443911D02*
X49712273Y-46511254D01*
X49712273Y-46511254D02*
X49644929Y-46645941D01*
X49644929Y-46645941D02*
X49644929Y-47454063D01*
X49644929Y-47454063D02*
X49207196Y-47016331D01*
X49308212Y-45703132D02*
X49442899Y-45837819D01*
X49442899Y-45837819D02*
X49476570Y-45938835D01*
X49476570Y-45938835D02*
X49476570Y-46006178D01*
X49476570Y-46006178D02*
X49442899Y-46174537D01*
X49442899Y-46174537D02*
X49341883Y-46342896D01*
X49341883Y-46342896D02*
X49072509Y-46612270D01*
X49072509Y-46612270D02*
X48971494Y-46645941D01*
X48971494Y-46645941D02*
X48904151Y-46645941D01*
X48904151Y-46645941D02*
X48803135Y-46612270D01*
X48803135Y-46612270D02*
X48668448Y-46477583D01*
X48668448Y-46477583D02*
X48634777Y-46376567D01*
X48634777Y-46376567D02*
X48634777Y-46309224D01*
X48634777Y-46309224D02*
X48668448Y-46208209D01*
X48668448Y-46208209D02*
X48836807Y-46039850D01*
X48836807Y-46039850D02*
X48937822Y-46006178D01*
X48937822Y-46006178D02*
X49005166Y-46006178D01*
X49005166Y-46006178D02*
X49106181Y-46039850D01*
X49106181Y-46039850D02*
X49240868Y-46174537D01*
X49240868Y-46174537D02*
X49274540Y-46275552D01*
X49274540Y-46275552D02*
X49274540Y-46342896D01*
X49274540Y-46342896D02*
X49240868Y-46443911D01*
X24080058Y-50319333D02*
X24127677Y-50366953D01*
X24127677Y-50366953D02*
X24270534Y-50414572D01*
X24270534Y-50414572D02*
X24365772Y-50414572D01*
X24365772Y-50414572D02*
X24508629Y-50366953D01*
X24508629Y-50366953D02*
X24603867Y-50271714D01*
X24603867Y-50271714D02*
X24651486Y-50176476D01*
X24651486Y-50176476D02*
X24699105Y-49986000D01*
X24699105Y-49986000D02*
X24699105Y-49843143D01*
X24699105Y-49843143D02*
X24651486Y-49652667D01*
X24651486Y-49652667D02*
X24603867Y-49557429D01*
X24603867Y-49557429D02*
X24508629Y-49462191D01*
X24508629Y-49462191D02*
X24365772Y-49414572D01*
X24365772Y-49414572D02*
X24270534Y-49414572D01*
X24270534Y-49414572D02*
X24127677Y-49462191D01*
X24127677Y-49462191D02*
X24080058Y-49509810D01*
X23699105Y-49509810D02*
X23651486Y-49462191D01*
X23651486Y-49462191D02*
X23556248Y-49414572D01*
X23556248Y-49414572D02*
X23318153Y-49414572D01*
X23318153Y-49414572D02*
X23222915Y-49462191D01*
X23222915Y-49462191D02*
X23175296Y-49509810D01*
X23175296Y-49509810D02*
X23127677Y-49605048D01*
X23127677Y-49605048D02*
X23127677Y-49700286D01*
X23127677Y-49700286D02*
X23175296Y-49843143D01*
X23175296Y-49843143D02*
X23746724Y-50414572D01*
X23746724Y-50414572D02*
X23127677Y-50414572D01*
X22175296Y-50414572D02*
X22746724Y-50414572D01*
X22461010Y-50414572D02*
X22461010Y-49414572D01*
X22461010Y-49414572D02*
X22556248Y-49557429D01*
X22556248Y-49557429D02*
X22651486Y-49652667D01*
X22651486Y-49652667D02*
X22746724Y-49700286D01*
X45944721Y-63864634D02*
X46012065Y-63864634D01*
X46012065Y-63864634D02*
X46146752Y-63797290D01*
X46146752Y-63797290D02*
X46214095Y-63729947D01*
X46214095Y-63729947D02*
X46281439Y-63595260D01*
X46281439Y-63595260D02*
X46281439Y-63460573D01*
X46281439Y-63460573D02*
X46247767Y-63359558D01*
X46247767Y-63359558D02*
X46146752Y-63191199D01*
X46146752Y-63191199D02*
X46045737Y-63090184D01*
X46045737Y-63090184D02*
X45877378Y-62989168D01*
X45877378Y-62989168D02*
X45776363Y-62955497D01*
X45776363Y-62955497D02*
X45641676Y-62955497D01*
X45641676Y-62955497D02*
X45506989Y-63022840D01*
X45506989Y-63022840D02*
X45439645Y-63090184D01*
X45439645Y-63090184D02*
X45372302Y-63224871D01*
X45372302Y-63224871D02*
X45372302Y-63292214D01*
X45338630Y-64605412D02*
X45742691Y-64201351D01*
X45540660Y-64403382D02*
X44833554Y-63696275D01*
X44833554Y-63696275D02*
X45001912Y-63729947D01*
X45001912Y-63729947D02*
X45136599Y-63729947D01*
X45136599Y-63729947D02*
X45237615Y-63696275D01*
X43991760Y-64538069D02*
X44328477Y-64201351D01*
X44328477Y-64201351D02*
X44698866Y-64504397D01*
X44698866Y-64504397D02*
X44631523Y-64504397D01*
X44631523Y-64504397D02*
X44530508Y-64538069D01*
X44530508Y-64538069D02*
X44362149Y-64706428D01*
X44362149Y-64706428D02*
X44328477Y-64807443D01*
X44328477Y-64807443D02*
X44328477Y-64874787D01*
X44328477Y-64874787D02*
X44362149Y-64975802D01*
X44362149Y-64975802D02*
X44530508Y-65144161D01*
X44530508Y-65144161D02*
X44631523Y-65177832D01*
X44631523Y-65177832D02*
X44698866Y-65177832D01*
X44698866Y-65177832D02*
X44799882Y-65144161D01*
X44799882Y-65144161D02*
X44968240Y-64975802D01*
X44968240Y-64975802D02*
X45001912Y-64874787D01*
X45001912Y-64874787D02*
X45001912Y-64807443D01*
X37153105Y-70297573D02*
X37153105Y-71107096D01*
X37153105Y-71107096D02*
X37105486Y-71202334D01*
X37105486Y-71202334D02*
X37057867Y-71249954D01*
X37057867Y-71249954D02*
X36962629Y-71297573D01*
X36962629Y-71297573D02*
X36772153Y-71297573D01*
X36772153Y-71297573D02*
X36676915Y-71249954D01*
X36676915Y-71249954D02*
X36629296Y-71202334D01*
X36629296Y-71202334D02*
X36581677Y-71107096D01*
X36581677Y-71107096D02*
X36581677Y-70297573D01*
X35629296Y-70297573D02*
X36105486Y-70297573D01*
X36105486Y-70297573D02*
X36153105Y-70773763D01*
X36153105Y-70773763D02*
X36105486Y-70726144D01*
X36105486Y-70726144D02*
X36010248Y-70678525D01*
X36010248Y-70678525D02*
X35772153Y-70678525D01*
X35772153Y-70678525D02*
X35676915Y-70726144D01*
X35676915Y-70726144D02*
X35629296Y-70773763D01*
X35629296Y-70773763D02*
X35581677Y-70869001D01*
X35581677Y-70869001D02*
X35581677Y-71107096D01*
X35581677Y-71107096D02*
X35629296Y-71202334D01*
X35629296Y-71202334D02*
X35676915Y-71249954D01*
X35676915Y-71249954D02*
X35772153Y-71297573D01*
X35772153Y-71297573D02*
X36010248Y-71297573D01*
X36010248Y-71297573D02*
X36105486Y-71249954D01*
X36105486Y-71249954D02*
X36153105Y-71202334D01*
X69974439Y-74687572D02*
X69974439Y-75401857D01*
X69974439Y-75401857D02*
X70022058Y-75544714D01*
X70022058Y-75544714D02*
X70117296Y-75639953D01*
X70117296Y-75639953D02*
X70260153Y-75687572D01*
X70260153Y-75687572D02*
X70355391Y-75687572D01*
X68974439Y-75687572D02*
X69545867Y-75687572D01*
X69260153Y-75687572D02*
X69260153Y-74687572D01*
X69260153Y-74687572D02*
X69355391Y-74830429D01*
X69355391Y-74830429D02*
X69450629Y-74925667D01*
X69450629Y-74925667D02*
X69545867Y-74973286D01*
X68355391Y-74687572D02*
X68260153Y-74687572D01*
X68260153Y-74687572D02*
X68164915Y-74735191D01*
X68164915Y-74735191D02*
X68117296Y-74782810D01*
X68117296Y-74782810D02*
X68069677Y-74878048D01*
X68069677Y-74878048D02*
X68022058Y-75068524D01*
X68022058Y-75068524D02*
X68022058Y-75306619D01*
X68022058Y-75306619D02*
X68069677Y-75497095D01*
X68069677Y-75497095D02*
X68117296Y-75592333D01*
X68117296Y-75592333D02*
X68164915Y-75639953D01*
X68164915Y-75639953D02*
X68260153Y-75687572D01*
X68260153Y-75687572D02*
X68355391Y-75687572D01*
X68355391Y-75687572D02*
X68450629Y-75639953D01*
X68450629Y-75639953D02*
X68498248Y-75592333D01*
X68498248Y-75592333D02*
X68545867Y-75497095D01*
X68545867Y-75497095D02*
X68593486Y-75306619D01*
X68593486Y-75306619D02*
X68593486Y-75068524D01*
X68593486Y-75068524D02*
X68545867Y-74878048D01*
X68545867Y-74878048D02*
X68498248Y-74782810D01*
X68498248Y-74782810D02*
X68450629Y-74735191D01*
X68450629Y-74735191D02*
X68355391Y-74687572D01*
X67831582Y-75782810D02*
X67069677Y-75782810D01*
X66879200Y-75401857D02*
X66403010Y-75401857D01*
X66974438Y-75687572D02*
X66641105Y-74687572D01*
X66641105Y-74687572D02*
X66307772Y-75687572D01*
X65974438Y-75687572D02*
X65974438Y-74687572D01*
X65974438Y-74687572D02*
X65736343Y-74687572D01*
X65736343Y-74687572D02*
X65593486Y-74735191D01*
X65593486Y-74735191D02*
X65498248Y-74830429D01*
X65498248Y-74830429D02*
X65450629Y-74925667D01*
X65450629Y-74925667D02*
X65403010Y-75116143D01*
X65403010Y-75116143D02*
X65403010Y-75259000D01*
X65403010Y-75259000D02*
X65450629Y-75449476D01*
X65450629Y-75449476D02*
X65498248Y-75544714D01*
X65498248Y-75544714D02*
X65593486Y-75639953D01*
X65593486Y-75639953D02*
X65736343Y-75687572D01*
X65736343Y-75687572D02*
X65974438Y-75687572D01*
X65022057Y-74782810D02*
X64974438Y-74735191D01*
X64974438Y-74735191D02*
X64879200Y-74687572D01*
X64879200Y-74687572D02*
X64641105Y-74687572D01*
X64641105Y-74687572D02*
X64545867Y-74735191D01*
X64545867Y-74735191D02*
X64498248Y-74782810D01*
X64498248Y-74782810D02*
X64450629Y-74878048D01*
X64450629Y-74878048D02*
X64450629Y-74973286D01*
X64450629Y-74973286D02*
X64498248Y-75116143D01*
X64498248Y-75116143D02*
X65069676Y-75687572D01*
X65069676Y-75687572D02*
X64450629Y-75687572D01*
X73229058Y-68861334D02*
X73276677Y-68908954D01*
X73276677Y-68908954D02*
X73419534Y-68956573D01*
X73419534Y-68956573D02*
X73514772Y-68956573D01*
X73514772Y-68956573D02*
X73657629Y-68908954D01*
X73657629Y-68908954D02*
X73752867Y-68813715D01*
X73752867Y-68813715D02*
X73800486Y-68718477D01*
X73800486Y-68718477D02*
X73848105Y-68528001D01*
X73848105Y-68528001D02*
X73848105Y-68385144D01*
X73848105Y-68385144D02*
X73800486Y-68194668D01*
X73800486Y-68194668D02*
X73752867Y-68099430D01*
X73752867Y-68099430D02*
X73657629Y-68004192D01*
X73657629Y-68004192D02*
X73514772Y-67956573D01*
X73514772Y-67956573D02*
X73419534Y-67956573D01*
X73419534Y-67956573D02*
X73276677Y-68004192D01*
X73276677Y-68004192D02*
X73229058Y-68051811D01*
X72276677Y-68956573D02*
X72848105Y-68956573D01*
X72562391Y-68956573D02*
X72562391Y-67956573D01*
X72562391Y-67956573D02*
X72657629Y-68099430D01*
X72657629Y-68099430D02*
X72752867Y-68194668D01*
X72752867Y-68194668D02*
X72848105Y-68242287D01*
X71943343Y-67956573D02*
X71276677Y-67956573D01*
X71276677Y-67956573D02*
X71705248Y-68956573D01*
X29922058Y-70385333D02*
X29969677Y-70432953D01*
X29969677Y-70432953D02*
X30112534Y-70480572D01*
X30112534Y-70480572D02*
X30207772Y-70480572D01*
X30207772Y-70480572D02*
X30350629Y-70432953D01*
X30350629Y-70432953D02*
X30445867Y-70337714D01*
X30445867Y-70337714D02*
X30493486Y-70242476D01*
X30493486Y-70242476D02*
X30541105Y-70052000D01*
X30541105Y-70052000D02*
X30541105Y-69909143D01*
X30541105Y-69909143D02*
X30493486Y-69718667D01*
X30493486Y-69718667D02*
X30445867Y-69623429D01*
X30445867Y-69623429D02*
X30350629Y-69528191D01*
X30350629Y-69528191D02*
X30207772Y-69480572D01*
X30207772Y-69480572D02*
X30112534Y-69480572D01*
X30112534Y-69480572D02*
X29969677Y-69528191D01*
X29969677Y-69528191D02*
X29922058Y-69575810D01*
X28969677Y-70480572D02*
X29541105Y-70480572D01*
X29255391Y-70480572D02*
X29255391Y-69480572D01*
X29255391Y-69480572D02*
X29350629Y-69623429D01*
X29350629Y-69623429D02*
X29445867Y-69718667D01*
X29445867Y-69718667D02*
X29541105Y-69766286D01*
X28112534Y-69480572D02*
X28303010Y-69480572D01*
X28303010Y-69480572D02*
X28398248Y-69528191D01*
X28398248Y-69528191D02*
X28445867Y-69575810D01*
X28445867Y-69575810D02*
X28541105Y-69718667D01*
X28541105Y-69718667D02*
X28588724Y-69909143D01*
X28588724Y-69909143D02*
X28588724Y-70290095D01*
X28588724Y-70290095D02*
X28541105Y-70385333D01*
X28541105Y-70385333D02*
X28493486Y-70432953D01*
X28493486Y-70432953D02*
X28398248Y-70480572D01*
X28398248Y-70480572D02*
X28207772Y-70480572D01*
X28207772Y-70480572D02*
X28112534Y-70432953D01*
X28112534Y-70432953D02*
X28064915Y-70385333D01*
X28064915Y-70385333D02*
X28017296Y-70290095D01*
X28017296Y-70290095D02*
X28017296Y-70052000D01*
X28017296Y-70052000D02*
X28064915Y-69956762D01*
X28064915Y-69956762D02*
X28112534Y-69909143D01*
X28112534Y-69909143D02*
X28207772Y-69861524D01*
X28207772Y-69861524D02*
X28398248Y-69861524D01*
X28398248Y-69861524D02*
X28493486Y-69909143D01*
X28493486Y-69909143D02*
X28541105Y-69956762D01*
X28541105Y-69956762D02*
X28588724Y-70052000D01*
X24141121Y-47606671D02*
X23636045Y-48111747D01*
X23636045Y-48111747D02*
X23568701Y-48246434D01*
X23568701Y-48246434D02*
X23568701Y-48381121D01*
X23568701Y-48381121D02*
X23636045Y-48515808D01*
X23636045Y-48515808D02*
X23703388Y-48583152D01*
X23770732Y-47370968D02*
X23770732Y-47303625D01*
X23770732Y-47303625D02*
X23737060Y-47202610D01*
X23737060Y-47202610D02*
X23568701Y-47034251D01*
X23568701Y-47034251D02*
X23467686Y-47000579D01*
X23467686Y-47000579D02*
X23400342Y-47000579D01*
X23400342Y-47000579D02*
X23299327Y-47034251D01*
X23299327Y-47034251D02*
X23231984Y-47101594D01*
X23231984Y-47101594D02*
X23164640Y-47236281D01*
X23164640Y-47236281D02*
X23164640Y-48044403D01*
X23164640Y-48044403D02*
X22726907Y-47606671D01*
X22592220Y-46529175D02*
X22120816Y-47000579D01*
X23029953Y-46428159D02*
X22693236Y-47101594D01*
X22693236Y-47101594D02*
X22255503Y-46663862D01*
X37159410Y-47016331D02*
X36654334Y-47521407D01*
X36654334Y-47521407D02*
X36586990Y-47656094D01*
X36586990Y-47656094D02*
X36586990Y-47790781D01*
X36586990Y-47790781D02*
X36654334Y-47925468D01*
X36654334Y-47925468D02*
X36721677Y-47992812D01*
X36789021Y-46780628D02*
X36789021Y-46713285D01*
X36789021Y-46713285D02*
X36755349Y-46612270D01*
X36755349Y-46612270D02*
X36586990Y-46443911D01*
X36586990Y-46443911D02*
X36485975Y-46410239D01*
X36485975Y-46410239D02*
X36418631Y-46410239D01*
X36418631Y-46410239D02*
X36317616Y-46443911D01*
X36317616Y-46443911D02*
X36250273Y-46511254D01*
X36250273Y-46511254D02*
X36182929Y-46645941D01*
X36182929Y-46645941D02*
X36182929Y-47454063D01*
X36182929Y-47454063D02*
X35745196Y-47016331D01*
X35812540Y-45669461D02*
X36149257Y-46006178D01*
X36149257Y-46006178D02*
X35846212Y-46376567D01*
X35846212Y-46376567D02*
X35846212Y-46309224D01*
X35846212Y-46309224D02*
X35812540Y-46208209D01*
X35812540Y-46208209D02*
X35644181Y-46039850D01*
X35644181Y-46039850D02*
X35543166Y-46006178D01*
X35543166Y-46006178D02*
X35475822Y-46006178D01*
X35475822Y-46006178D02*
X35374807Y-46039850D01*
X35374807Y-46039850D02*
X35206448Y-46208209D01*
X35206448Y-46208209D02*
X35172777Y-46309224D01*
X35172777Y-46309224D02*
X35172777Y-46376567D01*
X35172777Y-46376567D02*
X35206448Y-46477583D01*
X35206448Y-46477583D02*
X35374807Y-46645941D01*
X35374807Y-46645941D02*
X35475822Y-46679613D01*
X35475822Y-46679613D02*
X35543166Y-46679613D01*
X37004781Y-59476895D02*
X37052401Y-59429276D01*
X37052401Y-59429276D02*
X37100020Y-59286419D01*
X37100020Y-59286419D02*
X37100020Y-59191181D01*
X37100020Y-59191181D02*
X37052401Y-59048324D01*
X37052401Y-59048324D02*
X36957162Y-58953086D01*
X36957162Y-58953086D02*
X36861924Y-58905467D01*
X36861924Y-58905467D02*
X36671448Y-58857848D01*
X36671448Y-58857848D02*
X36528591Y-58857848D01*
X36528591Y-58857848D02*
X36338115Y-58905467D01*
X36338115Y-58905467D02*
X36242877Y-58953086D01*
X36242877Y-58953086D02*
X36147639Y-59048324D01*
X36147639Y-59048324D02*
X36100020Y-59191181D01*
X36100020Y-59191181D02*
X36100020Y-59286419D01*
X36100020Y-59286419D02*
X36147639Y-59429276D01*
X36147639Y-59429276D02*
X36195258Y-59476895D01*
X37100020Y-60429276D02*
X37100020Y-59857848D01*
X37100020Y-60143562D02*
X36100020Y-60143562D01*
X36100020Y-60143562D02*
X36242877Y-60048324D01*
X36242877Y-60048324D02*
X36338115Y-59953086D01*
X36338115Y-59953086D02*
X36385734Y-59857848D01*
X37100020Y-60905467D02*
X37100020Y-61095943D01*
X37100020Y-61095943D02*
X37052401Y-61191181D01*
X37052401Y-61191181D02*
X37004781Y-61238800D01*
X37004781Y-61238800D02*
X36861924Y-61334038D01*
X36861924Y-61334038D02*
X36671448Y-61381657D01*
X36671448Y-61381657D02*
X36290496Y-61381657D01*
X36290496Y-61381657D02*
X36195258Y-61334038D01*
X36195258Y-61334038D02*
X36147639Y-61286419D01*
X36147639Y-61286419D02*
X36100020Y-61191181D01*
X36100020Y-61191181D02*
X36100020Y-61000705D01*
X36100020Y-61000705D02*
X36147639Y-60905467D01*
X36147639Y-60905467D02*
X36195258Y-60857848D01*
X36195258Y-60857848D02*
X36290496Y-60810229D01*
X36290496Y-60810229D02*
X36528591Y-60810229D01*
X36528591Y-60810229D02*
X36623829Y-60857848D01*
X36623829Y-60857848D02*
X36671448Y-60905467D01*
X36671448Y-60905467D02*
X36719067Y-61000705D01*
X36719067Y-61000705D02*
X36719067Y-61191181D01*
X36719067Y-61191181D02*
X36671448Y-61286419D01*
X36671448Y-61286419D02*
X36623829Y-61334038D01*
X36623829Y-61334038D02*
X36528591Y-61381657D01*
X29826867Y-73147572D02*
X30160200Y-72671381D01*
X30398295Y-73147572D02*
X30398295Y-72147572D01*
X30398295Y-72147572D02*
X30017343Y-72147572D01*
X30017343Y-72147572D02*
X29922105Y-72195191D01*
X29922105Y-72195191D02*
X29874486Y-72242810D01*
X29874486Y-72242810D02*
X29826867Y-72338048D01*
X29826867Y-72338048D02*
X29826867Y-72480905D01*
X29826867Y-72480905D02*
X29874486Y-72576143D01*
X29874486Y-72576143D02*
X29922105Y-72623762D01*
X29922105Y-72623762D02*
X30017343Y-72671381D01*
X30017343Y-72671381D02*
X30398295Y-72671381D01*
X29445914Y-72242810D02*
X29398295Y-72195191D01*
X29398295Y-72195191D02*
X29303057Y-72147572D01*
X29303057Y-72147572D02*
X29064962Y-72147572D01*
X29064962Y-72147572D02*
X28969724Y-72195191D01*
X28969724Y-72195191D02*
X28922105Y-72242810D01*
X28922105Y-72242810D02*
X28874486Y-72338048D01*
X28874486Y-72338048D02*
X28874486Y-72433286D01*
X28874486Y-72433286D02*
X28922105Y-72576143D01*
X28922105Y-72576143D02*
X29493533Y-73147572D01*
X29493533Y-73147572D02*
X28874486Y-73147572D01*
X57972970Y-67203385D02*
X58040314Y-67203385D01*
X58040314Y-67203385D02*
X58175001Y-67136041D01*
X58175001Y-67136041D02*
X58242344Y-67068698D01*
X58242344Y-67068698D02*
X58309688Y-66934011D01*
X58309688Y-66934011D02*
X58309688Y-66799324D01*
X58309688Y-66799324D02*
X58276016Y-66698309D01*
X58276016Y-66698309D02*
X58175001Y-66529950D01*
X58175001Y-66529950D02*
X58073986Y-66428935D01*
X58073986Y-66428935D02*
X57905627Y-66327919D01*
X57905627Y-66327919D02*
X57804612Y-66294248D01*
X57804612Y-66294248D02*
X57669925Y-66294248D01*
X57669925Y-66294248D02*
X57535238Y-66361591D01*
X57535238Y-66361591D02*
X57467894Y-66428935D01*
X57467894Y-66428935D02*
X57400551Y-66563622D01*
X57400551Y-66563622D02*
X57400551Y-66630965D01*
X57366879Y-67944163D02*
X57770940Y-67540102D01*
X57568909Y-67742133D02*
X56861803Y-67035026D01*
X56861803Y-67035026D02*
X57030161Y-67068698D01*
X57030161Y-67068698D02*
X57164848Y-67068698D01*
X57164848Y-67068698D02*
X57265864Y-67035026D01*
X56289383Y-68078851D02*
X56760787Y-68550255D01*
X56188367Y-67641118D02*
X56861802Y-67977835D01*
X56861802Y-67977835D02*
X56424070Y-68415568D01*
X22841867Y-60066572D02*
X23175200Y-59590381D01*
X23413295Y-60066572D02*
X23413295Y-59066572D01*
X23413295Y-59066572D02*
X23032343Y-59066572D01*
X23032343Y-59066572D02*
X22937105Y-59114191D01*
X22937105Y-59114191D02*
X22889486Y-59161810D01*
X22889486Y-59161810D02*
X22841867Y-59257048D01*
X22841867Y-59257048D02*
X22841867Y-59399905D01*
X22841867Y-59399905D02*
X22889486Y-59495143D01*
X22889486Y-59495143D02*
X22937105Y-59542762D01*
X22937105Y-59542762D02*
X23032343Y-59590381D01*
X23032343Y-59590381D02*
X23413295Y-59590381D01*
X21984724Y-59399905D02*
X21984724Y-60066572D01*
X22222819Y-59018953D02*
X22460914Y-59733238D01*
X22460914Y-59733238D02*
X21841867Y-59733238D01*
X71609867Y-73909572D02*
X71943200Y-73433381D01*
X72181295Y-73909572D02*
X72181295Y-72909572D01*
X72181295Y-72909572D02*
X71800343Y-72909572D01*
X71800343Y-72909572D02*
X71705105Y-72957191D01*
X71705105Y-72957191D02*
X71657486Y-73004810D01*
X71657486Y-73004810D02*
X71609867Y-73100048D01*
X71609867Y-73100048D02*
X71609867Y-73242905D01*
X71609867Y-73242905D02*
X71657486Y-73338143D01*
X71657486Y-73338143D02*
X71705105Y-73385762D01*
X71705105Y-73385762D02*
X71800343Y-73433381D01*
X71800343Y-73433381D02*
X72181295Y-73433381D01*
X70705105Y-72909572D02*
X71181295Y-72909572D01*
X71181295Y-72909572D02*
X71228914Y-73385762D01*
X71228914Y-73385762D02*
X71181295Y-73338143D01*
X71181295Y-73338143D02*
X71086057Y-73290524D01*
X71086057Y-73290524D02*
X70847962Y-73290524D01*
X70847962Y-73290524D02*
X70752724Y-73338143D01*
X70752724Y-73338143D02*
X70705105Y-73385762D01*
X70705105Y-73385762D02*
X70657486Y-73481000D01*
X70657486Y-73481000D02*
X70657486Y-73719095D01*
X70657486Y-73719095D02*
X70705105Y-73814333D01*
X70705105Y-73814333D02*
X70752724Y-73861953D01*
X70752724Y-73861953D02*
X70847962Y-73909572D01*
X70847962Y-73909572D02*
X71086057Y-73909572D01*
X71086057Y-73909572D02*
X71181295Y-73861953D01*
X71181295Y-73861953D02*
X71228914Y-73814333D01*
X31573058Y-61876333D02*
X31620677Y-61923953D01*
X31620677Y-61923953D02*
X31763534Y-61971572D01*
X31763534Y-61971572D02*
X31858772Y-61971572D01*
X31858772Y-61971572D02*
X32001629Y-61923953D01*
X32001629Y-61923953D02*
X32096867Y-61828714D01*
X32096867Y-61828714D02*
X32144486Y-61733476D01*
X32144486Y-61733476D02*
X32192105Y-61543000D01*
X32192105Y-61543000D02*
X32192105Y-61400143D01*
X32192105Y-61400143D02*
X32144486Y-61209667D01*
X32144486Y-61209667D02*
X32096867Y-61114429D01*
X32096867Y-61114429D02*
X32001629Y-61019191D01*
X32001629Y-61019191D02*
X31858772Y-60971572D01*
X31858772Y-60971572D02*
X31763534Y-60971572D01*
X31763534Y-60971572D02*
X31620677Y-61019191D01*
X31620677Y-61019191D02*
X31573058Y-61066810D01*
X31192105Y-61066810D02*
X31144486Y-61019191D01*
X31144486Y-61019191D02*
X31049248Y-60971572D01*
X31049248Y-60971572D02*
X30811153Y-60971572D01*
X30811153Y-60971572D02*
X30715915Y-61019191D01*
X30715915Y-61019191D02*
X30668296Y-61066810D01*
X30668296Y-61066810D02*
X30620677Y-61162048D01*
X30620677Y-61162048D02*
X30620677Y-61257286D01*
X30620677Y-61257286D02*
X30668296Y-61400143D01*
X30668296Y-61400143D02*
X31239724Y-61971572D01*
X31239724Y-61971572D02*
X30620677Y-61971572D01*
X30239724Y-61066810D02*
X30192105Y-61019191D01*
X30192105Y-61019191D02*
X30096867Y-60971572D01*
X30096867Y-60971572D02*
X29858772Y-60971572D01*
X29858772Y-60971572D02*
X29763534Y-61019191D01*
X29763534Y-61019191D02*
X29715915Y-61066810D01*
X29715915Y-61066810D02*
X29668296Y-61162048D01*
X29668296Y-61162048D02*
X29668296Y-61257286D01*
X29668296Y-61257286D02*
X29715915Y-61400143D01*
X29715915Y-61400143D02*
X30287343Y-61971572D01*
X30287343Y-61971572D02*
X29668296Y-61971572D01*
X54072721Y-72373634D02*
X54140065Y-72373634D01*
X54140065Y-72373634D02*
X54274752Y-72306290D01*
X54274752Y-72306290D02*
X54342095Y-72238947D01*
X54342095Y-72238947D02*
X54409439Y-72104260D01*
X54409439Y-72104260D02*
X54409439Y-71969573D01*
X54409439Y-71969573D02*
X54375767Y-71868558D01*
X54375767Y-71868558D02*
X54274752Y-71700199D01*
X54274752Y-71700199D02*
X54173737Y-71599184D01*
X54173737Y-71599184D02*
X54005378Y-71498168D01*
X54005378Y-71498168D02*
X53904363Y-71464497D01*
X53904363Y-71464497D02*
X53769676Y-71464497D01*
X53769676Y-71464497D02*
X53634989Y-71531840D01*
X53634989Y-71531840D02*
X53567645Y-71599184D01*
X53567645Y-71599184D02*
X53500302Y-71733871D01*
X53500302Y-71733871D02*
X53500302Y-71801214D01*
X53466630Y-73114412D02*
X53870691Y-72710351D01*
X53668660Y-72912382D02*
X52961554Y-72205275D01*
X52961554Y-72205275D02*
X53129912Y-72238947D01*
X53129912Y-72238947D02*
X53264599Y-72238947D01*
X53264599Y-72238947D02*
X53365615Y-72205275D01*
X52557492Y-72744023D02*
X52490149Y-72744023D01*
X52490149Y-72744023D02*
X52389134Y-72777695D01*
X52389134Y-72777695D02*
X52220775Y-72946054D01*
X52220775Y-72946054D02*
X52187103Y-73047069D01*
X52187103Y-73047069D02*
X52187103Y-73114413D01*
X52187103Y-73114413D02*
X52220775Y-73215428D01*
X52220775Y-73215428D02*
X52288118Y-73282771D01*
X52288118Y-73282771D02*
X52422805Y-73350115D01*
X52422805Y-73350115D02*
X53230927Y-73350115D01*
X53230927Y-73350115D02*
X52793195Y-73787848D01*
X40509981Y-69443894D02*
X40557601Y-69396275D01*
X40557601Y-69396275D02*
X40605220Y-69253418D01*
X40605220Y-69253418D02*
X40605220Y-69158180D01*
X40605220Y-69158180D02*
X40557601Y-69015323D01*
X40557601Y-69015323D02*
X40462362Y-68920085D01*
X40462362Y-68920085D02*
X40367124Y-68872466D01*
X40367124Y-68872466D02*
X40176648Y-68824847D01*
X40176648Y-68824847D02*
X40033791Y-68824847D01*
X40033791Y-68824847D02*
X39843315Y-68872466D01*
X39843315Y-68872466D02*
X39748077Y-68920085D01*
X39748077Y-68920085D02*
X39652839Y-69015323D01*
X39652839Y-69015323D02*
X39605220Y-69158180D01*
X39605220Y-69158180D02*
X39605220Y-69253418D01*
X39605220Y-69253418D02*
X39652839Y-69396275D01*
X39652839Y-69396275D02*
X39700458Y-69443894D01*
X39700458Y-69824847D02*
X39652839Y-69872466D01*
X39652839Y-69872466D02*
X39605220Y-69967704D01*
X39605220Y-69967704D02*
X39605220Y-70205799D01*
X39605220Y-70205799D02*
X39652839Y-70301037D01*
X39652839Y-70301037D02*
X39700458Y-70348656D01*
X39700458Y-70348656D02*
X39795696Y-70396275D01*
X39795696Y-70396275D02*
X39890934Y-70396275D01*
X39890934Y-70396275D02*
X40033791Y-70348656D01*
X40033791Y-70348656D02*
X40605220Y-69777228D01*
X40605220Y-69777228D02*
X40605220Y-70396275D01*
X39605220Y-70729609D02*
X39605220Y-71348656D01*
X39605220Y-71348656D02*
X39986172Y-71015323D01*
X39986172Y-71015323D02*
X39986172Y-71158180D01*
X39986172Y-71158180D02*
X40033791Y-71253418D01*
X40033791Y-71253418D02*
X40081410Y-71301037D01*
X40081410Y-71301037D02*
X40176648Y-71348656D01*
X40176648Y-71348656D02*
X40414743Y-71348656D01*
X40414743Y-71348656D02*
X40509981Y-71301037D01*
X40509981Y-71301037D02*
X40557601Y-71253418D01*
X40557601Y-71253418D02*
X40605220Y-71158180D01*
X40605220Y-71158180D02*
X40605220Y-70872466D01*
X40605220Y-70872466D02*
X40557601Y-70777228D01*
X40557601Y-70777228D02*
X40509981Y-70729609D01*
X33232367Y-73307572D02*
X33565700Y-72831381D01*
X33803795Y-73307572D02*
X33803795Y-72307572D01*
X33803795Y-72307572D02*
X33422843Y-72307572D01*
X33422843Y-72307572D02*
X33327605Y-72355191D01*
X33327605Y-72355191D02*
X33279986Y-72402810D01*
X33279986Y-72402810D02*
X33232367Y-72498048D01*
X33232367Y-72498048D02*
X33232367Y-72640905D01*
X33232367Y-72640905D02*
X33279986Y-72736143D01*
X33279986Y-72736143D02*
X33327605Y-72783762D01*
X33327605Y-72783762D02*
X33422843Y-72831381D01*
X33422843Y-72831381D02*
X33803795Y-72831381D01*
X32899033Y-72307572D02*
X32279986Y-72307572D01*
X32279986Y-72307572D02*
X32613319Y-72688524D01*
X32613319Y-72688524D02*
X32470462Y-72688524D01*
X32470462Y-72688524D02*
X32375224Y-72736143D01*
X32375224Y-72736143D02*
X32327605Y-72783762D01*
X32327605Y-72783762D02*
X32279986Y-72879000D01*
X32279986Y-72879000D02*
X32279986Y-73117095D01*
X32279986Y-73117095D02*
X32327605Y-73212333D01*
X32327605Y-73212333D02*
X32375224Y-73259953D01*
X32375224Y-73259953D02*
X32470462Y-73307572D01*
X32470462Y-73307572D02*
X32756176Y-73307572D01*
X32756176Y-73307572D02*
X32851414Y-73259953D01*
X32851414Y-73259953D02*
X32899033Y-73212333D01*
X44338507Y-67432583D02*
X44338507Y-67499927D01*
X44338507Y-67499927D02*
X44405851Y-67634614D01*
X44405851Y-67634614D02*
X44473194Y-67701957D01*
X44473194Y-67701957D02*
X44607881Y-67769301D01*
X44607881Y-67769301D02*
X44742568Y-67769301D01*
X44742568Y-67769301D02*
X44843583Y-67735629D01*
X44843583Y-67735629D02*
X45011942Y-67634614D01*
X45011942Y-67634614D02*
X45112957Y-67533599D01*
X45112957Y-67533599D02*
X45213973Y-67365240D01*
X45213973Y-67365240D02*
X45247644Y-67264225D01*
X45247644Y-67264225D02*
X45247644Y-67129538D01*
X45247644Y-67129538D02*
X45180301Y-66994851D01*
X45180301Y-66994851D02*
X45112957Y-66927507D01*
X45112957Y-66927507D02*
X44978270Y-66860164D01*
X44978270Y-66860164D02*
X44910927Y-66860164D01*
X43597729Y-66826492D02*
X44001790Y-67230553D01*
X43799759Y-67028522D02*
X44506866Y-66321416D01*
X44506866Y-66321416D02*
X44473194Y-66489774D01*
X44473194Y-66489774D02*
X44473194Y-66624461D01*
X44473194Y-66624461D02*
X44506866Y-66725477D01*
X43597728Y-66018370D02*
X43698744Y-66052041D01*
X43698744Y-66052041D02*
X43766087Y-66052041D01*
X43766087Y-66052041D02*
X43867102Y-66018370D01*
X43867102Y-66018370D02*
X43900774Y-65984698D01*
X43900774Y-65984698D02*
X43934446Y-65883683D01*
X43934446Y-65883683D02*
X43934446Y-65816339D01*
X43934446Y-65816339D02*
X43900774Y-65715324D01*
X43900774Y-65715324D02*
X43766087Y-65580637D01*
X43766087Y-65580637D02*
X43665072Y-65546965D01*
X43665072Y-65546965D02*
X43597728Y-65546965D01*
X43597728Y-65546965D02*
X43496713Y-65580637D01*
X43496713Y-65580637D02*
X43463041Y-65614309D01*
X43463041Y-65614309D02*
X43429370Y-65715324D01*
X43429370Y-65715324D02*
X43429370Y-65782667D01*
X43429370Y-65782667D02*
X43463041Y-65883683D01*
X43463041Y-65883683D02*
X43597728Y-66018370D01*
X43597728Y-66018370D02*
X43631400Y-66119385D01*
X43631400Y-66119385D02*
X43631400Y-66186728D01*
X43631400Y-66186728D02*
X43597728Y-66287744D01*
X43597728Y-66287744D02*
X43463041Y-66422431D01*
X43463041Y-66422431D02*
X43362026Y-66456102D01*
X43362026Y-66456102D02*
X43294683Y-66456102D01*
X43294683Y-66456102D02*
X43193667Y-66422431D01*
X43193667Y-66422431D02*
X43058980Y-66287744D01*
X43058980Y-66287744D02*
X43025309Y-66186728D01*
X43025309Y-66186728D02*
X43025309Y-66119385D01*
X43025309Y-66119385D02*
X43058980Y-66018370D01*
X43058980Y-66018370D02*
X43193667Y-65883683D01*
X43193667Y-65883683D02*
X43294683Y-65850011D01*
X43294683Y-65850011D02*
X43362026Y-65850011D01*
X43362026Y-65850011D02*
X43463041Y-65883683D01*
X24361450Y-58113998D02*
X23789030Y-58686418D01*
X23789030Y-58686418D02*
X23688015Y-58720090D01*
X23688015Y-58720090D02*
X23620671Y-58720090D01*
X23620671Y-58720090D02*
X23519656Y-58686418D01*
X23519656Y-58686418D02*
X23384969Y-58551731D01*
X23384969Y-58551731D02*
X23351297Y-58450716D01*
X23351297Y-58450716D02*
X23351297Y-58383372D01*
X23351297Y-58383372D02*
X23384969Y-58282357D01*
X23384969Y-58282357D02*
X23957389Y-57709937D01*
X23688015Y-57440563D02*
X23250282Y-57002831D01*
X23250282Y-57002831D02*
X23216610Y-57507907D01*
X23216610Y-57507907D02*
X23115595Y-57406892D01*
X23115595Y-57406892D02*
X23014580Y-57373220D01*
X23014580Y-57373220D02*
X22947236Y-57373220D01*
X22947236Y-57373220D02*
X22846221Y-57406892D01*
X22846221Y-57406892D02*
X22677862Y-57575250D01*
X22677862Y-57575250D02*
X22644190Y-57676266D01*
X22644190Y-57676266D02*
X22644190Y-57743609D01*
X22644190Y-57743609D02*
X22677862Y-57844624D01*
X22677862Y-57844624D02*
X22879893Y-58046655D01*
X22879893Y-58046655D02*
X22980908Y-58080327D01*
X22980908Y-58080327D02*
X23048251Y-58080327D01*
X34077431Y-54077446D02*
X34144775Y-54077446D01*
X34144775Y-54077446D02*
X34279462Y-54010102D01*
X34279462Y-54010102D02*
X34346805Y-53942759D01*
X34346805Y-53942759D02*
X34414149Y-53808072D01*
X34414149Y-53808072D02*
X34414149Y-53673385D01*
X34414149Y-53673385D02*
X34380477Y-53572370D01*
X34380477Y-53572370D02*
X34279462Y-53404011D01*
X34279462Y-53404011D02*
X34178447Y-53302996D01*
X34178447Y-53302996D02*
X34010088Y-53201980D01*
X34010088Y-53201980D02*
X33909073Y-53168309D01*
X33909073Y-53168309D02*
X33774386Y-53168309D01*
X33774386Y-53168309D02*
X33639699Y-53235652D01*
X33639699Y-53235652D02*
X33572355Y-53302996D01*
X33572355Y-53302996D02*
X33505012Y-53437683D01*
X33505012Y-53437683D02*
X33505012Y-53505026D01*
X33235638Y-53774400D02*
X33168294Y-53774400D01*
X33168294Y-53774400D02*
X33067279Y-53808072D01*
X33067279Y-53808072D02*
X32898920Y-53976431D01*
X32898920Y-53976431D02*
X32865248Y-54077446D01*
X32865248Y-54077446D02*
X32865248Y-54144789D01*
X32865248Y-54144789D02*
X32898920Y-54245805D01*
X32898920Y-54245805D02*
X32966264Y-54313148D01*
X32966264Y-54313148D02*
X33100951Y-54380492D01*
X33100951Y-54380492D02*
X33909073Y-54380492D01*
X33909073Y-54380492D02*
X33471340Y-54818224D01*
X32326500Y-54548851D02*
X32259157Y-54616194D01*
X32259157Y-54616194D02*
X32225485Y-54717209D01*
X32225485Y-54717209D02*
X32225485Y-54784553D01*
X32225485Y-54784553D02*
X32259157Y-54885568D01*
X32259157Y-54885568D02*
X32360172Y-55053927D01*
X32360172Y-55053927D02*
X32528531Y-55222286D01*
X32528531Y-55222286D02*
X32696889Y-55323301D01*
X32696889Y-55323301D02*
X32797905Y-55356973D01*
X32797905Y-55356973D02*
X32865248Y-55356973D01*
X32865248Y-55356973D02*
X32966263Y-55323301D01*
X32966263Y-55323301D02*
X33033607Y-55255957D01*
X33033607Y-55255957D02*
X33067279Y-55154942D01*
X33067279Y-55154942D02*
X33067279Y-55087599D01*
X33067279Y-55087599D02*
X33033607Y-54986583D01*
X33033607Y-54986583D02*
X32932592Y-54818225D01*
X32932592Y-54818225D02*
X32764233Y-54649866D01*
X32764233Y-54649866D02*
X32595874Y-54548851D01*
X32595874Y-54548851D02*
X32494859Y-54515179D01*
X32494859Y-54515179D02*
X32427515Y-54515179D01*
X32427515Y-54515179D02*
X32326500Y-54548851D01*
X50770721Y-58911634D02*
X50838065Y-58911634D01*
X50838065Y-58911634D02*
X50972752Y-58844290D01*
X50972752Y-58844290D02*
X51040095Y-58776947D01*
X51040095Y-58776947D02*
X51107439Y-58642260D01*
X51107439Y-58642260D02*
X51107439Y-58507573D01*
X51107439Y-58507573D02*
X51073767Y-58406558D01*
X51073767Y-58406558D02*
X50972752Y-58238199D01*
X50972752Y-58238199D02*
X50871737Y-58137184D01*
X50871737Y-58137184D02*
X50703378Y-58036168D01*
X50703378Y-58036168D02*
X50602363Y-58002497D01*
X50602363Y-58002497D02*
X50467676Y-58002497D01*
X50467676Y-58002497D02*
X50332989Y-58069840D01*
X50332989Y-58069840D02*
X50265645Y-58137184D01*
X50265645Y-58137184D02*
X50198302Y-58271871D01*
X50198302Y-58271871D02*
X50198302Y-58339214D01*
X49928928Y-58608588D02*
X49861584Y-58608588D01*
X49861584Y-58608588D02*
X49760569Y-58642260D01*
X49760569Y-58642260D02*
X49592210Y-58810619D01*
X49592210Y-58810619D02*
X49558538Y-58911634D01*
X49558538Y-58911634D02*
X49558538Y-58978977D01*
X49558538Y-58978977D02*
X49592210Y-59079993D01*
X49592210Y-59079993D02*
X49659554Y-59147336D01*
X49659554Y-59147336D02*
X49794241Y-59214680D01*
X49794241Y-59214680D02*
X50602363Y-59214680D01*
X50602363Y-59214680D02*
X50164630Y-59652412D01*
X49087134Y-59787100D02*
X49558538Y-60258504D01*
X48986118Y-59349367D02*
X49659553Y-59686084D01*
X49659553Y-59686084D02*
X49221821Y-60123817D01*
X47005507Y-69972583D02*
X47005507Y-70039927D01*
X47005507Y-70039927D02*
X47072851Y-70174614D01*
X47072851Y-70174614D02*
X47140194Y-70241957D01*
X47140194Y-70241957D02*
X47274881Y-70309301D01*
X47274881Y-70309301D02*
X47409568Y-70309301D01*
X47409568Y-70309301D02*
X47510583Y-70275629D01*
X47510583Y-70275629D02*
X47678942Y-70174614D01*
X47678942Y-70174614D02*
X47779957Y-70073599D01*
X47779957Y-70073599D02*
X47880973Y-69905240D01*
X47880973Y-69905240D02*
X47914644Y-69804225D01*
X47914644Y-69804225D02*
X47914644Y-69669538D01*
X47914644Y-69669538D02*
X47847301Y-69534851D01*
X47847301Y-69534851D02*
X47779957Y-69467507D01*
X47779957Y-69467507D02*
X47645270Y-69400164D01*
X47645270Y-69400164D02*
X47577927Y-69400164D01*
X47308553Y-69130790D02*
X47308553Y-69063446D01*
X47308553Y-69063446D02*
X47274881Y-68962431D01*
X47274881Y-68962431D02*
X47106522Y-68794072D01*
X47106522Y-68794072D02*
X47005507Y-68760400D01*
X47005507Y-68760400D02*
X46938164Y-68760400D01*
X46938164Y-68760400D02*
X46837148Y-68794072D01*
X46837148Y-68794072D02*
X46769805Y-68861416D01*
X46769805Y-68861416D02*
X46702461Y-68996103D01*
X46702461Y-68996103D02*
X46702461Y-69804225D01*
X46702461Y-69804225D02*
X46264729Y-69366492D01*
X46332072Y-68019622D02*
X46668790Y-68356339D01*
X46668790Y-68356339D02*
X46365744Y-68726728D01*
X46365744Y-68726728D02*
X46365744Y-68659385D01*
X46365744Y-68659385D02*
X46332072Y-68558370D01*
X46332072Y-68558370D02*
X46163713Y-68390011D01*
X46163713Y-68390011D02*
X46062698Y-68356339D01*
X46062698Y-68356339D02*
X45995354Y-68356339D01*
X45995354Y-68356339D02*
X45894339Y-68390011D01*
X45894339Y-68390011D02*
X45725980Y-68558370D01*
X45725980Y-68558370D02*
X45692309Y-68659385D01*
X45692309Y-68659385D02*
X45692309Y-68726728D01*
X45692309Y-68726728D02*
X45725980Y-68827744D01*
X45725980Y-68827744D02*
X45894339Y-68996102D01*
X45894339Y-68996102D02*
X45995354Y-69029774D01*
X45995354Y-69029774D02*
X46062698Y-69029774D01*
D11*
%TO.C,R1*%
X29405477Y-73440253D02*
X29914925Y-73440253D01*
X29405477Y-74485253D02*
X29914925Y-74485253D01*
%TO.C,C13*%
X53999962Y-62765961D02*
X53630495Y-62396494D01*
X55039409Y-61726514D02*
X54669942Y-61357047D01*
%TO.C,J26*%
X50681723Y-45811179D02*
X48843246Y-43972702D01*
X52520201Y-43972702D02*
X50681723Y-45811179D01*
X52520201Y-47649657D02*
X51579749Y-46709205D01*
X53460653Y-46709205D02*
X52520201Y-47649657D01*
X54358679Y-45811179D02*
X52520201Y-43972702D01*
X63296508Y-29519439D02*
X48843246Y-43972702D01*
X66973464Y-33196394D02*
X54358679Y-45811179D01*
X66973464Y-33196394D02*
X63296508Y-29519439D01*
%TO.C,C21*%
X22986744Y-52291763D02*
X23356211Y-51922296D01*
X24026191Y-53331210D02*
X24395658Y-52961743D01*
%TO.C,C15*%
X43712962Y-62172545D02*
X43343495Y-62542012D01*
X44752409Y-63211992D02*
X44382942Y-63581459D01*
%TO.C,U5*%
X36777201Y-62932753D02*
X33017201Y-62932752D01*
X36777201Y-64192752D02*
X36777201Y-62932753D01*
X36777201Y-68492754D02*
X36777201Y-69752753D01*
X36777201Y-69752753D02*
X33017201Y-69752754D01*
X31977201Y-69982753D02*
X31497201Y-69982753D01*
X31737201Y-69652753D01*
X31977201Y-69982753D01*
G36*
X31977201Y-69982753D02*
G01*
X31497201Y-69982753D01*
X31737201Y-69652753D01*
X31977201Y-69982753D01*
G37*
%TO.C,J10_AD2*%
X21980201Y-76442753D02*
X21980201Y-81642753D01*
X21980201Y-76442753D02*
X77920200Y-76442753D01*
X21980201Y-81642753D02*
X80520201Y-81642753D01*
X77920200Y-76442753D02*
X77920201Y-79042753D01*
X77920201Y-79042753D02*
X80520201Y-79042754D01*
X79190201Y-76442753D02*
X80520201Y-76442753D01*
X80520201Y-76442753D02*
X80520201Y-77772753D01*
X80520201Y-79042754D02*
X80520201Y-81642753D01*
%TO.C,C17*%
X73585211Y-69575296D02*
X73215744Y-69944763D01*
X74624658Y-70614743D02*
X74255191Y-70984210D01*
%TO.C,C16*%
X28417201Y-67874006D02*
X28417201Y-67351500D01*
X29887201Y-67874006D02*
X29887201Y-67351500D01*
%TO.C,J24*%
X23757723Y-45811179D02*
X21919246Y-43972702D01*
X25596201Y-43972702D02*
X23757723Y-45811179D01*
X25596201Y-47649657D02*
X24655749Y-46709205D01*
X26536653Y-46709205D02*
X25596201Y-47649657D01*
X27434679Y-45811179D02*
X25596201Y-43972702D01*
X36372508Y-29519439D02*
X21919246Y-43972702D01*
X40049464Y-33196394D02*
X27434679Y-45811179D01*
X40049464Y-33196394D02*
X36372508Y-29519439D01*
%TO.C,J25*%
X37219723Y-45811179D02*
X35381246Y-43972702D01*
X39058201Y-43972702D02*
X37219723Y-45811179D01*
X39058201Y-47649657D02*
X38117749Y-46709205D01*
X39998653Y-46709205D02*
X39058201Y-47649657D01*
X40896679Y-45811179D02*
X39058201Y-43972702D01*
X49834508Y-29519439D02*
X35381246Y-43972702D01*
X53511464Y-33196394D02*
X40896679Y-45811179D01*
X53511464Y-33196394D02*
X49834508Y-29519439D01*
%TO.C,C19*%
X33878201Y-60254006D02*
X33878201Y-59731500D01*
X35348201Y-60254006D02*
X35348201Y-59731500D01*
%TO.C,R2*%
X29405477Y-70900253D02*
X29914925Y-70900253D01*
X29405477Y-71945253D02*
X29914925Y-71945253D01*
%TO.C,C14*%
X55741211Y-65511296D02*
X55371744Y-65880763D01*
X56780658Y-66550743D02*
X56411191Y-66920210D01*
%TO.C,R4*%
X24731425Y-60486253D02*
X24221977Y-60486253D01*
X24731425Y-61531253D02*
X24221977Y-61531253D01*
%TO.C,R5*%
X74579425Y-72805253D02*
X74069977Y-72805253D01*
X74579425Y-73850253D02*
X74069977Y-73850253D01*
%TO.C,C22*%
X28417201Y-64318006D02*
X28417201Y-63795500D01*
X29887201Y-64318006D02*
X29887201Y-63795500D01*
%TO.C,C12*%
X51840962Y-70681545D02*
X51471495Y-71051012D01*
X52880409Y-71720992D02*
X52510942Y-72090459D01*
%TO.C,C23*%
X39796401Y-67173005D02*
X39796401Y-66650499D01*
X41266401Y-67173005D02*
X41266401Y-66650499D01*
%TO.C,R3*%
X33320425Y-70900253D02*
X32810977Y-70900253D01*
X33320425Y-71945253D02*
X32810977Y-71945253D01*
%TO.C,C18*%
X42200495Y-68511012D02*
X42569962Y-68141545D01*
X43239942Y-69550459D02*
X43609409Y-69180992D01*
%TO.C,U3*%
X26821541Y-59944561D02*
X24162819Y-57285840D01*
X27712495Y-59053607D02*
X26821541Y-59944561D01*
X30753055Y-56013047D02*
X31644009Y-55122093D01*
X31644009Y-55122093D02*
X28985288Y-52463371D01*
X23264794Y-56713083D02*
X22925382Y-56373672D01*
X23328433Y-56310032D01*
X23264794Y-56713083D01*
G36*
X23264794Y-56713083D02*
G01*
X22925382Y-56373672D01*
X23328433Y-56310032D01*
X23264794Y-56713083D01*
G37*
%TO.C,C20*%
X30685460Y-53294459D02*
X30315993Y-52924992D01*
X31724907Y-52255012D02*
X31355440Y-51885545D01*
%TO.C,C24*%
X48538962Y-57219545D02*
X48169495Y-57589012D01*
X49578409Y-58258992D02*
X49208942Y-58628459D01*
%TO.C,C25*%
X43851495Y-70035012D02*
X44220962Y-69665545D01*
X44890942Y-71074459D02*
X45260409Y-70704992D01*
%TD*%
M02*
