M48
; DRILL file {KiCad 8.0.4} date 2024-12-17T16:14:18+0700
; FORMAT={-:-/ absolute / inch / decimal}
; #@! TF.CreationDate,2024-12-17T16:14:18+07:00
; #@! TF.GenerationSoftware,Kicad,Pcbnew,8.0.4
; #@! TF.FileFunction,Plated,1,2,PTH
FMAT,2
INCH
; #@! TA.AperFunction,Plated,PTH,ViaDrill
T1C0.0118
; #@! TA.AperFunction,Plated,PTH,ComponentDrill
T2C0.0394
%
G90
G05
T1
X1.0077Y-2.0069
X1.0377Y-2.1789
X1.0677Y-2.1529
X1.1977Y-2.4619
X1.2037Y-2.3609
X1.2257Y-2.3329
X1.3067Y-1.6139
X1.3277Y-2.7025
X1.3577Y-2.0619
X1.3627Y-1.5719
X1.4627Y-1.0369
X1.5814Y-2.0982
X1.5977Y-1.0819
X1.6527Y-2.7869
X1.6727Y-2.8019
X1.7077Y-2.5019
X1.7127Y-2.2569
X1.7606Y-2.449
X1.7877Y-2.5719
X1.7927Y-2.7269
X1.8127Y-1.7169
X1.8152Y-2.3944
X1.8153Y-2.5125
X1.8277Y-2.7269
X1.8377Y-1.6919
X1.8627Y-2.3469
X1.874Y-2.9619
X1.8877Y-1.6919
X1.8877Y-1.7369
X1.8977Y-2.3069
X1.9134Y-2.8218
X1.9227Y-1.6069
X1.9506Y-2.254
X1.9677Y-2.9119
X1.9827Y-2.3519
X1.9969Y-2.7965
X2.0277Y-2.8369
X2.0577Y-2.7269
X2.0955Y-2.3677
X2.1179Y-2.4012
X2.1198Y-2.439
X2.1719Y-2.4552
X2.1948Y-2.6448
X2.2027Y-2.5069
X2.2227Y-2.2819
X2.2277Y-2.5319
X2.2477Y-2.5919
X2.3877Y-2.5784
X2.4097Y-2.6269
X2.4143Y-2.5286
X2.8097Y-2.9849
X2.8452Y-2.8219
X3.0002Y-2.7169
X3.0027Y-2.8719
T2
X0.9177Y-2.5119
X0.9177Y-2.6119
X0.9177Y-2.7119
X0.9177Y-2.8119
X0.9177Y-2.9119
X0.9177Y-3.0619
X0.9177Y-3.1619
X0.937Y-1.7312
X1.0077Y-1.6605
X1.0077Y-1.8019
X1.0177Y-2.5119
X1.0177Y-2.6119
X1.0177Y-2.7119
X1.0177Y-2.8119
X1.0177Y-2.9119
X1.0177Y-3.0619
X1.0177Y-3.1619
X1.0784Y-1.5898
X1.0784Y-1.7312
X1.1177Y-3.1619
X1.1177Y-3.0619
X1.1491Y-1.5191
X1.1491Y-1.6605
X1.1877Y-0.8419
X1.1877Y-0.9419
X1.2177Y-3.0619
X1.2177Y-3.1619
X1.2199Y-1.4484
X1.2199Y-1.5898
X1.2877Y-0.8419
X1.2877Y-0.9419
X1.2906Y-1.3777
X1.2906Y-1.5191
X1.3177Y-3.0619
X1.3177Y-3.1619
X1.3613Y-1.3069
X1.3613Y-1.4484
X1.3877Y-0.9419
X1.3877Y-0.8419
X1.4177Y-3.0619
X1.4177Y-3.1619
X1.432Y-1.2362
X1.432Y-1.3777
X1.467Y-1.7312
X1.4877Y-0.8419
X1.4877Y-0.9419
X1.5027Y-1.3069
X1.5177Y-3.0619
X1.5177Y-3.1619
X1.5377Y-1.6605
X1.5377Y-1.8019
X1.5877Y-0.8419
X1.5877Y-0.9419
X1.6084Y-1.5898
X1.6084Y-1.7312
X1.6177Y-3.1619
X1.6177Y-3.0619
X1.6791Y-1.5191
X1.6791Y-1.6605
X1.6877Y-0.8419
X1.6877Y-0.9419
X1.7177Y-3.0619
X1.7177Y-3.1619
X1.7499Y-1.4484
X1.7499Y-1.5898
X1.7877Y-0.8419
X1.7877Y-0.9419
X1.8177Y-3.0619
X1.8177Y-3.1619
X1.8206Y-1.3777
X1.8206Y-1.5191
X1.8877Y-0.8419
X1.8877Y-0.9419
X1.8913Y-1.3069
X1.8913Y-1.4484
X1.9177Y-3.0619
X1.9177Y-3.1619
X1.962Y-1.2362
X1.962Y-1.3777
X1.9877Y-0.8419
X1.9877Y-0.9419
X1.997Y-1.7312
X2.0177Y-3.1619
X2.0177Y-3.0619
X2.0327Y-1.3069
X2.0677Y-1.6605
X2.0677Y-1.8019
X2.0877Y-0.8419
X2.0877Y-0.9419
X2.1177Y-3.0619
X2.1177Y-3.1619
X2.1384Y-1.5898
X2.1384Y-1.7312
X2.1877Y-0.8419
X2.1877Y-0.9419
X2.2091Y-1.5191
X2.2091Y-1.6605
X2.2177Y-3.0619
X2.2177Y-3.1619
X2.2799Y-1.4484
X2.2799Y-1.5898
X2.2877Y-0.9419
X2.2877Y-0.8419
X2.3177Y-3.0619
X2.3177Y-3.1619
X2.3506Y-1.3777
X2.3506Y-1.5191
X2.3877Y-0.8419
X2.3877Y-0.9419
X2.4177Y-3.0619
X2.4177Y-3.1619
X2.4213Y-1.3069
X2.4213Y-1.4484
X2.492Y-1.2362
X2.492Y-1.3777
X2.5177Y-3.0619
X2.5177Y-3.1619
X2.5627Y-1.3069
X2.6177Y-3.0619
X2.6177Y-3.1619
X2.7177Y-3.0619
X2.7177Y-3.1619
X2.8177Y-3.0619
X2.8177Y-3.1619
X2.9177Y-3.1619
X2.9177Y-3.0619
X3.0177Y-3.0619
X3.0177Y-3.1619
X3.1177Y-3.0619
X3.1177Y-3.1619
M30
