%TF.GenerationSoftware,KiCad,Pcbnew,8.0.4*%
%TF.CreationDate,2024-12-17T16:17:43+07:00*%
%TF.ProjectId,cpld_mux,63706c64-5f6d-4757-982e-6b696361645f,rev?*%
%TF.SameCoordinates,Original*%
%TF.FileFunction,Copper,L2,Bot*%
%TF.FilePolarity,Positive*%
%FSLAX46Y46*%
G04 Gerber Fmt 4.6, Leading zero omitted, Abs format (unit mm)*
G04 Created by KiCad (PCBNEW 8.0.4) date 2024-12-17 16:17:43*
%MOMM*%
%LPD*%
G01*
G04 APERTURE LIST*
G04 Aperture macros list*
%AMRoundRect*
0 Rectangle with rounded corners*
0 $1 Rounding radius*
0 $2 $3 $4 $5 $6 $7 $8 $9 X,Y pos of 4 corners*
0 Add a 4 corners polygon primitive as box body*
4,1,4,$2,$3,$4,$5,$6,$7,$8,$9,$2,$3,0*
0 Add four circle primitives for the rounded corners*
1,1,$1+$1,$2,$3*
1,1,$1+$1,$4,$5*
1,1,$1+$1,$6,$7*
1,1,$1+$1,$8,$9*
0 Add four rect primitives between the rounded corners*
20,1,$1+$1,$2,$3,$4,$5,0*
20,1,$1+$1,$4,$5,$6,$7,0*
20,1,$1+$1,$6,$7,$8,$9,0*
20,1,$1+$1,$8,$9,$2,$3,0*%
%AMHorizOval*
0 Thick line with rounded ends*
0 $1 width*
0 $2 $3 position (X,Y) of the first rounded end (center of the circle)*
0 $4 $5 position (X,Y) of the second rounded end (center of the circle)*
0 Add line between two ends*
20,1,$1,$2,$3,$4,$5,0*
0 Add two circle primitives to create the rounded ends*
1,1,$1,$2,$3*
1,1,$1,$4,$5*%
%AMRotRect*
0 Rectangle, with rotation*
0 The origin of the aperture is its center*
0 $1 length*
0 $2 width*
0 $3 Rotation angle, in degrees counterclockwise*
0 Add horizontal line*
21,1,$1,$2,0,0,$3*%
G04 Aperture macros list end*
%TA.AperFunction,ComponentPad*%
%ADD10R,1.700000X1.700000*%
%TD*%
%TA.AperFunction,ComponentPad*%
%ADD11O,1.700000X1.700000*%
%TD*%
%TA.AperFunction,SMDPad,CuDef*%
%ADD12RoundRect,0.237500X0.250000X0.237500X-0.250000X0.237500X-0.250000X-0.237500X0.250000X-0.237500X0*%
%TD*%
%TA.AperFunction,SMDPad,CuDef*%
%ADD13RoundRect,0.250000X-0.512652X-0.159099X-0.159099X-0.512652X0.512652X0.159099X0.159099X0.512652X0*%
%TD*%
%TA.AperFunction,ComponentPad*%
%ADD14RotRect,1.700000X1.700000X315.000000*%
%TD*%
%TA.AperFunction,ComponentPad*%
%ADD15HorizOval,1.700000X0.000000X0.000000X0.000000X0.000000X0*%
%TD*%
%TA.AperFunction,SMDPad,CuDef*%
%ADD16RoundRect,0.250000X-0.159099X0.512652X-0.512652X0.159099X0.159099X-0.512652X0.512652X-0.159099X0*%
%TD*%
%TA.AperFunction,SMDPad,CuDef*%
%ADD17RoundRect,0.250000X0.159099X-0.512652X0.512652X-0.159099X-0.159099X0.512652X-0.512652X0.159099X0*%
%TD*%
%TA.AperFunction,SMDPad,CuDef*%
%ADD18RoundRect,0.375000X-0.625000X-0.375000X0.625000X-0.375000X0.625000X0.375000X-0.625000X0.375000X0*%
%TD*%
%TA.AperFunction,SMDPad,CuDef*%
%ADD19RoundRect,0.500000X-0.500000X-1.400000X0.500000X-1.400000X0.500000X1.400000X-0.500000X1.400000X0*%
%TD*%
%TA.AperFunction,SMDPad,CuDef*%
%ADD20RoundRect,0.250000X-0.475000X0.250000X-0.475000X-0.250000X0.475000X-0.250000X0.475000X0.250000X0*%
%TD*%
%TA.AperFunction,SMDPad,CuDef*%
%ADD21RoundRect,0.237500X-0.250000X-0.237500X0.250000X-0.237500X0.250000X0.237500X-0.250000X0.237500X0*%
%TD*%
%TA.AperFunction,SMDPad,CuDef*%
%ADD22RoundRect,0.375000X-0.707107X0.176777X0.176777X-0.707107X0.707107X-0.176777X-0.176777X0.707107X0*%
%TD*%
%TA.AperFunction,SMDPad,CuDef*%
%ADD23RoundRect,0.500000X-1.343503X-0.636396X-0.636396X-1.343503X1.343503X0.636396X0.636396X1.343503X0*%
%TD*%
%TA.AperFunction,ViaPad*%
%ADD24C,0.600000*%
%TD*%
%TA.AperFunction,Conductor*%
%ADD25C,0.500000*%
%TD*%
%TA.AperFunction,Conductor*%
%ADD26C,0.250000*%
%TD*%
%TA.AperFunction,Conductor*%
%ADD27C,0.200000*%
%TD*%
%TA.AperFunction,Conductor*%
%ADD28C,0.160000*%
%TD*%
%TA.AperFunction,Conductor*%
%ADD29C,0.400000*%
%TD*%
G04 APERTURE END LIST*
D10*
%TO.P,JTAG1,1,Pin_1*%
%TO.N,/cpld_mux/TCK*%
X25850201Y-73962753D03*
D11*
%TO.P,JTAG1,2,Pin_2*%
%TO.N,GND*%
X23310201Y-73962753D03*
%TO.P,JTAG1,3,Pin_3*%
%TO.N,/cpld_mux/TDO*%
X25850201Y-71422753D03*
%TO.P,JTAG1,4,Pin_4*%
%TO.N,/cpld_mux/3V3*%
X23310201Y-71422753D03*
%TO.P,JTAG1,5,Pin_5*%
%TO.N,/cpld_mux/TMS*%
X25850201Y-68882754D03*
%TO.P,JTAG1,6,Pin_6*%
%TO.N,unconnected-(JTAG1-Pin_6-Pad6)*%
X23310201Y-68882753D03*
%TO.P,JTAG1,7,Pin_7*%
%TO.N,unconnected-(JTAG1-Pin_7-Pad7)*%
X25850201Y-66342753D03*
%TO.P,JTAG1,8,Pin_8*%
%TO.N,unconnected-(JTAG1-Pin_8-Pad8)*%
X23310201Y-66342753D03*
%TO.P,JTAG1,9,Pin_9*%
%TO.N,/cpld_mux/TDI*%
X25850201Y-63802753D03*
%TO.P,JTAG1,10,Pin_10*%
%TO.N,GND*%
X23310201Y-63802753D03*
%TD*%
D10*
%TO.P,J27,1,Pin_1*%
%TO.N,/cpld_mux/CM_A_N5*%
X30168201Y-23924753D03*
D11*
%TO.P,J27,2,Pin_2*%
%TO.N,/cpld_mux/CM_B_N3*%
X30168201Y-21384753D03*
%TO.P,J27,3,Pin_3*%
%TO.N,/cpld_mux/CM_OE_M4*%
X32708201Y-23924753D03*
%TO.P,J27,4,Pin_4*%
%TO.N,/cpld_mux/CM_D_P4*%
X32708201Y-21384753D03*
%TO.P,J27,5,Pin_5*%
%TO.N,/cpld_mux/CM_CLK_M3*%
X35248200Y-23924753D03*
%TO.P,J27,6,Pin_6*%
%TO.N,/cpld_mux/CM_STB_N1*%
X35248201Y-21384753D03*
%TO.P,J27,7,Pin_7*%
%TO.N,/cpld_mux/D1_1*%
X37788201Y-23924753D03*
%TO.P,J27,8,Pin_8*%
%TO.N,/cpld_mux/D1_2*%
X37788201Y-21384753D03*
%TO.P,J27,9,Pin_9*%
%TO.N,/cpld_mux/D1_3*%
X40328201Y-23924753D03*
%TO.P,J27,10,Pin_10*%
%TO.N,/cpld_mux/D1_4*%
X40328201Y-21384753D03*
%TO.P,J27,11,Pin_11*%
%TO.N,/cpld_mux/D1_5*%
X42868201Y-23924753D03*
%TO.P,J27,12,Pin_12*%
%TO.N,/cpld_mux/D1_6*%
X42868201Y-21384753D03*
%TO.P,J27,13,Pin_13*%
%TO.N,GND*%
X45408201Y-23924753D03*
%TO.P,J27,14,Pin_14*%
%TO.N,/cpld_mux/D2_1*%
X45408201Y-21384753D03*
%TO.P,J27,15,Pin_15*%
%TO.N,/cpld_mux/D2_2*%
X47948202Y-23924753D03*
%TO.P,J27,16,Pin_16*%
%TO.N,/cpld_mux/D2_3*%
X47948201Y-21384753D03*
%TO.P,J27,17,Pin_17*%
%TO.N,/cpld_mux/D2_4*%
X50488201Y-23924753D03*
%TO.P,J27,18,Pin_18*%
%TO.N,/cpld_mux/D2_5*%
X50488201Y-21384753D03*
%TO.P,J27,19,Pin_19*%
%TO.N,/cpld_mux/D2_6*%
X53028201Y-23924753D03*
%TO.P,J27,20,Pin_20*%
%TO.N,GND*%
X53028201Y-21384753D03*
%TO.P,J27,21,Pin_21*%
%TO.N,/cpld_mux/D3_1*%
X55568201Y-23924753D03*
%TO.P,J27,22,Pin_22*%
%TO.N,/cpld_mux/D3_2*%
X55568201Y-21384753D03*
%TO.P,J27,23,Pin_23*%
%TO.N,/cpld_mux/D3_3*%
X58108200Y-23924753D03*
%TO.P,J27,24,Pin_24*%
%TO.N,/cpld_mux/D3_4*%
X58108201Y-21384753D03*
%TO.P,J27,25,Pin_25*%
%TO.N,/cpld_mux/D3_5*%
X60648201Y-23924753D03*
%TO.P,J27,26,Pin_26*%
%TO.N,/cpld_mux/D3_6*%
X60648201Y-21384753D03*
%TD*%
D12*
%TO.P,R1,1*%
%TO.N,GND*%
X30572701Y-73962753D03*
%TO.P,R1,2*%
%TO.N,/cpld_mux/TCK*%
X28747701Y-73962753D03*
%TD*%
D13*
%TO.P,C13,1*%
%TO.N,+3V3*%
X53663201Y-61389753D03*
%TO.P,C13,2*%
%TO.N,GND*%
X55006703Y-62733255D03*
%TD*%
D14*
%TO.P,J26,1,Pin_1*%
%TO.N,/cpld_mux/D3_1*%
X52520201Y-45768753D03*
D15*
%TO.P,J26,2,Pin_2*%
%TO.N,/cpld_mux/D3_2*%
X50724150Y-43972702D03*
%TO.P,J26,3,Pin_3*%
%TO.N,/cpld_mux/D3_3*%
X54316252Y-43972702D03*
%TO.P,J26,4,Pin_4*%
%TO.N,GND*%
X52520201Y-42176651D03*
%TO.P,J26,5,Pin_5*%
%TO.N,/cpld_mux/D3_4*%
X56112303Y-42176651D03*
%TO.P,J26,6,Pin_6*%
%TO.N,/cpld_mux/D3_5*%
X54316252Y-40380599D03*
%TO.P,J26,7,Pin_7*%
%TO.N,/cpld_mux/D3_6*%
X57908355Y-40380599D03*
%TO.P,J26,8,Pin_8*%
%TO.N,unconnected-(J26-Pin_8-Pad8)*%
X56112303Y-38584548D03*
%TO.P,J26,9,Pin_9*%
%TO.N,unconnected-(J26-Pin_9-Pad9)*%
X59704406Y-38584548D03*
%TO.P,J26,10,Pin_10*%
%TO.N,unconnected-(J26-Pin_10-Pad10)*%
X57908355Y-36788497D03*
%TO.P,J26,11,Pin_11*%
%TO.N,unconnected-(J26-Pin_11-Pad11)*%
X61500457Y-36788497D03*
%TO.P,J26,12,Pin_12*%
%TO.N,unconnected-(J26-Pin_12-Pad12)*%
X59704406Y-34992446D03*
%TO.P,J26,13,Pin_13*%
%TO.N,unconnected-(J26-Pin_13-Pad13)*%
X63296508Y-34992446D03*
%TO.P,J26,14,Pin_14*%
%TO.N,/cpld_mux/VCC_J16*%
X61500457Y-33196394D03*
%TO.P,J26,15,Pin_15*%
%TO.N,unconnected-(J26-Pin_15-Pad15)*%
X65092560Y-33196394D03*
%TO.P,J26,16,Pin_16*%
%TO.N,GND*%
X63296508Y-31400343D03*
%TD*%
D16*
%TO.P,C21,1*%
%TO.N,+3V3*%
X24362952Y-51955002D03*
%TO.P,C21,2*%
%TO.N,GND*%
X23019450Y-53298504D03*
%TD*%
D17*
%TO.P,C15,1*%
%TO.N,+3V3*%
X43376201Y-63548753D03*
%TO.P,C15,2*%
%TO.N,GND*%
X44719703Y-62205251D03*
%TD*%
D18*
%TO.P,U5,1,GND*%
%TO.N,GND*%
X31717201Y-68642753D03*
%TO.P,U5,2,VO*%
%TO.N,+1V8*%
X31717202Y-66342753D03*
D19*
X38017200Y-66342753D03*
D18*
%TO.P,U5,3,VI*%
%TO.N,/cpld_mux/VCC_5V*%
X31717201Y-64042753D03*
%TD*%
D10*
%TO.P,J10_AD2,1,Pin_1*%
%TO.N,/cpld_mux/VCC_5V*%
X79190201Y-77772753D03*
D11*
%TO.P,J10_AD2,2,Pin_2*%
X79190201Y-80312753D03*
%TO.P,J10_AD2,3,Pin_3*%
%TO.N,GND*%
X76650201Y-77772753D03*
%TO.P,J10_AD2,4,Pin_4*%
X76650201Y-80312753D03*
%TO.P,J10_AD2,5,Pin_5*%
%TO.N,/cpld_mux/ADC_B0*%
X74110202Y-77772753D03*
%TO.P,J10_AD2,6,Pin_6*%
%TO.N,/cpld_mux/ADC_CLK*%
X74110201Y-80312753D03*
%TO.P,J10_AD2,7,Pin_7*%
%TO.N,/cpld_mux/ADC_B2*%
X71570201Y-77772753D03*
%TO.P,J10_AD2,8,Pin_8*%
%TO.N,/cpld_mux/ADC_B1*%
X71570201Y-80312753D03*
%TO.P,J10_AD2,9,Pin_9*%
%TO.N,/cpld_mux/ADC_B4*%
X69030201Y-77772753D03*
%TO.P,J10_AD2,10,Pin_10*%
%TO.N,/cpld_mux/ADC_B3*%
X69030201Y-80312753D03*
%TO.P,J10_AD2,11,Pin_11*%
%TO.N,/cpld_mux/ADC_B6*%
X66490201Y-77772753D03*
%TO.P,J10_AD2,12,Pin_12*%
%TO.N,/cpld_mux/ADC_B5*%
X66490201Y-80312753D03*
%TO.P,J10_AD2,13,Pin_13*%
%TO.N,/cpld_mux/ADC_B8*%
X63950201Y-77772753D03*
%TO.P,J10_AD2,14,Pin_14*%
%TO.N,/cpld_mux/ADC_B7*%
X63950201Y-80312753D03*
%TO.P,J10_AD2,15,Pin_15*%
%TO.N,/cpld_mux/ADC_B10*%
X61410200Y-77772753D03*
%TO.P,J10_AD2,16,Pin_16*%
%TO.N,/cpld_mux/ADC_B9*%
X61410201Y-80312753D03*
%TO.P,J10_AD2,17,Pin_17*%
%TO.N,/cpld_mux/ADC_B12*%
X58870201Y-77772753D03*
%TO.P,J10_AD2,18,Pin_18*%
%TO.N,/cpld_mux/ADC_B11*%
X58870201Y-80312753D03*
%TO.P,J10_AD2,19,Pin_19*%
%TO.N,/cpld_mux/ADC_B14*%
X56330201Y-77772753D03*
%TO.P,J10_AD2,20,Pin_20*%
%TO.N,/cpld_mux/ADC_B13*%
X56330201Y-80312753D03*
%TO.P,J10_AD2,21,Pin_21*%
%TO.N,/cpld_mux/ADC_ORB*%
X53790201Y-77772753D03*
%TO.P,J10_AD2,22,Pin_22*%
%TO.N,/cpld_mux/ADC_B15*%
X53790201Y-80312753D03*
%TO.P,J10_AD2,23,Pin_23*%
%TO.N,/cpld_mux/ADC_DCA*%
X51250202Y-77772753D03*
%TO.P,J10_AD2,24,Pin_24*%
%TO.N,/cpld_mux/ADC_DCB*%
X51250201Y-80312753D03*
%TO.P,J10_AD2,25,Pin_25*%
%TO.N,/cpld_mux/ADC_A1*%
X48710201Y-77772753D03*
%TO.P,J10_AD2,26,Pin_26*%
%TO.N,/cpld_mux/ADC_A0*%
X48710201Y-80312753D03*
%TO.P,J10_AD2,27,Pin_27*%
%TO.N,/cpld_mux/ADC_A3*%
X46170201Y-77772753D03*
%TO.P,J10_AD2,28,Pin_28*%
%TO.N,/cpld_mux/ADC_A2*%
X46170201Y-80312753D03*
%TO.P,J10_AD2,29,Pin_29*%
%TO.N,/cpld_mux/ADC_A5*%
X43630201Y-77772753D03*
%TO.P,J10_AD2,30,Pin_30*%
%TO.N,/cpld_mux/ADC_A4*%
X43630201Y-80312753D03*
%TO.P,J10_AD2,31,Pin_31*%
%TO.N,/cpld_mux/ADC_A7*%
X41090202Y-77772753D03*
%TO.P,J10_AD2,32,Pin_32*%
%TO.N,/cpld_mux/ADC_A6*%
X41090201Y-80312753D03*
%TO.P,J10_AD2,33,Pin_33*%
%TO.N,/cpld_mux/ADC_A9*%
X38550200Y-77772753D03*
%TO.P,J10_AD2,34,Pin_34*%
%TO.N,/cpld_mux/ADC_A8*%
X38550201Y-80312753D03*
%TO.P,J10_AD2,35,Pin_35*%
%TO.N,/cpld_mux/ADC_A11*%
X36010201Y-77772753D03*
%TO.P,J10_AD2,36,Pin_36*%
%TO.N,/cpld_mux/ADC_A10*%
X36010201Y-80312753D03*
%TO.P,J10_AD2,37,Pin_37*%
%TO.N,/cpld_mux/ADC_A13*%
X33470201Y-77772753D03*
%TO.P,J10_AD2,38,Pin_38*%
%TO.N,/cpld_mux/ADC_A12*%
X33470201Y-80312753D03*
%TO.P,J10_AD2,39,Pin_39*%
%TO.N,/cpld_mux/ADC_A15*%
X30930201Y-77772753D03*
%TO.P,J10_AD2,40,Pin_40*%
%TO.N,/cpld_mux/ADC_A14*%
X30930201Y-80312753D03*
%TO.P,J10_AD2,41,Pin_41*%
%TO.N,/cpld_mux/ADC_SIO*%
X28390202Y-77772753D03*
%TO.P,J10_AD2,42,Pin_42*%
%TO.N,/cpld_mux/ADC_ORA*%
X28390201Y-80312753D03*
%TO.P,J10_AD2,43,Pin_43*%
%TO.N,/cpld_mux/ADC_CS*%
X25850201Y-77772753D03*
%TO.P,J10_AD2,44,Pin_44*%
%TO.N,/cpld_mux/ADC_SCK*%
X25850201Y-80312753D03*
%TO.P,J10_AD2,45,Pin_45*%
%TO.N,/cpld_mux/ADC_PWN*%
X23310201Y-77772753D03*
%TO.P,J10_AD2,46,Pin_46*%
%TO.N,/cpld_mux/ADC_OEB*%
X23310201Y-80312753D03*
%TD*%
D17*
%TO.P,C17,1*%
%TO.N,+3V3*%
X73248450Y-70951504D03*
%TO.P,C17,2*%
%TO.N,GND*%
X74591952Y-69608002D03*
%TD*%
D20*
%TO.P,C16,1*%
%TO.N,+1V8*%
X29152201Y-66662754D03*
%TO.P,C16,2*%
%TO.N,GND*%
X29152201Y-68562752D03*
%TD*%
D14*
%TO.P,J24,1,Pin_1*%
%TO.N,/cpld_mux/D1_1*%
X25596201Y-45768753D03*
D15*
%TO.P,J24,2,Pin_2*%
%TO.N,/cpld_mux/D1_2*%
X23800150Y-43972702D03*
%TO.P,J24,3,Pin_3*%
%TO.N,/cpld_mux/D1_3*%
X27392252Y-43972702D03*
%TO.P,J24,4,Pin_4*%
%TO.N,GND*%
X25596201Y-42176651D03*
%TO.P,J24,5,Pin_5*%
%TO.N,/cpld_mux/D1_4*%
X29188303Y-42176651D03*
%TO.P,J24,6,Pin_6*%
%TO.N,/cpld_mux/D1_5*%
X27392252Y-40380599D03*
%TO.P,J24,7,Pin_7*%
%TO.N,/cpld_mux/D1_6*%
X30984355Y-40380599D03*
%TO.P,J24,8,Pin_8*%
%TO.N,/cpld_mux/CM_E_N4*%
X29188303Y-38584548D03*
%TO.P,J24,9,Pin_9*%
%TO.N,/cpld_mux/CM_A_N5*%
X32780406Y-38584548D03*
%TO.P,J24,10,Pin_10*%
%TO.N,/cpld_mux/CM_B_N3*%
X30984355Y-36788497D03*
%TO.P,J24,11,Pin_11*%
%TO.N,/cpld_mux/CM_C_P3*%
X34576457Y-36788497D03*
%TO.P,J24,12,Pin_12*%
%TO.N,/cpld_mux/CM_D_P4*%
X32780406Y-34992446D03*
%TO.P,J24,13,Pin_13*%
%TO.N,/cpld_mux/CM_CLK_M3*%
X36372508Y-34992446D03*
%TO.P,J24,14,Pin_14*%
%TO.N,/cpld_mux/CM_STB_N1*%
X34576457Y-33196394D03*
%TO.P,J24,15,Pin_15*%
%TO.N,/cpld_mux/CM_OE_M4*%
X38168560Y-33196394D03*
%TO.P,J24,16,Pin_16*%
%TO.N,GND*%
X36372508Y-31400343D03*
%TD*%
D14*
%TO.P,J25,1,Pin_1*%
%TO.N,/cpld_mux/D2_1*%
X39058201Y-45768753D03*
D15*
%TO.P,J25,2,Pin_2*%
%TO.N,/cpld_mux/D2_2*%
X37262150Y-43972702D03*
%TO.P,J25,3,Pin_3*%
%TO.N,/cpld_mux/D2_3*%
X40854252Y-43972702D03*
%TO.P,J25,4,Pin_4*%
%TO.N,GND*%
X39058201Y-42176651D03*
%TO.P,J25,5,Pin_5*%
%TO.N,/cpld_mux/D2_4*%
X42650303Y-42176651D03*
%TO.P,J25,6,Pin_6*%
%TO.N,/cpld_mux/D2_5*%
X40854252Y-40380599D03*
%TO.P,J25,7,Pin_7*%
%TO.N,/cpld_mux/D2_6*%
X44446355Y-40380599D03*
%TO.P,J25,8,Pin_8*%
%TO.N,unconnected-(J25-Pin_8-Pad8)*%
X42650303Y-38584548D03*
%TO.P,J25,9,Pin_9*%
%TO.N,unconnected-(J25-Pin_9-Pad9)*%
X46242406Y-38584548D03*
%TO.P,J25,10,Pin_10*%
%TO.N,unconnected-(J25-Pin_10-Pad10)*%
X44446355Y-36788497D03*
%TO.P,J25,11,Pin_11*%
%TO.N,unconnected-(J25-Pin_11-Pad11)*%
X48038457Y-36788497D03*
%TO.P,J25,12,Pin_12*%
%TO.N,unconnected-(J25-Pin_12-Pad12)*%
X46242406Y-34992446D03*
%TO.P,J25,13,Pin_13*%
%TO.N,unconnected-(J25-Pin_13-Pad13)*%
X49834508Y-34992446D03*
%TO.P,J25,14,Pin_14*%
%TO.N,/cpld_mux/VCC_J15*%
X48038457Y-33196394D03*
%TO.P,J25,15,Pin_15*%
%TO.N,unconnected-(J25-Pin_15-Pad15)*%
X51630560Y-33196394D03*
%TO.P,J25,16,Pin_16*%
%TO.N,GND*%
X49834508Y-31400343D03*
%TD*%
D20*
%TO.P,C19,1*%
%TO.N,+3V3*%
X34613201Y-59042754D03*
%TO.P,C19,2*%
%TO.N,GND*%
X34613201Y-60942752D03*
%TD*%
D12*
%TO.P,R2,1*%
%TO.N,/cpld_mux/3V3*%
X30572701Y-71422753D03*
%TO.P,R2,2*%
%TO.N,/cpld_mux/TDO*%
X28747701Y-71422753D03*
%TD*%
D17*
%TO.P,C14,1*%
%TO.N,+1V8*%
X55404450Y-66887504D03*
%TO.P,C14,2*%
%TO.N,GND*%
X56747952Y-65544002D03*
%TD*%
D21*
%TO.P,R4,1*%
%TO.N,/cpld_mux/3V3*%
X23564201Y-61008753D03*
%TO.P,R4,2*%
%TO.N,/cpld_mux/TDI*%
X25389201Y-61008753D03*
%TD*%
%TO.P,R5,1*%
%TO.N,+3V3*%
X73412201Y-73327753D03*
%TO.P,R5,2*%
%TO.N,Net-(X1-EN)*%
X75237201Y-73327753D03*
%TD*%
D20*
%TO.P,C22,1*%
%TO.N,/cpld_mux/VCC_5V*%
X29152201Y-63106754D03*
%TO.P,C22,2*%
%TO.N,GND*%
X29152201Y-65006752D03*
%TD*%
D17*
%TO.P,C12,1*%
%TO.N,+1V8*%
X51504201Y-72057753D03*
%TO.P,C12,2*%
%TO.N,GND*%
X52847703Y-70714251D03*
%TD*%
D20*
%TO.P,C23,1*%
%TO.N,+1V8*%
X40531401Y-65961753D03*
%TO.P,C23,2*%
%TO.N,GND*%
X40531401Y-67861751D03*
%TD*%
D21*
%TO.P,R3,1*%
%TO.N,/cpld_mux/3V3*%
X32153201Y-71422753D03*
%TO.P,R3,2*%
%TO.N,/cpld_mux/TMS*%
X33978201Y-71422753D03*
%TD*%
D16*
%TO.P,C18,1*%
%TO.N,+1V8*%
X43576703Y-68174251D03*
%TO.P,C18,2*%
%TO.N,GND*%
X42233201Y-69517753D03*
%TD*%
D22*
%TO.P,U3,1,GND*%
%TO.N,GND*%
X24028469Y-55581712D03*
%TO.P,U3,2,VO*%
%TO.N,+3V3*%
X25654815Y-53955367D03*
D23*
X30109587Y-58410139D03*
D22*
%TO.P,U3,3,VI*%
%TO.N,/cpld_mux/VCC_5V*%
X27281160Y-52329021D03*
%TD*%
D13*
%TO.P,C20,1*%
%TO.N,/cpld_mux/VCC_5V*%
X30348699Y-51918251D03*
%TO.P,C20,2*%
%TO.N,GND*%
X31692201Y-53261753D03*
%TD*%
D17*
%TO.P,C24,1*%
%TO.N,+3V3*%
X48202201Y-58595753D03*
%TO.P,C24,2*%
%TO.N,GND*%
X49545703Y-57252251D03*
%TD*%
D16*
%TO.P,C25,1*%
%TO.N,+3V3*%
X45227703Y-69698251D03*
%TO.P,C25,2*%
%TO.N,GND*%
X43884201Y-71041753D03*
%TD*%
D24*
%TO.N,GND*%
X46106701Y-60818253D03*
X41979201Y-70787753D03*
X52266201Y-69263753D03*
X60648655Y-65491586D03*
X49545703Y-57252251D03*
X48837201Y-40815753D03*
X34486201Y-52372753D03*
X50361201Y-59738753D03*
X53225424Y-60139312D03*
X55949201Y-63675753D03*
X45408201Y-65326753D03*
X61207001Y-66723753D03*
X76206201Y-69009753D03*
X55165801Y-62362023D03*
X56584201Y-64310753D03*
X40582201Y-27480753D03*
X42487201Y-71168753D03*
X46109123Y-63817223D03*
X44719703Y-62205251D03*
X40168403Y-53294551D03*
X71367001Y-75816953D03*
X57092201Y-65834753D03*
X47313201Y-59611753D03*
X33724201Y-68642753D03*
%TO.N,+3V3*%
X30574601Y-59967353D03*
X48202201Y-58595753D03*
X26358201Y-55344553D03*
X27120201Y-54684153D03*
X61323125Y-64226742D03*
X53843699Y-61951251D03*
X43376201Y-63548753D03*
X45535201Y-69263753D03*
X53793395Y-60989616D03*
X31133401Y-59256153D03*
X72269201Y-71676752D03*
X46424201Y-69263753D03*
%TO.N,/cpld_mux/CM_CLK_M3*%
X43503201Y-57325753D03*
X56457201Y-57960753D03*
X34613201Y-39926753D03*
%TO.N,/cpld_mux/CM_OE_M4*%
X37153201Y-26337753D03*
%TO.N,/cpld_mux/CM_E_N4*%
X33190801Y-40993553D03*
%TO.N,/cpld_mux/VCC_5V*%
X47948201Y-44117753D03*
X25596201Y-50975753D03*
X46678201Y-42974753D03*
X47948201Y-42974753D03*
X46043201Y-43609753D03*
X30422201Y-62532753D03*
%TO.N,/cpld_mux/TDI*%
X50720458Y-71031638D03*
%TO.N,/cpld_mux/TDO*%
X49980201Y-73962753D03*
%TO.N,/cpld_mux/TMS*%
X48601305Y-71674211D03*
%TO.N,/cpld_mux/TCK*%
X47598376Y-75232753D03*
%TO.N,Net-(X1-EN)*%
X76269201Y-72946753D03*
%TO.N,+1V8*%
X51504201Y-72057753D03*
X55748699Y-67178255D03*
%TD*%
D25*
%TO.N,GND*%
X38992200Y-69771753D02*
X40455201Y-68308752D01*
D26*
X45408201Y-23924753D02*
X46583201Y-22749753D01*
D25*
X24735576Y-56288819D02*
X24028469Y-55581712D01*
D26*
X49834508Y-31400343D02*
X49834508Y-33330745D01*
D25*
X24028469Y-54434523D02*
X22892450Y-53298504D01*
X33724201Y-68642753D02*
X35897201Y-68642753D01*
X45160043Y-64766303D02*
X46109123Y-63817223D01*
D27*
X41979201Y-70787753D02*
X41979201Y-69771753D01*
D28*
X71367001Y-75816953D02*
X74694401Y-75816953D01*
D29*
X74810201Y-75932753D02*
X76650201Y-77772753D01*
X54882401Y-75512153D02*
X54882401Y-72748949D01*
D25*
X31637200Y-68562752D02*
X31717201Y-68642753D01*
X31692201Y-53261753D02*
X32581201Y-52372753D01*
X34105201Y-52372753D02*
X34486201Y-52372753D01*
D28*
X75607952Y-69608002D02*
X76206201Y-69009753D01*
D26*
X46729107Y-36436146D02*
X46729107Y-37409548D01*
X46583201Y-22749753D02*
X51663201Y-22749753D01*
D29*
X54461801Y-75932753D02*
X54882401Y-75512153D01*
D25*
X56747952Y-65544002D02*
X56747952Y-64474504D01*
D26*
X47567201Y-39926753D02*
X47948201Y-39926753D01*
X23019450Y-46683802D02*
X23019450Y-53298504D01*
D29*
X29282701Y-72672753D02*
X24600201Y-72672753D01*
D25*
X43250247Y-64766303D02*
X45160043Y-64766303D01*
D29*
X30572701Y-73962753D02*
X29282701Y-72672753D01*
D26*
X39679252Y-42797702D02*
X41609653Y-42797702D01*
D25*
X35897201Y-68642753D02*
X37026201Y-69771753D01*
D27*
X41979201Y-69771753D02*
X42233201Y-69517753D01*
D25*
X42487201Y-71168753D02*
X43757201Y-71168753D01*
D28*
X74591953Y-69608002D02*
X75607952Y-69608002D01*
D26*
X48837201Y-39517642D02*
X48837201Y-40815753D01*
D25*
X40455201Y-68308752D02*
X41024200Y-68308752D01*
D26*
X44142303Y-43351651D02*
X47567201Y-39926753D01*
D25*
X37026201Y-69771753D02*
X38992200Y-69771753D01*
X32581201Y-52372753D02*
X33724201Y-52372753D01*
D29*
X25139001Y-75791553D02*
X30523801Y-75791553D01*
D25*
X28665135Y-56288819D02*
X24735576Y-56288819D01*
D26*
X49834508Y-31400343D02*
X51663201Y-29571650D01*
D25*
X45408201Y-65326753D02*
X45408201Y-64518145D01*
X45408201Y-64518145D02*
X46109123Y-63817223D01*
X56747952Y-64474504D02*
X55006703Y-62733255D01*
D26*
X49834508Y-33330745D02*
X46729107Y-36436146D01*
D25*
X43757201Y-71168753D02*
X43884201Y-71041753D01*
D29*
X54196601Y-75932753D02*
X74810201Y-75932753D01*
D25*
X31717201Y-68642753D02*
X33724201Y-68642753D01*
X41024200Y-68308752D02*
X42233201Y-69517753D01*
D26*
X41852201Y-27480753D02*
X40582201Y-27480753D01*
D29*
X54882401Y-72748949D02*
X52847703Y-70714251D01*
D25*
X34613201Y-60942752D02*
X39426696Y-60942752D01*
X42360201Y-69517753D02*
X43884201Y-71041753D01*
D26*
X41609653Y-42797702D02*
X42163602Y-43351651D01*
D29*
X54196601Y-75932753D02*
X54461801Y-75932753D01*
D25*
X38992200Y-69771753D02*
X41090201Y-69771753D01*
X31692201Y-53261753D02*
X28665135Y-56288819D01*
D29*
X30665001Y-75932753D02*
X54196601Y-75932753D01*
D25*
X33724201Y-52372753D02*
X39246605Y-52372753D01*
D28*
X57092201Y-65834753D02*
X60318001Y-65834753D01*
D25*
X44719703Y-62205251D02*
X47313201Y-59611753D01*
D26*
X45408201Y-23924753D02*
X41852201Y-27480753D01*
D25*
X39426696Y-60942752D02*
X43250247Y-64766303D01*
X41090201Y-69771753D02*
X42487201Y-71168753D01*
X52266201Y-70132749D02*
X52847703Y-70714251D01*
D28*
X74694401Y-75816953D02*
X76650201Y-77772753D01*
D26*
X25596201Y-42176651D02*
X25596201Y-44107051D01*
D25*
X39246605Y-52372753D02*
X40168403Y-53294551D01*
D26*
X51663201Y-22749753D02*
X53028201Y-21384753D01*
D27*
X42233201Y-71041753D02*
X43884201Y-71041753D01*
D26*
X39058201Y-42176651D02*
X39679252Y-42797702D01*
D25*
X29152201Y-68562752D02*
X31637200Y-68562752D01*
X42233201Y-69517753D02*
X42360201Y-69517753D01*
D28*
X60318001Y-65834753D02*
X61207001Y-66723753D01*
D25*
X57092201Y-65834753D02*
X57219201Y-65707753D01*
X33724201Y-52372753D02*
X34105201Y-52372753D01*
D27*
X41979201Y-70787753D02*
X42233201Y-71041753D01*
D25*
X52266201Y-69263753D02*
X52266201Y-70132749D01*
D28*
X76650201Y-75969353D02*
X75608801Y-74927953D01*
D25*
X24028469Y-55581712D02*
X24028469Y-54434523D01*
D28*
X76650201Y-77772753D02*
X76650201Y-75969353D01*
D29*
X30523801Y-75791553D02*
X30665001Y-75932753D01*
D26*
X51663201Y-29571650D02*
X51663201Y-22749753D01*
D29*
X23310201Y-73962753D02*
X25139001Y-75791553D01*
D26*
X25596201Y-44107051D02*
X23019450Y-46683802D01*
X42163602Y-43351651D02*
X44142303Y-43351651D01*
D29*
X24600201Y-72672753D02*
X23310201Y-73962753D01*
D26*
X46729107Y-37409548D02*
X48837201Y-39517642D01*
X47948201Y-39926753D02*
X48837201Y-40815753D01*
D28*
%TO.N,+3V3*%
X72269201Y-71676752D02*
X72523201Y-71676753D01*
D25*
X58085999Y-60989616D02*
X61323125Y-64226742D01*
X24362952Y-52663504D02*
X25654815Y-53955367D01*
X34613201Y-59042754D02*
X38870202Y-59042754D01*
D27*
X45227703Y-69571251D02*
X45535201Y-69263753D01*
D25*
X53793395Y-60989616D02*
X58085999Y-60989616D01*
X30574601Y-59967353D02*
X30574601Y-58875153D01*
X30574601Y-58875153D02*
X30109587Y-58410139D01*
X25654815Y-53955367D02*
X25654815Y-54641167D01*
X33980586Y-58410139D02*
X34613201Y-59042754D01*
X24362952Y-51955002D02*
X24362952Y-52663504D01*
D28*
X53843699Y-61039920D02*
X53793395Y-60989616D01*
X53843699Y-61951251D02*
X53843699Y-61039920D01*
D25*
X48710201Y-60627753D02*
X48710201Y-59103753D01*
X25654815Y-53955367D02*
X26391415Y-53955367D01*
X45535201Y-69263753D02*
X46424201Y-69263753D01*
X46614701Y-62723253D02*
X52059758Y-62723253D01*
X46360701Y-62977253D02*
X48710201Y-60627753D01*
X26391415Y-53955367D02*
X27120201Y-54684153D01*
D28*
X72523201Y-71676753D02*
X73248451Y-70951504D01*
D25*
X45884060Y-62977253D02*
X46360701Y-62977253D01*
X30955601Y-59256153D02*
X30109587Y-58410139D01*
X30109587Y-58410139D02*
X33980586Y-58410139D01*
X25654815Y-54641167D02*
X26358201Y-55344553D01*
D27*
X73412201Y-71115255D02*
X73248451Y-70951504D01*
D25*
X52059758Y-62723253D02*
X53793395Y-60989616D01*
X31133401Y-59256153D02*
X30955601Y-59256153D01*
X45312560Y-63548753D02*
X45884060Y-62977253D01*
D27*
X73412201Y-73327753D02*
X73412201Y-71115255D01*
D25*
X38870202Y-59042754D02*
X43376201Y-63548753D01*
X43376201Y-63548753D02*
X45312560Y-63548753D01*
D27*
X45227703Y-69698251D02*
X45227703Y-69571251D01*
D25*
X48710201Y-59103753D02*
X48202201Y-58595753D01*
X46360701Y-62977253D02*
X46614701Y-62723253D01*
D26*
%TO.N,/cpld_mux/CM_A_N5*%
X32780406Y-38584548D02*
X31118705Y-38584548D01*
X31118705Y-38584548D02*
X29787201Y-37253044D01*
X29787201Y-24305753D02*
X30168201Y-23924753D01*
X29787201Y-37253044D02*
X29787201Y-24305753D01*
%TO.N,/cpld_mux/CM_CLK_M3*%
X45916201Y-54912753D02*
X53663201Y-54912753D01*
X35248200Y-23924753D02*
X35248200Y-27734754D01*
X33343201Y-33624839D02*
X33343201Y-29639753D01*
X36372508Y-34992446D02*
X34710808Y-34992446D01*
X56457201Y-57706753D02*
X56457201Y-57960753D01*
X36372508Y-38167446D02*
X34613201Y-39926753D01*
X53663201Y-54912753D02*
X56457201Y-57706753D01*
X35248200Y-27734754D02*
X33343201Y-29639753D01*
X34710808Y-34992446D02*
X33343201Y-33624839D01*
X36372508Y-34992446D02*
X36372508Y-38167446D01*
X43503201Y-57325753D02*
X45916201Y-54912753D01*
%TO.N,/cpld_mux/CM_D_P4*%
X33883201Y-26432753D02*
X33883201Y-22559753D01*
X32780406Y-34992446D02*
X32780406Y-27535548D01*
X33883201Y-22559753D02*
X32708201Y-21384753D01*
X32780406Y-27535548D02*
X33883201Y-26432753D01*
%TO.N,/cpld_mux/CM_OE_M4*%
X38168560Y-27353112D02*
X37153201Y-26337753D01*
X38168560Y-33196394D02*
X38168560Y-27353112D01*
D27*
%TO.N,/cpld_mux/CM_E_N4*%
X31293255Y-39063153D02*
X29666908Y-39063153D01*
X29666908Y-39063153D02*
X29188303Y-38584548D01*
X33190801Y-40993553D02*
X33190801Y-40960699D01*
X33190801Y-40960699D02*
X31293255Y-39063153D01*
D26*
%TO.N,/cpld_mux/D1_4*%
X39370201Y-27738158D02*
X39370201Y-35169753D01*
X33317898Y-42176651D02*
X29188303Y-42176651D01*
X41503201Y-25605158D02*
X39370201Y-27738158D01*
X36822508Y-38672041D02*
X33317898Y-42176651D01*
X41503201Y-22559753D02*
X41503201Y-25605158D01*
X36822508Y-37717446D02*
X36822508Y-38672041D01*
X40328201Y-21384753D02*
X41503201Y-22559753D01*
X39370201Y-35169753D02*
X36822508Y-37717446D01*
D27*
%TO.N,/cpld_mux/CM_B_N3*%
X30984355Y-36788497D02*
X31318201Y-36454651D01*
X31318201Y-22534753D02*
X30168201Y-21384753D01*
X31318201Y-36454651D02*
X31318201Y-22534753D01*
D26*
%TO.N,/cpld_mux/CM_STB_N1*%
X35248201Y-21384753D02*
X36423200Y-22559752D01*
X36423200Y-27793010D02*
X34576457Y-29639753D01*
X34576457Y-29639753D02*
X34576457Y-33196394D01*
X36423200Y-22559752D02*
X36423200Y-27793010D01*
%TO.N,/cpld_mux/D2_4*%
X39679252Y-35749702D02*
X39679252Y-40867300D01*
X44011201Y-31417753D02*
X39679252Y-35749702D01*
X44368473Y-31417753D02*
X44011201Y-31417753D01*
X40988603Y-42176651D02*
X42650303Y-42176651D01*
X39679252Y-40867300D02*
X40988603Y-42176651D01*
X50488201Y-23924753D02*
X50488201Y-25298025D01*
X50488201Y-25298025D02*
X44368473Y-31417753D01*
%TO.N,/cpld_mux/D3_5*%
X54316252Y-40380599D02*
X54316252Y-37621306D01*
X60648201Y-31289357D02*
X60648201Y-23924753D01*
X54316252Y-37621306D02*
X60648201Y-31289357D01*
%TO.N,/cpld_mux/D3_1*%
X49472201Y-39164753D02*
X55568201Y-33068753D01*
X50858500Y-45768753D02*
X49472201Y-44382454D01*
X49472201Y-44382454D02*
X49472201Y-39164753D01*
X55568201Y-33068753D02*
X55568201Y-23924753D01*
X52520201Y-45768753D02*
X50858500Y-45768753D01*
%TO.N,/cpld_mux/D3_4*%
X54450603Y-42176651D02*
X53141252Y-40867300D01*
X59283200Y-22559752D02*
X58108201Y-21384753D01*
X53141252Y-40867300D02*
X53141252Y-38159910D01*
X59283200Y-32017962D02*
X59283200Y-22559752D01*
X56112303Y-42176651D02*
X54450603Y-42176651D01*
X53141252Y-38159910D02*
X59283200Y-32017962D01*
%TO.N,/cpld_mux/D3_6*%
X61823201Y-30750753D02*
X61823201Y-22559753D01*
X57908355Y-40380599D02*
X57908355Y-38450198D01*
X61823201Y-22559753D02*
X60648201Y-21384753D01*
X56733355Y-35840599D02*
X61823201Y-30750753D01*
X56733355Y-37275198D02*
X56733355Y-35840599D01*
X57908355Y-38450198D02*
X56733355Y-37275198D01*
%TO.N,/cpld_mux/D3_3*%
X51345201Y-39319565D02*
X58108200Y-32556566D01*
X58108200Y-32556566D02*
X58108200Y-23924753D01*
X52654551Y-43972702D02*
X51345201Y-42663352D01*
X54316252Y-43972702D02*
X52654551Y-43972702D01*
X51345201Y-42663352D02*
X51345201Y-39319565D01*
%TO.N,/cpld_mux/D3_2*%
X56838201Y-22654753D02*
X55568201Y-21384753D01*
X56838201Y-32687753D02*
X56838201Y-22654753D01*
X50724150Y-38801804D02*
X56838201Y-32687753D01*
X50724150Y-43972702D02*
X50724150Y-38801804D01*
D25*
%TO.N,/cpld_mux/VCC_5V*%
X30422201Y-63106754D02*
X30781202Y-63106754D01*
X27281160Y-52329021D02*
X29937929Y-52329021D01*
X48837201Y-49578753D02*
X47948201Y-48689753D01*
X46043201Y-43609753D02*
X39312201Y-50340753D01*
X54377250Y-49578753D02*
X48837201Y-49578753D01*
X65235247Y-66992799D02*
X76665247Y-66992799D01*
D26*
X33343201Y-50340753D02*
X33216201Y-50213753D01*
D25*
X34105201Y-50340753D02*
X33343201Y-50340753D01*
X47948201Y-48689753D02*
X47948201Y-44117753D01*
D26*
X33216201Y-50213753D02*
X32053197Y-50213753D01*
D25*
X34105201Y-50340753D02*
X31926197Y-50340753D01*
X59330250Y-61087802D02*
X65235247Y-66992799D01*
X47948201Y-44117753D02*
X47948201Y-42974753D01*
X59330250Y-54531753D02*
X59330250Y-61087802D01*
X76665247Y-66992799D02*
X79190201Y-69517753D01*
D26*
X32053197Y-50213753D02*
X30348699Y-51918251D01*
D25*
X39312201Y-50340753D02*
X38169201Y-50340753D01*
X29937929Y-52329021D02*
X30348699Y-51918251D01*
X38169201Y-50340753D02*
X34105201Y-50340753D01*
X31926197Y-50340753D02*
X30348699Y-51918251D01*
X30781202Y-63106754D02*
X31717201Y-64042753D01*
X29152201Y-63106754D02*
X30422201Y-63106754D01*
X59330250Y-54531753D02*
X54377250Y-49578753D01*
X30422201Y-63106754D02*
X30422201Y-62532753D01*
X46678201Y-42974753D02*
X46043201Y-43609753D01*
X25596201Y-50975753D02*
X25927892Y-50975753D01*
X79190201Y-69517753D02*
X79190201Y-77772753D01*
X25927892Y-50975753D02*
X27281160Y-52329021D01*
D27*
%TO.N,/cpld_mux/TDI*%
X25389201Y-61008753D02*
X25389201Y-63341753D01*
X45312019Y-65976753D02*
X50366904Y-71031638D01*
X39143201Y-61897753D02*
X43222201Y-65976753D01*
X25850201Y-63802753D02*
X27755201Y-61897753D01*
X25389201Y-63341753D02*
X25850201Y-63802753D01*
X50366904Y-71031638D02*
X50720458Y-71031638D01*
X27755201Y-61897753D02*
X39143201Y-61897753D01*
X43222201Y-65976753D02*
X45312019Y-65976753D01*
%TO.N,/cpld_mux/TDO*%
X29286923Y-71422753D02*
X31826923Y-73962753D01*
X28747701Y-71422753D02*
X25850201Y-71422753D01*
X46170201Y-73962753D02*
X49980201Y-73962753D01*
X31826923Y-73962753D02*
X46170201Y-73962753D01*
X28747701Y-71422753D02*
X29286923Y-71422753D01*
%TO.N,/cpld_mux/3V3*%
X23564201Y-61008753D02*
X24460201Y-61904753D01*
X29422701Y-70272753D02*
X24460201Y-70272753D01*
X24460201Y-70272753D02*
X23310201Y-71422753D01*
X24460201Y-61904753D02*
X24460201Y-70272753D01*
X32153201Y-71422753D02*
X30572701Y-71422753D01*
X30572701Y-71422753D02*
X29422701Y-70272753D01*
%TO.N,/cpld_mux/TMS*%
X26700201Y-69732754D02*
X32288202Y-69732754D01*
X33978201Y-71422753D02*
X35248201Y-72692753D01*
X25850201Y-68882754D02*
X26700201Y-69732754D01*
X32288202Y-69732754D02*
X33978201Y-71422753D01*
X35248201Y-72692753D02*
X47582763Y-72692753D01*
X47582763Y-72692753D02*
X48601305Y-71674211D01*
%TO.N,/cpld_mux/TCK*%
X47598376Y-75232753D02*
X47103376Y-74737753D01*
X47103376Y-74737753D02*
X29522701Y-74737753D01*
X29522701Y-74737753D02*
X28747701Y-73962753D01*
X28747701Y-73962753D02*
X25850201Y-73962753D01*
%TO.N,Net-(X1-EN)*%
X75888201Y-73327753D02*
X76269201Y-72946753D01*
X75237201Y-73327753D02*
X75888201Y-73327753D01*
D25*
%TO.N,+1V8*%
X46731699Y-68174251D02*
X50615201Y-72057753D01*
X51504201Y-68374753D02*
X52991450Y-66887504D01*
X38398200Y-65961753D02*
X38017200Y-66342753D01*
X50615201Y-72057753D02*
X51504201Y-72057753D01*
X40531401Y-65961753D02*
X38398200Y-65961753D01*
X43576703Y-68174251D02*
X46731699Y-68174251D01*
X51504201Y-72057753D02*
X51504201Y-68374753D01*
X42334801Y-65961753D02*
X40531401Y-65961753D01*
X31717202Y-66342753D02*
X38017200Y-66342753D01*
X29152201Y-66662754D02*
X31397201Y-66662754D01*
X43576703Y-68174251D02*
X43576703Y-67203655D01*
X43576703Y-67203655D02*
X42334801Y-65961753D01*
X31397201Y-66662754D02*
X31717202Y-66342753D01*
X52991450Y-66887504D02*
X55404450Y-66887504D01*
%TD*%
%TA.AperFunction,Conductor*%
%TO.N,GND*%
G36*
X78153463Y-67086484D02*
G01*
X81246360Y-68159909D01*
X81303237Y-68200485D01*
X81329150Y-68265372D01*
X81329701Y-68277053D01*
X81329701Y-81978253D01*
X81310016Y-82045292D01*
X81257212Y-82091047D01*
X81205701Y-82102253D01*
X63381522Y-82102253D01*
X63380731Y-82102250D01*
X33528599Y-81911704D01*
X33461686Y-81891592D01*
X33460610Y-81890334D01*
X33426128Y-81908460D01*
X33400904Y-81910888D01*
X31161306Y-81896593D01*
X31094393Y-81876481D01*
X31048976Y-81823386D01*
X31039474Y-81754166D01*
X31068904Y-81690797D01*
X31127922Y-81653398D01*
X31151279Y-81649069D01*
X31165609Y-81647816D01*
X31393864Y-81586656D01*
X31608031Y-81486788D01*
X31801602Y-81351248D01*
X31968696Y-81184154D01*
X32098626Y-80998595D01*
X32153203Y-80954970D01*
X32222701Y-80947776D01*
X32285056Y-80979299D01*
X32301776Y-80998595D01*
X32431701Y-81184148D01*
X32431706Y-81184154D01*
X32598800Y-81351248D01*
X32695585Y-81419018D01*
X32792366Y-81486785D01*
X32792368Y-81486786D01*
X32792371Y-81486788D01*
X33006538Y-81586656D01*
X33234793Y-81647816D01*
X33412504Y-81663364D01*
X33468666Y-81685332D01*
X33495215Y-81668509D01*
X33518580Y-81664179D01*
X33705609Y-81647816D01*
X33933864Y-81586656D01*
X34148031Y-81486788D01*
X34341602Y-81351248D01*
X34508696Y-81184154D01*
X34638626Y-80998595D01*
X34693203Y-80954970D01*
X34762701Y-80947776D01*
X34825056Y-80979299D01*
X34841776Y-80998595D01*
X34971701Y-81184148D01*
X34971706Y-81184154D01*
X35138800Y-81351248D01*
X35235585Y-81419018D01*
X35332366Y-81486785D01*
X35332368Y-81486786D01*
X35332371Y-81486788D01*
X35546538Y-81586656D01*
X35774793Y-81647816D01*
X35952492Y-81663363D01*
X36010200Y-81668412D01*
X36010201Y-81668412D01*
X36010202Y-81668412D01*
X36067910Y-81663363D01*
X36245609Y-81647816D01*
X36473864Y-81586656D01*
X36688031Y-81486788D01*
X36881602Y-81351248D01*
X37048696Y-81184154D01*
X37178626Y-80998595D01*
X37233203Y-80954970D01*
X37302701Y-80947776D01*
X37365056Y-80979299D01*
X37381776Y-80998595D01*
X37511701Y-81184148D01*
X37511706Y-81184154D01*
X37678800Y-81351248D01*
X37775585Y-81419018D01*
X37872366Y-81486785D01*
X37872368Y-81486786D01*
X37872371Y-81486788D01*
X38086538Y-81586656D01*
X38314793Y-81647816D01*
X38492492Y-81663363D01*
X38550200Y-81668412D01*
X38550201Y-81668412D01*
X38550202Y-81668412D01*
X38607910Y-81663363D01*
X38785609Y-81647816D01*
X39013864Y-81586656D01*
X39228031Y-81486788D01*
X39421602Y-81351248D01*
X39588696Y-81184154D01*
X39718626Y-80998595D01*
X39773203Y-80954970D01*
X39842701Y-80947776D01*
X39905056Y-80979299D01*
X39921776Y-80998595D01*
X40051701Y-81184148D01*
X40051706Y-81184154D01*
X40218800Y-81351248D01*
X40315585Y-81419018D01*
X40412366Y-81486785D01*
X40412368Y-81486786D01*
X40412371Y-81486788D01*
X40626538Y-81586656D01*
X40854793Y-81647816D01*
X41032492Y-81663363D01*
X41090200Y-81668412D01*
X41090201Y-81668412D01*
X41090202Y-81668412D01*
X41147910Y-81663363D01*
X41325609Y-81647816D01*
X41553864Y-81586656D01*
X41768031Y-81486788D01*
X41961602Y-81351248D01*
X42128696Y-81184154D01*
X42258626Y-80998595D01*
X42313203Y-80954970D01*
X42382701Y-80947776D01*
X42445056Y-80979299D01*
X42461776Y-80998595D01*
X42591701Y-81184148D01*
X42591706Y-81184154D01*
X42758800Y-81351248D01*
X42855585Y-81419018D01*
X42952366Y-81486785D01*
X42952368Y-81486786D01*
X42952371Y-81486788D01*
X43166538Y-81586656D01*
X43394793Y-81647816D01*
X43572492Y-81663363D01*
X43630200Y-81668412D01*
X43630201Y-81668412D01*
X43630202Y-81668412D01*
X43687910Y-81663363D01*
X43865609Y-81647816D01*
X44093864Y-81586656D01*
X44308031Y-81486788D01*
X44501602Y-81351248D01*
X44668696Y-81184154D01*
X44798626Y-80998595D01*
X44853203Y-80954970D01*
X44922701Y-80947776D01*
X44985056Y-80979299D01*
X45001776Y-80998595D01*
X45131701Y-81184148D01*
X45131706Y-81184154D01*
X45298800Y-81351248D01*
X45395585Y-81419018D01*
X45492366Y-81486785D01*
X45492368Y-81486786D01*
X45492371Y-81486788D01*
X45706538Y-81586656D01*
X45934793Y-81647816D01*
X46112492Y-81663363D01*
X46170200Y-81668412D01*
X46170201Y-81668412D01*
X46170202Y-81668412D01*
X46227910Y-81663363D01*
X46405609Y-81647816D01*
X46633864Y-81586656D01*
X46848031Y-81486788D01*
X47041602Y-81351248D01*
X47208696Y-81184154D01*
X47338626Y-80998595D01*
X47393203Y-80954970D01*
X47462701Y-80947776D01*
X47525056Y-80979299D01*
X47541776Y-80998595D01*
X47671701Y-81184148D01*
X47671706Y-81184154D01*
X47838800Y-81351248D01*
X47935585Y-81419018D01*
X48032366Y-81486785D01*
X48032368Y-81486786D01*
X48032371Y-81486788D01*
X48246538Y-81586656D01*
X48474793Y-81647816D01*
X48652492Y-81663363D01*
X48710200Y-81668412D01*
X48710201Y-81668412D01*
X48710202Y-81668412D01*
X48767910Y-81663363D01*
X48945609Y-81647816D01*
X49173864Y-81586656D01*
X49388031Y-81486788D01*
X49581602Y-81351248D01*
X49748696Y-81184154D01*
X49878626Y-80998595D01*
X49933203Y-80954970D01*
X50002701Y-80947776D01*
X50065056Y-80979299D01*
X50081776Y-80998595D01*
X50211701Y-81184148D01*
X50211706Y-81184154D01*
X50378800Y-81351248D01*
X50475585Y-81419018D01*
X50572366Y-81486785D01*
X50572368Y-81486786D01*
X50572371Y-81486788D01*
X50786538Y-81586656D01*
X51014793Y-81647816D01*
X51192492Y-81663363D01*
X51250200Y-81668412D01*
X51250201Y-81668412D01*
X51250202Y-81668412D01*
X51307910Y-81663363D01*
X51485609Y-81647816D01*
X51713864Y-81586656D01*
X51928031Y-81486788D01*
X52121602Y-81351248D01*
X52288696Y-81184154D01*
X52418626Y-80998595D01*
X52473203Y-80954970D01*
X52542701Y-80947776D01*
X52605056Y-80979299D01*
X52621776Y-80998595D01*
X52751701Y-81184148D01*
X52751706Y-81184154D01*
X52918800Y-81351248D01*
X53015585Y-81419018D01*
X53112366Y-81486785D01*
X53112368Y-81486786D01*
X53112371Y-81486788D01*
X53326538Y-81586656D01*
X53554793Y-81647816D01*
X53732492Y-81663363D01*
X53790200Y-81668412D01*
X53790201Y-81668412D01*
X53790202Y-81668412D01*
X53847910Y-81663363D01*
X54025609Y-81647816D01*
X54253864Y-81586656D01*
X54468031Y-81486788D01*
X54661602Y-81351248D01*
X54828696Y-81184154D01*
X54958626Y-80998595D01*
X55013203Y-80954970D01*
X55082701Y-80947776D01*
X55145056Y-80979299D01*
X55161776Y-80998595D01*
X55291701Y-81184148D01*
X55291706Y-81184154D01*
X55458800Y-81351248D01*
X55555585Y-81419018D01*
X55652366Y-81486785D01*
X55652368Y-81486786D01*
X55652371Y-81486788D01*
X55866538Y-81586656D01*
X56094793Y-81647816D01*
X56272492Y-81663363D01*
X56330200Y-81668412D01*
X56330201Y-81668412D01*
X56330202Y-81668412D01*
X56387910Y-81663363D01*
X56565609Y-81647816D01*
X56793864Y-81586656D01*
X57008031Y-81486788D01*
X57201602Y-81351248D01*
X57368696Y-81184154D01*
X57498626Y-80998595D01*
X57553203Y-80954970D01*
X57622701Y-80947776D01*
X57685056Y-80979299D01*
X57701776Y-80998595D01*
X57831701Y-81184148D01*
X57831706Y-81184154D01*
X57998800Y-81351248D01*
X58095585Y-81419018D01*
X58192366Y-81486785D01*
X58192368Y-81486786D01*
X58192371Y-81486788D01*
X58406538Y-81586656D01*
X58634793Y-81647816D01*
X58812492Y-81663363D01*
X58870200Y-81668412D01*
X58870201Y-81668412D01*
X58870202Y-81668412D01*
X58927910Y-81663363D01*
X59105609Y-81647816D01*
X59333864Y-81586656D01*
X59548031Y-81486788D01*
X59741602Y-81351248D01*
X59908696Y-81184154D01*
X60038626Y-80998595D01*
X60093203Y-80954970D01*
X60162701Y-80947776D01*
X60225056Y-80979299D01*
X60241776Y-80998595D01*
X60371701Y-81184148D01*
X60371706Y-81184154D01*
X60538800Y-81351248D01*
X60635585Y-81419018D01*
X60732366Y-81486785D01*
X60732368Y-81486786D01*
X60732371Y-81486788D01*
X60946538Y-81586656D01*
X61174793Y-81647816D01*
X61352492Y-81663363D01*
X61410200Y-81668412D01*
X61410201Y-81668412D01*
X61410202Y-81668412D01*
X61467910Y-81663363D01*
X61645609Y-81647816D01*
X61873864Y-81586656D01*
X62088031Y-81486788D01*
X62281602Y-81351248D01*
X62448696Y-81184154D01*
X62578626Y-80998595D01*
X62633203Y-80954970D01*
X62702701Y-80947776D01*
X62765056Y-80979299D01*
X62781776Y-80998595D01*
X62911701Y-81184148D01*
X62911706Y-81184154D01*
X63078800Y-81351248D01*
X63175585Y-81419018D01*
X63272366Y-81486785D01*
X63272368Y-81486786D01*
X63272371Y-81486788D01*
X63486538Y-81586656D01*
X63714793Y-81647816D01*
X63892492Y-81663363D01*
X63950200Y-81668412D01*
X63950201Y-81668412D01*
X63950202Y-81668412D01*
X64007910Y-81663363D01*
X64185609Y-81647816D01*
X64413864Y-81586656D01*
X64628031Y-81486788D01*
X64821602Y-81351248D01*
X64988696Y-81184154D01*
X65118626Y-80998595D01*
X65173203Y-80954970D01*
X65242701Y-80947776D01*
X65305056Y-80979299D01*
X65321776Y-80998595D01*
X65451701Y-81184148D01*
X65451706Y-81184154D01*
X65618800Y-81351248D01*
X65715585Y-81419018D01*
X65812366Y-81486785D01*
X65812368Y-81486786D01*
X65812371Y-81486788D01*
X66026538Y-81586656D01*
X66254793Y-81647816D01*
X66432492Y-81663363D01*
X66490200Y-81668412D01*
X66490201Y-81668412D01*
X66490202Y-81668412D01*
X66547910Y-81663363D01*
X66725609Y-81647816D01*
X66953864Y-81586656D01*
X67168031Y-81486788D01*
X67361602Y-81351248D01*
X67528696Y-81184154D01*
X67658626Y-80998595D01*
X67713203Y-80954970D01*
X67782701Y-80947776D01*
X67845056Y-80979299D01*
X67861776Y-80998595D01*
X67991701Y-81184148D01*
X67991706Y-81184154D01*
X68158800Y-81351248D01*
X68255585Y-81419018D01*
X68352366Y-81486785D01*
X68352368Y-81486786D01*
X68352371Y-81486788D01*
X68566538Y-81586656D01*
X68794793Y-81647816D01*
X68972492Y-81663363D01*
X69030200Y-81668412D01*
X69030201Y-81668412D01*
X69030202Y-81668412D01*
X69087910Y-81663363D01*
X69265609Y-81647816D01*
X69493864Y-81586656D01*
X69708031Y-81486788D01*
X69901602Y-81351248D01*
X70068696Y-81184154D01*
X70198626Y-80998595D01*
X70253203Y-80954970D01*
X70322701Y-80947776D01*
X70385056Y-80979299D01*
X70401776Y-80998595D01*
X70531701Y-81184148D01*
X70531706Y-81184154D01*
X70698800Y-81351248D01*
X70795585Y-81419018D01*
X70892366Y-81486785D01*
X70892368Y-81486786D01*
X70892371Y-81486788D01*
X71106538Y-81586656D01*
X71334793Y-81647816D01*
X71512492Y-81663363D01*
X71570200Y-81668412D01*
X71570201Y-81668412D01*
X71570202Y-81668412D01*
X71627910Y-81663363D01*
X71805609Y-81647816D01*
X72033864Y-81586656D01*
X72248031Y-81486788D01*
X72441602Y-81351248D01*
X72608696Y-81184154D01*
X72738626Y-80998595D01*
X72793203Y-80954970D01*
X72862701Y-80947776D01*
X72925056Y-80979299D01*
X72941776Y-80998595D01*
X73071701Y-81184148D01*
X73071706Y-81184154D01*
X73238800Y-81351248D01*
X73335585Y-81419018D01*
X73432366Y-81486785D01*
X73432368Y-81486786D01*
X73432371Y-81486788D01*
X73646538Y-81586656D01*
X73874793Y-81647816D01*
X74052492Y-81663363D01*
X74110200Y-81668412D01*
X74110201Y-81668412D01*
X74110202Y-81668412D01*
X74167910Y-81663363D01*
X74345609Y-81647816D01*
X74573864Y-81586656D01*
X74788031Y-81486788D01*
X74981602Y-81351248D01*
X75148696Y-81184154D01*
X75278931Y-80998158D01*
X75333508Y-80954534D01*
X75403006Y-80947340D01*
X75465361Y-80978863D01*
X75482080Y-80998158D01*
X75612091Y-81183831D01*
X75779118Y-81350858D01*
X75972622Y-81486353D01*
X76186708Y-81586182D01*
X76186717Y-81586186D01*
X76400201Y-81643387D01*
X76400201Y-80745765D01*
X76457208Y-80778678D01*
X76584375Y-80812753D01*
X76716027Y-80812753D01*
X76843194Y-80778678D01*
X76900201Y-80745765D01*
X76900201Y-81643386D01*
X77113684Y-81586186D01*
X77113693Y-81586182D01*
X77327779Y-81486353D01*
X77521283Y-81350858D01*
X77688306Y-81183835D01*
X77818320Y-80998158D01*
X77872897Y-80954534D01*
X77942396Y-80947341D01*
X78004750Y-80978863D01*
X78021470Y-80998158D01*
X78151706Y-81184154D01*
X78318800Y-81351248D01*
X78415585Y-81419018D01*
X78512366Y-81486785D01*
X78512368Y-81486786D01*
X78512371Y-81486788D01*
X78726538Y-81586656D01*
X78954793Y-81647816D01*
X79132492Y-81663363D01*
X79190200Y-81668412D01*
X79190201Y-81668412D01*
X79190202Y-81668412D01*
X79247910Y-81663363D01*
X79425609Y-81647816D01*
X79653864Y-81586656D01*
X79868031Y-81486788D01*
X80061602Y-81351248D01*
X80228696Y-81184154D01*
X80364236Y-80990583D01*
X80464104Y-80776416D01*
X80525264Y-80548161D01*
X80545860Y-80312753D01*
X80525264Y-80077345D01*
X80464104Y-79849090D01*
X80364236Y-79634924D01*
X80358931Y-79627348D01*
X80228697Y-79441353D01*
X80204237Y-79416893D01*
X80106768Y-79319424D01*
X80073285Y-79258104D01*
X80078269Y-79188412D01*
X80120140Y-79132478D01*
X80151116Y-79115563D01*
X80282532Y-79066549D01*
X80397747Y-78980299D01*
X80483997Y-78865084D01*
X80534292Y-78730236D01*
X80540701Y-78670626D01*
X80540700Y-76874881D01*
X80534292Y-76815270D01*
X80533203Y-76812351D01*
X80483998Y-76680424D01*
X80483994Y-76680417D01*
X80397748Y-76565208D01*
X80397745Y-76565205D01*
X80282536Y-76478959D01*
X80282529Y-76478955D01*
X80147683Y-76428661D01*
X80147684Y-76428661D01*
X80088084Y-76422254D01*
X80088082Y-76422253D01*
X80088074Y-76422253D01*
X80088066Y-76422253D01*
X80064701Y-76422253D01*
X79997662Y-76402568D01*
X79951907Y-76349764D01*
X79940701Y-76298253D01*
X79940701Y-69443832D01*
X79911860Y-69298845D01*
X79911859Y-69298844D01*
X79911859Y-69298840D01*
X79900785Y-69272104D01*
X79855288Y-69162264D01*
X79855281Y-69162251D01*
X79773153Y-69039338D01*
X79731261Y-68997446D01*
X79668617Y-68934802D01*
X78025126Y-67291311D01*
X77991641Y-67229988D01*
X77996625Y-67160296D01*
X78038497Y-67104363D01*
X78103961Y-67079946D01*
X78153463Y-67086484D01*
G37*
%TD.AperFunction*%
%TA.AperFunction,Conductor*%
G36*
X76900201Y-79879741D02*
G01*
X76843194Y-79846828D01*
X76716027Y-79812753D01*
X76584375Y-79812753D01*
X76457208Y-79846828D01*
X76400201Y-79879741D01*
X76400201Y-78205765D01*
X76457208Y-78238678D01*
X76584375Y-78272753D01*
X76716027Y-78272753D01*
X76843194Y-78238678D01*
X76900201Y-78205765D01*
X76900201Y-79879741D01*
G37*
%TD.AperFunction*%
%TA.AperFunction,Conductor*%
G36*
X57790808Y-61759801D02*
G01*
X57811450Y-61776435D01*
X60569817Y-64534801D01*
X60592483Y-64570867D01*
X60594313Y-64569986D01*
X60597334Y-64576260D01*
X60597336Y-64576264D01*
X60693309Y-64729004D01*
X60820863Y-64856558D01*
X60890650Y-64900408D01*
X60948121Y-64936520D01*
X60973603Y-64952531D01*
X61074676Y-64987898D01*
X61143870Y-65012110D01*
X61143875Y-65012111D01*
X61323121Y-65032307D01*
X61323125Y-65032307D01*
X61323129Y-65032307D01*
X61502374Y-65012111D01*
X61502377Y-65012110D01*
X61502380Y-65012110D01*
X61672647Y-64952531D01*
X61825387Y-64856558D01*
X61843828Y-64838116D01*
X61905149Y-64804629D01*
X61974841Y-64809610D01*
X62019193Y-64838113D01*
X64756831Y-67575751D01*
X64756837Y-67575756D01*
X64798493Y-67603588D01*
X64812210Y-67612753D01*
X64812254Y-67612782D01*
X64812257Y-67612785D01*
X64812258Y-67612785D01*
X64879752Y-67657883D01*
X64879754Y-67657884D01*
X64879758Y-67657886D01*
X65016329Y-67714455D01*
X65016334Y-67714457D01*
X65016338Y-67714457D01*
X65016339Y-67714458D01*
X65161326Y-67743299D01*
X65161329Y-67743299D01*
X65161330Y-67743299D01*
X65309165Y-67743299D01*
X76303017Y-67743299D01*
X76370056Y-67762984D01*
X76390698Y-67779618D01*
X78403382Y-69792301D01*
X78436867Y-69853624D01*
X78439701Y-69879982D01*
X78439701Y-76298253D01*
X78420016Y-76365292D01*
X78367212Y-76411047D01*
X78315706Y-76422253D01*
X78292333Y-76422253D01*
X78292324Y-76422254D01*
X78232717Y-76428661D01*
X78097872Y-76478955D01*
X78097865Y-76478959D01*
X77982656Y-76565205D01*
X77982653Y-76565208D01*
X77896407Y-76680417D01*
X77896403Y-76680424D01*
X77847198Y-76812351D01*
X77805327Y-76868285D01*
X77739862Y-76892702D01*
X77671589Y-76877850D01*
X77643335Y-76856699D01*
X77521283Y-76734647D01*
X77327779Y-76599152D01*
X77113693Y-76499323D01*
X77113687Y-76499320D01*
X76900201Y-76442117D01*
X76900201Y-77339741D01*
X76843194Y-77306828D01*
X76716027Y-77272753D01*
X76584375Y-77272753D01*
X76457208Y-77306828D01*
X76400201Y-77339741D01*
X76400201Y-76442117D01*
X76400200Y-76442117D01*
X76186714Y-76499320D01*
X76186708Y-76499323D01*
X75972623Y-76599152D01*
X75972621Y-76599153D01*
X75779127Y-76734639D01*
X75779121Y-76734644D01*
X75612092Y-76901673D01*
X75612091Y-76901675D01*
X75482081Y-77087348D01*
X75427504Y-77130972D01*
X75358005Y-77138165D01*
X75295651Y-77106643D01*
X75278932Y-77087348D01*
X75148697Y-76901352D01*
X74981603Y-76734258D01*
X74904720Y-76680424D01*
X74788036Y-76598720D01*
X74788032Y-76598718D01*
X74788030Y-76598717D01*
X74573865Y-76498850D01*
X74573861Y-76498849D01*
X74573857Y-76498847D01*
X74345615Y-76437691D01*
X74345605Y-76437689D01*
X74110203Y-76417094D01*
X74110201Y-76417094D01*
X73874798Y-76437689D01*
X73874788Y-76437691D01*
X73646546Y-76498847D01*
X73646537Y-76498851D01*
X73432373Y-76598717D01*
X73432371Y-76598718D01*
X73238799Y-76734258D01*
X73071710Y-76901347D01*
X72941776Y-77086913D01*
X72887199Y-77130537D01*
X72817700Y-77137730D01*
X72755346Y-77106208D01*
X72738626Y-77086912D01*
X72608695Y-76901350D01*
X72441603Y-76734259D01*
X72441596Y-76734254D01*
X72248035Y-76598720D01*
X72248031Y-76598718D01*
X72248029Y-76598717D01*
X72033864Y-76498850D01*
X72033860Y-76498849D01*
X72033856Y-76498847D01*
X71805614Y-76437691D01*
X71805604Y-76437689D01*
X71570202Y-76417094D01*
X71570200Y-76417094D01*
X71334797Y-76437689D01*
X71334787Y-76437691D01*
X71106545Y-76498847D01*
X71106536Y-76498851D01*
X70892372Y-76598717D01*
X70892370Y-76598718D01*
X70698798Y-76734258D01*
X70531706Y-76901350D01*
X70401776Y-77086911D01*
X70347199Y-77130536D01*
X70277701Y-77137730D01*
X70215346Y-77106207D01*
X70198626Y-77086911D01*
X70068695Y-76901350D01*
X69901603Y-76734259D01*
X69901596Y-76734254D01*
X69708035Y-76598720D01*
X69708031Y-76598718D01*
X69708029Y-76598717D01*
X69493864Y-76498850D01*
X69493860Y-76498849D01*
X69493856Y-76498847D01*
X69265614Y-76437691D01*
X69265604Y-76437689D01*
X69030202Y-76417094D01*
X69030200Y-76417094D01*
X68794797Y-76437689D01*
X68794787Y-76437691D01*
X68566545Y-76498847D01*
X68566536Y-76498851D01*
X68352372Y-76598717D01*
X68352370Y-76598718D01*
X68158798Y-76734258D01*
X67991706Y-76901350D01*
X67861776Y-77086911D01*
X67807199Y-77130536D01*
X67737701Y-77137730D01*
X67675346Y-77106207D01*
X67658626Y-77086911D01*
X67528695Y-76901350D01*
X67361603Y-76734259D01*
X67361596Y-76734254D01*
X67168035Y-76598720D01*
X67168031Y-76598718D01*
X67168029Y-76598717D01*
X66953864Y-76498850D01*
X66953860Y-76498849D01*
X66953856Y-76498847D01*
X66725614Y-76437691D01*
X66725604Y-76437689D01*
X66490202Y-76417094D01*
X66490200Y-76417094D01*
X66254797Y-76437689D01*
X66254787Y-76437691D01*
X66026545Y-76498847D01*
X66026536Y-76498851D01*
X65812372Y-76598717D01*
X65812370Y-76598718D01*
X65618798Y-76734258D01*
X65451706Y-76901350D01*
X65321776Y-77086911D01*
X65267199Y-77130536D01*
X65197701Y-77137730D01*
X65135346Y-77106207D01*
X65118626Y-77086911D01*
X64988695Y-76901350D01*
X64821603Y-76734259D01*
X64821596Y-76734254D01*
X64628035Y-76598720D01*
X64628031Y-76598718D01*
X64628029Y-76598717D01*
X64413864Y-76498850D01*
X64413860Y-76498849D01*
X64413856Y-76498847D01*
X64185614Y-76437691D01*
X64185604Y-76437689D01*
X63950202Y-76417094D01*
X63950200Y-76417094D01*
X63714797Y-76437689D01*
X63714787Y-76437691D01*
X63486545Y-76498847D01*
X63486536Y-76498851D01*
X63272372Y-76598717D01*
X63272370Y-76598718D01*
X63078798Y-76734258D01*
X62911709Y-76901347D01*
X62781775Y-77086913D01*
X62727198Y-77130537D01*
X62657699Y-77137730D01*
X62595345Y-77106208D01*
X62578625Y-77086912D01*
X62448694Y-76901350D01*
X62281602Y-76734259D01*
X62281595Y-76734254D01*
X62088034Y-76598720D01*
X62088030Y-76598718D01*
X62088028Y-76598717D01*
X61873863Y-76498850D01*
X61873859Y-76498849D01*
X61873855Y-76498847D01*
X61645613Y-76437691D01*
X61645603Y-76437689D01*
X61410201Y-76417094D01*
X61410199Y-76417094D01*
X61174796Y-76437689D01*
X61174786Y-76437691D01*
X60946544Y-76498847D01*
X60946535Y-76498851D01*
X60732371Y-76598717D01*
X60732369Y-76598718D01*
X60538797Y-76734258D01*
X60371708Y-76901347D01*
X60241775Y-77086911D01*
X60187198Y-77130535D01*
X60117699Y-77137728D01*
X60055345Y-77106206D01*
X60038625Y-77086910D01*
X59908695Y-76901350D01*
X59741603Y-76734259D01*
X59741596Y-76734254D01*
X59548035Y-76598720D01*
X59548031Y-76598718D01*
X59548029Y-76598717D01*
X59333864Y-76498850D01*
X59333860Y-76498849D01*
X59333856Y-76498847D01*
X59105614Y-76437691D01*
X59105604Y-76437689D01*
X58870202Y-76417094D01*
X58870200Y-76417094D01*
X58634797Y-76437689D01*
X58634787Y-76437691D01*
X58406545Y-76498847D01*
X58406536Y-76498851D01*
X58192372Y-76598717D01*
X58192370Y-76598718D01*
X57998798Y-76734258D01*
X57831706Y-76901350D01*
X57701776Y-77086911D01*
X57647199Y-77130536D01*
X57577701Y-77137730D01*
X57515346Y-77106207D01*
X57498626Y-77086911D01*
X57368695Y-76901350D01*
X57201603Y-76734259D01*
X57201596Y-76734254D01*
X57008035Y-76598720D01*
X57008031Y-76598718D01*
X57008029Y-76598717D01*
X56793864Y-76498850D01*
X56793860Y-76498849D01*
X56793856Y-76498847D01*
X56565614Y-76437691D01*
X56565604Y-76437689D01*
X56330202Y-76417094D01*
X56330200Y-76417094D01*
X56094797Y-76437689D01*
X56094787Y-76437691D01*
X55866545Y-76498847D01*
X55866536Y-76498851D01*
X55652372Y-76598717D01*
X55652370Y-76598718D01*
X55458798Y-76734258D01*
X55291706Y-76901350D01*
X55161776Y-77086911D01*
X55107199Y-77130536D01*
X55037701Y-77137730D01*
X54975346Y-77106207D01*
X54958626Y-77086911D01*
X54828695Y-76901350D01*
X54661603Y-76734259D01*
X54661596Y-76734254D01*
X54468035Y-76598720D01*
X54468031Y-76598718D01*
X54468029Y-76598717D01*
X54253864Y-76498850D01*
X54253860Y-76498849D01*
X54253856Y-76498847D01*
X54025614Y-76437691D01*
X54025604Y-76437689D01*
X53790202Y-76417094D01*
X53790200Y-76417094D01*
X53554797Y-76437689D01*
X53554787Y-76437691D01*
X53326545Y-76498847D01*
X53326536Y-76498851D01*
X53112372Y-76598717D01*
X53112370Y-76598718D01*
X52918798Y-76734258D01*
X52751709Y-76901347D01*
X52621776Y-77086911D01*
X52567199Y-77130535D01*
X52497700Y-77137728D01*
X52435346Y-77106206D01*
X52418626Y-77086910D01*
X52288696Y-76901350D01*
X52121604Y-76734259D01*
X52121597Y-76734254D01*
X51928036Y-76598720D01*
X51928032Y-76598718D01*
X51928030Y-76598717D01*
X51713865Y-76498850D01*
X51713861Y-76498849D01*
X51713857Y-76498847D01*
X51485615Y-76437691D01*
X51485605Y-76437689D01*
X51250203Y-76417094D01*
X51250201Y-76417094D01*
X51014798Y-76437689D01*
X51014788Y-76437691D01*
X50786546Y-76498847D01*
X50786537Y-76498851D01*
X50572373Y-76598717D01*
X50572371Y-76598718D01*
X50378799Y-76734258D01*
X50211710Y-76901347D01*
X50081776Y-77086913D01*
X50027199Y-77130537D01*
X49957700Y-77137730D01*
X49895346Y-77106208D01*
X49878626Y-77086912D01*
X49748695Y-76901350D01*
X49581603Y-76734259D01*
X49581596Y-76734254D01*
X49388035Y-76598720D01*
X49388031Y-76598718D01*
X49388029Y-76598717D01*
X49173864Y-76498850D01*
X49173860Y-76498849D01*
X49173856Y-76498847D01*
X48945614Y-76437691D01*
X48945604Y-76437689D01*
X48710202Y-76417094D01*
X48710200Y-76417094D01*
X48474797Y-76437689D01*
X48474787Y-76437691D01*
X48246545Y-76498847D01*
X48246536Y-76498851D01*
X48032372Y-76598717D01*
X48032370Y-76598718D01*
X47838798Y-76734258D01*
X47671706Y-76901350D01*
X47541776Y-77086911D01*
X47487199Y-77130536D01*
X47417701Y-77137730D01*
X47355346Y-77106207D01*
X47338626Y-77086911D01*
X47208695Y-76901350D01*
X47041603Y-76734259D01*
X47041596Y-76734254D01*
X46848035Y-76598720D01*
X46848031Y-76598718D01*
X46848029Y-76598717D01*
X46633864Y-76498850D01*
X46633860Y-76498849D01*
X46633856Y-76498847D01*
X46405614Y-76437691D01*
X46405604Y-76437689D01*
X46170202Y-76417094D01*
X46170200Y-76417094D01*
X45934797Y-76437689D01*
X45934787Y-76437691D01*
X45706545Y-76498847D01*
X45706536Y-76498851D01*
X45492372Y-76598717D01*
X45492370Y-76598718D01*
X45298798Y-76734258D01*
X45131706Y-76901350D01*
X45001776Y-77086911D01*
X44947199Y-77130536D01*
X44877701Y-77137730D01*
X44815346Y-77106207D01*
X44798626Y-77086911D01*
X44668695Y-76901350D01*
X44501603Y-76734259D01*
X44501596Y-76734254D01*
X44308035Y-76598720D01*
X44308031Y-76598718D01*
X44308029Y-76598717D01*
X44093864Y-76498850D01*
X44093860Y-76498849D01*
X44093856Y-76498847D01*
X43865614Y-76437691D01*
X43865604Y-76437689D01*
X43630202Y-76417094D01*
X43630200Y-76417094D01*
X43394797Y-76437689D01*
X43394787Y-76437691D01*
X43166545Y-76498847D01*
X43166536Y-76498851D01*
X42952372Y-76598717D01*
X42952370Y-76598718D01*
X42758798Y-76734258D01*
X42591709Y-76901347D01*
X42461776Y-77086911D01*
X42407199Y-77130535D01*
X42337700Y-77137728D01*
X42275346Y-77106206D01*
X42258626Y-77086910D01*
X42128696Y-76901350D01*
X41961604Y-76734259D01*
X41961597Y-76734254D01*
X41768036Y-76598720D01*
X41768032Y-76598718D01*
X41768030Y-76598717D01*
X41553865Y-76498850D01*
X41553861Y-76498849D01*
X41553857Y-76498847D01*
X41325615Y-76437691D01*
X41325605Y-76437689D01*
X41090203Y-76417094D01*
X41090201Y-76417094D01*
X40854798Y-76437689D01*
X40854788Y-76437691D01*
X40626546Y-76498847D01*
X40626537Y-76498851D01*
X40412373Y-76598717D01*
X40412371Y-76598718D01*
X40218799Y-76734258D01*
X40051707Y-76901350D01*
X39921776Y-77086913D01*
X39867199Y-77130538D01*
X39797701Y-77137732D01*
X39735346Y-77106209D01*
X39718626Y-77086913D01*
X39588694Y-76901350D01*
X39421602Y-76734259D01*
X39421595Y-76734254D01*
X39228034Y-76598720D01*
X39228030Y-76598718D01*
X39228028Y-76598717D01*
X39013863Y-76498850D01*
X39013859Y-76498849D01*
X39013855Y-76498847D01*
X38785613Y-76437691D01*
X38785603Y-76437689D01*
X38550201Y-76417094D01*
X38550199Y-76417094D01*
X38314796Y-76437689D01*
X38314786Y-76437691D01*
X38086544Y-76498847D01*
X38086535Y-76498851D01*
X37872371Y-76598717D01*
X37872369Y-76598718D01*
X37678797Y-76734258D01*
X37511708Y-76901347D01*
X37381775Y-77086911D01*
X37327198Y-77130535D01*
X37257699Y-77137728D01*
X37195345Y-77106206D01*
X37178625Y-77086910D01*
X37048695Y-76901350D01*
X36881603Y-76734259D01*
X36881596Y-76734254D01*
X36688035Y-76598720D01*
X36688031Y-76598718D01*
X36688029Y-76598717D01*
X36473864Y-76498850D01*
X36473860Y-76498849D01*
X36473856Y-76498847D01*
X36245614Y-76437691D01*
X36245604Y-76437689D01*
X36010202Y-76417094D01*
X36010200Y-76417094D01*
X35774797Y-76437689D01*
X35774787Y-76437691D01*
X35546545Y-76498847D01*
X35546536Y-76498851D01*
X35332372Y-76598717D01*
X35332370Y-76598718D01*
X35138798Y-76734258D01*
X34971706Y-76901350D01*
X34841776Y-77086911D01*
X34787199Y-77130536D01*
X34717701Y-77137730D01*
X34655346Y-77106207D01*
X34638626Y-77086911D01*
X34508695Y-76901350D01*
X34341603Y-76734259D01*
X34341596Y-76734254D01*
X34148035Y-76598720D01*
X34148031Y-76598718D01*
X34148029Y-76598717D01*
X33933864Y-76498850D01*
X33933860Y-76498849D01*
X33933856Y-76498847D01*
X33705614Y-76437691D01*
X33705604Y-76437689D01*
X33470202Y-76417094D01*
X33470200Y-76417094D01*
X33234797Y-76437689D01*
X33234787Y-76437691D01*
X33006545Y-76498847D01*
X33006536Y-76498851D01*
X32792372Y-76598717D01*
X32792370Y-76598718D01*
X32598798Y-76734258D01*
X32431706Y-76901350D01*
X32301776Y-77086911D01*
X32247199Y-77130536D01*
X32177701Y-77137730D01*
X32115346Y-77106207D01*
X32098626Y-77086911D01*
X31968695Y-76901350D01*
X31801603Y-76734259D01*
X31801596Y-76734254D01*
X31608035Y-76598720D01*
X31608031Y-76598718D01*
X31608029Y-76598717D01*
X31393864Y-76498850D01*
X31393860Y-76498849D01*
X31393856Y-76498847D01*
X31165614Y-76437691D01*
X31165604Y-76437689D01*
X30930202Y-76417094D01*
X30930200Y-76417094D01*
X30694797Y-76437689D01*
X30694787Y-76437691D01*
X30466545Y-76498847D01*
X30466536Y-76498851D01*
X30252372Y-76598717D01*
X30252370Y-76598718D01*
X30058798Y-76734258D01*
X29891709Y-76901347D01*
X29761776Y-77086911D01*
X29707199Y-77130535D01*
X29637700Y-77137728D01*
X29575346Y-77106206D01*
X29558626Y-77086910D01*
X29428696Y-76901350D01*
X29261604Y-76734259D01*
X29261597Y-76734254D01*
X29068036Y-76598720D01*
X29068032Y-76598718D01*
X29068030Y-76598717D01*
X28853865Y-76498850D01*
X28853861Y-76498849D01*
X28853857Y-76498847D01*
X28625615Y-76437691D01*
X28625605Y-76437689D01*
X28390203Y-76417094D01*
X28390201Y-76417094D01*
X28154798Y-76437689D01*
X28154788Y-76437691D01*
X27926546Y-76498847D01*
X27926537Y-76498851D01*
X27712373Y-76598717D01*
X27712371Y-76598718D01*
X27518799Y-76734258D01*
X27351710Y-76901347D01*
X27221776Y-77086913D01*
X27167199Y-77130537D01*
X27097700Y-77137730D01*
X27035346Y-77106208D01*
X27018626Y-77086912D01*
X26888695Y-76901350D01*
X26721603Y-76734259D01*
X26721596Y-76734254D01*
X26528035Y-76598720D01*
X26528031Y-76598718D01*
X26528029Y-76598717D01*
X26313864Y-76498850D01*
X26313860Y-76498849D01*
X26313856Y-76498847D01*
X26085614Y-76437691D01*
X26085604Y-76437689D01*
X25850202Y-76417094D01*
X25850200Y-76417094D01*
X25614797Y-76437689D01*
X25614787Y-76437691D01*
X25386545Y-76498847D01*
X25386536Y-76498851D01*
X25172372Y-76598717D01*
X25172370Y-76598718D01*
X24978798Y-76734258D01*
X24811706Y-76901350D01*
X24681776Y-77086911D01*
X24627199Y-77130536D01*
X24557701Y-77137730D01*
X24495346Y-77106207D01*
X24478626Y-77086911D01*
X24348695Y-76901350D01*
X24181603Y-76734259D01*
X24181596Y-76734254D01*
X23988035Y-76598720D01*
X23988031Y-76598718D01*
X23988029Y-76598717D01*
X23773864Y-76498850D01*
X23773860Y-76498849D01*
X23773856Y-76498847D01*
X23545614Y-76437691D01*
X23545604Y-76437689D01*
X23310202Y-76417094D01*
X23310200Y-76417094D01*
X23074797Y-76437689D01*
X23074787Y-76437691D01*
X22846545Y-76498847D01*
X22846536Y-76498851D01*
X22632372Y-76598717D01*
X22632370Y-76598718D01*
X22438798Y-76734258D01*
X22282793Y-76890264D01*
X22221470Y-76923749D01*
X22151778Y-76918765D01*
X22095845Y-76876893D01*
X22071428Y-76811429D01*
X22071112Y-76802583D01*
X22071112Y-74932214D01*
X22090797Y-74865175D01*
X22143601Y-74819420D01*
X22212759Y-74809476D01*
X22276315Y-74838501D01*
X22282793Y-74844533D01*
X22439118Y-75000858D01*
X22632622Y-75136353D01*
X22846708Y-75236182D01*
X22846717Y-75236186D01*
X23060201Y-75293387D01*
X23060201Y-74395765D01*
X23117208Y-74428678D01*
X23244375Y-74462753D01*
X23376027Y-74462753D01*
X23503194Y-74428678D01*
X23560201Y-74395765D01*
X23560201Y-75293386D01*
X23773684Y-75236186D01*
X23773693Y-75236182D01*
X23987779Y-75136353D01*
X24181279Y-75000861D01*
X24303334Y-74878806D01*
X24364657Y-74845321D01*
X24434349Y-74850305D01*
X24490283Y-74892176D01*
X24507198Y-74923154D01*
X24556403Y-75055081D01*
X24556407Y-75055088D01*
X24642653Y-75170297D01*
X24642656Y-75170300D01*
X24757865Y-75256546D01*
X24757872Y-75256550D01*
X24892718Y-75306844D01*
X24892717Y-75306844D01*
X24899645Y-75307588D01*
X24952328Y-75313253D01*
X26748073Y-75313252D01*
X26807684Y-75306844D01*
X26942532Y-75256549D01*
X27057747Y-75170299D01*
X27143997Y-75055084D01*
X27194292Y-74920236D01*
X27200701Y-74860626D01*
X27200701Y-74687253D01*
X27220386Y-74620214D01*
X27273190Y-74574459D01*
X27324701Y-74563253D01*
X27785300Y-74563253D01*
X27852339Y-74582938D01*
X27890839Y-74622157D01*
X27914861Y-74661103D01*
X28036851Y-74783093D01*
X28183685Y-74873661D01*
X28347448Y-74927927D01*
X28448524Y-74938253D01*
X28822602Y-74938252D01*
X28889641Y-74957936D01*
X28910283Y-74974571D01*
X29153985Y-75218273D01*
X29153987Y-75218274D01*
X29153991Y-75218277D01*
X29220283Y-75256550D01*
X29290917Y-75297330D01*
X29443644Y-75338254D01*
X29443646Y-75338254D01*
X29609355Y-75338254D01*
X29609371Y-75338253D01*
X46699217Y-75338253D01*
X46766256Y-75357938D01*
X46812011Y-75410742D01*
X46816259Y-75421299D01*
X46872586Y-75582274D01*
X46968560Y-75735015D01*
X47096114Y-75862569D01*
X47248854Y-75958542D01*
X47419121Y-76018121D01*
X47419126Y-76018122D01*
X47598372Y-76038318D01*
X47598376Y-76038318D01*
X47598380Y-76038318D01*
X47777625Y-76018122D01*
X47777628Y-76018121D01*
X47777631Y-76018121D01*
X47947898Y-75958542D01*
X48100638Y-75862569D01*
X48228192Y-75735015D01*
X48324165Y-75582275D01*
X48383744Y-75412008D01*
X48396665Y-75297329D01*
X48403941Y-75232756D01*
X48403941Y-75232749D01*
X48383745Y-75053503D01*
X48383744Y-75053498D01*
X48324165Y-74883231D01*
X48309968Y-74860636D01*
X48242477Y-74753225D01*
X48223477Y-74685988D01*
X48243845Y-74619153D01*
X48297113Y-74573939D01*
X48347471Y-74563253D01*
X49397789Y-74563253D01*
X49464828Y-74582938D01*
X49475104Y-74590308D01*
X49477937Y-74592567D01*
X49477939Y-74592569D01*
X49587009Y-74661102D01*
X49628627Y-74687253D01*
X49630679Y-74688542D01*
X49800946Y-74748121D01*
X49800951Y-74748122D01*
X49980197Y-74768318D01*
X49980201Y-74768318D01*
X49980205Y-74768318D01*
X50159450Y-74748122D01*
X50159453Y-74748121D01*
X50159456Y-74748121D01*
X50329723Y-74688542D01*
X50482463Y-74592569D01*
X50610017Y-74465015D01*
X50705990Y-74312275D01*
X50765569Y-74142008D01*
X50766105Y-74137253D01*
X50785766Y-73962756D01*
X50785766Y-73962749D01*
X50765570Y-73783503D01*
X50765569Y-73783498D01*
X50744735Y-73723959D01*
X50705990Y-73613231D01*
X50610017Y-73460491D01*
X50482463Y-73332937D01*
X50435374Y-73303349D01*
X50329724Y-73236964D01*
X50159455Y-73177384D01*
X50159450Y-73177383D01*
X49980205Y-73157188D01*
X49980197Y-73157188D01*
X49800951Y-73177383D01*
X49800946Y-73177384D01*
X49630677Y-73236964D01*
X49477937Y-73332938D01*
X49475104Y-73335198D01*
X49472925Y-73336087D01*
X49472043Y-73336642D01*
X49471945Y-73336487D01*
X49410418Y-73361608D01*
X49397789Y-73362253D01*
X48061862Y-73362253D01*
X47994823Y-73342568D01*
X47949068Y-73289764D01*
X47939124Y-73220606D01*
X47968149Y-73157050D01*
X47974180Y-73150572D01*
X48018651Y-73106101D01*
X48063283Y-73061469D01*
X48063283Y-73061467D01*
X48073491Y-73051260D01*
X48073493Y-73051257D01*
X48619840Y-72504909D01*
X48681161Y-72471426D01*
X48693616Y-72469374D01*
X48780560Y-72459579D01*
X48950827Y-72400000D01*
X49103567Y-72304027D01*
X49231121Y-72176473D01*
X49318735Y-72037035D01*
X49371069Y-71990746D01*
X49440122Y-71980098D01*
X49503971Y-72008473D01*
X49511409Y-72015328D01*
X50032250Y-72536169D01*
X50085396Y-72589315D01*
X50136786Y-72640705D01*
X50259699Y-72722833D01*
X50259712Y-72722840D01*
X50393876Y-72778412D01*
X50396288Y-72779411D01*
X50396292Y-72779411D01*
X50396293Y-72779412D01*
X50541280Y-72808253D01*
X50541283Y-72808253D01*
X50788419Y-72808253D01*
X50855458Y-72827938D01*
X50876100Y-72844572D01*
X51024821Y-72993292D01*
X51167978Y-73136449D01*
X51248086Y-73201708D01*
X51404867Y-73280445D01*
X51404869Y-73280446D01*
X51547414Y-73314230D01*
X51575579Y-73320906D01*
X51575582Y-73320906D01*
X51751018Y-73320906D01*
X51751021Y-73320906D01*
X51921733Y-73280445D01*
X52078515Y-73201708D01*
X52158622Y-73136451D01*
X52582897Y-72712174D01*
X52648156Y-72632067D01*
X52726893Y-72475285D01*
X52767354Y-72304573D01*
X52767354Y-72129131D01*
X52766457Y-72125346D01*
X52766598Y-72122671D01*
X52766515Y-72121956D01*
X52766637Y-72121941D01*
X52770149Y-72055575D01*
X52810977Y-71998875D01*
X52875977Y-71973249D01*
X52915717Y-71976092D01*
X52919142Y-71976904D01*
X53094462Y-71976904D01*
X53265063Y-71936470D01*
X53421741Y-71857784D01*
X53501793Y-71792573D01*
X53501798Y-71792568D01*
X53537132Y-71757233D01*
X53537132Y-71757232D01*
X53456648Y-71676748D01*
X71463636Y-71676748D01*
X71463636Y-71676755D01*
X71483831Y-71856001D01*
X71483832Y-71856006D01*
X71543412Y-72026275D01*
X71608041Y-72129131D01*
X71639385Y-72179014D01*
X71766939Y-72306568D01*
X71829914Y-72346138D01*
X71912854Y-72398253D01*
X71919679Y-72402541D01*
X72039565Y-72444491D01*
X72089946Y-72462120D01*
X72089951Y-72462121D01*
X72269197Y-72482317D01*
X72269201Y-72482317D01*
X72269205Y-72482317D01*
X72446853Y-72462301D01*
X72515674Y-72474355D01*
X72567054Y-72521705D01*
X72584678Y-72589315D01*
X72566275Y-72650617D01*
X72488796Y-72776230D01*
X72488792Y-72776239D01*
X72488072Y-72778412D01*
X72434527Y-72940000D01*
X72434527Y-72940001D01*
X72434526Y-72940001D01*
X72424202Y-73041061D01*
X72424201Y-73041081D01*
X72424201Y-73614422D01*
X72424202Y-73614440D01*
X72434526Y-73715505D01*
X72457057Y-73783498D01*
X72482485Y-73860234D01*
X72488793Y-73879268D01*
X72488794Y-73879271D01*
X72523096Y-73934882D01*
X72579361Y-74026103D01*
X72701351Y-74148093D01*
X72848185Y-74238661D01*
X73011948Y-74292927D01*
X73113024Y-74303253D01*
X73711377Y-74303252D01*
X73711385Y-74303251D01*
X73711388Y-74303251D01*
X73766731Y-74297597D01*
X73812454Y-74292927D01*
X73976217Y-74238661D01*
X74123051Y-74148093D01*
X74237020Y-74034124D01*
X74298343Y-74000639D01*
X74368035Y-74005623D01*
X74412382Y-74034124D01*
X74526351Y-74148093D01*
X74673185Y-74238661D01*
X74836948Y-74292927D01*
X74938024Y-74303253D01*
X75536377Y-74303252D01*
X75536385Y-74303251D01*
X75536388Y-74303251D01*
X75591731Y-74297597D01*
X75637454Y-74292927D01*
X75801217Y-74238661D01*
X75948051Y-74148093D01*
X76070041Y-74026103D01*
X76158925Y-73881998D01*
X76202460Y-73839712D01*
X76256917Y-73808273D01*
X76281692Y-73783498D01*
X76287736Y-73777454D01*
X76349058Y-73743968D01*
X76361517Y-73741915D01*
X76448456Y-73732121D01*
X76618723Y-73672542D01*
X76771463Y-73576569D01*
X76899017Y-73449015D01*
X76994990Y-73296275D01*
X77054569Y-73126008D01*
X77054570Y-73126002D01*
X77074766Y-72946756D01*
X77074766Y-72946749D01*
X77054570Y-72767503D01*
X77054569Y-72767498D01*
X77020088Y-72668957D01*
X76994990Y-72597231D01*
X76991378Y-72591483D01*
X76947534Y-72521705D01*
X76899017Y-72444491D01*
X76771463Y-72316937D01*
X76751786Y-72304573D01*
X76618724Y-72220964D01*
X76448455Y-72161384D01*
X76448450Y-72161383D01*
X76269205Y-72141188D01*
X76269197Y-72141188D01*
X76089951Y-72161383D01*
X76089946Y-72161384D01*
X75919677Y-72220964D01*
X75766935Y-72316939D01*
X75766932Y-72316941D01*
X75754196Y-72329677D01*
X75692871Y-72363159D01*
X75644190Y-72363239D01*
X75644188Y-72363267D01*
X75643927Y-72363240D01*
X75640572Y-72363246D01*
X75637456Y-72362579D01*
X75536379Y-72352253D01*
X74938031Y-72352253D01*
X74938013Y-72352254D01*
X74836948Y-72362578D01*
X74673185Y-72416845D01*
X74673182Y-72416846D01*
X74526349Y-72507414D01*
X74412382Y-72621382D01*
X74351059Y-72654867D01*
X74281367Y-72649883D01*
X74237020Y-72621382D01*
X74123050Y-72507412D01*
X74071603Y-72475679D01*
X74024879Y-72423731D01*
X74012701Y-72370141D01*
X74012701Y-71971732D01*
X74032386Y-71904693D01*
X74049016Y-71884055D01*
X74327146Y-71605925D01*
X74392405Y-71525818D01*
X74471142Y-71369036D01*
X74511603Y-71198324D01*
X74511603Y-71022882D01*
X74510706Y-71019097D01*
X74510847Y-71016422D01*
X74510764Y-71015707D01*
X74510886Y-71015692D01*
X74514398Y-70949326D01*
X74555226Y-70892626D01*
X74620226Y-70867000D01*
X74659966Y-70869843D01*
X74663391Y-70870655D01*
X74838711Y-70870655D01*
X75009312Y-70830221D01*
X75165990Y-70751535D01*
X75246042Y-70686324D01*
X75246047Y-70686319D01*
X75281381Y-70650984D01*
X75281381Y-70650983D01*
X74591952Y-69961555D01*
X74238398Y-69608001D01*
X74945505Y-69608001D01*
X74945505Y-69608002D01*
X75634933Y-70297431D01*
X75670271Y-70262093D01*
X75670277Y-70262086D01*
X75735486Y-70182037D01*
X75814171Y-70025362D01*
X75854605Y-69854761D01*
X75854605Y-69679440D01*
X75814171Y-69508839D01*
X75735483Y-69352158D01*
X75670284Y-69272122D01*
X75670268Y-69272104D01*
X75475835Y-69077671D01*
X75475834Y-69077671D01*
X74945505Y-69608001D01*
X74238398Y-69608001D01*
X73548969Y-68918571D01*
X73513629Y-68953914D01*
X73513619Y-68953925D01*
X73448418Y-69033963D01*
X73369732Y-69190641D01*
X73329299Y-69361242D01*
X73329299Y-69536564D01*
X73330112Y-69539995D01*
X73329983Y-69542423D01*
X73330137Y-69543738D01*
X73329912Y-69543764D01*
X73326418Y-69609767D01*
X73285588Y-69666465D01*
X73220587Y-69692089D01*
X73180863Y-69689249D01*
X73177077Y-69688352D01*
X73177075Y-69688351D01*
X73177072Y-69688351D01*
X73001630Y-69688351D01*
X73001628Y-69688351D01*
X73001622Y-69688352D01*
X72830918Y-69728811D01*
X72674136Y-69807548D01*
X72594039Y-69872797D01*
X72594021Y-69872813D01*
X72169757Y-70297079D01*
X72169748Y-70297089D01*
X72104493Y-70377192D01*
X72025757Y-70533972D01*
X71985298Y-70704676D01*
X71985297Y-70704687D01*
X71985297Y-70841448D01*
X71965612Y-70908487D01*
X71924220Y-70945103D01*
X71925575Y-70947258D01*
X71766938Y-71046936D01*
X71639385Y-71174489D01*
X71543412Y-71327228D01*
X71483832Y-71497497D01*
X71483831Y-71497502D01*
X71463636Y-71676748D01*
X53456648Y-71676748D01*
X52581831Y-70801931D01*
X52548346Y-70740608D01*
X52550231Y-70714250D01*
X53201256Y-70714250D01*
X53201256Y-70714251D01*
X53890685Y-71403680D01*
X53926022Y-71368342D01*
X53926028Y-71368335D01*
X53991237Y-71288286D01*
X54069922Y-71131611D01*
X54110356Y-70961010D01*
X54110356Y-70785689D01*
X54069922Y-70615088D01*
X53991234Y-70458407D01*
X53926035Y-70378371D01*
X53926019Y-70378353D01*
X53731586Y-70183920D01*
X53731585Y-70183920D01*
X53201256Y-70714250D01*
X52550231Y-70714250D01*
X52553330Y-70670916D01*
X52581831Y-70626569D01*
X52847703Y-70360698D01*
X53378033Y-69830367D01*
X53183587Y-69635923D01*
X53103540Y-69570716D01*
X52946865Y-69492031D01*
X52776264Y-69451598D01*
X52600944Y-69451598D01*
X52430336Y-69492032D01*
X52423555Y-69494501D01*
X52422696Y-69492142D01*
X52365572Y-69502509D01*
X52300993Y-69475837D01*
X52261087Y-69418485D01*
X52254701Y-69379206D01*
X52254701Y-68736983D01*
X52274386Y-68669944D01*
X52291020Y-68649302D01*
X52375304Y-68565018D01*
X73902522Y-68565018D01*
X73902522Y-68565019D01*
X74591952Y-69254449D01*
X74591953Y-69254449D01*
X75122282Y-68724118D01*
X74927836Y-68529674D01*
X74847789Y-68464467D01*
X74691114Y-68385782D01*
X74520513Y-68345349D01*
X74345193Y-68345349D01*
X74174591Y-68385782D01*
X74017910Y-68464470D01*
X73937874Y-68529669D01*
X73937855Y-68529686D01*
X73902522Y-68565018D01*
X52375304Y-68565018D01*
X53265999Y-67674323D01*
X53327322Y-67640838D01*
X53353680Y-67638004D01*
X54688668Y-67638004D01*
X54755707Y-67657689D01*
X54776349Y-67674323D01*
X54946285Y-67844258D01*
X55068227Y-67966200D01*
X55148335Y-68031459D01*
X55298083Y-68106664D01*
X55305118Y-68110197D01*
X55447663Y-68143981D01*
X55475828Y-68150657D01*
X55475831Y-68150657D01*
X55651267Y-68150657D01*
X55651270Y-68150657D01*
X55821982Y-68110196D01*
X55978764Y-68031459D01*
X56058871Y-67966202D01*
X56149708Y-67875363D01*
X56171419Y-67858050D01*
X56250958Y-67808073D01*
X56250958Y-67808072D01*
X56250961Y-67808071D01*
X56378515Y-67680517D01*
X56428500Y-67600963D01*
X56445806Y-67579263D01*
X56483146Y-67541925D01*
X56548405Y-67461818D01*
X56627142Y-67305036D01*
X56667603Y-67134324D01*
X56667603Y-66958882D01*
X56666706Y-66955097D01*
X56666847Y-66952422D01*
X56666764Y-66951707D01*
X56666886Y-66951692D01*
X56670398Y-66885326D01*
X56711226Y-66828626D01*
X56776226Y-66803000D01*
X56815966Y-66805843D01*
X56819391Y-66806655D01*
X56994711Y-66806655D01*
X57165312Y-66766221D01*
X57321990Y-66687535D01*
X57402042Y-66622324D01*
X57402047Y-66622319D01*
X57437381Y-66586984D01*
X57437381Y-66586983D01*
X56747952Y-65897555D01*
X56394398Y-65544001D01*
X57101505Y-65544001D01*
X57101505Y-65544002D01*
X57790934Y-66233431D01*
X57826271Y-66198093D01*
X57826277Y-66198086D01*
X57891486Y-66118037D01*
X57970171Y-65961362D01*
X58010605Y-65790761D01*
X58010605Y-65615440D01*
X57970171Y-65444839D01*
X57891483Y-65288158D01*
X57826284Y-65208122D01*
X57826268Y-65208104D01*
X57631835Y-65013671D01*
X57631834Y-65013671D01*
X57101505Y-65544001D01*
X56394398Y-65544001D01*
X55704969Y-64854571D01*
X55669629Y-64889914D01*
X55669619Y-64889925D01*
X55604418Y-64969963D01*
X55525732Y-65126641D01*
X55485299Y-65297242D01*
X55485299Y-65472564D01*
X55486112Y-65475995D01*
X55485983Y-65478423D01*
X55486137Y-65479738D01*
X55485912Y-65479764D01*
X55482418Y-65545767D01*
X55441588Y-65602465D01*
X55376587Y-65628089D01*
X55336863Y-65625249D01*
X55333077Y-65624352D01*
X55333075Y-65624351D01*
X55333072Y-65624351D01*
X55157630Y-65624351D01*
X55157628Y-65624351D01*
X55157622Y-65624352D01*
X54986918Y-65664811D01*
X54830136Y-65743548D01*
X54750039Y-65808797D01*
X54750021Y-65808813D01*
X54458151Y-66100685D01*
X54396828Y-66134170D01*
X54370470Y-66137004D01*
X52917526Y-66137004D01*
X52888692Y-66142738D01*
X52888693Y-66142739D01*
X52772542Y-66165843D01*
X52772536Y-66165845D01*
X52727892Y-66184338D01*
X52635956Y-66222419D01*
X52619993Y-66233085D01*
X52619992Y-66233084D01*
X52513035Y-66304550D01*
X52513028Y-66304556D01*
X50921250Y-67896334D01*
X50882616Y-67954154D01*
X50882617Y-67954155D01*
X50839115Y-68019261D01*
X50782544Y-68155835D01*
X50782541Y-68155845D01*
X50753701Y-68300832D01*
X50753701Y-70111514D01*
X50734016Y-70178553D01*
X50681212Y-70224308D01*
X50643584Y-70234734D01*
X50541204Y-70246269D01*
X50541199Y-70246270D01*
X50532935Y-70249162D01*
X50463156Y-70252723D01*
X50404302Y-70219801D01*
X45799609Y-65615108D01*
X45799607Y-65615105D01*
X45680736Y-65496234D01*
X45680735Y-65496233D01*
X45593923Y-65446113D01*
X45593923Y-65446112D01*
X45593919Y-65446111D01*
X45543804Y-65417176D01*
X45391076Y-65376252D01*
X45232962Y-65376252D01*
X45225366Y-65376252D01*
X45225350Y-65376253D01*
X43522298Y-65376253D01*
X43455259Y-65356568D01*
X43434617Y-65339934D01*
X42995091Y-64900408D01*
X42961606Y-64839085D01*
X42966590Y-64769393D01*
X43008462Y-64713460D01*
X43073926Y-64689043D01*
X43138419Y-64701915D01*
X43264701Y-64765335D01*
X43276869Y-64771446D01*
X43416876Y-64804629D01*
X43447579Y-64811906D01*
X43447582Y-64811906D01*
X43623018Y-64811906D01*
X43623021Y-64811906D01*
X43793733Y-64771445D01*
X43950515Y-64692708D01*
X44030622Y-64627451D01*
X44157054Y-64501018D01*
X56058522Y-64501018D01*
X56058522Y-64501019D01*
X56747952Y-65190449D01*
X56747953Y-65190449D01*
X57278282Y-64660118D01*
X57083836Y-64465674D01*
X57003789Y-64400467D01*
X56847114Y-64321782D01*
X56676513Y-64281349D01*
X56501193Y-64281349D01*
X56330591Y-64321782D01*
X56173910Y-64400470D01*
X56093874Y-64465669D01*
X56093855Y-64465686D01*
X56058522Y-64501018D01*
X44157054Y-64501018D01*
X44268729Y-64389343D01*
X44322500Y-64335572D01*
X44383823Y-64302087D01*
X44410181Y-64299253D01*
X45386480Y-64299253D01*
X45484022Y-64279849D01*
X45531473Y-64270411D01*
X45668055Y-64213837D01*
X45720837Y-64178569D01*
X45790976Y-64131705D01*
X46146444Y-63776237D01*
X54317273Y-63776237D01*
X54352606Y-63811569D01*
X54352625Y-63811586D01*
X54432664Y-63876788D01*
X54589342Y-63955474D01*
X54759944Y-63995908D01*
X54935264Y-63995908D01*
X55105865Y-63955474D01*
X55262546Y-63876786D01*
X55342582Y-63811587D01*
X55342600Y-63811571D01*
X55537033Y-63617138D01*
X55537033Y-63617137D01*
X55006704Y-63086808D01*
X55006703Y-63086808D01*
X54317273Y-63776237D01*
X46146444Y-63776237D01*
X46158609Y-63764072D01*
X46219932Y-63730587D01*
X46246290Y-63727753D01*
X46434621Y-63727753D01*
X46532163Y-63708349D01*
X46579614Y-63698911D01*
X46716196Y-63642337D01*
X46784159Y-63596926D01*
X46839117Y-63560205D01*
X46889249Y-63510073D01*
X46950572Y-63476587D01*
X46976931Y-63473753D01*
X52133678Y-63473753D01*
X52231220Y-63454349D01*
X52278671Y-63444911D01*
X52415253Y-63388337D01*
X52490112Y-63338318D01*
X52531523Y-63310649D01*
X52538170Y-63306208D01*
X52538170Y-63306207D01*
X52538174Y-63306205D01*
X53185629Y-62658748D01*
X53246950Y-62625265D01*
X53301906Y-62625774D01*
X53416381Y-62652906D01*
X53420044Y-62652906D01*
X53422542Y-62653625D01*
X53423554Y-62653744D01*
X53423534Y-62653911D01*
X53486018Y-62671914D01*
X53494175Y-62677039D01*
X53494177Y-62677040D01*
X53661004Y-62735415D01*
X53717780Y-62776137D01*
X53743528Y-62841089D01*
X53744050Y-62852457D01*
X53744050Y-62980014D01*
X53784483Y-63150615D01*
X53863171Y-63307296D01*
X53928370Y-63387332D01*
X53928386Y-63387350D01*
X53963719Y-63422683D01*
X54919021Y-62467382D01*
X54980344Y-62433897D01*
X55050035Y-62438881D01*
X55094383Y-62467382D01*
X55890586Y-63263585D01*
X56085022Y-63069148D01*
X56085028Y-63069141D01*
X56150237Y-62989092D01*
X56228922Y-62832417D01*
X56269356Y-62661816D01*
X56269356Y-62486495D01*
X56228922Y-62315894D01*
X56150234Y-62159213D01*
X56085035Y-62079177D01*
X56085019Y-62079159D01*
X55957657Y-61951797D01*
X55924172Y-61890474D01*
X55929156Y-61820782D01*
X55971028Y-61764849D01*
X56036492Y-61740432D01*
X56045338Y-61740116D01*
X57723769Y-61740116D01*
X57790808Y-61759801D01*
G37*
%TD.AperFunction*%
%TA.AperFunction,Conductor*%
G36*
X27852339Y-72042938D02*
G01*
X27890839Y-72082157D01*
X27914861Y-72121103D01*
X28036851Y-72243093D01*
X28183685Y-72333661D01*
X28347448Y-72387927D01*
X28448524Y-72398253D01*
X29046877Y-72398252D01*
X29046885Y-72398251D01*
X29046888Y-72398251D01*
X29102231Y-72392597D01*
X29147954Y-72387927D01*
X29266815Y-72348539D01*
X29336643Y-72346138D01*
X29393500Y-72378565D01*
X29934088Y-72919153D01*
X29967573Y-72980476D01*
X29962589Y-73050168D01*
X29920717Y-73106101D01*
X29911506Y-73112371D01*
X29862166Y-73142805D01*
X29748235Y-73256736D01*
X29686912Y-73290220D01*
X29617220Y-73285236D01*
X29572873Y-73256735D01*
X29458552Y-73142414D01*
X29458551Y-73142413D01*
X29337263Y-73067602D01*
X29311719Y-73051846D01*
X29311714Y-73051844D01*
X29296187Y-73046699D01*
X29147954Y-72997579D01*
X29147952Y-72997578D01*
X29046879Y-72987253D01*
X28448531Y-72987253D01*
X28448513Y-72987254D01*
X28347448Y-72997578D01*
X28183685Y-73051845D01*
X28183682Y-73051846D01*
X28036849Y-73142414D01*
X27914860Y-73264403D01*
X27890839Y-73303349D01*
X27838891Y-73350074D01*
X27785300Y-73362253D01*
X27324700Y-73362253D01*
X27257661Y-73342568D01*
X27211906Y-73289764D01*
X27200700Y-73238253D01*
X27200700Y-73064882D01*
X27200699Y-73064876D01*
X27200332Y-73061466D01*
X27194292Y-73005270D01*
X27193203Y-73002351D01*
X27143998Y-72870424D01*
X27143994Y-72870417D01*
X27057748Y-72755208D01*
X27057745Y-72755205D01*
X26942536Y-72668959D01*
X26942529Y-72668955D01*
X26811118Y-72619942D01*
X26755184Y-72578071D01*
X26730767Y-72512606D01*
X26745619Y-72444333D01*
X26766764Y-72416085D01*
X26888696Y-72294154D01*
X27024236Y-72100583D01*
X27026908Y-72094850D01*
X27073079Y-72042411D01*
X27139292Y-72023253D01*
X27785300Y-72023253D01*
X27852339Y-72042938D01*
G37*
%TD.AperFunction*%
%TA.AperFunction,Conductor*%
G36*
X24665056Y-72089299D02*
G01*
X24681776Y-72108595D01*
X24811702Y-72294149D01*
X24811707Y-72294155D01*
X24933631Y-72416079D01*
X24967116Y-72477402D01*
X24962132Y-72547094D01*
X24920260Y-72603027D01*
X24889284Y-72619942D01*
X24757870Y-72668956D01*
X24757865Y-72668959D01*
X24642656Y-72755205D01*
X24642653Y-72755208D01*
X24556407Y-72870417D01*
X24556403Y-72870424D01*
X24507198Y-73002351D01*
X24465327Y-73058285D01*
X24399862Y-73082702D01*
X24331589Y-73067850D01*
X24303335Y-73046699D01*
X24181279Y-72924643D01*
X23995606Y-72794632D01*
X23951981Y-72740055D01*
X23944789Y-72670557D01*
X23976311Y-72608202D01*
X23995607Y-72591483D01*
X24181602Y-72461248D01*
X24348696Y-72294154D01*
X24478626Y-72108595D01*
X24533203Y-72064970D01*
X24602701Y-72057776D01*
X24665056Y-72089299D01*
G37*
%TD.AperFunction*%
%TA.AperFunction,Conductor*%
G36*
X27846035Y-62758667D02*
G01*
X27901968Y-62800539D01*
X27926385Y-62866003D01*
X27926701Y-62874849D01*
X27926701Y-63406755D01*
X27926702Y-63406773D01*
X27937201Y-63509550D01*
X27937202Y-63509553D01*
X27972853Y-63617138D01*
X27992387Y-63676088D01*
X28075962Y-63811586D01*
X28084490Y-63825411D01*
X28208545Y-63949466D01*
X28211854Y-63951507D01*
X28213646Y-63953499D01*
X28214212Y-63953947D01*
X28214135Y-63954043D01*
X28258579Y-64003454D01*
X28269802Y-64072417D01*
X28241959Y-64136499D01*
X28211866Y-64162578D01*
X28208860Y-64164431D01*
X28084885Y-64288406D01*
X27992844Y-64437627D01*
X27992842Y-64437632D01*
X27937695Y-64604054D01*
X27937694Y-64604061D01*
X27927201Y-64706765D01*
X27927201Y-64756752D01*
X29278201Y-64756752D01*
X29345240Y-64776437D01*
X29390995Y-64829241D01*
X29402201Y-64880752D01*
X29402201Y-65132752D01*
X29382516Y-65199791D01*
X29329712Y-65245546D01*
X29278201Y-65256752D01*
X27927202Y-65256752D01*
X27927202Y-65306738D01*
X27937695Y-65409449D01*
X27992842Y-65575871D01*
X27992844Y-65575876D01*
X28084885Y-65725097D01*
X28106506Y-65746718D01*
X28139991Y-65808041D01*
X28135007Y-65877733D01*
X28106508Y-65922079D01*
X28084490Y-65944097D01*
X27992388Y-66093417D01*
X27992386Y-66093422D01*
X27976044Y-66142739D01*
X27937202Y-66259957D01*
X27937202Y-66259958D01*
X27937201Y-66259958D01*
X27926701Y-66362737D01*
X27926701Y-66962755D01*
X27926702Y-66962773D01*
X27937201Y-67065550D01*
X27937202Y-67065553D01*
X27970402Y-67165742D01*
X27992387Y-67232088D01*
X28067574Y-67353987D01*
X28084490Y-67381411D01*
X28208545Y-67505466D01*
X28211854Y-67507507D01*
X28213646Y-67509499D01*
X28214212Y-67509947D01*
X28214135Y-67510043D01*
X28258579Y-67559454D01*
X28269802Y-67628417D01*
X28241959Y-67692499D01*
X28211866Y-67718578D01*
X28208860Y-67720431D01*
X28084885Y-67844406D01*
X27992844Y-67993627D01*
X27992842Y-67993632D01*
X27937695Y-68160054D01*
X27937694Y-68160061D01*
X27927201Y-68262765D01*
X27927201Y-68312752D01*
X30296201Y-68312752D01*
X30363240Y-68332437D01*
X30385017Y-68357569D01*
X30420201Y-68392753D01*
X33217201Y-68392753D01*
X33217201Y-68191656D01*
X33214303Y-68148928D01*
X33168369Y-67964229D01*
X33083810Y-67793730D01*
X33083808Y-67793727D01*
X32964569Y-67645388D01*
X32895316Y-67589720D01*
X32855398Y-67532377D01*
X32852818Y-67462554D01*
X32888397Y-67402422D01*
X32895291Y-67396447D01*
X32964924Y-67340475D01*
X33084232Y-67192049D01*
X33099056Y-67162159D01*
X33146477Y-67110846D01*
X33210144Y-67093253D01*
X36392701Y-67093253D01*
X36459740Y-67112938D01*
X36505495Y-67165742D01*
X36516701Y-67217253D01*
X36516701Y-67800787D01*
X36527313Y-67920168D01*
X36583289Y-68115798D01*
X36583290Y-68115801D01*
X36583291Y-68115802D01*
X36677502Y-68296160D01*
X36677504Y-68296162D01*
X36806090Y-68453862D01*
X36848680Y-68488589D01*
X36963793Y-68582451D01*
X37144151Y-68676662D01*
X37339782Y-68732639D01*
X37459163Y-68743253D01*
X38575236Y-68743252D01*
X38694618Y-68732639D01*
X38890249Y-68676662D01*
X39070607Y-68582451D01*
X39223745Y-68457582D01*
X39288139Y-68430475D01*
X39356969Y-68442484D01*
X39407643Y-68488589D01*
X39464085Y-68580096D01*
X39588055Y-68704066D01*
X39737276Y-68796107D01*
X39737281Y-68796109D01*
X39903703Y-68851256D01*
X39903710Y-68851257D01*
X40006420Y-68861750D01*
X40281400Y-68861750D01*
X40281401Y-68861749D01*
X40281401Y-67735751D01*
X40301086Y-67668712D01*
X40353890Y-67622957D01*
X40405401Y-67611751D01*
X41756400Y-67611751D01*
X41756400Y-67561779D01*
X41756399Y-67561764D01*
X41745906Y-67459053D01*
X41690759Y-67292631D01*
X41690757Y-67292626D01*
X41598716Y-67143405D01*
X41474745Y-67019434D01*
X41474742Y-67019432D01*
X41471740Y-67017580D01*
X41470114Y-67015772D01*
X41469078Y-67014953D01*
X41469218Y-67014775D01*
X41425019Y-66965630D01*
X41413800Y-66896666D01*
X41441647Y-66832586D01*
X41471749Y-66806504D01*
X41475057Y-66804465D01*
X41530950Y-66748572D01*
X41592273Y-66715087D01*
X41618631Y-66712253D01*
X41972571Y-66712253D01*
X42039610Y-66731938D01*
X42060252Y-66748572D01*
X42332267Y-67020587D01*
X42577077Y-67265396D01*
X42610562Y-67326719D01*
X42605578Y-67396410D01*
X42577078Y-67440757D01*
X42498011Y-67519825D01*
X42498001Y-67519836D01*
X42432746Y-67599939D01*
X42354010Y-67756719D01*
X42313551Y-67927423D01*
X42313550Y-67927434D01*
X42313550Y-68102869D01*
X42313551Y-68102878D01*
X42314448Y-68106664D01*
X42314306Y-68109339D01*
X42314389Y-68110048D01*
X42314267Y-68110062D01*
X42310751Y-68176436D01*
X42269920Y-68233133D01*
X42204918Y-68258755D01*
X42165194Y-68255913D01*
X42161764Y-68255100D01*
X41986441Y-68255100D01*
X41908996Y-68273454D01*
X41839224Y-68269760D01*
X41782526Y-68228930D01*
X41756902Y-68163929D01*
X41756401Y-68152796D01*
X41756401Y-68111751D01*
X40781401Y-68111751D01*
X40781401Y-68861750D01*
X40929797Y-68861750D01*
X40996836Y-68881435D01*
X41042591Y-68934239D01*
X41052535Y-69003397D01*
X41040608Y-69041401D01*
X41010981Y-69100392D01*
X40970548Y-69270993D01*
X40970548Y-69446314D01*
X41010981Y-69616915D01*
X41089669Y-69773596D01*
X41154861Y-69853624D01*
X41154884Y-69853650D01*
X41349316Y-70048082D01*
X42145519Y-69251880D01*
X42206842Y-69218395D01*
X42276533Y-69223379D01*
X42320881Y-69251880D01*
X42805102Y-69736101D01*
X42880740Y-69736101D01*
X42947779Y-69755786D01*
X42968421Y-69772420D01*
X44150073Y-70954072D01*
X44183558Y-71015395D01*
X44178574Y-71085087D01*
X44150073Y-71129434D01*
X43971882Y-71307625D01*
X43910559Y-71341110D01*
X43840867Y-71336126D01*
X43796520Y-71307625D01*
X43312300Y-70823405D01*
X43236662Y-70823405D01*
X43169623Y-70803720D01*
X43148981Y-70787086D01*
X42233202Y-69871306D01*
X42233201Y-69871306D01*
X41702870Y-70401635D01*
X41897316Y-70596080D01*
X41977363Y-70661287D01*
X42134038Y-70739972D01*
X42304640Y-70780406D01*
X42479955Y-70780406D01*
X42483145Y-70780033D01*
X42485329Y-70780406D01*
X42487184Y-70780406D01*
X42487184Y-70780722D01*
X42552017Y-70791798D01*
X42603596Y-70838930D01*
X42621548Y-70903194D01*
X42621548Y-70970314D01*
X42661981Y-71140915D01*
X42740669Y-71297596D01*
X42805868Y-71377632D01*
X42805884Y-71377650D01*
X43308807Y-71880572D01*
X43342292Y-71941895D01*
X43337308Y-72011586D01*
X43295437Y-72067520D01*
X43229972Y-72091937D01*
X43221126Y-72092253D01*
X35548298Y-72092253D01*
X35481259Y-72072568D01*
X35460617Y-72055934D01*
X35002519Y-71597836D01*
X34969034Y-71536513D01*
X34966200Y-71510155D01*
X34966200Y-71136083D01*
X34966199Y-71136066D01*
X34955875Y-71035000D01*
X34951858Y-71022879D01*
X34901609Y-70871237D01*
X34811041Y-70724403D01*
X34689051Y-70602413D01*
X34542217Y-70511845D01*
X34378454Y-70457579D01*
X34378452Y-70457578D01*
X34277385Y-70447253D01*
X34277378Y-70447253D01*
X33903299Y-70447253D01*
X33836260Y-70427568D01*
X33815618Y-70410934D01*
X33078985Y-69674301D01*
X33045500Y-69612978D01*
X33050484Y-69543286D01*
X33070021Y-69508930D01*
X33083809Y-69491777D01*
X33168369Y-69321276D01*
X33214303Y-69136577D01*
X33217201Y-69093849D01*
X33217201Y-68892753D01*
X30298201Y-68892753D01*
X30231162Y-68873068D01*
X30209384Y-68847935D01*
X30174201Y-68812752D01*
X27927202Y-68812752D01*
X27927202Y-68862738D01*
X27937695Y-68965449D01*
X27938953Y-68969245D01*
X27939038Y-68971727D01*
X27939112Y-68972071D01*
X27939050Y-68972084D01*
X27941358Y-69039074D01*
X27905629Y-69099117D01*
X27843109Y-69130312D01*
X27821249Y-69132254D01*
X27319353Y-69132254D01*
X27252314Y-69112569D01*
X27206559Y-69059765D01*
X27195825Y-68997448D01*
X27205860Y-68882754D01*
X27185264Y-68647346D01*
X27124104Y-68419091D01*
X27024236Y-68204925D01*
X27024235Y-68204923D01*
X26888695Y-68011351D01*
X26721603Y-67844260D01*
X26721602Y-67844259D01*
X26659520Y-67800789D01*
X26536040Y-67714327D01*
X26492417Y-67659751D01*
X26485224Y-67590252D01*
X26516746Y-67527898D01*
X26536038Y-67511181D01*
X26721602Y-67381248D01*
X26888696Y-67214154D01*
X27024236Y-67020583D01*
X27124104Y-66806416D01*
X27185264Y-66578161D01*
X27205860Y-66342753D01*
X27185264Y-66107345D01*
X27124104Y-65879090D01*
X27024236Y-65664924D01*
X27022368Y-65662255D01*
X26888695Y-65471350D01*
X26721603Y-65304259D01*
X26721597Y-65304254D01*
X26536043Y-65174328D01*
X26492418Y-65119751D01*
X26485224Y-65050253D01*
X26516747Y-64987898D01*
X26536043Y-64971178D01*
X26580468Y-64940071D01*
X26721602Y-64841248D01*
X26888696Y-64674154D01*
X27024236Y-64480583D01*
X27124104Y-64266416D01*
X27185264Y-64038161D01*
X27205860Y-63802753D01*
X27185264Y-63567345D01*
X27150872Y-63438992D01*
X27152535Y-63369146D01*
X27182964Y-63319223D01*
X27715021Y-62787167D01*
X27776343Y-62753683D01*
X27846035Y-62758667D01*
G37*
%TD.AperFunction*%
%TA.AperFunction,Conductor*%
G36*
X47117035Y-43699800D02*
G01*
X47172968Y-43741672D01*
X47197385Y-43807136D01*
X47197701Y-43815982D01*
X47197701Y-43817781D01*
X47190743Y-43858735D01*
X47162832Y-43938500D01*
X47142636Y-44117749D01*
X47142636Y-44117756D01*
X47162831Y-44297002D01*
X47162832Y-44297007D01*
X47190743Y-44376770D01*
X47197701Y-44417725D01*
X47197701Y-48763671D01*
X47197701Y-48763673D01*
X47197700Y-48763673D01*
X47226541Y-48908660D01*
X47226544Y-48908670D01*
X47283115Y-49045245D01*
X47316013Y-49094480D01*
X47316014Y-49094483D01*
X47365247Y-49168167D01*
X47365253Y-49168174D01*
X48358785Y-50161705D01*
X48358787Y-50161707D01*
X48371481Y-50170188D01*
X48401709Y-50190385D01*
X48481706Y-50243837D01*
X48618288Y-50300411D01*
X48618292Y-50300411D01*
X48618293Y-50300412D01*
X48763280Y-50329253D01*
X48763283Y-50329253D01*
X48763284Y-50329253D01*
X48911119Y-50329253D01*
X54015020Y-50329253D01*
X54082059Y-50348938D01*
X54102701Y-50365572D01*
X58543431Y-54806302D01*
X58576916Y-54867625D01*
X58579750Y-54893983D01*
X58579750Y-60196220D01*
X58560065Y-60263259D01*
X58507261Y-60309014D01*
X58438103Y-60318958D01*
X58408298Y-60310781D01*
X58304916Y-60267959D01*
X58304906Y-60267956D01*
X58159919Y-60239116D01*
X58159917Y-60239116D01*
X54253598Y-60239116D01*
X54197948Y-60225927D01*
X54080730Y-60167059D01*
X53910028Y-60126601D01*
X53910023Y-60126600D01*
X53910021Y-60126600D01*
X53734579Y-60126600D01*
X53734577Y-60126600D01*
X53734571Y-60126601D01*
X53563869Y-60167059D01*
X53458405Y-60220024D01*
X53407086Y-60245798D01*
X53407084Y-60245799D01*
X53407079Y-60245802D01*
X53326989Y-60311045D01*
X53326971Y-60311061D01*
X52584512Y-61053522D01*
X52584501Y-61053534D01*
X52519248Y-61133635D01*
X52519244Y-61133640D01*
X52458854Y-61253887D01*
X52435725Y-61285916D01*
X51785209Y-61936434D01*
X51723886Y-61969919D01*
X51697528Y-61972753D01*
X48725931Y-61972753D01*
X48658892Y-61953068D01*
X48613137Y-61900264D01*
X48603193Y-61831106D01*
X48632218Y-61767550D01*
X48638250Y-61761072D01*
X49293148Y-61106174D01*
X49293153Y-61106169D01*
X49328330Y-61053522D01*
X49354806Y-61013898D01*
X49354808Y-61013893D01*
X49354814Y-61013885D01*
X49375285Y-60983248D01*
X49431859Y-60846666D01*
X49449237Y-60759302D01*
X49460701Y-60701673D01*
X49460701Y-59029834D01*
X49457069Y-59011577D01*
X49447842Y-58965192D01*
X49448801Y-58912406D01*
X49465354Y-58842573D01*
X49465354Y-58667131D01*
X49464457Y-58663346D01*
X49464598Y-58660671D01*
X49464515Y-58659956D01*
X49464637Y-58659941D01*
X49468149Y-58593575D01*
X49508977Y-58536875D01*
X49573977Y-58511249D01*
X49613717Y-58514092D01*
X49617142Y-58514904D01*
X49792462Y-58514904D01*
X49963063Y-58474470D01*
X50119741Y-58395784D01*
X50199793Y-58330573D01*
X50199798Y-58330568D01*
X50235132Y-58295233D01*
X50235132Y-58295232D01*
X49545703Y-57605804D01*
X49192149Y-57252250D01*
X49899256Y-57252250D01*
X49899256Y-57252251D01*
X50588685Y-57941680D01*
X50624022Y-57906342D01*
X50624028Y-57906335D01*
X50689237Y-57826286D01*
X50767922Y-57669611D01*
X50808356Y-57499010D01*
X50808356Y-57323689D01*
X50767922Y-57153088D01*
X50689234Y-56996407D01*
X50624035Y-56916371D01*
X50624019Y-56916353D01*
X50429586Y-56721920D01*
X50429585Y-56721920D01*
X49899256Y-57252250D01*
X49192149Y-57252250D01*
X48502720Y-56562820D01*
X48467380Y-56598163D01*
X48467370Y-56598174D01*
X48402169Y-56678212D01*
X48323483Y-56834890D01*
X48283050Y-57005491D01*
X48283050Y-57180813D01*
X48283863Y-57184244D01*
X48283734Y-57186672D01*
X48283888Y-57187987D01*
X48283663Y-57188013D01*
X48280169Y-57254016D01*
X48239339Y-57310714D01*
X48174338Y-57336338D01*
X48134614Y-57333498D01*
X48130828Y-57332601D01*
X48130826Y-57332600D01*
X48130823Y-57332600D01*
X47955381Y-57332600D01*
X47955379Y-57332600D01*
X47955373Y-57332601D01*
X47784669Y-57373060D01*
X47627887Y-57451797D01*
X47547790Y-57517046D01*
X47547772Y-57517062D01*
X47123508Y-57941328D01*
X47123499Y-57941338D01*
X47058244Y-58021441D01*
X46979508Y-58178221D01*
X46939049Y-58348925D01*
X46939048Y-58348936D01*
X46939048Y-58524371D01*
X46939049Y-58524382D01*
X46979507Y-58695084D01*
X46979509Y-58695087D01*
X47058246Y-58851868D01*
X47058248Y-58851871D01*
X47058250Y-58851874D01*
X47107557Y-58912401D01*
X47123503Y-58931976D01*
X47865978Y-59674449D01*
X47914019Y-59713585D01*
X47953561Y-59771186D01*
X47959701Y-59809721D01*
X47959701Y-60265523D01*
X47940016Y-60332562D01*
X47923382Y-60353204D01*
X46139763Y-62136822D01*
X46078440Y-62170307D01*
X46008748Y-62165323D01*
X45952815Y-62123451D01*
X45941271Y-62104792D01*
X45863234Y-61949407D01*
X45798035Y-61869371D01*
X45798019Y-61869353D01*
X45603586Y-61674920D01*
X45603585Y-61674920D01*
X44807383Y-62471122D01*
X44746060Y-62504607D01*
X44676368Y-62499623D01*
X44632021Y-62471122D01*
X43676720Y-61515821D01*
X43641380Y-61551163D01*
X43641370Y-61551174D01*
X43576169Y-61631212D01*
X43497483Y-61787890D01*
X43457050Y-61958491D01*
X43457050Y-62133813D01*
X43457863Y-62137244D01*
X43457734Y-62139672D01*
X43457888Y-62140987D01*
X43457663Y-62141013D01*
X43454169Y-62207016D01*
X43413339Y-62263714D01*
X43348338Y-62289338D01*
X43308614Y-62286498D01*
X43304828Y-62285601D01*
X43304826Y-62285600D01*
X43304823Y-62285600D01*
X43304820Y-62285600D01*
X43225778Y-62285600D01*
X43158739Y-62265915D01*
X43138097Y-62249281D01*
X42051083Y-61162267D01*
X44030273Y-61162267D01*
X44030273Y-61162268D01*
X44719703Y-61851698D01*
X44719704Y-61851698D01*
X45250033Y-61321367D01*
X45055587Y-61126923D01*
X44975540Y-61061716D01*
X44818865Y-60983031D01*
X44648264Y-60942598D01*
X44472944Y-60942598D01*
X44302342Y-60983031D01*
X44145661Y-61061719D01*
X44065625Y-61126918D01*
X44065606Y-61126935D01*
X44030273Y-61162267D01*
X42051083Y-61162267D01*
X39348623Y-58459806D01*
X39348616Y-58459800D01*
X39274931Y-58410566D01*
X39274931Y-58410567D01*
X39225693Y-58377667D01*
X39089119Y-58321097D01*
X39089109Y-58321094D01*
X38944122Y-58292254D01*
X38944120Y-58292254D01*
X35700431Y-58292254D01*
X35633392Y-58272569D01*
X35612750Y-58255935D01*
X35556858Y-58200043D01*
X35556857Y-58200042D01*
X35412694Y-58111122D01*
X35407537Y-58107941D01*
X35407532Y-58107939D01*
X35406063Y-58107452D01*
X35240998Y-58052755D01*
X35240996Y-58052754D01*
X35138217Y-58042254D01*
X35138210Y-58042254D01*
X34725431Y-58042254D01*
X34658392Y-58022569D01*
X34637750Y-58005935D01*
X34459007Y-57827191D01*
X34459006Y-57827190D01*
X34457653Y-57826286D01*
X34358871Y-57760283D01*
X34336081Y-57745055D01*
X34336079Y-57745054D01*
X34336076Y-57745052D01*
X34199503Y-57688482D01*
X34199493Y-57688479D01*
X34054506Y-57659639D01*
X34054504Y-57659639D01*
X32556934Y-57659639D01*
X32489895Y-57639954D01*
X32444140Y-57587150D01*
X32438621Y-57572760D01*
X32377252Y-57377163D01*
X32377250Y-57377160D01*
X32377249Y-57377155D01*
X32348716Y-57325749D01*
X42697636Y-57325749D01*
X42697636Y-57325756D01*
X42717831Y-57505002D01*
X42717832Y-57505007D01*
X42777412Y-57675276D01*
X42857979Y-57803497D01*
X42873385Y-57828015D01*
X43000939Y-57955569D01*
X43081096Y-58005935D01*
X43105773Y-58021441D01*
X43153679Y-58051542D01*
X43157146Y-58052755D01*
X43323946Y-58111121D01*
X43323951Y-58111122D01*
X43503197Y-58131318D01*
X43503201Y-58131318D01*
X43503205Y-58131318D01*
X43682450Y-58111122D01*
X43682453Y-58111121D01*
X43682456Y-58111121D01*
X43852723Y-58051542D01*
X44005463Y-57955569D01*
X44133017Y-57828015D01*
X44228990Y-57675275D01*
X44288569Y-57505008D01*
X44293873Y-57457926D01*
X44320938Y-57393516D01*
X44329402Y-57384140D01*
X45504277Y-56209267D01*
X48856273Y-56209267D01*
X48856273Y-56209268D01*
X49545703Y-56898698D01*
X49545704Y-56898698D01*
X50076033Y-56368367D01*
X49881587Y-56173923D01*
X49801540Y-56108716D01*
X49644865Y-56030031D01*
X49474264Y-55989598D01*
X49298944Y-55989598D01*
X49128342Y-56030031D01*
X48971661Y-56108719D01*
X48891625Y-56173918D01*
X48891606Y-56173935D01*
X48856273Y-56209267D01*
X45504277Y-56209267D01*
X46138973Y-55574572D01*
X46200296Y-55541087D01*
X46226654Y-55538253D01*
X53352749Y-55538253D01*
X53419788Y-55557938D01*
X53440430Y-55574572D01*
X55627129Y-57761272D01*
X55660614Y-57822595D01*
X55662668Y-57862836D01*
X55651636Y-57960750D01*
X55651636Y-57960756D01*
X55671831Y-58140002D01*
X55671832Y-58140007D01*
X55731412Y-58310276D01*
X55825365Y-58459800D01*
X55827385Y-58463015D01*
X55954939Y-58590569D01*
X56045281Y-58647335D01*
X56076786Y-58667131D01*
X56107679Y-58686542D01*
X56277946Y-58746121D01*
X56277951Y-58746122D01*
X56457197Y-58766318D01*
X56457201Y-58766318D01*
X56457205Y-58766318D01*
X56636450Y-58746122D01*
X56636453Y-58746121D01*
X56636456Y-58746121D01*
X56806723Y-58686542D01*
X56959463Y-58590569D01*
X57087017Y-58463015D01*
X57182990Y-58310275D01*
X57242569Y-58140008D01*
X57246182Y-58107940D01*
X57262766Y-57960756D01*
X57262766Y-57960749D01*
X57242570Y-57781503D01*
X57242569Y-57781498D01*
X57205400Y-57675275D01*
X57182990Y-57611231D01*
X57087017Y-57458491D01*
X56964808Y-57336282D01*
X56949387Y-57317490D01*
X56943060Y-57308021D01*
X56943056Y-57308016D01*
X54156129Y-54521091D01*
X54156126Y-54521087D01*
X54156126Y-54521088D01*
X54149059Y-54514021D01*
X54149059Y-54514020D01*
X54061934Y-54426895D01*
X54061933Y-54426894D01*
X54061932Y-54426893D01*
X54010710Y-54392668D01*
X53959487Y-54358441D01*
X53924224Y-54343835D01*
X53849399Y-54312842D01*
X53849397Y-54312840D01*
X53845661Y-54311292D01*
X53845650Y-54311289D01*
X53825419Y-54307265D01*
X53785230Y-54299271D01*
X53724811Y-54287253D01*
X53724808Y-54287253D01*
X53724807Y-54287253D01*
X45977807Y-54287253D01*
X45854594Y-54287253D01*
X45854590Y-54287253D01*
X45794172Y-54299271D01*
X45750944Y-54307869D01*
X45733747Y-54311290D01*
X45619917Y-54358440D01*
X45524413Y-54422255D01*
X45519810Y-54425330D01*
X45517465Y-54426897D01*
X43444822Y-56499540D01*
X43383499Y-56533025D01*
X43371026Y-56535079D01*
X43323951Y-56540383D01*
X43153679Y-56599963D01*
X43000938Y-56695937D01*
X42873385Y-56823490D01*
X42777412Y-56976229D01*
X42717832Y-57146498D01*
X42717831Y-57146503D01*
X42697636Y-57325749D01*
X32348716Y-57325749D01*
X32278498Y-57199241D01*
X32265950Y-57184244D01*
X32201598Y-57107331D01*
X32201585Y-57107317D01*
X31412401Y-56318135D01*
X31320491Y-56241233D01*
X31320487Y-56241230D01*
X31320485Y-56241228D01*
X31142571Y-56142477D01*
X31142568Y-56142476D01*
X31142562Y-56142473D01*
X30948422Y-56081561D01*
X30745983Y-56060976D01*
X30543543Y-56081561D01*
X30349403Y-56142473D01*
X30349393Y-56142478D01*
X30171480Y-56241228D01*
X30171477Y-56241230D01*
X30079571Y-56318127D01*
X30079557Y-56318140D01*
X28017583Y-58380116D01*
X27940681Y-58472026D01*
X27940674Y-58472036D01*
X27841926Y-58649945D01*
X27841921Y-58649955D01*
X27781009Y-58844095D01*
X27760424Y-59046535D01*
X27781009Y-59248974D01*
X27841921Y-59443114D01*
X27841924Y-59443120D01*
X27841925Y-59443123D01*
X27843273Y-59445551D01*
X27940676Y-59621037D01*
X27940678Y-59621040D01*
X28017575Y-59712946D01*
X28017588Y-59712960D01*
X28806772Y-60502142D01*
X28852083Y-60540054D01*
X28898689Y-60579050D01*
X29076603Y-60677801D01*
X29076608Y-60677802D01*
X29076611Y-60677804D01*
X29270751Y-60738716D01*
X29304964Y-60742195D01*
X29473191Y-60759302D01*
X29656944Y-60740616D01*
X29675630Y-60738716D01*
X29869770Y-60677804D01*
X29869770Y-60677803D01*
X29869779Y-60677801D01*
X29981382Y-60615855D01*
X30049548Y-60600533D01*
X30107530Y-60619281D01*
X30200668Y-60677804D01*
X30225079Y-60693142D01*
X30307788Y-60722083D01*
X30395346Y-60752721D01*
X30395351Y-60752722D01*
X30574597Y-60772918D01*
X30574601Y-60772918D01*
X30574605Y-60772918D01*
X30753850Y-60752722D01*
X30753853Y-60752721D01*
X30753856Y-60752721D01*
X30924123Y-60693142D01*
X31076863Y-60597169D01*
X31204417Y-60469615D01*
X31300390Y-60316875D01*
X31359969Y-60146608D01*
X31365513Y-60097395D01*
X31392578Y-60032985D01*
X31447778Y-59994239D01*
X31482923Y-59981942D01*
X31635663Y-59885969D01*
X31763217Y-59758415D01*
X31859190Y-59605675D01*
X31918769Y-59435408D01*
X31918770Y-59435402D01*
X31937321Y-59270756D01*
X31964387Y-59206342D01*
X32021982Y-59166787D01*
X32060541Y-59160639D01*
X33263702Y-59160639D01*
X33330741Y-59180324D01*
X33376496Y-59233128D01*
X33387702Y-59284639D01*
X33387702Y-59342772D01*
X33398201Y-59445550D01*
X33398202Y-59445553D01*
X33453386Y-59612085D01*
X33453388Y-59612090D01*
X33488270Y-59668642D01*
X33536320Y-59746545D01*
X33545490Y-59761411D01*
X33669545Y-59885466D01*
X33672854Y-59887507D01*
X33674646Y-59889499D01*
X33675212Y-59889947D01*
X33675135Y-59890043D01*
X33719579Y-59939454D01*
X33730802Y-60008417D01*
X33702959Y-60072499D01*
X33672866Y-60098578D01*
X33669860Y-60100431D01*
X33545885Y-60224406D01*
X33453844Y-60373627D01*
X33453842Y-60373632D01*
X33398695Y-60540054D01*
X33398694Y-60540061D01*
X33388201Y-60642765D01*
X33388201Y-60692752D01*
X35838200Y-60692752D01*
X35838200Y-60642780D01*
X35838199Y-60642765D01*
X35827706Y-60540054D01*
X35772559Y-60373632D01*
X35772557Y-60373627D01*
X35680516Y-60224406D01*
X35556545Y-60100435D01*
X35556542Y-60100433D01*
X35553540Y-60098581D01*
X35551914Y-60096773D01*
X35550878Y-60095954D01*
X35551018Y-60095776D01*
X35506819Y-60046631D01*
X35495600Y-59977667D01*
X35523447Y-59913587D01*
X35553549Y-59887505D01*
X35556857Y-59885466D01*
X35612750Y-59829573D01*
X35674073Y-59796088D01*
X35700431Y-59793254D01*
X38507972Y-59793254D01*
X38575011Y-59812939D01*
X38595653Y-59829573D01*
X42076729Y-63310649D01*
X42110214Y-63371972D01*
X42113048Y-63398330D01*
X42113048Y-63477371D01*
X42113049Y-63477382D01*
X42153508Y-63648085D01*
X42223037Y-63786531D01*
X42235533Y-63855274D01*
X42208880Y-63919860D01*
X42151540Y-63959784D01*
X42081718Y-63962369D01*
X42024545Y-63929862D01*
X39630791Y-61536108D01*
X39630789Y-61536105D01*
X39511918Y-61417234D01*
X39511910Y-61417228D01*
X39388628Y-61346052D01*
X39388625Y-61346051D01*
X39374986Y-61338176D01*
X39222258Y-61297252D01*
X39064144Y-61297252D01*
X39056548Y-61297252D01*
X39056532Y-61297253D01*
X35962201Y-61297253D01*
X35895162Y-61277568D01*
X35849407Y-61224764D01*
X35843622Y-61198173D01*
X35838201Y-61192752D01*
X33388202Y-61192752D01*
X33380096Y-61200857D01*
X33368517Y-61240292D01*
X33315713Y-61286047D01*
X33264202Y-61297253D01*
X27841870Y-61297253D01*
X27841854Y-61297252D01*
X27834258Y-61297252D01*
X27676144Y-61297252D01*
X27561598Y-61327945D01*
X27523415Y-61338176D01*
X27509777Y-61346051D01*
X27509774Y-61346052D01*
X27386491Y-61417228D01*
X27386483Y-61417234D01*
X27274679Y-61529039D01*
X26333731Y-62469986D01*
X26272408Y-62503471D01*
X26213957Y-62502080D01*
X26081608Y-62466618D01*
X26021948Y-62430253D01*
X25991418Y-62367407D01*
X25989701Y-62346843D01*
X25989701Y-61966363D01*
X26009386Y-61899324D01*
X26048602Y-61860826D01*
X26100051Y-61829093D01*
X26222041Y-61707103D01*
X26312609Y-61560269D01*
X26366875Y-61396506D01*
X26377201Y-61295430D01*
X26377200Y-60722077D01*
X26374204Y-60692752D01*
X26366875Y-60621000D01*
X26352972Y-60579044D01*
X26312609Y-60457237D01*
X26222041Y-60310403D01*
X26100051Y-60188413D01*
X25957410Y-60100431D01*
X25953219Y-60097846D01*
X25953214Y-60097844D01*
X25946973Y-60095776D01*
X25789454Y-60043579D01*
X25789452Y-60043578D01*
X25688379Y-60033253D01*
X25090031Y-60033253D01*
X25090013Y-60033254D01*
X24988948Y-60043578D01*
X24825185Y-60097845D01*
X24825182Y-60097846D01*
X24678349Y-60188414D01*
X24564382Y-60302382D01*
X24503059Y-60335867D01*
X24433367Y-60330883D01*
X24389020Y-60302382D01*
X24275052Y-60188414D01*
X24275051Y-60188413D01*
X24132410Y-60100431D01*
X24128219Y-60097846D01*
X24128214Y-60097844D01*
X24121973Y-60095776D01*
X23964454Y-60043579D01*
X23964452Y-60043578D01*
X23863379Y-60033253D01*
X23265031Y-60033253D01*
X23265013Y-60033254D01*
X23163948Y-60043578D01*
X23000185Y-60097845D01*
X23000182Y-60097846D01*
X22853349Y-60188414D01*
X22731362Y-60310401D01*
X22640794Y-60457234D01*
X22640793Y-60457237D01*
X22586527Y-60621000D01*
X22586527Y-60621001D01*
X22586526Y-60621001D01*
X22576201Y-60722068D01*
X22576201Y-61295422D01*
X22576202Y-61295440D01*
X22586526Y-61396505D01*
X22622810Y-61506002D01*
X22640793Y-61560269D01*
X22731361Y-61707103D01*
X22853351Y-61829093D01*
X23000185Y-61919661D01*
X23163948Y-61973927D01*
X23265024Y-61984253D01*
X23639103Y-61984252D01*
X23706142Y-62003936D01*
X23726784Y-62020571D01*
X23823382Y-62117169D01*
X23856867Y-62178492D01*
X23859701Y-62204850D01*
X23859701Y-62390767D01*
X23840016Y-62457806D01*
X23787212Y-62503561D01*
X23718054Y-62513505D01*
X23703608Y-62510542D01*
X23560201Y-62472116D01*
X23560201Y-63369741D01*
X23503194Y-63336828D01*
X23376027Y-63302753D01*
X23244375Y-63302753D01*
X23117208Y-63336828D01*
X23060201Y-63369741D01*
X23060201Y-62472117D01*
X23060200Y-62472117D01*
X22846714Y-62529320D01*
X22846708Y-62529323D01*
X22632623Y-62629152D01*
X22632621Y-62629153D01*
X22439127Y-62764639D01*
X22439121Y-62764644D01*
X22282793Y-62920973D01*
X22221470Y-62954458D01*
X22151778Y-62949474D01*
X22095845Y-62907602D01*
X22071428Y-62842138D01*
X22071112Y-62833292D01*
X22071112Y-56642371D01*
X23321362Y-56642371D01*
X23321362Y-56642372D01*
X23640341Y-56961351D01*
X23672593Y-56989506D01*
X23835671Y-57087627D01*
X23835672Y-57087628D01*
X24016035Y-57148400D01*
X24016038Y-57148401D01*
X24205245Y-57168979D01*
X24205246Y-57168979D01*
X24394452Y-57148401D01*
X24394455Y-57148400D01*
X24574816Y-57087628D01*
X24737900Y-56989505D01*
X24770150Y-56961351D01*
X24912352Y-56819149D01*
X24912352Y-56819148D01*
X24028468Y-55935265D01*
X24028467Y-55935265D01*
X23321362Y-56642371D01*
X22071112Y-56642371D01*
X22071112Y-54063741D01*
X22090797Y-53996702D01*
X22143601Y-53950947D01*
X22212759Y-53941003D01*
X22276315Y-53970028D01*
X22282793Y-53976060D01*
X22683556Y-54376823D01*
X22683563Y-54376829D01*
X22763612Y-54442038D01*
X22798684Y-54459652D01*
X22849758Y-54507330D01*
X22866948Y-54575052D01*
X22844796Y-54641317D01*
X22830714Y-54658144D01*
X22648842Y-54840016D01*
X22648836Y-54840023D01*
X22620675Y-54872280D01*
X22522552Y-55035364D01*
X22461780Y-55215725D01*
X22461779Y-55215728D01*
X22441202Y-55404934D01*
X22441202Y-55404935D01*
X22461779Y-55594142D01*
X22461780Y-55594145D01*
X22522552Y-55774508D01*
X22522553Y-55774509D01*
X22620674Y-55937587D01*
X22648829Y-55969839D01*
X22967809Y-56288819D01*
X23940788Y-55315840D01*
X24002111Y-55282355D01*
X24071803Y-55287339D01*
X24116150Y-55315840D01*
X25265906Y-56465596D01*
X25408103Y-56323398D01*
X25408108Y-56323393D01*
X25436262Y-56291143D01*
X25534385Y-56128059D01*
X25590327Y-55962034D01*
X25630387Y-55904789D01*
X25695037Y-55878290D01*
X25763750Y-55890950D01*
X25795517Y-55913947D01*
X25855939Y-55974369D01*
X26008679Y-56070342D01*
X26118346Y-56108716D01*
X26178946Y-56129921D01*
X26178951Y-56129922D01*
X26358197Y-56150118D01*
X26358201Y-56150118D01*
X26358205Y-56150118D01*
X26537450Y-56129922D01*
X26537453Y-56129921D01*
X26537456Y-56129921D01*
X26707723Y-56070342D01*
X26860463Y-55974369D01*
X26988017Y-55846815D01*
X27083990Y-55694075D01*
X27131213Y-55559117D01*
X27171933Y-55502344D01*
X27234369Y-55476853D01*
X27299456Y-55469521D01*
X27469723Y-55409942D01*
X27622463Y-55313969D01*
X27750017Y-55186415D01*
X27845990Y-55033675D01*
X27905569Y-54863408D01*
X27908205Y-54840016D01*
X27925766Y-54684156D01*
X27925766Y-54684149D01*
X27905570Y-54504903D01*
X27905569Y-54504898D01*
X27878275Y-54426896D01*
X27845990Y-54334631D01*
X27832298Y-54312841D01*
X27827205Y-54304735D01*
X31002771Y-54304735D01*
X31038104Y-54340067D01*
X31038123Y-54340084D01*
X31118162Y-54405286D01*
X31274840Y-54483972D01*
X31445442Y-54524406D01*
X31620762Y-54524406D01*
X31791363Y-54483972D01*
X31948044Y-54405284D01*
X32028080Y-54340085D01*
X32028098Y-54340069D01*
X32222531Y-54145636D01*
X32222531Y-54145635D01*
X31692202Y-53615306D01*
X31692201Y-53615306D01*
X31002771Y-54304735D01*
X27827205Y-54304735D01*
X27750016Y-54181890D01*
X27651786Y-54083660D01*
X27618301Y-54022337D01*
X27623285Y-53952645D01*
X27665157Y-53896712D01*
X27699874Y-53878470D01*
X27827717Y-53835395D01*
X27990891Y-53737216D01*
X28023182Y-53709027D01*
X28616367Y-53115839D01*
X28677690Y-53082355D01*
X28704048Y-53079521D01*
X29779475Y-53079521D01*
X29835125Y-53092710D01*
X29931167Y-53140943D01*
X30101879Y-53181404D01*
X30101882Y-53181404D01*
X30277318Y-53181404D01*
X30277321Y-53181404D01*
X30281101Y-53180508D01*
X30283774Y-53180649D01*
X30284496Y-53180565D01*
X30284510Y-53180688D01*
X30350873Y-53184198D01*
X30407574Y-53225025D01*
X30433202Y-53290025D01*
X30430361Y-53329756D01*
X30429548Y-53333186D01*
X30429548Y-53508512D01*
X30469981Y-53679113D01*
X30548669Y-53835794D01*
X30613868Y-53915830D01*
X30613884Y-53915848D01*
X30649218Y-53951182D01*
X31338649Y-53261752D01*
X32045754Y-53261752D01*
X32045754Y-53261753D01*
X32576084Y-53792083D01*
X32770520Y-53597646D01*
X32770526Y-53597639D01*
X32835735Y-53517590D01*
X32914420Y-53360915D01*
X32954854Y-53190314D01*
X32954854Y-53014993D01*
X32914420Y-52844392D01*
X32835732Y-52687711D01*
X32770533Y-52607675D01*
X32770517Y-52607657D01*
X32735183Y-52572323D01*
X32735182Y-52572323D01*
X32045754Y-53261752D01*
X31338649Y-53261752D01*
X31692201Y-52908200D01*
X32381630Y-52218770D01*
X32381630Y-52218769D01*
X32346297Y-52183438D01*
X32346278Y-52183421D01*
X32266239Y-52118219D01*
X32109561Y-52039533D01*
X31938960Y-51999100D01*
X31763635Y-51999100D01*
X31760204Y-51999913D01*
X31757778Y-51999784D01*
X31756465Y-51999938D01*
X31756438Y-51999713D01*
X31690433Y-51996218D01*
X31633735Y-51955387D01*
X31608113Y-51890385D01*
X31610956Y-51850653D01*
X31611851Y-51846876D01*
X31611852Y-51846873D01*
X31611852Y-51767828D01*
X31631537Y-51700789D01*
X31648171Y-51680147D01*
X32200746Y-51127572D01*
X32262069Y-51094087D01*
X32288427Y-51091253D01*
X39386121Y-51091253D01*
X39483663Y-51071849D01*
X39531114Y-51062411D01*
X39667696Y-51005837D01*
X39726938Y-50966253D01*
X39726938Y-50966252D01*
X39726940Y-50966252D01*
X39758777Y-50944979D01*
X39790617Y-50923705D01*
X46351260Y-44363059D01*
X46387333Y-44340410D01*
X46386445Y-44338566D01*
X46392716Y-44335545D01*
X46392717Y-44335543D01*
X46392723Y-44335542D01*
X46545463Y-44239569D01*
X46673017Y-44112015D01*
X46768990Y-43959275D01*
X46768993Y-43959263D01*
X46772011Y-43953001D01*
X46773851Y-43953887D01*
X46796506Y-43917814D01*
X46986020Y-43728301D01*
X47047343Y-43694816D01*
X47117035Y-43699800D01*
G37*
%TD.AperFunction*%
%TA.AperFunction,Conductor*%
G36*
X24197617Y-42232438D02*
G01*
X24243372Y-42285242D01*
X24254106Y-42325946D01*
X24261632Y-42411970D01*
X24261632Y-42411974D01*
X24288675Y-42512900D01*
X24287012Y-42582750D01*
X24247849Y-42640612D01*
X24183620Y-42668116D01*
X24136807Y-42664768D01*
X24035563Y-42637640D01*
X24035553Y-42637638D01*
X23800151Y-42617043D01*
X23800149Y-42617043D01*
X23564746Y-42637638D01*
X23564736Y-42637640D01*
X23336494Y-42698796D01*
X23336485Y-42698800D01*
X23122321Y-42798666D01*
X23122319Y-42798667D01*
X22928747Y-42934207D01*
X22761655Y-43101299D01*
X22626115Y-43294871D01*
X22626114Y-43294873D01*
X22553520Y-43450552D01*
X22526317Y-43508890D01*
X22526248Y-43509037D01*
X22526244Y-43509046D01*
X22465088Y-43737288D01*
X22465086Y-43737298D01*
X22444491Y-43972701D01*
X22444491Y-43972702D01*
X22465086Y-44208105D01*
X22465088Y-44208115D01*
X22526244Y-44436357D01*
X22526246Y-44436361D01*
X22526247Y-44436365D01*
X22529836Y-44444061D01*
X22626115Y-44650532D01*
X22626117Y-44650536D01*
X22681733Y-44729963D01*
X22761655Y-44844103D01*
X22928749Y-45011197D01*
X23025534Y-45078967D01*
X23122315Y-45146734D01*
X23122317Y-45146735D01*
X23122320Y-45146737D01*
X23336487Y-45246605D01*
X23564742Y-45307765D01*
X23800150Y-45328361D01*
X23843197Y-45324594D01*
X23911694Y-45338359D01*
X23961878Y-45386974D01*
X23977813Y-45455002D01*
X23966798Y-45499633D01*
X23908955Y-45626289D01*
X23908953Y-45626297D01*
X23888473Y-45768753D01*
X23908953Y-45911208D01*
X23908954Y-45911212D01*
X23968740Y-46042123D01*
X23968741Y-46042124D01*
X23968742Y-46042126D01*
X24006361Y-46088809D01*
X24006364Y-46088812D01*
X24006369Y-46088818D01*
X25276133Y-47358579D01*
X25276145Y-47358591D01*
X25276149Y-47358594D01*
X25276151Y-47358596D01*
X25322827Y-47396212D01*
X25453741Y-47455999D01*
X25453742Y-47455999D01*
X25453744Y-47456000D01*
X25596201Y-47476481D01*
X25738658Y-47456000D01*
X25869574Y-47396212D01*
X25916257Y-47358593D01*
X27186039Y-46088809D01*
X27223660Y-46042126D01*
X27283448Y-45911210D01*
X27303929Y-45768753D01*
X27283448Y-45626296D01*
X27225603Y-45499634D01*
X27215659Y-45430476D01*
X27244684Y-45366920D01*
X27303462Y-45329145D01*
X27349201Y-45324594D01*
X27392252Y-45328361D01*
X27627660Y-45307765D01*
X27855915Y-45246605D01*
X28070082Y-45146737D01*
X28263653Y-45011197D01*
X28430747Y-44844103D01*
X28566287Y-44650532D01*
X28666155Y-44436365D01*
X28727315Y-44208110D01*
X28747911Y-43972702D01*
X28727315Y-43737294D01*
X28700335Y-43636602D01*
X28701998Y-43566752D01*
X28741161Y-43508890D01*
X28805389Y-43481386D01*
X28852203Y-43484734D01*
X28952895Y-43511714D01*
X29104763Y-43525001D01*
X29188302Y-43532310D01*
X29188303Y-43532310D01*
X29188304Y-43532310D01*
X29227537Y-43528877D01*
X29423711Y-43511714D01*
X29651966Y-43450554D01*
X29866133Y-43350686D01*
X30059704Y-43215146D01*
X30226798Y-43048052D01*
X30361955Y-42855028D01*
X30416532Y-42811403D01*
X30463530Y-42802151D01*
X33379506Y-42802151D01*
X33379506Y-42802150D01*
X33454539Y-42787226D01*
X33454540Y-42787226D01*
X33466069Y-42784932D01*
X33500350Y-42778114D01*
X33560442Y-42753223D01*
X33614184Y-42730963D01*
X33679413Y-42687377D01*
X33716631Y-42662509D01*
X33803756Y-42575384D01*
X33803757Y-42575382D01*
X33810823Y-42568316D01*
X33810825Y-42568312D01*
X34130066Y-42249071D01*
X34191389Y-42215587D01*
X34217747Y-42212753D01*
X37592578Y-42212753D01*
X37659617Y-42232438D01*
X37705372Y-42285242D01*
X37716106Y-42325946D01*
X37723632Y-42411970D01*
X37723632Y-42411974D01*
X37750675Y-42512900D01*
X37749012Y-42582750D01*
X37709849Y-42640612D01*
X37645620Y-42668116D01*
X37598807Y-42664768D01*
X37497563Y-42637640D01*
X37497553Y-42637638D01*
X37262151Y-42617043D01*
X37262149Y-42617043D01*
X37026746Y-42637638D01*
X37026736Y-42637640D01*
X36798494Y-42698796D01*
X36798485Y-42698800D01*
X36584321Y-42798666D01*
X36584319Y-42798667D01*
X36390747Y-42934207D01*
X36223655Y-43101299D01*
X36088115Y-43294871D01*
X36088114Y-43294873D01*
X36015520Y-43450552D01*
X35988317Y-43508890D01*
X35988248Y-43509037D01*
X35988244Y-43509046D01*
X35927088Y-43737288D01*
X35927086Y-43737298D01*
X35906491Y-43972701D01*
X35906491Y-43972702D01*
X35927086Y-44208105D01*
X35927088Y-44208115D01*
X35988244Y-44436357D01*
X35988246Y-44436361D01*
X35988247Y-44436365D01*
X35991836Y-44444061D01*
X36088115Y-44650532D01*
X36088117Y-44650536D01*
X36143733Y-44729963D01*
X36223655Y-44844103D01*
X36390749Y-45011197D01*
X36487534Y-45078967D01*
X36584315Y-45146734D01*
X36584317Y-45146735D01*
X36584320Y-45146737D01*
X36798487Y-45246605D01*
X37026742Y-45307765D01*
X37262150Y-45328361D01*
X37305197Y-45324594D01*
X37373694Y-45338359D01*
X37423878Y-45386974D01*
X37439813Y-45455002D01*
X37428798Y-45499633D01*
X37370955Y-45626289D01*
X37370953Y-45626297D01*
X37350473Y-45768753D01*
X37370953Y-45911208D01*
X37370954Y-45911212D01*
X37430740Y-46042123D01*
X37430741Y-46042124D01*
X37430742Y-46042126D01*
X37468361Y-46088809D01*
X37468364Y-46088812D01*
X37468369Y-46088818D01*
X38738133Y-47358579D01*
X38738145Y-47358591D01*
X38738149Y-47358594D01*
X38738151Y-47358596D01*
X38784827Y-47396212D01*
X38915741Y-47455999D01*
X38915742Y-47455999D01*
X38915744Y-47456000D01*
X39058201Y-47476481D01*
X39200658Y-47456000D01*
X39331574Y-47396212D01*
X39378257Y-47358593D01*
X40648039Y-46088809D01*
X40685660Y-46042126D01*
X40745448Y-45911210D01*
X40765929Y-45768753D01*
X40745448Y-45626296D01*
X40687603Y-45499634D01*
X40677659Y-45430476D01*
X40706684Y-45366920D01*
X40765462Y-45329145D01*
X40811201Y-45324594D01*
X40854252Y-45328361D01*
X41089660Y-45307765D01*
X41317915Y-45246605D01*
X41532082Y-45146737D01*
X41725653Y-45011197D01*
X41892747Y-44844103D01*
X42028287Y-44650532D01*
X42128155Y-44436365D01*
X42189315Y-44208110D01*
X42209911Y-43972702D01*
X42189315Y-43737294D01*
X42162335Y-43636602D01*
X42163998Y-43566752D01*
X42203161Y-43508890D01*
X42267389Y-43481386D01*
X42314203Y-43484734D01*
X42414895Y-43511714D01*
X42566763Y-43525001D01*
X42650302Y-43532310D01*
X42650303Y-43532310D01*
X42650304Y-43532310D01*
X42689537Y-43528877D01*
X42885711Y-43511714D01*
X43113966Y-43450554D01*
X43328133Y-43350686D01*
X43521704Y-43215146D01*
X43688798Y-43048052D01*
X43824338Y-42854481D01*
X43924206Y-42640314D01*
X43985366Y-42412059D01*
X43992900Y-42325944D01*
X44018353Y-42260877D01*
X44074943Y-42219898D01*
X44116428Y-42212753D01*
X46008761Y-42212753D01*
X46075800Y-42232438D01*
X46121555Y-42285242D01*
X46131499Y-42354400D01*
X46102474Y-42417956D01*
X46096442Y-42424434D01*
X46048385Y-42472490D01*
X45952413Y-42625228D01*
X45949392Y-42631503D01*
X45947571Y-42630626D01*
X45924894Y-42666690D01*
X45735138Y-42856446D01*
X45699074Y-42879123D01*
X45699951Y-42880944D01*
X45693676Y-42883965D01*
X45540938Y-42979937D01*
X45413385Y-43107490D01*
X45317409Y-43260236D01*
X45314387Y-43266511D01*
X45312562Y-43265631D01*
X45289893Y-43301692D01*
X39037652Y-49553934D01*
X38976329Y-49587419D01*
X38949971Y-49590253D01*
X33300077Y-49590253D01*
X33283889Y-49588658D01*
X33283871Y-49588850D01*
X33277809Y-49588253D01*
X33277808Y-49588253D01*
X33277807Y-49588253D01*
X32114804Y-49588253D01*
X31991590Y-49588253D01*
X31991589Y-49588253D01*
X31985527Y-49588850D01*
X31985508Y-49588658D01*
X31969321Y-49590253D01*
X31852277Y-49590253D01*
X31707289Y-49619093D01*
X31707283Y-49619095D01*
X31570705Y-49675667D01*
X31570693Y-49675674D01*
X31521466Y-49708566D01*
X31447785Y-49757797D01*
X31447777Y-49757803D01*
X30586803Y-50618779D01*
X30525480Y-50652264D01*
X30499122Y-50655098D01*
X30420077Y-50655098D01*
X30420075Y-50655098D01*
X30420069Y-50655099D01*
X30249367Y-50695557D01*
X30143903Y-50748522D01*
X30092584Y-50774296D01*
X30092582Y-50774297D01*
X30092577Y-50774300D01*
X30012487Y-50839543D01*
X30012469Y-50839559D01*
X29309829Y-51542202D01*
X29248506Y-51575687D01*
X29222148Y-51578521D01*
X28350495Y-51578521D01*
X28283456Y-51558836D01*
X28262814Y-51542202D01*
X27669630Y-50949019D01*
X27669623Y-50949013D01*
X27637337Y-50920826D01*
X27637335Y-50920824D01*
X27637333Y-50920823D01*
X27474163Y-50822647D01*
X27293702Y-50761842D01*
X27293698Y-50761841D01*
X27104383Y-50741252D01*
X26915069Y-50761841D01*
X26915066Y-50761842D01*
X26883444Y-50772496D01*
X26813628Y-50775244D01*
X26756174Y-50742666D01*
X26406313Y-50392805D01*
X26406306Y-50392799D01*
X26311200Y-50329252D01*
X26311200Y-50329253D01*
X26283387Y-50310669D01*
X26283384Y-50310667D01*
X26283383Y-50310667D01*
X26146809Y-50254096D01*
X26146799Y-50254093D01*
X26001812Y-50225253D01*
X26001810Y-50225253D01*
X25896173Y-50225253D01*
X25855218Y-50218295D01*
X25775455Y-50190384D01*
X25775450Y-50190383D01*
X25596205Y-50170188D01*
X25596197Y-50170188D01*
X25416951Y-50190383D01*
X25416946Y-50190384D01*
X25246677Y-50249964D01*
X25093938Y-50345937D01*
X24966385Y-50473490D01*
X24870411Y-50626231D01*
X24822695Y-50762599D01*
X24781973Y-50819375D01*
X24717021Y-50845123D01*
X24648459Y-50831667D01*
X24627337Y-50817783D01*
X24619074Y-50811052D01*
X24619068Y-50811048D01*
X24619067Y-50811047D01*
X24540325Y-50771502D01*
X24462283Y-50732308D01*
X24291581Y-50691850D01*
X24291576Y-50691849D01*
X24291574Y-50691849D01*
X24116132Y-50691849D01*
X24116130Y-50691849D01*
X24116124Y-50691850D01*
X23945420Y-50732309D01*
X23788638Y-50811046D01*
X23708541Y-50876295D01*
X23708523Y-50876311D01*
X23284259Y-51300577D01*
X23284250Y-51300587D01*
X23218995Y-51380690D01*
X23140259Y-51537470D01*
X23099800Y-51708174D01*
X23099799Y-51708185D01*
X23099799Y-51883620D01*
X23099800Y-51883629D01*
X23100697Y-51887415D01*
X23100555Y-51890090D01*
X23100638Y-51890799D01*
X23100516Y-51890813D01*
X23097000Y-51957187D01*
X23056169Y-52013884D01*
X22991167Y-52039506D01*
X22951443Y-52036664D01*
X22948013Y-52035851D01*
X22772691Y-52035851D01*
X22602089Y-52076284D01*
X22445408Y-52154972D01*
X22365372Y-52220171D01*
X22365354Y-52220187D01*
X22282793Y-52302749D01*
X22221470Y-52336234D01*
X22151778Y-52331250D01*
X22095845Y-52289378D01*
X22071428Y-52223914D01*
X22071112Y-52215068D01*
X22071112Y-42545577D01*
X22090797Y-42478538D01*
X22107466Y-42457860D01*
X22147403Y-42417956D01*
X22316459Y-42249036D01*
X22377796Y-42215576D01*
X22404105Y-42212753D01*
X24130578Y-42212753D01*
X24197617Y-42232438D01*
G37*
%TD.AperFunction*%
%TA.AperFunction,Conductor*%
G36*
X25259952Y-43484176D02*
G01*
X25360878Y-43511219D01*
X25360885Y-43511220D01*
X25596199Y-43531808D01*
X25596203Y-43531808D01*
X25831516Y-43511220D01*
X25831523Y-43511219D01*
X25932449Y-43484176D01*
X26002299Y-43485839D01*
X26060162Y-43525001D01*
X26087666Y-43589229D01*
X26084318Y-43636044D01*
X26057190Y-43737288D01*
X26057188Y-43737298D01*
X26036593Y-43972701D01*
X26036593Y-43972703D01*
X26040359Y-44015749D01*
X26026592Y-44084249D01*
X25977977Y-44134432D01*
X25909949Y-44150365D01*
X25865319Y-44139350D01*
X25738661Y-44081506D01*
X25738656Y-44081505D01*
X25596201Y-44061025D01*
X25453745Y-44081505D01*
X25453737Y-44081507D01*
X25327081Y-44139350D01*
X25257923Y-44149294D01*
X25194367Y-44120269D01*
X25156593Y-44061491D01*
X25152042Y-44015751D01*
X25155809Y-43972702D01*
X25135213Y-43737294D01*
X25108083Y-43636042D01*
X25109746Y-43566195D01*
X25148908Y-43508332D01*
X25213137Y-43480828D01*
X25259952Y-43484176D01*
G37*
%TD.AperFunction*%
%TD*%
M02*
