%TF.GenerationSoftware,KiCad,Pcbnew,8.0.4*%
%TF.CreationDate,2024-12-17T16:18:45+07:00*%
%TF.ProjectId,16p_26p_adapter,3136705f-3236-4705-9f61-646170746572,rev?*%
%TF.SameCoordinates,Original*%
%TF.FileFunction,Soldermask,Bot*%
%TF.FilePolarity,Negative*%
%FSLAX46Y46*%
G04 Gerber Fmt 4.6, Leading zero omitted, Abs format (unit mm)*
G04 Created by KiCad (PCBNEW 8.0.4) date 2024-12-17 16:18:45*
%MOMM*%
%LPD*%
G01*
G04 APERTURE LIST*
G04 Aperture macros list*
%AMRoundRect*
0 Rectangle with rounded corners*
0 $1 Rounding radius*
0 $2 $3 $4 $5 $6 $7 $8 $9 X,Y pos of 4 corners*
0 Add a 4 corners polygon primitive as box body*
4,1,4,$2,$3,$4,$5,$6,$7,$8,$9,$2,$3,0*
0 Add four circle primitives for the rounded corners*
1,1,$1+$1,$2,$3*
1,1,$1+$1,$4,$5*
1,1,$1+$1,$6,$7*
1,1,$1+$1,$8,$9*
0 Add four rect primitives between the rounded corners*
20,1,$1+$1,$2,$3,$4,$5,0*
20,1,$1+$1,$4,$5,$6,$7,0*
20,1,$1+$1,$6,$7,$8,$9,0*
20,1,$1+$1,$8,$9,$2,$3,0*%
%AMHorizOval*
0 Thick line with rounded ends*
0 $1 width*
0 $2 $3 position (X,Y) of the first rounded end (center of the circle)*
0 $4 $5 position (X,Y) of the second rounded end (center of the circle)*
0 Add line between two ends*
20,1,$1,$2,$3,$4,$5,0*
0 Add two circle primitives to create the rounded ends*
1,1,$1,$2,$3*
1,1,$1,$4,$5*%
%AMRotRect*
0 Rectangle, with rotation*
0 The origin of the aperture is its center*
0 $1 length*
0 $2 width*
0 $3 Rotation angle, in degrees counterclockwise*
0 Add horizontal line*
21,1,$1,$2,0,0,$3*%
G04 Aperture macros list end*
%ADD10R,1.700000X1.700000*%
%ADD11O,1.700000X1.700000*%
%ADD12C,4.500000*%
%ADD13C,0.800000*%
%ADD14C,7.000000*%
%ADD15RotRect,1.700000X1.700000X315.000000*%
%ADD16HorizOval,1.700000X0.000000X0.000000X0.000000X0.000000X0*%
%ADD17RoundRect,0.250000X1.025000X-0.787500X1.025000X0.787500X-1.025000X0.787500X-1.025000X-0.787500X0*%
G04 APERTURE END LIST*
D10*
%TO.C,J14*%
X28322800Y-59282400D03*
D11*
X28322800Y-56742400D03*
X30862800Y-59282400D03*
X30862800Y-56742400D03*
X33402799Y-59282400D03*
X33402800Y-56742400D03*
X35942800Y-59282400D03*
X35942800Y-56742400D03*
X38482800Y-59282400D03*
X38482800Y-56742400D03*
X41022800Y-59282400D03*
X41022800Y-56742400D03*
X43562800Y-59282400D03*
X43562800Y-56742400D03*
X46102801Y-59282400D03*
X46102800Y-56742400D03*
X48642800Y-59282400D03*
X48642800Y-56742400D03*
X51182800Y-59282400D03*
X51182800Y-56742400D03*
X53722800Y-59282400D03*
X53722800Y-56742400D03*
X56262799Y-59282400D03*
X56262800Y-56742400D03*
X58802800Y-59282400D03*
X58802800Y-56742400D03*
%TD*%
D10*
%TO.C,J18*%
X54526200Y-20422600D03*
D11*
X54526200Y-22962600D03*
X51986200Y-20422600D03*
X51986200Y-22962600D03*
X49446201Y-20422600D03*
X49446200Y-22962600D03*
X46906200Y-20422600D03*
X46906200Y-22962600D03*
X44366200Y-20422600D03*
X44366200Y-22962600D03*
X41826200Y-20422600D03*
X41826200Y-22962600D03*
X39286200Y-20422600D03*
X39286200Y-22962600D03*
X36746199Y-20422600D03*
X36746200Y-22962600D03*
X34206200Y-20422600D03*
X34206200Y-22962600D03*
X31666200Y-20422600D03*
X31666200Y-22962600D03*
%TD*%
D12*
%TO.C,H9*%
X59026200Y-73952600D03*
%TD*%
D10*
%TO.C,J19*%
X54526200Y-26952600D03*
D11*
X54526200Y-29492600D03*
X51986200Y-26952600D03*
X51986200Y-29492600D03*
X49446201Y-26952600D03*
X49446200Y-29492600D03*
X46906200Y-26952600D03*
X46906200Y-29492600D03*
X44366200Y-26952600D03*
X44366200Y-29492600D03*
X41826200Y-26952600D03*
X41826200Y-29492600D03*
X39286200Y-26952600D03*
X39286200Y-29492600D03*
X36746199Y-26952600D03*
X36746200Y-29492600D03*
X34206200Y-26952600D03*
X34206200Y-29492600D03*
X31666200Y-26952600D03*
X31666200Y-29492600D03*
%TD*%
D12*
%TO.C,H5*%
X59180200Y-69516600D03*
%TD*%
D13*
%TO.C,H10*%
X27401200Y-73952600D03*
X28170045Y-72096445D03*
X28170045Y-75808755D03*
X30026200Y-71327600D03*
D14*
X30026200Y-73952600D03*
D13*
X30026200Y-76577600D03*
X31882355Y-72096445D03*
X31882355Y-75808755D03*
X32651200Y-73952600D03*
%TD*%
%TO.C,H6*%
X25567200Y-69516600D03*
X26336045Y-67660445D03*
X26336045Y-71372755D03*
X28192200Y-66891600D03*
D14*
X28192200Y-69516600D03*
D13*
X28192200Y-72141600D03*
X30048355Y-67660445D03*
X30048355Y-71372755D03*
X30817200Y-69516600D03*
%TD*%
D15*
%TO.C,J13*%
X27374200Y-49962600D03*
D16*
X25578149Y-48166549D03*
X29170251Y-48166549D03*
X27374200Y-46370498D03*
X30966302Y-46370498D03*
X29170251Y-44574446D03*
X32762354Y-44574446D03*
X30966302Y-42778395D03*
D11*
X34558405Y-42778395D03*
D16*
X32762354Y-40982344D03*
X36354456Y-40982344D03*
X34558405Y-39186293D03*
X38150507Y-39186293D03*
X36354456Y-37390241D03*
X39946559Y-37390241D03*
X38150507Y-35594190D03*
%TD*%
D17*
%TO.C,C8*%
X59336200Y-27673100D03*
X59336200Y-21448100D03*
%TD*%
D15*
%TO.C,J16*%
X54298200Y-49958600D03*
D16*
X52502149Y-48162549D03*
X56094251Y-48162549D03*
X54298200Y-46366498D03*
X57890302Y-46366498D03*
X56094251Y-44570446D03*
X59686354Y-44570446D03*
X57890302Y-42774395D03*
X61482405Y-42774395D03*
X59686354Y-40978344D03*
X63278456Y-40978344D03*
X61482405Y-39182293D03*
X65074507Y-39182293D03*
X63278456Y-37386241D03*
X66870559Y-37386241D03*
X65074507Y-35590190D03*
%TD*%
D15*
%TO.C,J15*%
X40836200Y-49958600D03*
D16*
X39040149Y-48162549D03*
X42632251Y-48162549D03*
X40836200Y-46366498D03*
X44428302Y-46366498D03*
X42632251Y-44570446D03*
X46224354Y-44570446D03*
X44428302Y-42774395D03*
X48020405Y-42774395D03*
X46224354Y-40978344D03*
X49816456Y-40978344D03*
X48020405Y-39182293D03*
X51612507Y-39182293D03*
X49816456Y-37386241D03*
X53408559Y-37386241D03*
X51612507Y-35590190D03*
%TD*%
M02*
