%TF.GenerationSoftware,KiCad,Pcbnew,8.0.4*%
%TF.CreationDate,2024-12-17T16:18:45+07:00*%
%TF.ProjectId,16p_26p_adapter,3136705f-3236-4705-9f61-646170746572,rev?*%
%TF.SameCoordinates,Original*%
%TF.FileFunction,Legend,Top*%
%TF.FilePolarity,Positive*%
%FSLAX46Y46*%
G04 Gerber Fmt 4.6, Leading zero omitted, Abs format (unit mm)*
G04 Created by KiCad (PCBNEW 8.0.4) date 2024-12-17 16:18:45*
%MOMM*%
%LPD*%
G01*
G04 APERTURE LIST*
%ADD10C,0.150000*%
%ADD11C,0.120000*%
G04 APERTURE END LIST*
D10*
X48675733Y-32821980D02*
X48628114Y-32869600D01*
X48628114Y-32869600D02*
X48485257Y-32917219D01*
X48485257Y-32917219D02*
X48390019Y-32917219D01*
X48390019Y-32917219D02*
X48247162Y-32869600D01*
X48247162Y-32869600D02*
X48151924Y-32774361D01*
X48151924Y-32774361D02*
X48104305Y-32679123D01*
X48104305Y-32679123D02*
X48056686Y-32488647D01*
X48056686Y-32488647D02*
X48056686Y-32345790D01*
X48056686Y-32345790D02*
X48104305Y-32155314D01*
X48104305Y-32155314D02*
X48151924Y-32060076D01*
X48151924Y-32060076D02*
X48247162Y-31964838D01*
X48247162Y-31964838D02*
X48390019Y-31917219D01*
X48390019Y-31917219D02*
X48485257Y-31917219D01*
X48485257Y-31917219D02*
X48628114Y-31964838D01*
X48628114Y-31964838D02*
X48675733Y-32012457D01*
X49009067Y-31917219D02*
X49675733Y-31917219D01*
X49675733Y-31917219D02*
X49247162Y-32917219D01*
X27765476Y-61583219D02*
X27765476Y-62297504D01*
X27765476Y-62297504D02*
X27717857Y-62440361D01*
X27717857Y-62440361D02*
X27622619Y-62535600D01*
X27622619Y-62535600D02*
X27479762Y-62583219D01*
X27479762Y-62583219D02*
X27384524Y-62583219D01*
X28765476Y-62583219D02*
X28194048Y-62583219D01*
X28479762Y-62583219D02*
X28479762Y-61583219D01*
X28479762Y-61583219D02*
X28384524Y-61726076D01*
X28384524Y-61726076D02*
X28289286Y-61821314D01*
X28289286Y-61821314D02*
X28194048Y-61868933D01*
X29622619Y-61916552D02*
X29622619Y-62583219D01*
X29384524Y-61535600D02*
X29146429Y-62249885D01*
X29146429Y-62249885D02*
X29765476Y-62249885D01*
X56950124Y-19860419D02*
X56950124Y-18860419D01*
X56950124Y-18860419D02*
X57188219Y-18860419D01*
X57188219Y-18860419D02*
X57331076Y-18908038D01*
X57331076Y-18908038D02*
X57426314Y-19003276D01*
X57426314Y-19003276D02*
X57473933Y-19098514D01*
X57473933Y-19098514D02*
X57521552Y-19288990D01*
X57521552Y-19288990D02*
X57521552Y-19431847D01*
X57521552Y-19431847D02*
X57473933Y-19622323D01*
X57473933Y-19622323D02*
X57426314Y-19717561D01*
X57426314Y-19717561D02*
X57331076Y-19812800D01*
X57331076Y-19812800D02*
X57188219Y-19860419D01*
X57188219Y-19860419D02*
X56950124Y-19860419D01*
X57902505Y-19574704D02*
X58378695Y-19574704D01*
X57807267Y-19860419D02*
X58140600Y-18860419D01*
X58140600Y-18860419D02*
X58473933Y-19860419D01*
X59378695Y-19765180D02*
X59331076Y-19812800D01*
X59331076Y-19812800D02*
X59188219Y-19860419D01*
X59188219Y-19860419D02*
X59092981Y-19860419D01*
X59092981Y-19860419D02*
X58950124Y-19812800D01*
X58950124Y-19812800D02*
X58854886Y-19717561D01*
X58854886Y-19717561D02*
X58807267Y-19622323D01*
X58807267Y-19622323D02*
X58759648Y-19431847D01*
X58759648Y-19431847D02*
X58759648Y-19288990D01*
X58759648Y-19288990D02*
X58807267Y-19098514D01*
X58807267Y-19098514D02*
X58854886Y-19003276D01*
X58854886Y-19003276D02*
X58950124Y-18908038D01*
X58950124Y-18908038D02*
X59092981Y-18860419D01*
X59092981Y-18860419D02*
X59188219Y-18860419D01*
X59188219Y-18860419D02*
X59331076Y-18908038D01*
X59331076Y-18908038D02*
X59378695Y-18955657D01*
X59329435Y-35003346D02*
X59834511Y-35508422D01*
X59834511Y-35508422D02*
X59901854Y-35643109D01*
X59901854Y-35643109D02*
X59901854Y-35777796D01*
X59901854Y-35777796D02*
X59834511Y-35912483D01*
X59834511Y-35912483D02*
X59767167Y-35979827D01*
X60373259Y-35373735D02*
X59666152Y-34666628D01*
X59666152Y-34666628D02*
X59935526Y-34397254D01*
X59935526Y-34397254D02*
X60036542Y-34363583D01*
X60036542Y-34363583D02*
X60103885Y-34363583D01*
X60103885Y-34363583D02*
X60204900Y-34397254D01*
X60204900Y-34397254D02*
X60305916Y-34498270D01*
X60305916Y-34498270D02*
X60339587Y-34599285D01*
X60339587Y-34599285D02*
X60339587Y-34666628D01*
X60339587Y-34666628D02*
X60305916Y-34767644D01*
X60305916Y-34767644D02*
X60036542Y-35037018D01*
X61450755Y-34296239D02*
X61046694Y-34700300D01*
X61248725Y-34498270D02*
X60541618Y-33791163D01*
X60541618Y-33791163D02*
X60575290Y-33959522D01*
X60575290Y-33959522D02*
X60575290Y-34094209D01*
X60575290Y-34094209D02*
X60541618Y-34195224D01*
X56502404Y-37434115D02*
X57007480Y-37939191D01*
X57007480Y-37939191D02*
X57074823Y-38073878D01*
X57074823Y-38073878D02*
X57074823Y-38208565D01*
X57074823Y-38208565D02*
X57007480Y-38343252D01*
X57007480Y-38343252D02*
X56940136Y-38410596D01*
X57546228Y-37804504D02*
X56839121Y-37097397D01*
X56839121Y-37097397D02*
X57108495Y-36828023D01*
X57108495Y-36828023D02*
X57209511Y-36794352D01*
X57209511Y-36794352D02*
X57276854Y-36794352D01*
X57276854Y-36794352D02*
X57377869Y-36828023D01*
X57377869Y-36828023D02*
X57478885Y-36929039D01*
X57478885Y-36929039D02*
X57512556Y-37030054D01*
X57512556Y-37030054D02*
X57512556Y-37097397D01*
X57512556Y-37097397D02*
X57478885Y-37198413D01*
X57478885Y-37198413D02*
X57209511Y-37467787D01*
X57579900Y-36491306D02*
X57579900Y-36423962D01*
X57579900Y-36423962D02*
X57613572Y-36322947D01*
X57613572Y-36322947D02*
X57781930Y-36154588D01*
X57781930Y-36154588D02*
X57882946Y-36120917D01*
X57882946Y-36120917D02*
X57950289Y-36120917D01*
X57950289Y-36120917D02*
X58051304Y-36154588D01*
X58051304Y-36154588D02*
X58118648Y-36221932D01*
X58118648Y-36221932D02*
X58185991Y-36356619D01*
X58185991Y-36356619D02*
X58185991Y-37164741D01*
X58185991Y-37164741D02*
X58623724Y-36727008D01*
X56699305Y-30522104D02*
X57175495Y-30522104D01*
X56604067Y-30807819D02*
X56937400Y-29807819D01*
X56937400Y-29807819D02*
X57270733Y-30807819D01*
X57604067Y-30807819D02*
X57604067Y-29807819D01*
X57604067Y-29807819D02*
X57842162Y-29807819D01*
X57842162Y-29807819D02*
X57985019Y-29855438D01*
X57985019Y-29855438D02*
X58080257Y-29950676D01*
X58080257Y-29950676D02*
X58127876Y-30045914D01*
X58127876Y-30045914D02*
X58175495Y-30236390D01*
X58175495Y-30236390D02*
X58175495Y-30379247D01*
X58175495Y-30379247D02*
X58127876Y-30569723D01*
X58127876Y-30569723D02*
X58080257Y-30664961D01*
X58080257Y-30664961D02*
X57985019Y-30760200D01*
X57985019Y-30760200D02*
X57842162Y-30807819D01*
X57842162Y-30807819D02*
X57604067Y-30807819D01*
X59175495Y-30712580D02*
X59127876Y-30760200D01*
X59127876Y-30760200D02*
X58985019Y-30807819D01*
X58985019Y-30807819D02*
X58889781Y-30807819D01*
X58889781Y-30807819D02*
X58746924Y-30760200D01*
X58746924Y-30760200D02*
X58651686Y-30664961D01*
X58651686Y-30664961D02*
X58604067Y-30569723D01*
X58604067Y-30569723D02*
X58556448Y-30379247D01*
X58556448Y-30379247D02*
X58556448Y-30236390D01*
X58556448Y-30236390D02*
X58604067Y-30045914D01*
X58604067Y-30045914D02*
X58651686Y-29950676D01*
X58651686Y-29950676D02*
X58746924Y-29855438D01*
X58746924Y-29855438D02*
X58889781Y-29807819D01*
X58889781Y-29807819D02*
X58985019Y-29807819D01*
X58985019Y-29807819D02*
X59127876Y-29855438D01*
X59127876Y-29855438D02*
X59175495Y-29903057D01*
X45236845Y-31943643D02*
X44731769Y-32448719D01*
X44731769Y-32448719D02*
X44597082Y-32516062D01*
X44597082Y-32516062D02*
X44462395Y-32516062D01*
X44462395Y-32516062D02*
X44327708Y-32448719D01*
X44327708Y-32448719D02*
X44260364Y-32381375D01*
X44866456Y-32987467D02*
X45573563Y-32280360D01*
X45573563Y-32280360D02*
X45842937Y-32549734D01*
X45842937Y-32549734D02*
X45876608Y-32650750D01*
X45876608Y-32650750D02*
X45876608Y-32718093D01*
X45876608Y-32718093D02*
X45842937Y-32819108D01*
X45842937Y-32819108D02*
X45741921Y-32920124D01*
X45741921Y-32920124D02*
X45640906Y-32953795D01*
X45640906Y-32953795D02*
X45573563Y-32953795D01*
X45573563Y-32953795D02*
X45472547Y-32920124D01*
X45472547Y-32920124D02*
X45203173Y-32650750D01*
X46213326Y-32920124D02*
X46651059Y-33357856D01*
X46651059Y-33357856D02*
X46145982Y-33391528D01*
X46145982Y-33391528D02*
X46246998Y-33492543D01*
X46246998Y-33492543D02*
X46280669Y-33593559D01*
X46280669Y-33593559D02*
X46280669Y-33660902D01*
X46280669Y-33660902D02*
X46246998Y-33761917D01*
X46246998Y-33761917D02*
X46078639Y-33930276D01*
X46078639Y-33930276D02*
X45977624Y-33963948D01*
X45977624Y-33963948D02*
X45910280Y-33963948D01*
X45910280Y-33963948D02*
X45809265Y-33930276D01*
X45809265Y-33930276D02*
X45607234Y-33728246D01*
X45607234Y-33728246D02*
X45573563Y-33627230D01*
X45573563Y-33627230D02*
X45573563Y-33559887D01*
X59548733Y-21568580D02*
X59501114Y-21616200D01*
X59501114Y-21616200D02*
X59358257Y-21663819D01*
X59358257Y-21663819D02*
X59263019Y-21663819D01*
X59263019Y-21663819D02*
X59120162Y-21616200D01*
X59120162Y-21616200D02*
X59024924Y-21520961D01*
X59024924Y-21520961D02*
X58977305Y-21425723D01*
X58977305Y-21425723D02*
X58929686Y-21235247D01*
X58929686Y-21235247D02*
X58929686Y-21092390D01*
X58929686Y-21092390D02*
X58977305Y-20901914D01*
X58977305Y-20901914D02*
X59024924Y-20806676D01*
X59024924Y-20806676D02*
X59120162Y-20711438D01*
X59120162Y-20711438D02*
X59263019Y-20663819D01*
X59263019Y-20663819D02*
X59358257Y-20663819D01*
X59358257Y-20663819D02*
X59501114Y-20711438D01*
X59501114Y-20711438D02*
X59548733Y-20759057D01*
X60453495Y-20663819D02*
X59977305Y-20663819D01*
X59977305Y-20663819D02*
X59929686Y-21140009D01*
X59929686Y-21140009D02*
X59977305Y-21092390D01*
X59977305Y-21092390D02*
X60072543Y-21044771D01*
X60072543Y-21044771D02*
X60310638Y-21044771D01*
X60310638Y-21044771D02*
X60405876Y-21092390D01*
X60405876Y-21092390D02*
X60453495Y-21140009D01*
X60453495Y-21140009D02*
X60501114Y-21235247D01*
X60501114Y-21235247D02*
X60501114Y-21473342D01*
X60501114Y-21473342D02*
X60453495Y-21568580D01*
X60453495Y-21568580D02*
X60405876Y-21616200D01*
X60405876Y-21616200D02*
X60310638Y-21663819D01*
X60310638Y-21663819D02*
X60072543Y-21663819D01*
X60072543Y-21663819D02*
X59977305Y-21616200D01*
X59977305Y-21616200D02*
X59929686Y-21568580D01*
X28861679Y-51621918D02*
X29366755Y-52126994D01*
X29366755Y-52126994D02*
X29434099Y-52261681D01*
X29434099Y-52261681D02*
X29434099Y-52396368D01*
X29434099Y-52396368D02*
X29366755Y-52531055D01*
X29366755Y-52531055D02*
X29299412Y-52598399D01*
X30275893Y-51621918D02*
X29871832Y-52025979D01*
X30073862Y-51823948D02*
X29366755Y-51116841D01*
X29366755Y-51116841D02*
X29400427Y-51285200D01*
X29400427Y-51285200D02*
X29400427Y-51419887D01*
X29400427Y-51419887D02*
X29366755Y-51520902D01*
X29804488Y-50679109D02*
X30242221Y-50241376D01*
X30242221Y-50241376D02*
X30275893Y-50746452D01*
X30275893Y-50746452D02*
X30376908Y-50645437D01*
X30376908Y-50645437D02*
X30477923Y-50611765D01*
X30477923Y-50611765D02*
X30545267Y-50611765D01*
X30545267Y-50611765D02*
X30646282Y-50645437D01*
X30646282Y-50645437D02*
X30814641Y-50813796D01*
X30814641Y-50813796D02*
X30848312Y-50914811D01*
X30848312Y-50914811D02*
X30848312Y-50982154D01*
X30848312Y-50982154D02*
X30814641Y-51083170D01*
X30814641Y-51083170D02*
X30612610Y-51285200D01*
X30612610Y-51285200D02*
X30511595Y-51318872D01*
X30511595Y-51318872D02*
X30444251Y-51318872D01*
X55582479Y-52485518D02*
X56087555Y-52990594D01*
X56087555Y-52990594D02*
X56154899Y-53125281D01*
X56154899Y-53125281D02*
X56154899Y-53259968D01*
X56154899Y-53259968D02*
X56087555Y-53394655D01*
X56087555Y-53394655D02*
X56020212Y-53461999D01*
X56996693Y-52485518D02*
X56592632Y-52889579D01*
X56794662Y-52687548D02*
X56087555Y-51980441D01*
X56087555Y-51980441D02*
X56121227Y-52148800D01*
X56121227Y-52148800D02*
X56121227Y-52283487D01*
X56121227Y-52283487D02*
X56087555Y-52384502D01*
X56895677Y-51172319D02*
X56760990Y-51307006D01*
X56760990Y-51307006D02*
X56727319Y-51408022D01*
X56727319Y-51408022D02*
X56727319Y-51475365D01*
X56727319Y-51475365D02*
X56760990Y-51643724D01*
X56760990Y-51643724D02*
X56862006Y-51812083D01*
X56862006Y-51812083D02*
X57131380Y-52081457D01*
X57131380Y-52081457D02*
X57232395Y-52115128D01*
X57232395Y-52115128D02*
X57299738Y-52115128D01*
X57299738Y-52115128D02*
X57400754Y-52081457D01*
X57400754Y-52081457D02*
X57535441Y-51946770D01*
X57535441Y-51946770D02*
X57569112Y-51845754D01*
X57569112Y-51845754D02*
X57569112Y-51778411D01*
X57569112Y-51778411D02*
X57535441Y-51677396D01*
X57535441Y-51677396D02*
X57367082Y-51509037D01*
X57367082Y-51509037D02*
X57266067Y-51475365D01*
X57266067Y-51475365D02*
X57198723Y-51475365D01*
X57198723Y-51475365D02*
X57097708Y-51509037D01*
X57097708Y-51509037D02*
X56963021Y-51643724D01*
X56963021Y-51643724D02*
X56929349Y-51744739D01*
X56929349Y-51744739D02*
X56929349Y-51812083D01*
X56929349Y-51812083D02*
X56963021Y-51913098D01*
X42247479Y-52104518D02*
X42752555Y-52609594D01*
X42752555Y-52609594D02*
X42819899Y-52744281D01*
X42819899Y-52744281D02*
X42819899Y-52878968D01*
X42819899Y-52878968D02*
X42752555Y-53013655D01*
X42752555Y-53013655D02*
X42685212Y-53080999D01*
X43661693Y-52104518D02*
X43257632Y-52508579D01*
X43459662Y-52306548D02*
X42752555Y-51599441D01*
X42752555Y-51599441D02*
X42786227Y-51767800D01*
X42786227Y-51767800D02*
X42786227Y-51902487D01*
X42786227Y-51902487D02*
X42752555Y-52003502D01*
X43594349Y-50757648D02*
X43257632Y-51094365D01*
X43257632Y-51094365D02*
X43560677Y-51464754D01*
X43560677Y-51464754D02*
X43560677Y-51397411D01*
X43560677Y-51397411D02*
X43594349Y-51296396D01*
X43594349Y-51296396D02*
X43762708Y-51128037D01*
X43762708Y-51128037D02*
X43863723Y-51094365D01*
X43863723Y-51094365D02*
X43931067Y-51094365D01*
X43931067Y-51094365D02*
X44032082Y-51128037D01*
X44032082Y-51128037D02*
X44200441Y-51296396D01*
X44200441Y-51296396D02*
X44234112Y-51397411D01*
X44234112Y-51397411D02*
X44234112Y-51464754D01*
X44234112Y-51464754D02*
X44200441Y-51565770D01*
X44200441Y-51565770D02*
X44032082Y-51734128D01*
X44032082Y-51734128D02*
X43931067Y-51767800D01*
X43931067Y-51767800D02*
X43863723Y-51767800D01*
D11*
%TO.C,C7*%
X52153453Y-31675400D02*
X51630947Y-31675400D01*
X52153453Y-33145400D02*
X51630947Y-33145400D01*
%TO.C,J14*%
X26992800Y-55412400D02*
X60132800Y-55412400D01*
X26992800Y-58012399D02*
X26992800Y-55412400D01*
X26992800Y-60612400D02*
X26992800Y-59282400D01*
X28322800Y-60612400D02*
X26992800Y-60612400D01*
X29592800Y-58012400D02*
X26992800Y-58012399D01*
X29592801Y-60612400D02*
X29592800Y-58012400D01*
X29592801Y-60612400D02*
X60132800Y-60612400D01*
X60132800Y-60612400D02*
X60132800Y-55412400D01*
%TO.C,J18*%
X30336200Y-19092600D02*
X30336200Y-24292600D01*
X53256199Y-19092600D02*
X30336200Y-19092600D01*
X53256199Y-19092600D02*
X53256200Y-21692600D01*
X53256200Y-21692600D02*
X55856200Y-21692601D01*
X54526200Y-19092600D02*
X55856200Y-19092600D01*
X55856200Y-19092600D02*
X55856200Y-20422600D01*
X55856200Y-21692601D02*
X55856200Y-24292600D01*
X55856200Y-24292600D02*
X30336200Y-24292600D01*
%TO.C,JP1*%
X56874724Y-34269262D02*
X59773862Y-31370124D01*
X58288938Y-35683476D02*
X56874724Y-34269262D01*
X59102111Y-31334769D02*
X58677847Y-31759033D01*
X59102111Y-31759033D02*
X58677847Y-31759033D01*
X59102111Y-31759033D02*
X59102111Y-31334769D01*
X59773862Y-31370124D02*
X61188076Y-32784338D01*
X61188076Y-32784338D02*
X58288938Y-35683476D01*
%TO.C,JP2*%
X53176930Y-35000650D02*
X53601194Y-35424914D01*
X53212285Y-34328899D02*
X54626499Y-32914685D01*
X53601194Y-35000650D02*
X53176930Y-35000650D01*
X53601194Y-35000650D02*
X53601194Y-35424914D01*
X54626499Y-32914685D02*
X57525637Y-35813823D01*
X56111423Y-37228037D02*
X53212285Y-34328899D01*
X57525637Y-35813823D02*
X56111423Y-37228037D01*
%TO.C,J19*%
X30336200Y-25622600D02*
X30336200Y-30822600D01*
X53256199Y-25622600D02*
X30336200Y-25622600D01*
X53256199Y-25622600D02*
X53256200Y-28222600D01*
X53256200Y-28222600D02*
X55856200Y-28222601D01*
X54526200Y-25622600D02*
X55856200Y-25622600D01*
X55856200Y-25622600D02*
X55856200Y-26952600D01*
X55856200Y-28222601D02*
X55856200Y-30822600D01*
X55856200Y-30822600D02*
X30336200Y-30822600D01*
%TO.C,JP3*%
X41878769Y-34649889D02*
X42303033Y-35074153D01*
X41914124Y-33978138D02*
X43328338Y-32563924D01*
X42303033Y-34649889D02*
X41878769Y-34649889D01*
X42303033Y-34649889D02*
X42303033Y-35074153D01*
X43328338Y-32563924D02*
X46227476Y-35463062D01*
X44813262Y-36877276D02*
X41914124Y-33978138D01*
X46227476Y-35463062D02*
X44813262Y-36877276D01*
%TO.C,C5*%
X56823200Y-22215852D02*
X56823200Y-21693346D01*
X58293200Y-22215852D02*
X58293200Y-21693346D01*
%TD*%
M02*
