M48
; DRILL file {KiCad 8.0.4} date 2024-12-17T16:12:40+0700
; FORMAT={-:-/ absolute / inch / decimal}
; #@! TF.CreationDate,2024-12-17T16:12:40+07:00
; #@! TF.GenerationSoftware,Kicad,Pcbnew,8.0.4
; #@! TF.FileFunction,Plated,1,2,PTH
FMAT,2
INCH
; #@! TA.AperFunction,Plated,PTH,ViaDrill
T1C0.0118
; #@! TA.AperFunction,Plated,PTH,ComponentDrill
T2C0.0197
; #@! TA.AperFunction,Plated,PTH,ComponentDrill
T3C0.0394
; #@! TA.AperFunction,Plated,PTH,ComponentDrill
T4C0.1260
%
G90
G05
T1
X1.5761Y-1.257
X1.8971Y-1.306
X2.2861Y-1.087
X2.3061Y-1.027
X2.3061Y-1.157
X2.3161Y-1.507
X2.3361Y-1.417
X2.4561Y-1.297
T2
X1.0066Y-2.7369
X1.0369Y-2.6638
X1.0369Y-2.81
X1.0788Y-2.9115
X1.1091Y-2.8384
X1.1091Y-2.9846
X1.1099Y-2.6335
X1.1099Y-2.8402
X1.1821Y-2.8082
X1.1821Y-3.0149
X1.183Y-2.6638
X1.183Y-2.81
X1.2133Y-2.7369
X1.2552Y-2.8384
X1.2552Y-2.9846
X1.2855Y-2.9115
T3
X1.007Y-1.8963
X1.0777Y-1.8256
X1.0777Y-1.967
X1.1151Y-2.234
X1.1151Y-2.334
X1.1484Y-1.7549
X1.1484Y-1.8963
X1.2151Y-2.234
X1.2151Y-2.334
X1.2191Y-1.6842
X1.2191Y-1.8256
X1.2467Y-0.804
X1.2467Y-0.904
X1.2467Y-1.0611
X1.2467Y-1.1611
X1.2899Y-1.6135
X1.2899Y-1.7549
X1.3151Y-2.334
X1.3151Y-2.234
X1.3467Y-0.804
X1.3467Y-0.904
X1.3467Y-1.0611
X1.3467Y-1.1611
X1.3606Y-1.5428
X1.3606Y-1.6842
X1.4151Y-2.234
X1.4151Y-2.334
X1.4313Y-1.4721
X1.4313Y-1.6135
X1.4467Y-0.804
X1.4467Y-1.0611
X1.4467Y-0.904
X1.4467Y-1.1611
X1.502Y-1.4013
X1.502Y-1.5428
X1.5151Y-2.234
X1.5151Y-2.334
X1.537Y-1.8962
X1.5467Y-0.804
X1.5467Y-0.904
X1.5467Y-1.0611
X1.5467Y-1.1611
X1.5727Y-1.4721
X1.6077Y-1.8255
X1.6077Y-1.9669
X1.6151Y-2.234
X1.6151Y-2.334
X1.6467Y-0.804
X1.6467Y-0.904
X1.6467Y-1.0611
X1.6467Y-1.1611
X1.6784Y-1.7547
X1.6784Y-1.8962
X1.7151Y-2.234
X1.7151Y-2.334
X1.7467Y-0.804
X1.7467Y-0.904
X1.7467Y-1.0611
X1.7467Y-1.1611
X1.7491Y-1.684
X1.7491Y-1.8255
X1.8151Y-2.234
X1.8151Y-2.334
X1.8199Y-1.6133
X1.8199Y-1.7547
X1.8467Y-0.804
X1.8467Y-0.904
X1.8467Y-1.0611
X1.8467Y-1.1611
X1.8906Y-1.5426
X1.8906Y-1.684
X1.9151Y-2.234
X1.9151Y-2.334
X1.9467Y-0.904
X1.9467Y-1.1611
X1.9467Y-0.804
X1.9467Y-1.0611
X1.9613Y-1.4719
X1.9613Y-1.6133
X2.0151Y-2.234
X2.0151Y-2.334
X2.032Y-1.4012
X2.032Y-1.5426
X2.0467Y-0.804
X2.0467Y-0.904
X2.0467Y-1.0611
X2.0467Y-1.1611
X2.067Y-1.8962
X2.1027Y-1.4719
X2.1151Y-2.234
X2.1151Y-2.334
X2.1377Y-1.8255
X2.1377Y-1.9669
X2.1467Y-0.804
X2.1467Y-0.904
X2.1467Y-1.0611
X2.1467Y-1.1611
X2.2084Y-1.7547
X2.2084Y-1.8962
X2.2151Y-2.334
X2.2151Y-2.234
X2.2791Y-1.684
X2.2791Y-1.8255
X2.3151Y-2.234
X2.3151Y-2.334
X2.3499Y-1.6133
X2.3499Y-1.7547
X2.4206Y-1.5426
X2.4206Y-1.684
X2.4913Y-1.4719
X2.4913Y-1.6133
X2.562Y-1.4012
X2.562Y-1.5426
X2.6327Y-1.4719
T4
X1.1099Y-2.7369
X1.1821Y-2.9115
X2.3239Y-2.9115
X2.3299Y-2.7369
M30
