%TF.GenerationSoftware,KiCad,Pcbnew,8.0.4*%
%TF.CreationDate,2024-12-17T16:18:45+07:00*%
%TF.ProjectId,16p_26p_adapter,3136705f-3236-4705-9f61-646170746572,rev?*%
%TF.SameCoordinates,Original*%
%TF.FileFunction,Copper,L1,Top*%
%TF.FilePolarity,Positive*%
%FSLAX46Y46*%
G04 Gerber Fmt 4.6, Leading zero omitted, Abs format (unit mm)*
G04 Created by KiCad (PCBNEW 8.0.4) date 2024-12-17 16:18:45*
%MOMM*%
%LPD*%
G01*
G04 APERTURE LIST*
G04 Aperture macros list*
%AMRoundRect*
0 Rectangle with rounded corners*
0 $1 Rounding radius*
0 $2 $3 $4 $5 $6 $7 $8 $9 X,Y pos of 4 corners*
0 Add a 4 corners polygon primitive as box body*
4,1,4,$2,$3,$4,$5,$6,$7,$8,$9,$2,$3,0*
0 Add four circle primitives for the rounded corners*
1,1,$1+$1,$2,$3*
1,1,$1+$1,$4,$5*
1,1,$1+$1,$6,$7*
1,1,$1+$1,$8,$9*
0 Add four rect primitives between the rounded corners*
20,1,$1+$1,$2,$3,$4,$5,0*
20,1,$1+$1,$4,$5,$6,$7,0*
20,1,$1+$1,$6,$7,$8,$9,0*
20,1,$1+$1,$8,$9,$2,$3,0*%
%AMHorizOval*
0 Thick line with rounded ends*
0 $1 width*
0 $2 $3 position (X,Y) of the first rounded end (center of the circle)*
0 $4 $5 position (X,Y) of the second rounded end (center of the circle)*
0 Add line between two ends*
20,1,$1,$2,$3,$4,$5,0*
0 Add two circle primitives to create the rounded ends*
1,1,$1,$2,$3*
1,1,$1,$4,$5*%
%AMRotRect*
0 Rectangle, with rotation*
0 The origin of the aperture is its center*
0 $1 length*
0 $2 width*
0 $3 Rotation angle, in degrees counterclockwise*
0 Add horizontal line*
21,1,$1,$2,0,0,$3*%
G04 Aperture macros list end*
%TA.AperFunction,SMDPad,CuDef*%
%ADD10RoundRect,0.250000X0.250000X0.475000X-0.250000X0.475000X-0.250000X-0.475000X0.250000X-0.475000X0*%
%TD*%
%TA.AperFunction,ComponentPad*%
%ADD11R,1.700000X1.700000*%
%TD*%
%TA.AperFunction,ComponentPad*%
%ADD12O,1.700000X1.700000*%
%TD*%
%TA.AperFunction,SMDPad,CuDef*%
%ADD13RotRect,1.000000X1.500000X225.000000*%
%TD*%
%TA.AperFunction,ComponentPad*%
%ADD14C,4.500000*%
%TD*%
%TA.AperFunction,SMDPad,CuDef*%
%ADD15RotRect,1.000000X1.500000X315.000000*%
%TD*%
%TA.AperFunction,SMDPad,CuDef*%
%ADD16RoundRect,0.250000X0.475000X-0.250000X0.475000X0.250000X-0.475000X0.250000X-0.475000X-0.250000X0*%
%TD*%
%TA.AperFunction,ComponentPad*%
%ADD17C,0.800000*%
%TD*%
%TA.AperFunction,ComponentPad*%
%ADD18C,7.000000*%
%TD*%
%TA.AperFunction,ComponentPad*%
%ADD19RotRect,1.700000X1.700000X315.000000*%
%TD*%
%TA.AperFunction,ComponentPad*%
%ADD20HorizOval,1.700000X0.000000X0.000000X0.000000X0.000000X0*%
%TD*%
%TA.AperFunction,ViaPad*%
%ADD21C,0.600000*%
%TD*%
%TA.AperFunction,Conductor*%
%ADD22C,0.400000*%
%TD*%
%TA.AperFunction,Conductor*%
%ADD23C,0.200000*%
%TD*%
G04 APERTURE END LIST*
D10*
%TO.P,C7,1*%
%TO.N,/3x16p-26p_adapter/VCC_5V*%
X52842199Y-32410400D03*
%TO.P,C7,2*%
%TO.N,GND*%
X50942201Y-32410400D03*
%TD*%
D11*
%TO.P,J14,1,Pin_1*%
%TO.N,/3x16p-26p_adapter/CM_A_N5*%
X28322800Y-59282400D03*
D12*
%TO.P,J14,2,Pin_2*%
%TO.N,/3x16p-26p_adapter/CM_B_N3*%
X28322800Y-56742400D03*
%TO.P,J14,3,Pin_3*%
%TO.N,/3x16p-26p_adapter/CM_OE_M4*%
X30862800Y-59282400D03*
%TO.P,J14,4,Pin_4*%
%TO.N,/3x16p-26p_adapter/CM_D_P4*%
X30862800Y-56742400D03*
%TO.P,J14,5,Pin_5*%
%TO.N,/3x16p-26p_adapter/CM_CLK_M3*%
X33402799Y-59282400D03*
%TO.P,J14,6,Pin_6*%
%TO.N,/3x16p-26p_adapter/CM_STB_N1*%
X33402800Y-56742400D03*
%TO.P,J14,7,Pin_7*%
%TO.N,/3x16p-26p_adapter/D1_1*%
X35942800Y-59282400D03*
%TO.P,J14,8,Pin_8*%
%TO.N,/3x16p-26p_adapter/D1_2*%
X35942800Y-56742400D03*
%TO.P,J14,9,Pin_9*%
%TO.N,/3x16p-26p_adapter/D1_3*%
X38482800Y-59282400D03*
%TO.P,J14,10,Pin_10*%
%TO.N,/3x16p-26p_adapter/D1_4*%
X38482800Y-56742400D03*
%TO.P,J14,11,Pin_11*%
%TO.N,/3x16p-26p_adapter/D1_5*%
X41022800Y-59282400D03*
%TO.P,J14,12,Pin_12*%
%TO.N,/3x16p-26p_adapter/D1_6*%
X41022800Y-56742400D03*
%TO.P,J14,13,Pin_13*%
%TO.N,GND*%
X43562800Y-59282400D03*
%TO.P,J14,14,Pin_14*%
%TO.N,/3x16p-26p_adapter/D2_1*%
X43562800Y-56742400D03*
%TO.P,J14,15,Pin_15*%
%TO.N,/3x16p-26p_adapter/D2_2*%
X46102801Y-59282400D03*
%TO.P,J14,16,Pin_16*%
%TO.N,/3x16p-26p_adapter/D2_3*%
X46102800Y-56742400D03*
%TO.P,J14,17,Pin_17*%
%TO.N,/3x16p-26p_adapter/D2_4*%
X48642800Y-59282400D03*
%TO.P,J14,18,Pin_18*%
%TO.N,/3x16p-26p_adapter/D2_5*%
X48642800Y-56742400D03*
%TO.P,J14,19,Pin_19*%
%TO.N,/3x16p-26p_adapter/D2_6*%
X51182800Y-59282400D03*
%TO.P,J14,20,Pin_20*%
%TO.N,GND*%
X51182800Y-56742400D03*
%TO.P,J14,21,Pin_21*%
%TO.N,/3x16p-26p_adapter/D3_1*%
X53722800Y-59282400D03*
%TO.P,J14,22,Pin_22*%
%TO.N,/3x16p-26p_adapter/D3_2*%
X53722800Y-56742400D03*
%TO.P,J14,23,Pin_23*%
%TO.N,/3x16p-26p_adapter/D3_3*%
X56262799Y-59282400D03*
%TO.P,J14,24,Pin_24*%
%TO.N,/3x16p-26p_adapter/D3_4*%
X56262800Y-56742400D03*
%TO.P,J14,25,Pin_25*%
%TO.N,/3x16p-26p_adapter/D3_5*%
X58802800Y-59282400D03*
%TO.P,J14,26,Pin_26*%
%TO.N,/3x16p-26p_adapter/D3_6*%
X58802800Y-56742400D03*
%TD*%
D11*
%TO.P,J18,1,Pin_1*%
%TO.N,GND*%
X54526200Y-20422600D03*
D12*
%TO.P,J18,2,Pin_2*%
%TO.N,/3x16p-26p_adapter/VCC_5V*%
X54526200Y-22962600D03*
%TO.P,J18,3,Pin_3*%
%TO.N,GND*%
X51986200Y-20422600D03*
%TO.P,J18,4,Pin_4*%
X51986200Y-22962600D03*
%TO.P,J18,5,Pin_5*%
X49446201Y-20422600D03*
%TO.P,J18,6,Pin_6*%
%TO.N,Net-(J18-Pin_6)*%
X49446200Y-22962600D03*
%TO.P,J18,7,Pin_7*%
%TO.N,/3x16p-26p_adapter/D3_1*%
X46906200Y-20422600D03*
%TO.P,J18,8,Pin_8*%
%TO.N,/3x16p-26p_adapter/D3_2*%
X46906200Y-22962600D03*
%TO.P,J18,9,Pin_9*%
%TO.N,/3x16p-26p_adapter/D2_5*%
X44366200Y-20422600D03*
%TO.P,J18,10,Pin_10*%
%TO.N,/3x16p-26p_adapter/D2_6*%
X44366200Y-22962600D03*
%TO.P,J18,11,Pin_11*%
%TO.N,/3x16p-26p_adapter/D2_3*%
X41826200Y-20422600D03*
%TO.P,J18,12,Pin_12*%
%TO.N,/3x16p-26p_adapter/D2_4*%
X41826200Y-22962600D03*
%TO.P,J18,13,Pin_13*%
%TO.N,/3x16p-26p_adapter/D2_1*%
X39286200Y-20422600D03*
%TO.P,J18,14,Pin_14*%
%TO.N,/3x16p-26p_adapter/D2_2*%
X39286200Y-22962600D03*
%TO.P,J18,15,Pin_15*%
%TO.N,/3x16p-26p_adapter/D1_5*%
X36746199Y-20422600D03*
%TO.P,J18,16,Pin_16*%
%TO.N,/3x16p-26p_adapter/D1_6*%
X36746200Y-22962600D03*
%TO.P,J18,17,Pin_17*%
%TO.N,/3x16p-26p_adapter/D1_3*%
X34206200Y-20422600D03*
%TO.P,J18,18,Pin_18*%
%TO.N,/3x16p-26p_adapter/D1_4*%
X34206200Y-22962600D03*
%TO.P,J18,19,Pin_19*%
%TO.N,/3x16p-26p_adapter/D1_1*%
X31666200Y-20422600D03*
%TO.P,J18,20,Pin_20*%
%TO.N,/3x16p-26p_adapter/D1_2*%
X31666200Y-22962600D03*
%TD*%
D13*
%TO.P,JP1,1,A*%
%TO.N,/3x16p-26p_adapter/VCC_5V*%
X59950639Y-32607561D03*
%TO.P,JP1,2,B*%
%TO.N,/3x16p-26p_adapter/VCC_J16*%
X59031400Y-33526800D03*
%TO.P,JP1,3*%
%TO.N,N/C*%
X58112161Y-34446039D03*
%TD*%
D14*
%TO.P,H9,1*%
%TO.N,N/C*%
X59026200Y-73952600D03*
%TD*%
D15*
%TO.P,JP2,1,A*%
%TO.N,/3x16p-26p_adapter/VCC_5V*%
X54449722Y-34152122D03*
%TO.P,JP2,2,B*%
%TO.N,/3x16p-26p_adapter/VCC_J15*%
X55368961Y-35071361D03*
%TO.P,JP2,3*%
%TO.N,N/C*%
X56288200Y-35990600D03*
%TD*%
D11*
%TO.P,J19,1,Pin_1*%
%TO.N,/3x16p-26p_adapter/VCC_5V*%
X54526200Y-26952600D03*
D12*
%TO.P,J19,2,Pin_2*%
X54526200Y-29492600D03*
%TO.P,J19,3,Pin_3*%
%TO.N,GND*%
X51986200Y-26952600D03*
%TO.P,J19,4,Pin_4*%
X51986200Y-29492600D03*
%TO.P,J19,5,Pin_5*%
%TO.N,/3x16p-26p_adapter/D3_1*%
X49446201Y-26952600D03*
%TO.P,J19,6,Pin_6*%
%TO.N,Net-(J18-Pin_6)*%
X49446200Y-29492600D03*
%TO.P,J19,7,Pin_7*%
%TO.N,/3x16p-26p_adapter/D2_5*%
X46906200Y-26952600D03*
%TO.P,J19,8,Pin_8*%
%TO.N,/3x16p-26p_adapter/D2_6*%
X46906200Y-29492600D03*
%TO.P,J19,9,Pin_9*%
%TO.N,/3x16p-26p_adapter/D2_3*%
X44366200Y-26952600D03*
%TO.P,J19,10,Pin_10*%
%TO.N,/3x16p-26p_adapter/D2_4*%
X44366200Y-29492600D03*
%TO.P,J19,11,Pin_11*%
%TO.N,/3x16p-26p_adapter/D2_1*%
X41826200Y-26952600D03*
%TO.P,J19,12,Pin_12*%
%TO.N,/3x16p-26p_adapter/D2_2*%
X41826200Y-29492600D03*
%TO.P,J19,13,Pin_13*%
%TO.N,/3x16p-26p_adapter/D1_5*%
X39286200Y-26952600D03*
%TO.P,J19,14,Pin_14*%
%TO.N,/3x16p-26p_adapter/D1_6*%
X39286200Y-29492600D03*
%TO.P,J19,15,Pin_15*%
%TO.N,/3x16p-26p_adapter/D1_3*%
X36746199Y-26952600D03*
%TO.P,J19,16,Pin_16*%
%TO.N,/3x16p-26p_adapter/D1_4*%
X36746200Y-29492600D03*
%TO.P,J19,17,Pin_17*%
%TO.N,/3x16p-26p_adapter/D1_1*%
X34206200Y-26952600D03*
%TO.P,J19,18,Pin_18*%
%TO.N,/3x16p-26p_adapter/D1_2*%
X34206200Y-29492600D03*
%TO.P,J19,19,Pin_19*%
%TO.N,GND*%
X31666200Y-26952600D03*
%TO.P,J19,20,Pin_20*%
X31666200Y-29492600D03*
%TD*%
D15*
%TO.P,JP3,1,A*%
%TO.N,/3x16p-26p_adapter/CM_STB_N1*%
X43151561Y-33801361D03*
%TO.P,JP3,2,C*%
%TO.N,Net-(J18-Pin_6)*%
X44070800Y-34720600D03*
%TO.P,JP3,3,B*%
%TO.N,/3x16p-26p_adapter/CM_CLK_M3*%
X44990039Y-35639839D03*
%TD*%
D16*
%TO.P,C5,1*%
%TO.N,/3x16p-26p_adapter/VCC_5V*%
X57558200Y-22904598D03*
%TO.P,C5,2*%
%TO.N,GND*%
X57558200Y-21004600D03*
%TD*%
D14*
%TO.P,H5,1*%
%TO.N,N/C*%
X59180200Y-69516600D03*
%TD*%
D17*
%TO.P,H10,1*%
%TO.N,N/C*%
X27401200Y-73952600D03*
X28170045Y-72096445D03*
X28170045Y-75808755D03*
X30026200Y-71327600D03*
D18*
X30026200Y-73952600D03*
D17*
X30026200Y-76577600D03*
X31882355Y-72096445D03*
X31882355Y-75808755D03*
X32651200Y-73952600D03*
%TD*%
%TO.P,H6,1*%
%TO.N,N/C*%
X25567200Y-69516600D03*
X26336045Y-67660445D03*
X26336045Y-71372755D03*
X28192200Y-66891600D03*
D18*
X28192200Y-69516600D03*
D17*
X28192200Y-72141600D03*
X30048355Y-67660445D03*
X30048355Y-71372755D03*
X30817200Y-69516600D03*
%TD*%
D19*
%TO.P,J13,1,Pin_1*%
%TO.N,/3x16p-26p_adapter/D1_1*%
X27374200Y-49962600D03*
D20*
%TO.P,J13,2,Pin_2*%
%TO.N,/3x16p-26p_adapter/D1_2*%
X25578149Y-48166549D03*
%TO.P,J13,3,Pin_3*%
%TO.N,/3x16p-26p_adapter/D1_3*%
X29170251Y-48166549D03*
%TO.P,J13,4,Pin_4*%
%TO.N,GND*%
X27374200Y-46370498D03*
%TO.P,J13,5,Pin_5*%
%TO.N,/3x16p-26p_adapter/D1_4*%
X30966302Y-46370498D03*
%TO.P,J13,6,Pin_6*%
%TO.N,/3x16p-26p_adapter/D1_5*%
X29170251Y-44574446D03*
%TO.P,J13,7,Pin_7*%
%TO.N,/3x16p-26p_adapter/D1_6*%
X32762354Y-44574446D03*
%TO.P,J13,8,Pin_8*%
%TO.N,/3x16p-26p_adapter/CM_E_N4*%
X30966302Y-42778395D03*
D12*
%TO.P,J13,9,Pin_9*%
%TO.N,/3x16p-26p_adapter/CM_A_N5*%
X34558405Y-42778395D03*
D20*
%TO.P,J13,10,Pin_10*%
%TO.N,/3x16p-26p_adapter/CM_B_N3*%
X32762354Y-40982344D03*
%TO.P,J13,11,Pin_11*%
%TO.N,/3x16p-26p_adapter/CM_C_P3*%
X36354456Y-40982344D03*
%TO.P,J13,12,Pin_12*%
%TO.N,/3x16p-26p_adapter/CM_D_P4*%
X34558405Y-39186293D03*
%TO.P,J13,13,Pin_13*%
%TO.N,/3x16p-26p_adapter/CM_CLK_M3*%
X38150507Y-39186293D03*
%TO.P,J13,14,Pin_14*%
%TO.N,/3x16p-26p_adapter/CM_STB_N1*%
X36354456Y-37390241D03*
%TO.P,J13,15,Pin_15*%
%TO.N,/3x16p-26p_adapter/CM_OE_M4*%
X39946559Y-37390241D03*
%TO.P,J13,16,Pin_16*%
%TO.N,GND*%
X38150507Y-35594190D03*
%TD*%
D19*
%TO.P,J16,1,Pin_1*%
%TO.N,/3x16p-26p_adapter/D3_1*%
X54298200Y-49958600D03*
D20*
%TO.P,J16,2,Pin_2*%
%TO.N,/3x16p-26p_adapter/D3_2*%
X52502149Y-48162549D03*
%TO.P,J16,3,Pin_3*%
%TO.N,/3x16p-26p_adapter/D3_3*%
X56094251Y-48162549D03*
%TO.P,J16,4,Pin_4*%
%TO.N,GND*%
X54298200Y-46366498D03*
%TO.P,J16,5,Pin_5*%
%TO.N,/3x16p-26p_adapter/D3_4*%
X57890302Y-46366498D03*
%TO.P,J16,6,Pin_6*%
%TO.N,/3x16p-26p_adapter/D3_5*%
X56094251Y-44570446D03*
%TO.P,J16,7,Pin_7*%
%TO.N,/3x16p-26p_adapter/D3_6*%
X59686354Y-44570446D03*
%TO.P,J16,8,Pin_8*%
%TO.N,unconnected-(J16-Pin_8-Pad8)*%
X57890302Y-42774395D03*
%TO.P,J16,9,Pin_9*%
%TO.N,unconnected-(J16-Pin_9-Pad9)*%
X61482405Y-42774395D03*
%TO.P,J16,10,Pin_10*%
%TO.N,unconnected-(J16-Pin_10-Pad10)*%
X59686354Y-40978344D03*
%TO.P,J16,11,Pin_11*%
%TO.N,unconnected-(J16-Pin_11-Pad11)*%
X63278456Y-40978344D03*
%TO.P,J16,12,Pin_12*%
%TO.N,unconnected-(J16-Pin_12-Pad12)*%
X61482405Y-39182293D03*
%TO.P,J16,13,Pin_13*%
%TO.N,unconnected-(J16-Pin_13-Pad13)*%
X65074507Y-39182293D03*
%TO.P,J16,14,Pin_14*%
%TO.N,/3x16p-26p_adapter/VCC_J16*%
X63278456Y-37386241D03*
%TO.P,J16,15,Pin_15*%
%TO.N,unconnected-(J16-Pin_15-Pad15)*%
X66870559Y-37386241D03*
%TO.P,J16,16,Pin_16*%
%TO.N,GND*%
X65074507Y-35590190D03*
%TD*%
D19*
%TO.P,J15,1,Pin_1*%
%TO.N,/3x16p-26p_adapter/D2_1*%
X40836200Y-49958600D03*
D20*
%TO.P,J15,2,Pin_2*%
%TO.N,/3x16p-26p_adapter/D2_2*%
X39040149Y-48162549D03*
%TO.P,J15,3,Pin_3*%
%TO.N,/3x16p-26p_adapter/D2_3*%
X42632251Y-48162549D03*
%TO.P,J15,4,Pin_4*%
%TO.N,GND*%
X40836200Y-46366498D03*
%TO.P,J15,5,Pin_5*%
%TO.N,/3x16p-26p_adapter/D2_4*%
X44428302Y-46366498D03*
%TO.P,J15,6,Pin_6*%
%TO.N,/3x16p-26p_adapter/D2_5*%
X42632251Y-44570446D03*
%TO.P,J15,7,Pin_7*%
%TO.N,/3x16p-26p_adapter/D2_6*%
X46224354Y-44570446D03*
%TO.P,J15,8,Pin_8*%
%TO.N,unconnected-(J15-Pin_8-Pad8)*%
X44428302Y-42774395D03*
%TO.P,J15,9,Pin_9*%
%TO.N,unconnected-(J15-Pin_9-Pad9)*%
X48020405Y-42774395D03*
%TO.P,J15,10,Pin_10*%
%TO.N,unconnected-(J15-Pin_10-Pad10)*%
X46224354Y-40978344D03*
%TO.P,J15,11,Pin_11*%
%TO.N,unconnected-(J15-Pin_11-Pad11)*%
X49816456Y-40978344D03*
%TO.P,J15,12,Pin_12*%
%TO.N,unconnected-(J15-Pin_12-Pad12)*%
X48020405Y-39182293D03*
%TO.P,J15,13,Pin_13*%
%TO.N,unconnected-(J15-Pin_13-Pad13)*%
X51612507Y-39182293D03*
%TO.P,J15,14,Pin_14*%
%TO.N,/3x16p-26p_adapter/VCC_J15*%
X49816456Y-37386241D03*
%TO.P,J15,15,Pin_15*%
%TO.N,unconnected-(J15-Pin_15-Pad15)*%
X53408559Y-37386241D03*
%TO.P,J15,16,Pin_16*%
%TO.N,GND*%
X51612507Y-35590190D03*
%TD*%
D21*
%TO.N,GND*%
X59336200Y-35990600D03*
X58828200Y-38276600D03*
X62384200Y-32942600D03*
%TO.N,/3x16p-26p_adapter/D1_6*%
X40032200Y-31926600D03*
%TO.N,/3x16p-26p_adapter/D2_5*%
X48185600Y-33171200D03*
%TO.N,/3x16p-26p_adapter/VCC_5V*%
X58574200Y-29386600D03*
X58066200Y-27608600D03*
X58574200Y-26084600D03*
%TD*%
D22*
%TO.N,GND*%
X52472800Y-60877200D02*
X60280800Y-60877200D01*
X60280800Y-60877200D02*
X60606200Y-60551800D01*
X60606200Y-60551800D02*
X60606200Y-45418367D01*
X60606200Y-45418367D02*
X61891084Y-44133484D01*
X60119559Y-30635241D02*
X60881559Y-31397241D01*
X52472800Y-58032400D02*
X51182800Y-56742400D01*
X62732405Y-42256628D02*
X58828200Y-38352423D01*
X35076172Y-41528395D02*
X37388489Y-43840711D01*
X52472800Y-60877200D02*
X52472800Y-58032400D01*
X50942201Y-34919884D02*
X51612507Y-35590190D01*
X62732405Y-43292162D02*
X62732405Y-42256628D01*
X38150507Y-35594190D02*
X38150507Y-37361958D01*
X35076172Y-40436293D02*
X35076172Y-41528395D01*
X63824507Y-39716907D02*
X63824507Y-38614293D01*
X50942201Y-32410400D02*
X50942201Y-30536599D01*
X54526200Y-20422600D02*
X59770200Y-20422600D01*
X52478200Y-60882600D02*
X52472800Y-60877200D01*
X58828200Y-36498600D02*
X59336200Y-35990600D01*
X51986200Y-26952600D02*
X51986200Y-20422600D01*
X63824507Y-38614293D02*
X65074507Y-37364293D01*
X59770200Y-20422600D02*
X60098200Y-20750600D01*
X38310413Y-43840711D02*
X37388489Y-43840711D01*
X60881559Y-31397241D02*
X65074507Y-35590190D01*
X60119559Y-21025959D02*
X60119559Y-30635241D01*
X58828200Y-38276600D02*
X58828200Y-36498600D01*
X38150507Y-37361958D02*
X35076172Y-40436293D01*
X65074507Y-37364293D02*
X65074507Y-35590190D01*
X60098200Y-21004600D02*
X60119559Y-21025959D01*
X40836200Y-46366498D02*
X38310413Y-43840711D01*
X51986200Y-29492600D02*
X51986200Y-26952600D01*
X45112200Y-62660600D02*
X50700200Y-62660600D01*
X64528456Y-41496112D02*
X64528456Y-40420856D01*
X61891084Y-44133484D02*
X64528456Y-41496112D01*
X64528456Y-40420856D02*
X63824507Y-39716907D01*
X50700200Y-62660600D02*
X52478200Y-60882600D01*
X43562800Y-59282400D02*
X43562800Y-61111200D01*
X58828200Y-38352423D02*
X58828200Y-38276600D01*
X50942201Y-32410400D02*
X50942201Y-34919884D01*
X49446201Y-20422600D02*
X54526200Y-20422600D01*
X43562800Y-61111200D02*
X45112200Y-62660600D01*
X50942201Y-30536599D02*
X51986200Y-29492600D01*
X60098200Y-20750600D02*
X60098200Y-21004600D01*
X61891084Y-44133484D02*
X62732405Y-43292162D01*
D23*
%TO.N,/3x16p-26p_adapter/D1_2*%
X33056200Y-28342600D02*
X34206200Y-29492600D01*
X31666200Y-22962600D02*
X33056200Y-24352600D01*
X33056200Y-24352600D02*
X33056200Y-28342600D01*
X35942800Y-56742400D02*
X27366949Y-48166549D01*
X27366949Y-48166549D02*
X25578149Y-48166549D01*
%TO.N,/3x16p-26p_adapter/CM_CLK_M3*%
X38150507Y-39186293D02*
X41443585Y-39186293D01*
X41443585Y-39186293D02*
X44990039Y-35639839D01*
%TO.N,/3x16p-26p_adapter/CM_C_P3*%
X36354456Y-41050549D02*
X36354456Y-40724344D01*
X36354456Y-40724344D02*
X36391200Y-40687600D01*
%TO.N,/3x16p-26p_adapter/D1_3*%
X36746199Y-24760568D02*
X36746199Y-26952600D01*
X37187400Y-57987000D02*
X38482800Y-59282400D01*
X29170251Y-48166549D02*
X30364149Y-48166549D01*
X35356200Y-23370569D02*
X36746199Y-24760568D01*
X30364149Y-48166549D02*
X37187400Y-54989800D01*
X37187400Y-54989800D02*
X37187400Y-57987000D01*
X34206200Y-20422600D02*
X35356200Y-21572600D01*
X35356200Y-21572600D02*
X35356200Y-23370569D01*
%TO.N,/3x16p-26p_adapter/D1_1*%
X34723600Y-56109918D02*
X34723600Y-58063200D01*
X33806682Y-55193000D02*
X34723600Y-56109918D01*
X34206200Y-24881400D02*
X34206200Y-26952600D01*
X27374200Y-49962600D02*
X32604600Y-55193000D01*
X31666200Y-20422600D02*
X33056200Y-21812600D01*
X33056200Y-23731400D02*
X34206200Y-24881400D01*
X34723600Y-58063200D02*
X35942800Y-59282400D01*
X32604600Y-55193000D02*
X33806682Y-55193000D01*
X33056200Y-21812600D02*
X33056200Y-23731400D01*
%TO.N,/3x16p-26p_adapter/D1_5*%
X30796596Y-44574446D02*
X39872800Y-53650650D01*
X39286200Y-24936914D02*
X39286200Y-26952600D01*
X40155757Y-30272157D02*
X40436200Y-29991715D01*
X37896200Y-23546914D02*
X39286200Y-24936914D01*
X29170251Y-44574446D02*
X30796596Y-44574446D01*
X36746199Y-20422600D02*
X37896200Y-21572601D01*
X40436200Y-29991715D02*
X40436200Y-28749200D01*
X39286200Y-27599200D02*
X39286200Y-26952600D01*
X31242000Y-40876351D02*
X31242000Y-40817800D01*
X39872800Y-58132400D02*
X41022800Y-59282400D01*
X32412200Y-39647600D02*
X32412200Y-36498600D01*
X40436200Y-28749200D02*
X39286200Y-27599200D01*
X31242000Y-40817800D02*
X32412200Y-39647600D01*
X29170251Y-42948100D02*
X31242000Y-40876351D01*
X37622643Y-31288157D02*
X39139757Y-31288157D01*
X37896200Y-21572601D02*
X37896200Y-23546914D01*
X39139757Y-31288157D02*
X40155757Y-30272157D01*
X39872800Y-53650650D02*
X39872800Y-58132400D01*
X32412200Y-36498600D02*
X37622643Y-31288157D01*
X29170251Y-44574446D02*
X29170251Y-42948100D01*
%TO.N,/3x16p-26p_adapter/D1_6*%
X34112200Y-40614600D02*
X33061976Y-39564376D01*
X36746200Y-22962600D02*
X37896199Y-24112599D01*
X32762354Y-42777246D02*
X34112200Y-41427400D01*
X33061976Y-37626824D02*
X38762200Y-31926600D01*
X32762354Y-44574446D02*
X32762354Y-42777246D01*
X34112200Y-41427400D02*
X34112200Y-40614600D01*
X37896199Y-24112599D02*
X37896199Y-28102599D01*
X41022800Y-52834892D02*
X41022800Y-56742400D01*
X37896199Y-28102599D02*
X39286200Y-29492600D01*
X33061976Y-39564376D02*
X33061976Y-37626824D01*
X32762354Y-44574446D02*
X41022800Y-52834892D01*
X38762200Y-31926600D02*
X40032200Y-31926600D01*
%TO.N,/3x16p-26p_adapter/D1_4*%
X35596199Y-28342599D02*
X35596199Y-24176254D01*
X29339957Y-46370498D02*
X30966302Y-46370498D01*
X36746200Y-29492600D02*
X35596199Y-28342599D01*
X36746200Y-29492600D02*
X31688400Y-34550400D01*
X27854412Y-44884953D02*
X29339957Y-46370498D01*
X35596199Y-24176254D02*
X34382545Y-22962600D01*
X31688400Y-34550400D02*
X31688400Y-39584000D01*
X31688400Y-39584000D02*
X27854412Y-43417988D01*
X27854412Y-43417988D02*
X27854412Y-44884953D01*
X38482800Y-53886996D02*
X30966302Y-46370498D01*
X38482800Y-56742400D02*
X38482800Y-53886996D01*
X34382545Y-22962600D02*
X34206200Y-22962600D01*
%TO.N,/3x16p-26p_adapter/CM_STB_N1*%
X36354456Y-35604344D02*
X38157439Y-33801361D01*
X38157439Y-33801361D02*
X43151561Y-33801361D01*
X36354456Y-37390241D02*
X36354456Y-35604344D01*
%TO.N,/3x16p-26p_adapter/D3_4*%
X57252800Y-47004000D02*
X57890302Y-46366498D01*
X57252800Y-55752400D02*
X57252800Y-47004000D01*
X56262800Y-56082000D02*
X56161200Y-55980400D01*
X56262800Y-56742400D02*
X57252800Y-55752400D01*
%TO.N,/3x16p-26p_adapter/D2_1*%
X41826200Y-24881400D02*
X41826200Y-26952600D01*
X40436200Y-21572600D02*
X40436200Y-23491400D01*
X40436200Y-23491400D02*
X41826200Y-24881400D01*
X43562800Y-52685200D02*
X40836200Y-49958600D01*
X43562800Y-56742400D02*
X43562800Y-52685200D01*
X39286200Y-20422600D02*
X40436200Y-21572600D01*
%TO.N,/3x16p-26p_adapter/D2_4*%
X41826200Y-22962600D02*
X43216200Y-24352600D01*
X43216200Y-24352600D02*
X43216200Y-27776914D01*
X47492800Y-58132400D02*
X47492800Y-49430996D01*
X44366200Y-28926914D02*
X44366200Y-29492600D01*
X48642800Y-59282400D02*
X47492800Y-58132400D01*
X43216200Y-27776914D02*
X44366200Y-28926914D01*
X47492800Y-49430996D02*
X44428302Y-46366498D01*
%TO.N,/3x16p-26p_adapter/D2_3*%
X44366200Y-24906800D02*
X44366200Y-26952600D01*
X42976200Y-21572600D02*
X42976200Y-23516800D01*
X42976200Y-23516800D02*
X44366200Y-24906800D01*
X42632251Y-48162549D02*
X46102800Y-51633098D01*
X46102800Y-51633098D02*
X46102800Y-56742400D01*
X41826200Y-20422600D02*
X42976200Y-21572600D01*
%TO.N,/3x16p-26p_adapter/D3_6*%
X58802800Y-56742400D02*
X59686354Y-55858846D01*
X59686354Y-55858846D02*
X59686354Y-44570446D01*
%TO.N,/3x16p-26p_adapter/D2_2*%
X42545000Y-57937400D02*
X42316400Y-57708800D01*
X44757801Y-57937400D02*
X42545000Y-57937400D01*
X40676200Y-28342600D02*
X41826200Y-29492600D01*
X40676200Y-24352600D02*
X40676200Y-28342600D01*
X42316400Y-53108400D02*
X39040149Y-49832149D01*
X42316400Y-57708800D02*
X42316400Y-53108400D01*
X39286200Y-22962600D02*
X40676200Y-24352600D01*
X39040149Y-49832149D02*
X39040149Y-48162549D01*
X46102801Y-59282400D02*
X44757801Y-57937400D01*
%TO.N,/3x16p-26p_adapter/D3_2*%
X53722800Y-56742400D02*
X52502149Y-55521749D01*
X52502149Y-55521749D02*
X52502149Y-48162549D01*
%TO.N,/3x16p-26p_adapter/D2_5*%
X42632251Y-44570446D02*
X42632251Y-41035949D01*
X42632251Y-41035949D02*
X48185600Y-35482600D01*
X44258596Y-44570446D02*
X48642800Y-48954650D01*
X46906200Y-24828946D02*
X46906200Y-26952600D01*
X45516200Y-23438946D02*
X46906200Y-24828946D01*
X48185600Y-35482600D02*
X48185600Y-33171200D01*
X48642800Y-48954650D02*
X48642800Y-56742400D01*
X45516200Y-21572600D02*
X45516200Y-23438946D01*
X44366200Y-20422600D02*
X45516200Y-21572600D01*
X42632251Y-44570446D02*
X44258596Y-44570446D01*
%TO.N,/3x16p-26p_adapter/D2_6*%
X45557285Y-27577999D02*
X46906200Y-28926914D01*
X50032800Y-58132400D02*
X51182800Y-59282400D01*
X50032800Y-48378892D02*
X50032800Y-58132400D01*
X44366200Y-22962600D02*
X45557285Y-24153685D01*
X46906200Y-28926914D02*
X46906200Y-29492600D01*
X45557285Y-24153685D02*
X45557285Y-27577999D01*
X46224354Y-44570446D02*
X50032800Y-48378892D01*
X46839400Y-29559400D02*
X46906200Y-29492600D01*
%TO.N,/3x16p-26p_adapter/D3_1*%
X54899241Y-58105959D02*
X53722800Y-59282400D01*
X54298200Y-49958600D02*
X54899241Y-50559641D01*
X48056200Y-21572600D02*
X48056200Y-25562599D01*
X54899241Y-50559641D02*
X54899241Y-58105959D01*
X46906200Y-20422600D02*
X48056200Y-21572600D01*
X48056200Y-25562599D02*
X49446201Y-26952600D01*
D22*
%TO.N,/3x16p-26p_adapter/VCC_J15*%
X53036433Y-35990600D02*
X54449722Y-35990600D01*
X51640792Y-37386241D02*
X53036433Y-35990600D01*
X49816456Y-37386241D02*
X51640792Y-37386241D01*
X54449722Y-35990600D02*
X55368961Y-35071361D01*
%TO.N,/3x16p-26p_adapter/VCC_J16*%
X62890841Y-37386241D02*
X63278456Y-37386241D01*
X59031400Y-33526800D02*
X62890841Y-37386241D01*
D23*
%TO.N,Net-(J18-Pin_6)*%
X49446200Y-22962600D02*
X50836200Y-24352600D01*
X49298800Y-29492600D02*
X49446200Y-29492600D01*
X50836200Y-24352600D02*
X50836200Y-28102600D01*
X50836200Y-28102600D02*
X49446200Y-29492600D01*
X44070800Y-34720600D02*
X49298800Y-29492600D01*
D22*
%TO.N,/3x16p-26p_adapter/VCC_5V*%
X58574200Y-28116600D02*
X58574200Y-29386600D01*
X57558200Y-24052600D02*
X58574200Y-25068600D01*
X54526200Y-31336599D02*
X53599400Y-32263400D01*
X53599400Y-32263400D02*
X53428199Y-32434600D01*
X58574200Y-29386600D02*
X56542200Y-31418600D01*
X57558200Y-22904598D02*
X57558200Y-24052600D01*
X58066200Y-27608600D02*
X58574200Y-28116600D01*
X56542200Y-32059644D02*
X56542200Y-31418600D01*
X58574200Y-25068600D02*
X58574200Y-26084600D01*
X57500198Y-22962600D02*
X57558200Y-22904598D01*
X53599399Y-32263400D02*
X53452399Y-32410400D01*
X59950639Y-32607561D02*
X58574200Y-31231122D01*
X58574200Y-26084600D02*
X58574200Y-27100600D01*
X54449722Y-34152122D02*
X56542200Y-32059644D01*
X54526200Y-29492600D02*
X54526200Y-31336599D01*
X58574200Y-27100600D02*
X58066200Y-27608600D01*
X54526200Y-29492600D02*
X54526200Y-26952600D01*
X54590800Y-29492600D02*
X54526200Y-29492600D01*
X58066200Y-27608600D02*
X55182200Y-27608600D01*
X55182200Y-27608600D02*
X54526200Y-26952600D01*
X53599400Y-32263400D02*
X53599399Y-32263400D01*
X58574200Y-31231122D02*
X58574200Y-29386600D01*
X54526200Y-22962600D02*
X57500198Y-22962600D01*
X53452399Y-32410400D02*
X52842199Y-32410400D01*
%TD*%
%TA.AperFunction,Conductor*%
%TO.N,GND*%
G36*
X68350341Y-36898089D02*
G01*
X68382340Y-36920469D01*
X68687884Y-37215827D01*
X68722402Y-37276573D01*
X68725700Y-37304981D01*
X68725700Y-38233738D01*
X68706015Y-38300777D01*
X68689381Y-38321419D01*
X60860200Y-46150599D01*
X60860200Y-67098316D01*
X60840515Y-67165355D01*
X60787711Y-67211110D01*
X60718553Y-67221054D01*
X60672050Y-67204433D01*
X60607407Y-67165355D01*
X60460757Y-67076702D01*
X60157323Y-66940137D01*
X60157316Y-66940134D01*
X60157304Y-66940130D01*
X59839649Y-66841146D01*
X59839645Y-66841145D01*
X59839641Y-66841144D01*
X59512342Y-66781164D01*
X59512341Y-66781163D01*
X59512336Y-66781163D01*
X59180200Y-66761073D01*
X58848063Y-66781163D01*
X58848058Y-66781164D01*
X58520759Y-66841144D01*
X58520756Y-66841144D01*
X58520750Y-66841146D01*
X58203095Y-66940130D01*
X58203079Y-66940136D01*
X58203077Y-66940137D01*
X58124173Y-66975649D01*
X57899647Y-67076700D01*
X57899645Y-67076701D01*
X57614873Y-67248851D01*
X57352944Y-67454060D01*
X57117660Y-67689344D01*
X56912451Y-67951273D01*
X56795687Y-68144423D01*
X56740302Y-68236043D01*
X56687252Y-68353916D01*
X56603736Y-68539480D01*
X56603730Y-68539495D01*
X56504746Y-68857150D01*
X56444763Y-69184463D01*
X56424673Y-69516600D01*
X56444763Y-69848736D01*
X56444763Y-69848741D01*
X56444764Y-69848742D01*
X56504744Y-70176041D01*
X56504745Y-70176045D01*
X56504746Y-70176049D01*
X56603730Y-70493704D01*
X56603734Y-70493716D01*
X56603737Y-70493723D01*
X56740302Y-70797157D01*
X56892770Y-71049370D01*
X56912451Y-71081926D01*
X57117660Y-71343855D01*
X57352939Y-71579134D01*
X57355551Y-71581448D01*
X57392677Y-71640637D01*
X57391910Y-71710503D01*
X57353493Y-71768863D01*
X57349797Y-71771875D01*
X57198944Y-71890060D01*
X56963660Y-72125344D01*
X56758451Y-72387273D01*
X56641687Y-72580423D01*
X56586302Y-72672043D01*
X56479134Y-72910161D01*
X56449736Y-72975480D01*
X56449730Y-72975495D01*
X56350746Y-73293150D01*
X56290763Y-73620463D01*
X56270673Y-73952600D01*
X56290763Y-74284736D01*
X56290763Y-74284741D01*
X56290764Y-74284742D01*
X56350744Y-74612041D01*
X56350745Y-74612045D01*
X56350746Y-74612049D01*
X56449730Y-74929704D01*
X56449734Y-74929716D01*
X56449737Y-74929723D01*
X56586302Y-75233157D01*
X56738770Y-75485370D01*
X56758451Y-75517926D01*
X56963660Y-75779855D01*
X57198944Y-76015139D01*
X57460873Y-76220348D01*
X57460878Y-76220351D01*
X57460882Y-76220354D01*
X57745643Y-76392498D01*
X58049077Y-76529063D01*
X58049090Y-76529067D01*
X58049095Y-76529069D01*
X58260865Y-76595058D01*
X58366759Y-76628056D01*
X58694058Y-76688036D01*
X59026200Y-76708127D01*
X59358342Y-76688036D01*
X59685641Y-76628056D01*
X60003323Y-76529063D01*
X60306757Y-76392498D01*
X60591518Y-76220354D01*
X60591526Y-76220348D01*
X60659727Y-76166916D01*
X60724639Y-76141067D01*
X60793222Y-76154415D01*
X60843700Y-76202723D01*
X60860200Y-76264527D01*
X60860200Y-77014600D01*
X60840515Y-77081639D01*
X60787711Y-77127394D01*
X60736200Y-77138600D01*
X32789483Y-77138600D01*
X32722444Y-77118915D01*
X32676689Y-77066111D01*
X32666745Y-76996953D01*
X32695770Y-76933397D01*
X32706210Y-76922722D01*
X32858392Y-76784792D01*
X32946087Y-76688036D01*
X33122358Y-76493551D01*
X33356506Y-76177839D01*
X33558581Y-75840697D01*
X33726638Y-75485372D01*
X33859057Y-75115284D01*
X33954564Y-74734000D01*
X34012238Y-74345191D01*
X34031525Y-73952600D01*
X34012238Y-73560009D01*
X33954564Y-73171200D01*
X33859057Y-72789916D01*
X33726638Y-72419828D01*
X33558581Y-72064503D01*
X33554417Y-72057556D01*
X33356507Y-71727363D01*
X33344003Y-71710503D01*
X33122358Y-71411649D01*
X33116060Y-71404700D01*
X32858392Y-71120407D01*
X32567156Y-70856446D01*
X32487207Y-70797152D01*
X32251439Y-70622294D01*
X32145900Y-70559036D01*
X32098518Y-70507687D01*
X32086420Y-70438873D01*
X32089362Y-70422561D01*
X32120564Y-70298000D01*
X32178238Y-69909191D01*
X32197525Y-69516600D01*
X32178238Y-69124009D01*
X32120564Y-68735200D01*
X32025057Y-68353916D01*
X31892638Y-67983828D01*
X31724581Y-67628503D01*
X31522506Y-67291361D01*
X31288358Y-66975649D01*
X31256171Y-66940136D01*
X31024392Y-66684407D01*
X30733156Y-66420446D01*
X30417436Y-66186292D01*
X30080300Y-65984220D01*
X29724972Y-65816162D01*
X29724970Y-65816161D01*
X29354884Y-65683743D01*
X28973606Y-65588237D01*
X28973601Y-65588236D01*
X28973600Y-65588236D01*
X28829456Y-65566854D01*
X28584799Y-65530563D01*
X28584797Y-65530562D01*
X28584791Y-65530562D01*
X28192200Y-65511275D01*
X27799609Y-65530562D01*
X27799603Y-65530562D01*
X27799600Y-65530563D01*
X27410793Y-65588237D01*
X27029515Y-65683743D01*
X26659429Y-65816161D01*
X26659427Y-65816162D01*
X26304099Y-65984220D01*
X25966963Y-66186292D01*
X25651243Y-66420446D01*
X25360007Y-66684407D01*
X25096046Y-66975643D01*
X24861892Y-67291363D01*
X24659820Y-67628499D01*
X24491762Y-67983827D01*
X24491761Y-67983829D01*
X24359343Y-68353915D01*
X24263837Y-68735193D01*
X24245747Y-68857150D01*
X24206162Y-69124009D01*
X24186875Y-69516600D01*
X24206162Y-69909191D01*
X24263835Y-70297996D01*
X24263837Y-70298006D01*
X24359343Y-70679284D01*
X24491761Y-71049370D01*
X24491762Y-71049372D01*
X24659820Y-71404700D01*
X24843112Y-71710503D01*
X24861894Y-71741839D01*
X24900254Y-71793562D01*
X25096046Y-72057556D01*
X25360007Y-72348792D01*
X25651243Y-72612753D01*
X25651249Y-72612758D01*
X25966961Y-72846906D01*
X26072498Y-72910163D01*
X26119879Y-72961511D01*
X26131978Y-73030325D01*
X26129033Y-73046649D01*
X26097837Y-73171191D01*
X26079747Y-73293150D01*
X26040162Y-73560009D01*
X26020875Y-73952600D01*
X26040162Y-74345191D01*
X26040162Y-74345197D01*
X26040163Y-74345199D01*
X26097837Y-74734006D01*
X26193343Y-75115284D01*
X26325761Y-75485370D01*
X26325762Y-75485372D01*
X26493820Y-75840700D01*
X26681854Y-76154415D01*
X26695894Y-76177839D01*
X26727425Y-76220354D01*
X26930046Y-76493556D01*
X27194007Y-76784792D01*
X27346190Y-76922722D01*
X27382644Y-76982328D01*
X27381085Y-77052180D01*
X27342009Y-77110101D01*
X27277821Y-77137701D01*
X27262917Y-77138600D01*
X23900200Y-77138600D01*
X23833161Y-77118915D01*
X23787406Y-77066111D01*
X23776200Y-77014600D01*
X23776200Y-46963962D01*
X23795885Y-46896923D01*
X23812519Y-46876281D01*
X27042231Y-43646569D01*
X27103554Y-43613084D01*
X27173246Y-43618068D01*
X27229179Y-43659940D01*
X27253596Y-43725404D01*
X27253912Y-43734250D01*
X27253912Y-44798283D01*
X27253911Y-44798301D01*
X27253911Y-44912240D01*
X27234226Y-44979279D01*
X27181422Y-45025034D01*
X27144184Y-45034854D01*
X27144208Y-45034990D01*
X27142590Y-45035275D01*
X27140722Y-45035768D01*
X27138882Y-45035929D01*
X27138873Y-45035930D01*
X26910716Y-45097064D01*
X26910707Y-45097068D01*
X26696619Y-45196899D01*
X26612825Y-45255570D01*
X27244790Y-45887535D01*
X27181207Y-45904573D01*
X27067193Y-45970399D01*
X26974101Y-46063491D01*
X26908275Y-46177505D01*
X26891237Y-46241088D01*
X26259272Y-45609123D01*
X26200601Y-45692917D01*
X26100770Y-45907005D01*
X26100766Y-45907014D01*
X26039632Y-46135171D01*
X26039630Y-46135182D01*
X26019043Y-46370496D01*
X26019043Y-46370499D01*
X26039630Y-46605813D01*
X26039632Y-46605824D01*
X26066674Y-46706747D01*
X26065011Y-46776597D01*
X26025848Y-46834459D01*
X25961619Y-46861963D01*
X25914806Y-46858615D01*
X25813562Y-46831487D01*
X25813552Y-46831485D01*
X25578150Y-46810890D01*
X25578148Y-46810890D01*
X25342745Y-46831485D01*
X25342735Y-46831487D01*
X25114493Y-46892643D01*
X25114484Y-46892647D01*
X24900320Y-46992513D01*
X24900318Y-46992514D01*
X24706746Y-47128054D01*
X24539654Y-47295146D01*
X24404114Y-47488718D01*
X24404113Y-47488720D01*
X24304247Y-47702884D01*
X24304243Y-47702893D01*
X24243087Y-47931135D01*
X24243085Y-47931145D01*
X24222490Y-48166548D01*
X24222490Y-48166549D01*
X24243085Y-48401952D01*
X24243087Y-48401962D01*
X24304243Y-48630204D01*
X24304245Y-48630208D01*
X24304246Y-48630212D01*
X24402249Y-48840379D01*
X24404114Y-48844379D01*
X24404116Y-48844383D01*
X24425970Y-48875593D01*
X24539654Y-49037950D01*
X24706748Y-49205044D01*
X24803533Y-49272814D01*
X24900314Y-49340581D01*
X24900316Y-49340582D01*
X24900319Y-49340584D01*
X25114486Y-49440452D01*
X25342741Y-49501612D01*
X25578149Y-49522208D01*
X25621196Y-49518441D01*
X25689693Y-49532206D01*
X25739877Y-49580821D01*
X25755812Y-49648849D01*
X25744797Y-49693480D01*
X25686954Y-49820136D01*
X25686952Y-49820144D01*
X25666472Y-49962600D01*
X25686952Y-50105055D01*
X25686953Y-50105059D01*
X25746739Y-50235970D01*
X25746740Y-50235971D01*
X25746741Y-50235973D01*
X25784360Y-50282656D01*
X25784363Y-50282659D01*
X25784368Y-50282665D01*
X26843871Y-51342165D01*
X27054144Y-51552438D01*
X27054148Y-51552441D01*
X27054150Y-51552443D01*
X27100826Y-51590059D01*
X27231740Y-51649846D01*
X27231741Y-51649846D01*
X27231743Y-51649847D01*
X27374200Y-51670328D01*
X27516657Y-51649847D01*
X27647573Y-51590059D01*
X27694256Y-51552440D01*
X27816851Y-51429844D01*
X27878171Y-51396361D01*
X27947863Y-51401345D01*
X27992210Y-51429845D01*
X32235884Y-55673520D01*
X32308612Y-55715509D01*
X32356826Y-55766074D01*
X32370050Y-55834680D01*
X32348186Y-55894018D01*
X32234375Y-56056558D01*
X32179798Y-56100183D01*
X32110300Y-56107377D01*
X32047945Y-56075854D01*
X32031225Y-56056558D01*
X31901294Y-55870997D01*
X31734202Y-55703906D01*
X31734195Y-55703901D01*
X31540634Y-55568367D01*
X31540630Y-55568365D01*
X31534885Y-55565686D01*
X31326463Y-55468497D01*
X31326459Y-55468496D01*
X31326455Y-55468494D01*
X31098213Y-55407338D01*
X31098203Y-55407336D01*
X30862801Y-55386741D01*
X30862799Y-55386741D01*
X30627396Y-55407336D01*
X30627386Y-55407338D01*
X30399144Y-55468494D01*
X30399135Y-55468498D01*
X30184971Y-55568364D01*
X30184969Y-55568365D01*
X29991397Y-55703905D01*
X29824305Y-55870997D01*
X29694375Y-56056558D01*
X29639798Y-56100183D01*
X29570300Y-56107377D01*
X29507945Y-56075854D01*
X29491225Y-56056558D01*
X29361294Y-55870997D01*
X29194202Y-55703906D01*
X29194195Y-55703901D01*
X29000634Y-55568367D01*
X29000630Y-55568365D01*
X28994885Y-55565686D01*
X28786463Y-55468497D01*
X28786459Y-55468496D01*
X28786455Y-55468494D01*
X28558213Y-55407338D01*
X28558203Y-55407336D01*
X28322801Y-55386741D01*
X28322799Y-55386741D01*
X28087396Y-55407336D01*
X28087386Y-55407338D01*
X27859144Y-55468494D01*
X27859135Y-55468498D01*
X27644971Y-55568364D01*
X27644969Y-55568365D01*
X27451397Y-55703905D01*
X27284305Y-55870997D01*
X27148765Y-56064569D01*
X27148764Y-56064571D01*
X27048898Y-56278735D01*
X27048894Y-56278744D01*
X26987738Y-56506986D01*
X26987736Y-56506996D01*
X26967141Y-56742399D01*
X26967141Y-56742400D01*
X26987736Y-56977803D01*
X26987738Y-56977813D01*
X27048894Y-57206055D01*
X27048896Y-57206059D01*
X27048897Y-57206063D01*
X27109907Y-57336899D01*
X27148765Y-57420230D01*
X27148767Y-57420234D01*
X27257081Y-57574921D01*
X27284304Y-57613800D01*
X27284306Y-57613802D01*
X27406230Y-57735726D01*
X27439715Y-57797049D01*
X27434731Y-57866741D01*
X27392859Y-57922674D01*
X27361883Y-57939589D01*
X27230469Y-57988603D01*
X27230464Y-57988606D01*
X27115255Y-58074852D01*
X27115252Y-58074855D01*
X27029006Y-58190064D01*
X27029002Y-58190071D01*
X26978708Y-58324917D01*
X26972301Y-58384516D01*
X26972300Y-58384535D01*
X26972300Y-60180270D01*
X26972301Y-60180276D01*
X26978708Y-60239883D01*
X27029002Y-60374728D01*
X27029006Y-60374735D01*
X27115252Y-60489944D01*
X27115255Y-60489947D01*
X27230464Y-60576193D01*
X27230471Y-60576197D01*
X27365317Y-60626491D01*
X27365316Y-60626491D01*
X27372244Y-60627235D01*
X27424927Y-60632900D01*
X29220672Y-60632899D01*
X29280283Y-60626491D01*
X29415131Y-60576196D01*
X29530346Y-60489946D01*
X29616596Y-60374731D01*
X29665610Y-60243316D01*
X29707481Y-60187384D01*
X29772945Y-60162966D01*
X29841218Y-60177817D01*
X29869473Y-60198969D01*
X29991399Y-60320895D01*
X30088184Y-60388665D01*
X30184965Y-60456432D01*
X30184967Y-60456433D01*
X30184970Y-60456435D01*
X30399137Y-60556303D01*
X30627392Y-60617463D01*
X30803834Y-60632900D01*
X30862799Y-60638059D01*
X30862800Y-60638059D01*
X30862801Y-60638059D01*
X30921766Y-60632900D01*
X31098208Y-60617463D01*
X31326463Y-60556303D01*
X31540630Y-60456435D01*
X31734201Y-60320895D01*
X31901295Y-60153801D01*
X32031224Y-59968242D01*
X32085801Y-59924618D01*
X32155299Y-59917424D01*
X32217654Y-59948947D01*
X32234373Y-59968241D01*
X32364304Y-60153801D01*
X32531398Y-60320895D01*
X32628183Y-60388665D01*
X32724964Y-60456432D01*
X32724966Y-60456433D01*
X32724969Y-60456435D01*
X32939136Y-60556303D01*
X33167391Y-60617463D01*
X33343833Y-60632900D01*
X33402798Y-60638059D01*
X33402799Y-60638059D01*
X33402800Y-60638059D01*
X33461765Y-60632900D01*
X33638207Y-60617463D01*
X33866462Y-60556303D01*
X34080629Y-60456435D01*
X34274200Y-60320895D01*
X34441294Y-60153801D01*
X34571225Y-59968239D01*
X34625801Y-59924616D01*
X34695299Y-59917422D01*
X34757654Y-59948945D01*
X34774372Y-59968238D01*
X34904305Y-60153801D01*
X35071399Y-60320895D01*
X35168184Y-60388665D01*
X35264965Y-60456432D01*
X35264967Y-60456433D01*
X35264970Y-60456435D01*
X35479137Y-60556303D01*
X35707392Y-60617463D01*
X35883834Y-60632900D01*
X35942799Y-60638059D01*
X35942800Y-60638059D01*
X35942801Y-60638059D01*
X36001766Y-60632900D01*
X36178208Y-60617463D01*
X36406463Y-60556303D01*
X36620630Y-60456435D01*
X36814201Y-60320895D01*
X36981295Y-60153801D01*
X37111226Y-59968241D01*
X37165802Y-59924617D01*
X37235300Y-59917423D01*
X37297655Y-59948946D01*
X37314375Y-59968242D01*
X37444300Y-60153795D01*
X37444305Y-60153801D01*
X37611399Y-60320895D01*
X37708184Y-60388665D01*
X37804965Y-60456432D01*
X37804967Y-60456433D01*
X37804970Y-60456435D01*
X38019137Y-60556303D01*
X38247392Y-60617463D01*
X38423834Y-60632900D01*
X38482799Y-60638059D01*
X38482800Y-60638059D01*
X38482801Y-60638059D01*
X38541766Y-60632900D01*
X38718208Y-60617463D01*
X38946463Y-60556303D01*
X39160630Y-60456435D01*
X39354201Y-60320895D01*
X39521295Y-60153801D01*
X39651226Y-59968241D01*
X39705802Y-59924617D01*
X39775300Y-59917423D01*
X39837655Y-59948946D01*
X39854375Y-59968242D01*
X39984300Y-60153795D01*
X39984305Y-60153801D01*
X40151399Y-60320895D01*
X40248184Y-60388665D01*
X40344965Y-60456432D01*
X40344967Y-60456433D01*
X40344970Y-60456435D01*
X40559137Y-60556303D01*
X40787392Y-60617463D01*
X40963834Y-60632900D01*
X41022799Y-60638059D01*
X41022800Y-60638059D01*
X41022801Y-60638059D01*
X41081766Y-60632900D01*
X41258208Y-60617463D01*
X41486463Y-60556303D01*
X41700630Y-60456435D01*
X41894201Y-60320895D01*
X42061295Y-60153801D01*
X42191530Y-59967805D01*
X42246107Y-59924181D01*
X42315605Y-59916987D01*
X42377960Y-59948510D01*
X42394679Y-59967805D01*
X42524690Y-60153478D01*
X42691717Y-60320505D01*
X42885221Y-60456000D01*
X43099307Y-60555829D01*
X43099316Y-60555833D01*
X43312800Y-60613034D01*
X43312800Y-59715412D01*
X43369807Y-59748325D01*
X43496974Y-59782400D01*
X43628626Y-59782400D01*
X43755793Y-59748325D01*
X43812800Y-59715412D01*
X43812800Y-60613033D01*
X44026283Y-60555833D01*
X44026292Y-60555829D01*
X44240378Y-60456000D01*
X44433882Y-60320505D01*
X44600905Y-60153482D01*
X44730920Y-59967804D01*
X44785497Y-59924179D01*
X44854996Y-59916987D01*
X44917350Y-59948509D01*
X44934070Y-59967805D01*
X45064301Y-60153795D01*
X45064306Y-60153801D01*
X45231400Y-60320895D01*
X45328185Y-60388665D01*
X45424966Y-60456432D01*
X45424968Y-60456433D01*
X45424971Y-60456435D01*
X45639138Y-60556303D01*
X45867393Y-60617463D01*
X46043835Y-60632900D01*
X46102800Y-60638059D01*
X46102801Y-60638059D01*
X46102802Y-60638059D01*
X46161767Y-60632900D01*
X46338209Y-60617463D01*
X46566464Y-60556303D01*
X46780631Y-60456435D01*
X46974202Y-60320895D01*
X47141296Y-60153801D01*
X47271225Y-59968242D01*
X47325802Y-59924618D01*
X47395300Y-59917424D01*
X47457655Y-59948947D01*
X47474374Y-59968241D01*
X47604305Y-60153801D01*
X47771399Y-60320895D01*
X47868184Y-60388665D01*
X47964965Y-60456432D01*
X47964967Y-60456433D01*
X47964970Y-60456435D01*
X48179137Y-60556303D01*
X48407392Y-60617463D01*
X48583834Y-60632900D01*
X48642799Y-60638059D01*
X48642800Y-60638059D01*
X48642801Y-60638059D01*
X48701766Y-60632900D01*
X48878208Y-60617463D01*
X49106463Y-60556303D01*
X49320630Y-60456435D01*
X49514201Y-60320895D01*
X49681295Y-60153801D01*
X49811226Y-59968241D01*
X49865802Y-59924617D01*
X49935300Y-59917423D01*
X49997655Y-59948946D01*
X50014375Y-59968242D01*
X50144300Y-60153795D01*
X50144305Y-60153801D01*
X50311399Y-60320895D01*
X50408184Y-60388665D01*
X50504965Y-60456432D01*
X50504967Y-60456433D01*
X50504970Y-60456435D01*
X50719137Y-60556303D01*
X50947392Y-60617463D01*
X51123834Y-60632900D01*
X51182799Y-60638059D01*
X51182800Y-60638059D01*
X51182801Y-60638059D01*
X51241766Y-60632900D01*
X51418208Y-60617463D01*
X51646463Y-60556303D01*
X51860630Y-60456435D01*
X52054201Y-60320895D01*
X52221295Y-60153801D01*
X52351226Y-59968241D01*
X52405802Y-59924617D01*
X52475300Y-59917423D01*
X52537655Y-59948946D01*
X52554375Y-59968242D01*
X52684300Y-60153795D01*
X52684305Y-60153801D01*
X52851399Y-60320895D01*
X52948184Y-60388665D01*
X53044965Y-60456432D01*
X53044967Y-60456433D01*
X53044970Y-60456435D01*
X53259137Y-60556303D01*
X53487392Y-60617463D01*
X53663834Y-60632900D01*
X53722799Y-60638059D01*
X53722800Y-60638059D01*
X53722801Y-60638059D01*
X53781766Y-60632900D01*
X53958208Y-60617463D01*
X54186463Y-60556303D01*
X54400630Y-60456435D01*
X54594201Y-60320895D01*
X54761295Y-60153801D01*
X54891224Y-59968242D01*
X54945801Y-59924618D01*
X55015299Y-59917424D01*
X55077654Y-59948947D01*
X55094373Y-59968241D01*
X55224304Y-60153801D01*
X55391398Y-60320895D01*
X55488183Y-60388665D01*
X55584964Y-60456432D01*
X55584966Y-60456433D01*
X55584969Y-60456435D01*
X55799136Y-60556303D01*
X56027391Y-60617463D01*
X56203833Y-60632900D01*
X56262798Y-60638059D01*
X56262799Y-60638059D01*
X56262800Y-60638059D01*
X56321765Y-60632900D01*
X56498207Y-60617463D01*
X56726462Y-60556303D01*
X56940629Y-60456435D01*
X57134200Y-60320895D01*
X57301294Y-60153801D01*
X57431225Y-59968239D01*
X57485801Y-59924616D01*
X57555299Y-59917422D01*
X57617654Y-59948945D01*
X57634372Y-59968238D01*
X57764305Y-60153801D01*
X57931399Y-60320895D01*
X58028184Y-60388665D01*
X58124965Y-60456432D01*
X58124967Y-60456433D01*
X58124970Y-60456435D01*
X58339137Y-60556303D01*
X58567392Y-60617463D01*
X58743834Y-60632900D01*
X58802799Y-60638059D01*
X58802800Y-60638059D01*
X58802801Y-60638059D01*
X58861766Y-60632900D01*
X59038208Y-60617463D01*
X59266463Y-60556303D01*
X59480630Y-60456435D01*
X59674201Y-60320895D01*
X59841295Y-60153801D01*
X59976835Y-59960230D01*
X60076703Y-59746063D01*
X60137863Y-59517808D01*
X60158459Y-59282400D01*
X60137863Y-59046992D01*
X60076703Y-58818737D01*
X59976835Y-58604571D01*
X59971225Y-58596558D01*
X59841294Y-58410997D01*
X59674202Y-58243906D01*
X59674196Y-58243901D01*
X59488642Y-58113975D01*
X59445017Y-58059398D01*
X59437823Y-57989900D01*
X59469346Y-57927545D01*
X59488642Y-57910825D01*
X59510826Y-57895291D01*
X59674201Y-57780895D01*
X59841295Y-57613801D01*
X59976835Y-57420230D01*
X60076703Y-57206063D01*
X60137863Y-56977808D01*
X60158459Y-56742400D01*
X60137863Y-56506992D01*
X60103472Y-56378643D01*
X60105135Y-56308795D01*
X60135567Y-56258869D01*
X60144221Y-56250213D01*
X60166874Y-56227562D01*
X60228330Y-56121116D01*
X60245931Y-56090631D01*
X60286854Y-55937903D01*
X60286854Y-55779789D01*
X60286854Y-45859536D01*
X60306539Y-45792497D01*
X60358455Y-45747152D01*
X60364184Y-45744481D01*
X60557755Y-45608941D01*
X60724849Y-45441847D01*
X60860389Y-45248276D01*
X60960257Y-45034109D01*
X61021417Y-44805854D01*
X61042013Y-44570446D01*
X61021417Y-44335038D01*
X60994437Y-44234346D01*
X60996100Y-44164496D01*
X61035263Y-44106634D01*
X61099491Y-44079130D01*
X61146305Y-44082478D01*
X61246997Y-44109458D01*
X61435323Y-44125934D01*
X61482404Y-44130054D01*
X61482405Y-44130054D01*
X61482406Y-44130054D01*
X61521639Y-44126621D01*
X61717813Y-44109458D01*
X61946068Y-44048298D01*
X62160235Y-43948430D01*
X62353806Y-43812890D01*
X62520900Y-43645796D01*
X62656440Y-43452225D01*
X62756308Y-43238058D01*
X62817468Y-43009803D01*
X62838064Y-42774395D01*
X62817468Y-42538987D01*
X62790488Y-42438294D01*
X62792151Y-42368445D01*
X62831314Y-42310583D01*
X62895542Y-42283079D01*
X62942356Y-42286427D01*
X63043048Y-42313407D01*
X63231374Y-42329883D01*
X63278455Y-42334003D01*
X63278456Y-42334003D01*
X63278457Y-42334003D01*
X63317690Y-42330570D01*
X63513864Y-42313407D01*
X63742119Y-42252247D01*
X63956286Y-42152379D01*
X64149857Y-42016839D01*
X64316951Y-41849745D01*
X64452491Y-41656174D01*
X64552359Y-41442007D01*
X64613519Y-41213752D01*
X64634115Y-40978344D01*
X64613519Y-40742936D01*
X64586539Y-40642243D01*
X64588202Y-40572394D01*
X64627365Y-40514532D01*
X64691593Y-40487028D01*
X64738407Y-40490376D01*
X64839099Y-40517356D01*
X65027425Y-40533832D01*
X65074506Y-40537952D01*
X65074507Y-40537952D01*
X65074508Y-40537952D01*
X65113741Y-40534519D01*
X65309915Y-40517356D01*
X65538170Y-40456196D01*
X65752337Y-40356328D01*
X65945908Y-40220788D01*
X66113002Y-40053694D01*
X66248542Y-39860123D01*
X66348410Y-39645956D01*
X66409570Y-39417701D01*
X66430166Y-39182293D01*
X66409570Y-38946885D01*
X66382589Y-38846189D01*
X66384252Y-38776342D01*
X66423414Y-38718479D01*
X66487643Y-38690975D01*
X66534454Y-38694322D01*
X66635151Y-38721304D01*
X66823477Y-38737780D01*
X66870558Y-38741900D01*
X66870559Y-38741900D01*
X66870560Y-38741900D01*
X66909793Y-38738467D01*
X67105967Y-38721304D01*
X67334222Y-38660144D01*
X67548389Y-38560276D01*
X67741960Y-38424736D01*
X67909054Y-38257642D01*
X68044594Y-38064071D01*
X68144462Y-37849904D01*
X68205622Y-37621649D01*
X68226218Y-37386241D01*
X68205622Y-37150833D01*
X68176385Y-37041717D01*
X68178048Y-36971870D01*
X68217211Y-36914007D01*
X68281439Y-36886503D01*
X68350341Y-36898089D01*
G37*
%TD.AperFunction*%
%TA.AperFunction,Conductor*%
G36*
X52537349Y-57408510D02*
G01*
X52554069Y-57427805D01*
X52684305Y-57613801D01*
X52684306Y-57613802D01*
X52851397Y-57780893D01*
X52851403Y-57780898D01*
X53036958Y-57910825D01*
X53080583Y-57965402D01*
X53087777Y-58034900D01*
X53056254Y-58097255D01*
X53036958Y-58113975D01*
X52851397Y-58243905D01*
X52684305Y-58410997D01*
X52554375Y-58596558D01*
X52499798Y-58640183D01*
X52430300Y-58647377D01*
X52367945Y-58615854D01*
X52351225Y-58596558D01*
X52221294Y-58410997D01*
X52054202Y-58243906D01*
X52054201Y-58243905D01*
X51868642Y-58113975D01*
X51868205Y-58113669D01*
X51824581Y-58059092D01*
X51817388Y-57989593D01*
X51848910Y-57927239D01*
X51868205Y-57910519D01*
X52053882Y-57780505D01*
X52220905Y-57613482D01*
X52350919Y-57427805D01*
X52405496Y-57384181D01*
X52474995Y-57376988D01*
X52537349Y-57408510D01*
G37*
%TD.AperFunction*%
%TA.AperFunction,Conductor*%
G36*
X59463640Y-34965544D02*
G01*
X59507988Y-34994045D01*
X61893051Y-37379108D01*
X61926536Y-37440431D01*
X61928898Y-37455981D01*
X61943392Y-37621644D01*
X61943394Y-37621654D01*
X61970373Y-37722341D01*
X61968710Y-37792191D01*
X61929547Y-37850053D01*
X61865319Y-37877557D01*
X61818506Y-37874209D01*
X61717821Y-37847232D01*
X61717817Y-37847231D01*
X61717813Y-37847230D01*
X61717811Y-37847229D01*
X61717808Y-37847229D01*
X61482406Y-37826634D01*
X61482404Y-37826634D01*
X61247001Y-37847229D01*
X61246991Y-37847231D01*
X61018749Y-37908387D01*
X61018742Y-37908389D01*
X61018742Y-37908390D01*
X61010164Y-37912390D01*
X60804576Y-38008257D01*
X60804574Y-38008258D01*
X60611002Y-38143798D01*
X60443910Y-38310890D01*
X60308370Y-38504462D01*
X60308369Y-38504464D01*
X60208503Y-38718628D01*
X60208499Y-38718637D01*
X60147343Y-38946879D01*
X60147341Y-38946889D01*
X60126746Y-39182292D01*
X60126746Y-39182293D01*
X60147341Y-39417696D01*
X60147344Y-39417709D01*
X60174321Y-39518393D01*
X60172658Y-39588243D01*
X60133495Y-39646105D01*
X60069266Y-39673608D01*
X60022454Y-39670260D01*
X59921770Y-39643283D01*
X59921766Y-39643282D01*
X59921762Y-39643281D01*
X59921760Y-39643280D01*
X59921757Y-39643280D01*
X59686355Y-39622685D01*
X59686353Y-39622685D01*
X59450950Y-39643280D01*
X59450940Y-39643282D01*
X59222698Y-39704438D01*
X59222689Y-39704442D01*
X59008525Y-39804308D01*
X59008523Y-39804309D01*
X58814951Y-39939849D01*
X58647859Y-40106941D01*
X58512319Y-40300513D01*
X58512318Y-40300515D01*
X58461687Y-40409094D01*
X58412521Y-40514532D01*
X58412452Y-40514679D01*
X58412448Y-40514688D01*
X58351292Y-40742930D01*
X58351290Y-40742940D01*
X58330695Y-40978343D01*
X58330695Y-40978344D01*
X58351290Y-41213747D01*
X58351293Y-41213760D01*
X58378270Y-41314445D01*
X58376607Y-41384295D01*
X58337443Y-41442157D01*
X58273215Y-41469660D01*
X58226402Y-41466312D01*
X58125715Y-41439333D01*
X58125705Y-41439331D01*
X57890303Y-41418736D01*
X57890301Y-41418736D01*
X57654898Y-41439331D01*
X57654888Y-41439333D01*
X57426646Y-41500489D01*
X57426637Y-41500493D01*
X57212473Y-41600359D01*
X57212471Y-41600360D01*
X57018899Y-41735900D01*
X56851807Y-41902992D01*
X56716267Y-42096564D01*
X56716266Y-42096566D01*
X56665635Y-42205145D01*
X56616469Y-42310583D01*
X56616400Y-42310730D01*
X56616396Y-42310739D01*
X56555240Y-42538981D01*
X56555238Y-42538991D01*
X56534643Y-42774394D01*
X56534643Y-42774395D01*
X56555238Y-43009798D01*
X56555241Y-43009811D01*
X56582218Y-43110495D01*
X56580555Y-43180345D01*
X56541392Y-43238207D01*
X56477163Y-43265710D01*
X56430351Y-43262362D01*
X56329667Y-43235385D01*
X56329663Y-43235384D01*
X56329659Y-43235383D01*
X56329657Y-43235382D01*
X56329654Y-43235382D01*
X56094252Y-43214787D01*
X56094250Y-43214787D01*
X55858847Y-43235382D01*
X55858837Y-43235384D01*
X55630595Y-43296540D01*
X55630586Y-43296544D01*
X55416422Y-43396410D01*
X55416420Y-43396411D01*
X55222848Y-43531951D01*
X55055756Y-43699043D01*
X54920216Y-43892615D01*
X54920215Y-43892617D01*
X54869584Y-44001196D01*
X54820418Y-44106634D01*
X54820349Y-44106781D01*
X54820345Y-44106790D01*
X54759189Y-44335032D01*
X54759187Y-44335042D01*
X54738592Y-44570445D01*
X54738592Y-44570446D01*
X54759187Y-44805849D01*
X54759189Y-44805859D01*
X54786317Y-44907104D01*
X54784654Y-44976954D01*
X54745491Y-45034817D01*
X54681262Y-45062320D01*
X54634449Y-45058972D01*
X54533526Y-45031930D01*
X54533515Y-45031928D01*
X54298202Y-45011341D01*
X54298198Y-45011341D01*
X54062884Y-45031928D01*
X54062873Y-45031930D01*
X53834716Y-45093064D01*
X53834707Y-45093068D01*
X53620619Y-45192899D01*
X53536825Y-45251570D01*
X54168790Y-45883535D01*
X54105207Y-45900573D01*
X53991193Y-45966399D01*
X53898101Y-46059491D01*
X53832275Y-46173505D01*
X53815237Y-46237088D01*
X53183272Y-45605123D01*
X53124601Y-45688917D01*
X53024770Y-45903005D01*
X53024766Y-45903014D01*
X52963632Y-46131171D01*
X52963630Y-46131182D01*
X52943043Y-46366496D01*
X52943043Y-46366499D01*
X52963630Y-46601813D01*
X52963632Y-46601824D01*
X52990674Y-46702747D01*
X52989011Y-46772597D01*
X52949848Y-46830459D01*
X52885619Y-46857963D01*
X52838806Y-46854615D01*
X52737562Y-46827487D01*
X52737552Y-46827485D01*
X52502150Y-46806890D01*
X52502148Y-46806890D01*
X52266745Y-46827485D01*
X52266735Y-46827487D01*
X52038493Y-46888643D01*
X52038486Y-46888645D01*
X52038486Y-46888646D01*
X52029908Y-46892646D01*
X51824320Y-46988513D01*
X51824318Y-46988514D01*
X51630746Y-47124054D01*
X51463654Y-47291146D01*
X51328114Y-47484718D01*
X51328113Y-47484720D01*
X51242260Y-47668833D01*
X51228316Y-47698737D01*
X51228247Y-47698884D01*
X51228243Y-47698893D01*
X51167087Y-47927135D01*
X51167085Y-47927145D01*
X51146490Y-48162548D01*
X51146490Y-48162549D01*
X51167085Y-48397952D01*
X51167087Y-48397962D01*
X51228243Y-48626204D01*
X51228245Y-48626208D01*
X51228246Y-48626212D01*
X51230112Y-48630213D01*
X51328114Y-48840379D01*
X51328116Y-48840383D01*
X51352771Y-48875593D01*
X51463654Y-49033950D01*
X51630748Y-49201044D01*
X51727533Y-49268814D01*
X51824314Y-49336581D01*
X51824316Y-49336582D01*
X51824319Y-49336584D01*
X51830047Y-49339255D01*
X51882488Y-49385421D01*
X51901649Y-49451639D01*
X51901649Y-55393403D01*
X51881964Y-55460442D01*
X51829160Y-55506197D01*
X51760002Y-55516141D01*
X51725245Y-55505785D01*
X51646297Y-55468971D01*
X51646286Y-55468967D01*
X51432800Y-55411764D01*
X51432800Y-56309388D01*
X51375793Y-56276475D01*
X51248626Y-56242400D01*
X51116974Y-56242400D01*
X50989807Y-56276475D01*
X50932800Y-56309388D01*
X50932800Y-55411764D01*
X50932799Y-55411763D01*
X50789393Y-55450189D01*
X50719543Y-55448526D01*
X50661681Y-55409363D01*
X50634177Y-55345135D01*
X50633300Y-55330414D01*
X50633300Y-48467951D01*
X50633301Y-48467938D01*
X50633301Y-48299837D01*
X50633301Y-48299835D01*
X50592377Y-48147107D01*
X50557958Y-48087492D01*
X50513320Y-48010176D01*
X50401516Y-47898372D01*
X50401515Y-47898371D01*
X50397185Y-47894041D01*
X50397174Y-47894031D01*
X47557120Y-45053977D01*
X47523635Y-44992654D01*
X47525026Y-44934203D01*
X47532437Y-44906545D01*
X47559417Y-44805854D01*
X47580013Y-44570446D01*
X47559417Y-44335038D01*
X47532437Y-44234346D01*
X47534100Y-44164496D01*
X47573263Y-44106634D01*
X47637491Y-44079130D01*
X47684305Y-44082478D01*
X47784997Y-44109458D01*
X47973323Y-44125934D01*
X48020404Y-44130054D01*
X48020405Y-44130054D01*
X48020406Y-44130054D01*
X48059639Y-44126621D01*
X48255813Y-44109458D01*
X48484068Y-44048298D01*
X48698235Y-43948430D01*
X48891806Y-43812890D01*
X49058900Y-43645796D01*
X49194440Y-43452225D01*
X49294308Y-43238058D01*
X49355468Y-43009803D01*
X49376064Y-42774395D01*
X49355468Y-42538987D01*
X49328488Y-42438294D01*
X49330151Y-42368445D01*
X49369314Y-42310583D01*
X49433542Y-42283079D01*
X49480356Y-42286427D01*
X49581048Y-42313407D01*
X49769374Y-42329883D01*
X49816455Y-42334003D01*
X49816456Y-42334003D01*
X49816457Y-42334003D01*
X49855690Y-42330570D01*
X50051864Y-42313407D01*
X50280119Y-42252247D01*
X50494286Y-42152379D01*
X50687857Y-42016839D01*
X50854951Y-41849745D01*
X50990491Y-41656174D01*
X51090359Y-41442007D01*
X51151519Y-41213752D01*
X51172115Y-40978344D01*
X51151519Y-40742936D01*
X51124539Y-40642243D01*
X51126202Y-40572394D01*
X51165365Y-40514532D01*
X51229593Y-40487028D01*
X51276407Y-40490376D01*
X51377099Y-40517356D01*
X51565425Y-40533832D01*
X51612506Y-40537952D01*
X51612507Y-40537952D01*
X51612508Y-40537952D01*
X51651741Y-40534519D01*
X51847915Y-40517356D01*
X52076170Y-40456196D01*
X52290337Y-40356328D01*
X52483908Y-40220788D01*
X52651002Y-40053694D01*
X52786542Y-39860123D01*
X52886410Y-39645956D01*
X52947570Y-39417701D01*
X52968166Y-39182293D01*
X52947570Y-38946885D01*
X52920589Y-38846189D01*
X52922252Y-38776342D01*
X52961414Y-38718479D01*
X53025643Y-38690975D01*
X53072454Y-38694322D01*
X53173151Y-38721304D01*
X53361477Y-38737780D01*
X53408558Y-38741900D01*
X53408559Y-38741900D01*
X53408560Y-38741900D01*
X53447793Y-38738467D01*
X53643967Y-38721304D01*
X53872222Y-38660144D01*
X54086389Y-38560276D01*
X54279960Y-38424736D01*
X54447054Y-38257642D01*
X54582594Y-38064071D01*
X54682462Y-37849904D01*
X54743622Y-37621649D01*
X54764218Y-37386241D01*
X54743622Y-37150833D01*
X54689569Y-36949101D01*
X54682464Y-36922585D01*
X54682461Y-36922576D01*
X54682132Y-36921871D01*
X54631616Y-36813541D01*
X54621125Y-36744465D01*
X54649645Y-36680681D01*
X54696542Y-36646579D01*
X54781533Y-36611375D01*
X54896265Y-36534714D01*
X54896269Y-36534709D01*
X54900969Y-36530853D01*
X54902720Y-36532987D01*
X54953547Y-36505154D01*
X55023245Y-36510054D01*
X55067733Y-36538607D01*
X55791358Y-37262231D01*
X55791370Y-37262242D01*
X55838048Y-37299860D01*
X55968963Y-37359648D01*
X55968964Y-37359648D01*
X55968966Y-37359649D01*
X56111423Y-37380130D01*
X56253881Y-37359649D01*
X56384796Y-37299861D01*
X56431479Y-37262242D01*
X57559840Y-36133879D01*
X57597461Y-36087196D01*
X57657249Y-35956281D01*
X57677730Y-35813823D01*
X57665716Y-35730258D01*
X57675660Y-35661101D01*
X57721415Y-35608297D01*
X57788455Y-35588613D01*
X57855494Y-35608298D01*
X57876134Y-35624931D01*
X57968882Y-35717679D01*
X57968886Y-35717682D01*
X57968888Y-35717684D01*
X58015560Y-35755297D01*
X58015563Y-35755298D01*
X58015565Y-35755300D01*
X58146480Y-35815088D01*
X58288937Y-35835569D01*
X58288937Y-35835568D01*
X58288938Y-35835569D01*
X58431395Y-35815088D01*
X58562311Y-35755300D01*
X58608993Y-35717681D01*
X59332628Y-34994043D01*
X59393949Y-34960560D01*
X59463640Y-34965544D01*
G37*
%TD.AperFunction*%
%TA.AperFunction,Conductor*%
G36*
X52236200Y-30823233D02*
G01*
X52449683Y-30766033D01*
X52449692Y-30766029D01*
X52663778Y-30666200D01*
X52857282Y-30530705D01*
X53024305Y-30363682D01*
X53154319Y-30178005D01*
X53208896Y-30134381D01*
X53278395Y-30127188D01*
X53340749Y-30158710D01*
X53357469Y-30178005D01*
X53487705Y-30364001D01*
X53487706Y-30364002D01*
X53654797Y-30531094D01*
X53772823Y-30613736D01*
X53816448Y-30668313D01*
X53825700Y-30715311D01*
X53825700Y-30995079D01*
X53806015Y-31062118D01*
X53789381Y-31082760D01*
X53610761Y-31261379D01*
X53549438Y-31294864D01*
X53479746Y-31289880D01*
X53457988Y-31279239D01*
X53411533Y-31250586D01*
X53244996Y-31195401D01*
X53244994Y-31195400D01*
X53142209Y-31184900D01*
X52542197Y-31184900D01*
X52542179Y-31184901D01*
X52439402Y-31195400D01*
X52439399Y-31195401D01*
X52272867Y-31250585D01*
X52272862Y-31250587D01*
X52123541Y-31342689D01*
X51999487Y-31466743D01*
X51999483Y-31466748D01*
X51997440Y-31470061D01*
X51995446Y-31471853D01*
X51995006Y-31472411D01*
X51994910Y-31472335D01*
X51945489Y-31516782D01*
X51876526Y-31527999D01*
X51812446Y-31500152D01*
X51786369Y-31470056D01*
X51784520Y-31467059D01*
X51784517Y-31467055D01*
X51660546Y-31343084D01*
X51511325Y-31251043D01*
X51511320Y-31251041D01*
X51344898Y-31195894D01*
X51344891Y-31195893D01*
X51242187Y-31185400D01*
X51192201Y-31185400D01*
X51192201Y-33635399D01*
X51242173Y-33635399D01*
X51242187Y-33635398D01*
X51344898Y-33624905D01*
X51511320Y-33569758D01*
X51511325Y-33569756D01*
X51660546Y-33477715D01*
X51784517Y-33353744D01*
X51786363Y-33350752D01*
X51788167Y-33349128D01*
X51788999Y-33348077D01*
X51789178Y-33348219D01*
X51838307Y-33304023D01*
X51907269Y-33292796D01*
X51971353Y-33320635D01*
X51997446Y-33350747D01*
X51999487Y-33354056D01*
X52123543Y-33478112D01*
X52272865Y-33570214D01*
X52439402Y-33625399D01*
X52542190Y-33635900D01*
X53142207Y-33635899D01*
X53244996Y-33625399D01*
X53244998Y-33625398D01*
X53250796Y-33624806D01*
X53319489Y-33637576D01*
X53370373Y-33685456D01*
X53387294Y-33753246D01*
X53364878Y-33819422D01*
X53351079Y-33835845D01*
X53178085Y-34008839D01*
X53178076Y-34008849D01*
X53140463Y-34055521D01*
X53140460Y-34055527D01*
X53080672Y-34186441D01*
X53060192Y-34328898D01*
X53060192Y-34328899D01*
X53063630Y-34352817D01*
X53080672Y-34471354D01*
X53080673Y-34471358D01*
X53140459Y-34602269D01*
X53140462Y-34602274D01*
X53178076Y-34648949D01*
X53178082Y-34648956D01*
X53607546Y-35078419D01*
X53641031Y-35139742D01*
X53636047Y-35209433D01*
X53594176Y-35265367D01*
X53528711Y-35289784D01*
X53519865Y-35290100D01*
X53024870Y-35290100D01*
X52957831Y-35270415D01*
X52912076Y-35217611D01*
X52905095Y-35198193D01*
X52885940Y-35126706D01*
X52885936Y-35126697D01*
X52786107Y-34912613D01*
X52786106Y-34912611D01*
X52727432Y-34828816D01*
X52727432Y-34828815D01*
X52095468Y-35460778D01*
X52078432Y-35397197D01*
X52012606Y-35283183D01*
X51919514Y-35190091D01*
X51805500Y-35124265D01*
X51741917Y-35107227D01*
X52373880Y-34475263D01*
X52373880Y-34475262D01*
X52290090Y-34416592D01*
X52290086Y-34416590D01*
X52075999Y-34316760D01*
X52075990Y-34316756D01*
X51847833Y-34255622D01*
X51847822Y-34255620D01*
X51612509Y-34235033D01*
X51612505Y-34235033D01*
X51377191Y-34255620D01*
X51377180Y-34255622D01*
X51149023Y-34316756D01*
X51149014Y-34316760D01*
X50934926Y-34416591D01*
X50851132Y-34475262D01*
X51483097Y-35107227D01*
X51419514Y-35124265D01*
X51305500Y-35190091D01*
X51212408Y-35283183D01*
X51146582Y-35397197D01*
X51129544Y-35460780D01*
X50497579Y-34828815D01*
X50438908Y-34912609D01*
X50339077Y-35126697D01*
X50339073Y-35126706D01*
X50277939Y-35354863D01*
X50277937Y-35354874D01*
X50257350Y-35590188D01*
X50257350Y-35590191D01*
X50277937Y-35825505D01*
X50277939Y-35825516D01*
X50304981Y-35926439D01*
X50303318Y-35996289D01*
X50264155Y-36054151D01*
X50199926Y-36081655D01*
X50153113Y-36078307D01*
X50051869Y-36051179D01*
X50051859Y-36051177D01*
X49816457Y-36030582D01*
X49816455Y-36030582D01*
X49581052Y-36051177D01*
X49581042Y-36051179D01*
X49352800Y-36112335D01*
X49352793Y-36112337D01*
X49352793Y-36112338D01*
X49344215Y-36116338D01*
X49138627Y-36212205D01*
X49138625Y-36212206D01*
X48945053Y-36347746D01*
X48777961Y-36514838D01*
X48642421Y-36708410D01*
X48642420Y-36708412D01*
X48587185Y-36826865D01*
X48543537Y-36920469D01*
X48542554Y-36922576D01*
X48542550Y-36922585D01*
X48481394Y-37150827D01*
X48481392Y-37150837D01*
X48460797Y-37386240D01*
X48460797Y-37386241D01*
X48481392Y-37621644D01*
X48481394Y-37621654D01*
X48508373Y-37722341D01*
X48506710Y-37792191D01*
X48467547Y-37850053D01*
X48403319Y-37877557D01*
X48356506Y-37874209D01*
X48255821Y-37847232D01*
X48255817Y-37847231D01*
X48255813Y-37847230D01*
X48255811Y-37847229D01*
X48255808Y-37847229D01*
X48020406Y-37826634D01*
X48020404Y-37826634D01*
X47785001Y-37847229D01*
X47784991Y-37847231D01*
X47556749Y-37908387D01*
X47556742Y-37908389D01*
X47556742Y-37908390D01*
X47548164Y-37912390D01*
X47342576Y-38008257D01*
X47342574Y-38008258D01*
X47149002Y-38143798D01*
X46981910Y-38310890D01*
X46846370Y-38504462D01*
X46846369Y-38504464D01*
X46746503Y-38718628D01*
X46746499Y-38718637D01*
X46685343Y-38946879D01*
X46685341Y-38946889D01*
X46664746Y-39182292D01*
X46664746Y-39182293D01*
X46685341Y-39417696D01*
X46685344Y-39417709D01*
X46712321Y-39518393D01*
X46710658Y-39588243D01*
X46671495Y-39646105D01*
X46607266Y-39673608D01*
X46560454Y-39670260D01*
X46459770Y-39643283D01*
X46459766Y-39643282D01*
X46459762Y-39643281D01*
X46459760Y-39643280D01*
X46459757Y-39643280D01*
X46224355Y-39622685D01*
X46224353Y-39622685D01*
X45988950Y-39643280D01*
X45988940Y-39643282D01*
X45760698Y-39704438D01*
X45760689Y-39704442D01*
X45546525Y-39804308D01*
X45546523Y-39804309D01*
X45352951Y-39939849D01*
X45185859Y-40106941D01*
X45050319Y-40300513D01*
X45050318Y-40300515D01*
X44999687Y-40409094D01*
X44950521Y-40514532D01*
X44950452Y-40514679D01*
X44950448Y-40514688D01*
X44889292Y-40742930D01*
X44889290Y-40742940D01*
X44868695Y-40978343D01*
X44868695Y-40978344D01*
X44889290Y-41213747D01*
X44889293Y-41213760D01*
X44916270Y-41314445D01*
X44914607Y-41384295D01*
X44875443Y-41442157D01*
X44811215Y-41469660D01*
X44764402Y-41466312D01*
X44663715Y-41439333D01*
X44663705Y-41439331D01*
X44428303Y-41418736D01*
X44428301Y-41418736D01*
X44192898Y-41439331D01*
X44192888Y-41439333D01*
X43964646Y-41500489D01*
X43964637Y-41500493D01*
X43750473Y-41600359D01*
X43750471Y-41600360D01*
X43556899Y-41735900D01*
X43444432Y-41848368D01*
X43383109Y-41881853D01*
X43313417Y-41876869D01*
X43257484Y-41834997D01*
X43233067Y-41769533D01*
X43232751Y-41760687D01*
X43232751Y-41336045D01*
X43252436Y-41269006D01*
X43269065Y-41248369D01*
X48544106Y-35973327D01*
X48544111Y-35973324D01*
X48554314Y-35963120D01*
X48554316Y-35963120D01*
X48666120Y-35851316D01*
X48745177Y-35714384D01*
X48786100Y-35561657D01*
X48786100Y-33753612D01*
X48805785Y-33686573D01*
X48813155Y-33676297D01*
X48815410Y-33673467D01*
X48815416Y-33673462D01*
X48911389Y-33520722D01*
X48970968Y-33350455D01*
X48974875Y-33315783D01*
X48991165Y-33171203D01*
X48991165Y-33171196D01*
X48970969Y-32991950D01*
X48970968Y-32991945D01*
X48951177Y-32935386D01*
X49942202Y-32935386D01*
X49952695Y-33038097D01*
X50007842Y-33204519D01*
X50007844Y-33204524D01*
X50099885Y-33353745D01*
X50223855Y-33477715D01*
X50373076Y-33569756D01*
X50373081Y-33569758D01*
X50539503Y-33624905D01*
X50539510Y-33624906D01*
X50642220Y-33635399D01*
X50692200Y-33635398D01*
X50692201Y-33635398D01*
X50692201Y-32660400D01*
X49942202Y-32660400D01*
X49942202Y-32935386D01*
X48951177Y-32935386D01*
X48931965Y-32880480D01*
X48911389Y-32821678D01*
X48815416Y-32668938D01*
X48687862Y-32541384D01*
X48535123Y-32445411D01*
X48364854Y-32385831D01*
X48364849Y-32385830D01*
X48185604Y-32365635D01*
X48185596Y-32365635D01*
X48006350Y-32385830D01*
X48006345Y-32385831D01*
X47836076Y-32445411D01*
X47683337Y-32541384D01*
X47555784Y-32668937D01*
X47459811Y-32821676D01*
X47400231Y-32991945D01*
X47400230Y-32991950D01*
X47380035Y-33171196D01*
X47380035Y-33171203D01*
X47400230Y-33350449D01*
X47400231Y-33350454D01*
X47459811Y-33520723D01*
X47490909Y-33570214D01*
X47531867Y-33635399D01*
X47555785Y-33673463D01*
X47558045Y-33676297D01*
X47558934Y-33678475D01*
X47559489Y-33679358D01*
X47559334Y-33679455D01*
X47584455Y-33740983D01*
X47585100Y-33753612D01*
X47585100Y-35182502D01*
X47565415Y-35249541D01*
X47548781Y-35270183D01*
X42151732Y-40667231D01*
X42151731Y-40667233D01*
X42110445Y-40738743D01*
X42072674Y-40804164D01*
X42031750Y-40956892D01*
X42031750Y-40956894D01*
X42031750Y-41124995D01*
X42031751Y-41125008D01*
X42031751Y-43281354D01*
X42012066Y-43348393D01*
X41960165Y-43393732D01*
X41954424Y-43396409D01*
X41954420Y-43396411D01*
X41760848Y-43531951D01*
X41593756Y-43699043D01*
X41458216Y-43892615D01*
X41458215Y-43892617D01*
X41407584Y-44001196D01*
X41358418Y-44106634D01*
X41358349Y-44106781D01*
X41358345Y-44106790D01*
X41297189Y-44335032D01*
X41297187Y-44335042D01*
X41276592Y-44570445D01*
X41276592Y-44570446D01*
X41297187Y-44805849D01*
X41297189Y-44805859D01*
X41324317Y-44907104D01*
X41322654Y-44976954D01*
X41283491Y-45034817D01*
X41219262Y-45062320D01*
X41172449Y-45058972D01*
X41071526Y-45031930D01*
X41071515Y-45031928D01*
X40836202Y-45011341D01*
X40836198Y-45011341D01*
X40600884Y-45031928D01*
X40600873Y-45031930D01*
X40372716Y-45093064D01*
X40372707Y-45093068D01*
X40158619Y-45192899D01*
X40074825Y-45251570D01*
X40706790Y-45883535D01*
X40643207Y-45900573D01*
X40529193Y-45966399D01*
X40436101Y-46059491D01*
X40370275Y-46173505D01*
X40353237Y-46237088D01*
X39721272Y-45605123D01*
X39662601Y-45688917D01*
X39562770Y-45903005D01*
X39562766Y-45903014D01*
X39501632Y-46131171D01*
X39501630Y-46131182D01*
X39481043Y-46366496D01*
X39481043Y-46366499D01*
X39501630Y-46601813D01*
X39501632Y-46601824D01*
X39528674Y-46702747D01*
X39527011Y-46772597D01*
X39487848Y-46830459D01*
X39423619Y-46857963D01*
X39376806Y-46854615D01*
X39275562Y-46827487D01*
X39275552Y-46827485D01*
X39040150Y-46806890D01*
X39040148Y-46806890D01*
X38804745Y-46827485D01*
X38804735Y-46827487D01*
X38576493Y-46888643D01*
X38576486Y-46888645D01*
X38576486Y-46888646D01*
X38567908Y-46892646D01*
X38362320Y-46988513D01*
X38362318Y-46988514D01*
X38168746Y-47124054D01*
X38001654Y-47291146D01*
X37866114Y-47484718D01*
X37866113Y-47484720D01*
X37780260Y-47668833D01*
X37766316Y-47698737D01*
X37766247Y-47698884D01*
X37766243Y-47698893D01*
X37705087Y-47927135D01*
X37705085Y-47927145D01*
X37684490Y-48162548D01*
X37684490Y-48162550D01*
X37701278Y-48354438D01*
X37687511Y-48422938D01*
X37638896Y-48473121D01*
X37570867Y-48489054D01*
X37505024Y-48465679D01*
X37490069Y-48452926D01*
X34095120Y-45057977D01*
X34061635Y-44996654D01*
X34063026Y-44938203D01*
X34071509Y-44906545D01*
X34097417Y-44809854D01*
X34118013Y-44574446D01*
X34097417Y-44339038D01*
X34070437Y-44238346D01*
X34072100Y-44168496D01*
X34111263Y-44110634D01*
X34175491Y-44083130D01*
X34222305Y-44086478D01*
X34322997Y-44113458D01*
X34511323Y-44129934D01*
X34558404Y-44134054D01*
X34558405Y-44134054D01*
X34558406Y-44134054D01*
X34604124Y-44130054D01*
X34793813Y-44113458D01*
X35022068Y-44052298D01*
X35236235Y-43952430D01*
X35429806Y-43816890D01*
X35596900Y-43649796D01*
X35732440Y-43456225D01*
X35832308Y-43242058D01*
X35893468Y-43013803D01*
X35914064Y-42778395D01*
X35893468Y-42542987D01*
X35866488Y-42442295D01*
X35868151Y-42372445D01*
X35907314Y-42314583D01*
X35971542Y-42287079D01*
X36018356Y-42290427D01*
X36119048Y-42317407D01*
X36307374Y-42333883D01*
X36354455Y-42338003D01*
X36354456Y-42338003D01*
X36354457Y-42338003D01*
X36400175Y-42334003D01*
X36589864Y-42317407D01*
X36818119Y-42256247D01*
X37032286Y-42156379D01*
X37225857Y-42020839D01*
X37392951Y-41853745D01*
X37528491Y-41660174D01*
X37628359Y-41446007D01*
X37689519Y-41217752D01*
X37710115Y-40982344D01*
X37689519Y-40746936D01*
X37662539Y-40646244D01*
X37664202Y-40576394D01*
X37703365Y-40518532D01*
X37767593Y-40491028D01*
X37814407Y-40494376D01*
X37915099Y-40521356D01*
X38103425Y-40537832D01*
X38150506Y-40541952D01*
X38150507Y-40541952D01*
X38150508Y-40541952D01*
X38196226Y-40537952D01*
X38385915Y-40521356D01*
X38614170Y-40460196D01*
X38828337Y-40360328D01*
X39021908Y-40224788D01*
X39189002Y-40057694D01*
X39324542Y-39864123D01*
X39327214Y-39858390D01*
X39373385Y-39805951D01*
X39439598Y-39786793D01*
X41356916Y-39786793D01*
X41356932Y-39786794D01*
X41364528Y-39786794D01*
X41522639Y-39786794D01*
X41522642Y-39786794D01*
X41675370Y-39745870D01*
X41725489Y-39716932D01*
X41812301Y-39666813D01*
X41924105Y-39555009D01*
X41924105Y-39555007D01*
X41934313Y-39544800D01*
X41934315Y-39544797D01*
X44472231Y-37006880D01*
X44533552Y-36973397D01*
X44603244Y-36978381D01*
X44611422Y-36981769D01*
X44670801Y-37008887D01*
X44670804Y-37008887D01*
X44670805Y-37008888D01*
X44813262Y-37029369D01*
X44955720Y-37008888D01*
X45086635Y-36949100D01*
X45133318Y-36911481D01*
X46261679Y-35783118D01*
X46299300Y-35736435D01*
X46359088Y-35605520D01*
X46379569Y-35463062D01*
X46359088Y-35320605D01*
X46355005Y-35311665D01*
X46299301Y-35189691D01*
X46299298Y-35189686D01*
X46261684Y-35143011D01*
X46261678Y-35143004D01*
X45486880Y-34368207D01*
X45486865Y-34368194D01*
X45475610Y-34359123D01*
X45435764Y-34301729D01*
X45433273Y-34231904D01*
X45465737Y-34174896D01*
X47755221Y-31885413D01*
X49942201Y-31885413D01*
X49942201Y-32160400D01*
X50692201Y-32160400D01*
X50692201Y-31185400D01*
X50692200Y-31185399D01*
X50642230Y-31185400D01*
X50642212Y-31185401D01*
X50539503Y-31195894D01*
X50373081Y-31251041D01*
X50373076Y-31251043D01*
X50223855Y-31343084D01*
X50099885Y-31467054D01*
X50007844Y-31616275D01*
X50007842Y-31616280D01*
X49952695Y-31782702D01*
X49952694Y-31782709D01*
X49942201Y-31885413D01*
X47755221Y-31885413D01*
X48847213Y-30793421D01*
X48908534Y-30759938D01*
X48977374Y-30764861D01*
X48977451Y-30764652D01*
X48978184Y-30764919D01*
X48978226Y-30764922D01*
X48978434Y-30765010D01*
X48982537Y-30766503D01*
X49210792Y-30827663D01*
X49399118Y-30844139D01*
X49446199Y-30848259D01*
X49446200Y-30848259D01*
X49446201Y-30848259D01*
X49485434Y-30844826D01*
X49681608Y-30827663D01*
X49909863Y-30766503D01*
X50124030Y-30666635D01*
X50317601Y-30531095D01*
X50484695Y-30364001D01*
X50614930Y-30178005D01*
X50669507Y-30134381D01*
X50739005Y-30127187D01*
X50801360Y-30158710D01*
X50818079Y-30178005D01*
X50948090Y-30363678D01*
X51115117Y-30530705D01*
X51308621Y-30666200D01*
X51522707Y-30766029D01*
X51522716Y-30766033D01*
X51736200Y-30823234D01*
X51736200Y-29925612D01*
X51793207Y-29958525D01*
X51920374Y-29992600D01*
X52052026Y-29992600D01*
X52179193Y-29958525D01*
X52236200Y-29925612D01*
X52236200Y-30823233D01*
G37*
%TD.AperFunction*%
%TA.AperFunction,Conductor*%
G36*
X34964353Y-40496038D02*
G01*
X35022215Y-40535200D01*
X35049720Y-40599428D01*
X35046372Y-40646242D01*
X35019395Y-40746927D01*
X35019392Y-40746940D01*
X34998797Y-40982343D01*
X34998797Y-40982344D01*
X35019392Y-41217747D01*
X35019395Y-41217760D01*
X35046372Y-41318444D01*
X35044709Y-41388294D01*
X35005546Y-41446156D01*
X34941317Y-41473659D01*
X34894504Y-41470311D01*
X34804607Y-41446224D01*
X34744947Y-41409860D01*
X34714417Y-41347013D01*
X34712700Y-41326449D01*
X34712700Y-40703659D01*
X34712701Y-40703646D01*
X34712701Y-40638238D01*
X34732386Y-40571199D01*
X34785190Y-40525444D01*
X34804598Y-40518466D01*
X34894508Y-40494375D01*
X34964353Y-40496038D01*
G37*
%TD.AperFunction*%
%TA.AperFunction,Conductor*%
G36*
X61146305Y-40490376D02*
G01*
X61246997Y-40517356D01*
X61435323Y-40533832D01*
X61482404Y-40537952D01*
X61482405Y-40537952D01*
X61482406Y-40537952D01*
X61521639Y-40534519D01*
X61717813Y-40517356D01*
X61818504Y-40490376D01*
X61888354Y-40492039D01*
X61946216Y-40531202D01*
X61973720Y-40595430D01*
X61970372Y-40642243D01*
X61943395Y-40742927D01*
X61943392Y-40742940D01*
X61922797Y-40978343D01*
X61922797Y-40978344D01*
X61943392Y-41213747D01*
X61943395Y-41213760D01*
X61970372Y-41314444D01*
X61968709Y-41384294D01*
X61929546Y-41442156D01*
X61865317Y-41469659D01*
X61818505Y-41466311D01*
X61717821Y-41439334D01*
X61717817Y-41439333D01*
X61717813Y-41439332D01*
X61717811Y-41439331D01*
X61717808Y-41439331D01*
X61482406Y-41418736D01*
X61482404Y-41418736D01*
X61247001Y-41439331D01*
X61246988Y-41439334D01*
X61146304Y-41466311D01*
X61076454Y-41464648D01*
X61018592Y-41425484D01*
X60991089Y-41361256D01*
X60994437Y-41314443D01*
X61002411Y-41284684D01*
X61021417Y-41213752D01*
X61042013Y-40978344D01*
X61021417Y-40742936D01*
X60994437Y-40642243D01*
X60996100Y-40572394D01*
X61035263Y-40514532D01*
X61099491Y-40487028D01*
X61146305Y-40490376D01*
G37*
%TD.AperFunction*%
%TA.AperFunction,Conductor*%
G36*
X36018355Y-38698324D02*
G01*
X36060313Y-38709566D01*
X36119048Y-38725304D01*
X36307374Y-38741780D01*
X36354455Y-38745900D01*
X36354456Y-38745900D01*
X36354457Y-38745900D01*
X36400175Y-38741900D01*
X36589864Y-38725304D01*
X36690556Y-38698324D01*
X36760406Y-38699987D01*
X36818268Y-38739150D01*
X36845772Y-38803378D01*
X36842424Y-38850192D01*
X36815445Y-38950879D01*
X36815443Y-38950889D01*
X36794848Y-39186292D01*
X36794848Y-39186293D01*
X36815443Y-39421696D01*
X36815446Y-39421709D01*
X36842423Y-39522393D01*
X36840760Y-39592243D01*
X36801597Y-39650105D01*
X36737368Y-39677608D01*
X36690556Y-39674260D01*
X36589872Y-39647283D01*
X36589868Y-39647282D01*
X36589864Y-39647281D01*
X36589862Y-39647280D01*
X36589859Y-39647280D01*
X36354457Y-39626685D01*
X36354455Y-39626685D01*
X36119052Y-39647280D01*
X36119039Y-39647283D01*
X36018355Y-39674260D01*
X35948505Y-39672597D01*
X35890643Y-39633433D01*
X35863140Y-39569205D01*
X35866488Y-39522392D01*
X35866643Y-39521815D01*
X35893468Y-39421701D01*
X35914064Y-39186293D01*
X35893468Y-38950885D01*
X35866487Y-38850189D01*
X35868150Y-38780343D01*
X35907312Y-38722480D01*
X35971541Y-38694976D01*
X36018355Y-38698324D01*
G37*
%TD.AperFunction*%
%TA.AperFunction,Conductor*%
G36*
X62942355Y-38694324D02*
G01*
X62984313Y-38705566D01*
X63043048Y-38721304D01*
X63231374Y-38737780D01*
X63278455Y-38741900D01*
X63278456Y-38741900D01*
X63278457Y-38741900D01*
X63317690Y-38738467D01*
X63513864Y-38721304D01*
X63614556Y-38694324D01*
X63684406Y-38695987D01*
X63742268Y-38735150D01*
X63769772Y-38799378D01*
X63766424Y-38846192D01*
X63739445Y-38946879D01*
X63739443Y-38946889D01*
X63718848Y-39182292D01*
X63718848Y-39182293D01*
X63739443Y-39417696D01*
X63739446Y-39417709D01*
X63766423Y-39518393D01*
X63764760Y-39588243D01*
X63725597Y-39646105D01*
X63661368Y-39673608D01*
X63614556Y-39670260D01*
X63513872Y-39643283D01*
X63513868Y-39643282D01*
X63513864Y-39643281D01*
X63513862Y-39643280D01*
X63513859Y-39643280D01*
X63278457Y-39622685D01*
X63278455Y-39622685D01*
X63043052Y-39643280D01*
X63043039Y-39643283D01*
X62942355Y-39670260D01*
X62872505Y-39668597D01*
X62814643Y-39629433D01*
X62787140Y-39565205D01*
X62790488Y-39518392D01*
X62802613Y-39473140D01*
X62817468Y-39417701D01*
X62838064Y-39182293D01*
X62817468Y-38946885D01*
X62790487Y-38846189D01*
X62792150Y-38776343D01*
X62831312Y-38718480D01*
X62895541Y-38690976D01*
X62942355Y-38694324D01*
G37*
%TD.AperFunction*%
%TA.AperFunction,Conductor*%
G36*
X41999264Y-34421546D02*
G01*
X42019906Y-34438180D01*
X42654719Y-35072992D01*
X42654729Y-35073001D01*
X42701411Y-35110622D01*
X42708013Y-35114700D01*
X42707220Y-35115983D01*
X42753415Y-35156003D01*
X42760926Y-35169758D01*
X42761540Y-35170752D01*
X42799154Y-35217427D01*
X42799160Y-35217434D01*
X43573958Y-35992231D01*
X43573970Y-35992242D01*
X43585226Y-36001313D01*
X43625072Y-36058706D01*
X43627564Y-36128531D01*
X43595098Y-36185543D01*
X41231169Y-38549474D01*
X41169846Y-38582959D01*
X41143488Y-38585793D01*
X40960265Y-38585793D01*
X40893226Y-38566108D01*
X40847471Y-38513304D01*
X40837527Y-38444146D01*
X40866552Y-38380590D01*
X40872584Y-38374112D01*
X40925277Y-38321419D01*
X40985054Y-38261642D01*
X41120594Y-38068071D01*
X41220462Y-37853904D01*
X41281622Y-37625649D01*
X41302218Y-37390241D01*
X41299541Y-37359649D01*
X41298098Y-37343159D01*
X41281622Y-37154833D01*
X41223667Y-36938539D01*
X41220464Y-36926585D01*
X41220463Y-36926584D01*
X41220462Y-36926578D01*
X41120594Y-36712412D01*
X41117794Y-36708412D01*
X40985053Y-36518838D01*
X40817961Y-36351747D01*
X40817954Y-36351742D01*
X40624393Y-36216208D01*
X40624389Y-36216206D01*
X40542949Y-36178230D01*
X40410222Y-36116338D01*
X40410218Y-36116337D01*
X40410214Y-36116335D01*
X40181972Y-36055179D01*
X40181962Y-36055177D01*
X39946560Y-36034582D01*
X39946558Y-36034582D01*
X39711155Y-36055177D01*
X39711142Y-36055180D01*
X39609899Y-36082307D01*
X39540049Y-36080644D01*
X39482187Y-36041481D01*
X39454684Y-35977252D01*
X39458032Y-35930438D01*
X39485075Y-35829512D01*
X39485076Y-35829505D01*
X39505664Y-35594191D01*
X39505664Y-35594188D01*
X39485076Y-35358874D01*
X39485074Y-35358863D01*
X39423940Y-35130706D01*
X39423936Y-35130697D01*
X39324107Y-34916613D01*
X39324106Y-34916611D01*
X39265432Y-34832816D01*
X39265432Y-34832815D01*
X38633468Y-35464778D01*
X38616432Y-35401197D01*
X38550606Y-35287183D01*
X38457514Y-35194091D01*
X38343500Y-35128265D01*
X38279916Y-35111227D01*
X38952767Y-34438377D01*
X38956203Y-34441813D01*
X38979413Y-34417913D01*
X39040431Y-34401861D01*
X41932225Y-34401861D01*
X41999264Y-34421546D01*
G37*
%TD.AperFunction*%
%TA.AperFunction,Conductor*%
G36*
X37814258Y-36901715D02*
G01*
X37915184Y-36928758D01*
X37915191Y-36928759D01*
X38150505Y-36949347D01*
X38150509Y-36949347D01*
X38385822Y-36928759D01*
X38385826Y-36928758D01*
X38486755Y-36901714D01*
X38556605Y-36903377D01*
X38614468Y-36942539D01*
X38641973Y-37006767D01*
X38638625Y-37053581D01*
X38611498Y-37154824D01*
X38611495Y-37154837D01*
X38590900Y-37390240D01*
X38590900Y-37390241D01*
X38611495Y-37625644D01*
X38611497Y-37625654D01*
X38638476Y-37726342D01*
X38636813Y-37796192D01*
X38597650Y-37854054D01*
X38533421Y-37881558D01*
X38486608Y-37878210D01*
X38385920Y-37851231D01*
X38385910Y-37851229D01*
X38150508Y-37830634D01*
X38150506Y-37830634D01*
X37915103Y-37851229D01*
X37915090Y-37851232D01*
X37814405Y-37878209D01*
X37744555Y-37876545D01*
X37686693Y-37837382D01*
X37659190Y-37773153D01*
X37662537Y-37726346D01*
X37689519Y-37625649D01*
X37710115Y-37390241D01*
X37707438Y-37359649D01*
X37705995Y-37343159D01*
X37689519Y-37154833D01*
X37662389Y-37053581D01*
X37664052Y-36983734D01*
X37703214Y-36925871D01*
X37767443Y-36898367D01*
X37814258Y-36901715D01*
G37*
%TD.AperFunction*%
%TA.AperFunction,Conductor*%
G36*
X64738258Y-36897715D02*
G01*
X64839184Y-36924758D01*
X64839191Y-36924759D01*
X65074505Y-36945347D01*
X65074509Y-36945347D01*
X65309822Y-36924759D01*
X65309826Y-36924758D01*
X65410755Y-36897714D01*
X65480605Y-36899377D01*
X65538468Y-36938539D01*
X65565973Y-37002767D01*
X65562625Y-37049581D01*
X65535498Y-37150824D01*
X65535495Y-37150837D01*
X65514900Y-37386240D01*
X65514900Y-37386241D01*
X65535495Y-37621644D01*
X65535497Y-37621654D01*
X65562476Y-37722342D01*
X65560813Y-37792192D01*
X65521650Y-37850054D01*
X65457421Y-37877558D01*
X65410608Y-37874210D01*
X65309920Y-37847231D01*
X65309910Y-37847229D01*
X65074508Y-37826634D01*
X65074506Y-37826634D01*
X64839103Y-37847229D01*
X64839090Y-37847232D01*
X64738405Y-37874209D01*
X64668555Y-37872545D01*
X64610693Y-37833382D01*
X64583190Y-37769153D01*
X64586537Y-37722346D01*
X64613519Y-37621649D01*
X64634115Y-37386241D01*
X64613519Y-37150833D01*
X64586389Y-37049581D01*
X64588052Y-36979734D01*
X64627214Y-36921871D01*
X64691443Y-36894367D01*
X64738258Y-36897715D01*
G37*
%TD.AperFunction*%
%TA.AperFunction,Conductor*%
G36*
X61057239Y-18922785D02*
G01*
X61102994Y-18975589D01*
X61114200Y-19027100D01*
X61114200Y-29894600D01*
X65029467Y-33679358D01*
X65405461Y-34042819D01*
X65439980Y-34103566D01*
X65436177Y-34173332D01*
X65395260Y-34229968D01*
X65330219Y-34255490D01*
X65308471Y-34255502D01*
X65074509Y-34235033D01*
X65074505Y-34235033D01*
X64839191Y-34255620D01*
X64839180Y-34255622D01*
X64611023Y-34316756D01*
X64611014Y-34316760D01*
X64396926Y-34416591D01*
X64313132Y-34475262D01*
X64945097Y-35107227D01*
X64881514Y-35124265D01*
X64767500Y-35190091D01*
X64674408Y-35283183D01*
X64608582Y-35397197D01*
X64591544Y-35460780D01*
X63959579Y-34828815D01*
X63900908Y-34912609D01*
X63801077Y-35126697D01*
X63801073Y-35126706D01*
X63739939Y-35354863D01*
X63739937Y-35354874D01*
X63719350Y-35590188D01*
X63719350Y-35590191D01*
X63739937Y-35825505D01*
X63739939Y-35825516D01*
X63766981Y-35926439D01*
X63765318Y-35996289D01*
X63726155Y-36054151D01*
X63661926Y-36081655D01*
X63615113Y-36078307D01*
X63513869Y-36051179D01*
X63513859Y-36051177D01*
X63278457Y-36030582D01*
X63278455Y-36030582D01*
X63043052Y-36051177D01*
X63043042Y-36051179D01*
X62814800Y-36112335D01*
X62814790Y-36112339D01*
X62752175Y-36141536D01*
X62683097Y-36152027D01*
X62619314Y-36123506D01*
X62612091Y-36116834D01*
X60498646Y-34003389D01*
X60465161Y-33942066D01*
X60470145Y-33872374D01*
X60498644Y-33828029D01*
X61222279Y-33104393D01*
X61259900Y-33057711D01*
X61319688Y-32926795D01*
X61340169Y-32784338D01*
X61339987Y-32783073D01*
X61319688Y-32641880D01*
X61259901Y-32510967D01*
X61259900Y-32510966D01*
X61259900Y-32510965D01*
X61222281Y-32464282D01*
X61222276Y-32464277D01*
X61222272Y-32464272D01*
X60093921Y-31335924D01*
X60093911Y-31335915D01*
X60047239Y-31298302D01*
X60047233Y-31298299D01*
X59916318Y-31238511D01*
X59916319Y-31238511D01*
X59773862Y-31218031D01*
X59641120Y-31237115D01*
X59571961Y-31227171D01*
X59535793Y-31202058D01*
X59311019Y-30977284D01*
X59277534Y-30915961D01*
X59274700Y-30889603D01*
X59274700Y-29812093D01*
X59293708Y-29746119D01*
X59299987Y-29736125D01*
X59299986Y-29736125D01*
X59299989Y-29736122D01*
X59359568Y-29565855D01*
X59379765Y-29386600D01*
X59369963Y-29299607D01*
X59359569Y-29207350D01*
X59359566Y-29207337D01*
X59299990Y-29037079D01*
X59293706Y-29027078D01*
X59274700Y-28961107D01*
X59274700Y-28047604D01*
X59263207Y-27989829D01*
X59247780Y-27912272D01*
X59246873Y-27910083D01*
X59214110Y-27830985D01*
X59194975Y-27784789D01*
X59194973Y-27784786D01*
X59194971Y-27784782D01*
X59123280Y-27677490D01*
X59102402Y-27610813D01*
X59120886Y-27543433D01*
X59123364Y-27539621D01*
X59123347Y-27539610D01*
X59194971Y-27432417D01*
X59194971Y-27432416D01*
X59194975Y-27432411D01*
X59247780Y-27304928D01*
X59274700Y-27169593D01*
X59274700Y-26510093D01*
X59293708Y-26444119D01*
X59299987Y-26434125D01*
X59299986Y-26434125D01*
X59299989Y-26434122D01*
X59359568Y-26263855D01*
X59379765Y-26084600D01*
X59378407Y-26072549D01*
X59359569Y-25905350D01*
X59359566Y-25905337D01*
X59299990Y-25735079D01*
X59293706Y-25725078D01*
X59274700Y-25659107D01*
X59274700Y-24999604D01*
X59247781Y-24864277D01*
X59247780Y-24864276D01*
X59247780Y-24864272D01*
X59245123Y-24857857D01*
X59194978Y-24736795D01*
X59194970Y-24736781D01*
X59173822Y-24705131D01*
X59173821Y-24705129D01*
X59118315Y-24622058D01*
X59118309Y-24622051D01*
X58452994Y-23956737D01*
X58419509Y-23895414D01*
X58424493Y-23825723D01*
X58466364Y-23769789D01*
X58475563Y-23763527D01*
X58501856Y-23747310D01*
X58625912Y-23623254D01*
X58718014Y-23473932D01*
X58773199Y-23307395D01*
X58783700Y-23204607D01*
X58783699Y-22604590D01*
X58773199Y-22501801D01*
X58718014Y-22335264D01*
X58625912Y-22185942D01*
X58501856Y-22061886D01*
X58498547Y-22059845D01*
X58496754Y-22057851D01*
X58496189Y-22057405D01*
X58496265Y-22057308D01*
X58451821Y-22007899D01*
X58440597Y-21938937D01*
X58468439Y-21874854D01*
X58498552Y-21848762D01*
X58501544Y-21846916D01*
X58625515Y-21722945D01*
X58717556Y-21573724D01*
X58717558Y-21573719D01*
X58772705Y-21407297D01*
X58772706Y-21407290D01*
X58783199Y-21304586D01*
X58783200Y-21304573D01*
X58783200Y-21254600D01*
X56333201Y-21254600D01*
X56333201Y-21304586D01*
X56343694Y-21407297D01*
X56398841Y-21573719D01*
X56398843Y-21573724D01*
X56490884Y-21722945D01*
X56614855Y-21846916D01*
X56614859Y-21846919D01*
X56617856Y-21848768D01*
X56619478Y-21850572D01*
X56620523Y-21851398D01*
X56620381Y-21851576D01*
X56664580Y-21900717D01*
X56675800Y-21969680D01*
X56647955Y-22033761D01*
X56617861Y-22059839D01*
X56614548Y-22061882D01*
X56614543Y-22061886D01*
X56490489Y-22185940D01*
X56490487Y-22185943D01*
X56479845Y-22203197D01*
X56427897Y-22249922D01*
X56374307Y-22262100D01*
X55748911Y-22262100D01*
X55681872Y-22242415D01*
X55647336Y-22209223D01*
X55564696Y-22091200D01*
X55507257Y-22033761D01*
X55442379Y-21968883D01*
X55408896Y-21907563D01*
X55413880Y-21837871D01*
X55455751Y-21781937D01*
X55486729Y-21765022D01*
X55618286Y-21715954D01*
X55618293Y-21715950D01*
X55733387Y-21629790D01*
X55733390Y-21629787D01*
X55819550Y-21514693D01*
X55819554Y-21514686D01*
X55869796Y-21379979D01*
X55869798Y-21379972D01*
X55876199Y-21320444D01*
X55876200Y-21320427D01*
X55876200Y-20704613D01*
X56333200Y-20704613D01*
X56333200Y-20754600D01*
X57308200Y-20754600D01*
X57808200Y-20754600D01*
X58783199Y-20754600D01*
X58783199Y-20704628D01*
X58783198Y-20704613D01*
X58772705Y-20601902D01*
X58717558Y-20435480D01*
X58717556Y-20435475D01*
X58625515Y-20286254D01*
X58501545Y-20162284D01*
X58352324Y-20070243D01*
X58352319Y-20070241D01*
X58185897Y-20015094D01*
X58185890Y-20015093D01*
X58083186Y-20004600D01*
X57808200Y-20004600D01*
X57808200Y-20754600D01*
X57308200Y-20754600D01*
X57308200Y-20004600D01*
X57033229Y-20004600D01*
X57033212Y-20004601D01*
X56930502Y-20015094D01*
X56764080Y-20070241D01*
X56764075Y-20070243D01*
X56614854Y-20162284D01*
X56490884Y-20286254D01*
X56398843Y-20435475D01*
X56398841Y-20435480D01*
X56343694Y-20601902D01*
X56343693Y-20601909D01*
X56333200Y-20704613D01*
X55876200Y-20704613D01*
X55876200Y-20672600D01*
X54959212Y-20672600D01*
X54992125Y-20615593D01*
X55026200Y-20488426D01*
X55026200Y-20356774D01*
X54992125Y-20229607D01*
X54959212Y-20172600D01*
X55876200Y-20172600D01*
X55876200Y-19524772D01*
X55876199Y-19524755D01*
X55869798Y-19465227D01*
X55869796Y-19465220D01*
X55819554Y-19330513D01*
X55819550Y-19330506D01*
X55733390Y-19215412D01*
X55614441Y-19126366D01*
X55572571Y-19070432D01*
X55567587Y-19000741D01*
X55601073Y-18939418D01*
X55662396Y-18905934D01*
X55688753Y-18903100D01*
X60990200Y-18903100D01*
X61057239Y-18922785D01*
G37*
%TD.AperFunction*%
%TA.AperFunction,Conductor*%
G36*
X31916200Y-30823233D02*
G01*
X32129683Y-30766033D01*
X32129692Y-30766029D01*
X32343778Y-30666200D01*
X32537282Y-30530705D01*
X32704305Y-30363682D01*
X32834319Y-30178005D01*
X32888896Y-30134381D01*
X32958395Y-30127188D01*
X33020749Y-30158710D01*
X33037469Y-30178005D01*
X33167705Y-30364001D01*
X33334799Y-30531095D01*
X33356100Y-30546010D01*
X33528365Y-30666632D01*
X33528367Y-30666633D01*
X33528370Y-30666635D01*
X33742537Y-30766503D01*
X33970792Y-30827663D01*
X34159118Y-30844139D01*
X34206199Y-30848259D01*
X34206200Y-30848259D01*
X34206201Y-30848259D01*
X34221367Y-30846932D01*
X34234042Y-30845823D01*
X34302542Y-30859589D01*
X34352725Y-30908204D01*
X34368659Y-30976233D01*
X34345284Y-31042076D01*
X34332531Y-31057032D01*
X31607881Y-33781683D01*
X31546558Y-33815168D01*
X31476866Y-33810184D01*
X31420933Y-33768312D01*
X31396516Y-33702848D01*
X31396200Y-33694002D01*
X31396200Y-31926600D01*
X31396199Y-31926599D01*
X30271317Y-30989196D01*
X30232418Y-30931157D01*
X30226700Y-30893937D01*
X30226700Y-30159281D01*
X30246385Y-30092242D01*
X30299189Y-30046487D01*
X30368347Y-30036543D01*
X30431903Y-30065568D01*
X30463082Y-30106877D01*
X30492598Y-30170175D01*
X30492599Y-30170177D01*
X30628094Y-30363682D01*
X30795117Y-30530705D01*
X30988621Y-30666200D01*
X31202707Y-30766029D01*
X31202716Y-30766033D01*
X31416200Y-30823234D01*
X31416200Y-29925612D01*
X31473207Y-29958525D01*
X31600374Y-29992600D01*
X31732026Y-29992600D01*
X31859193Y-29958525D01*
X31916200Y-29925612D01*
X31916200Y-30823233D01*
G37*
%TD.AperFunction*%
%TA.AperFunction,Conductor*%
G36*
X31916200Y-29059588D02*
G01*
X31859193Y-29026675D01*
X31732026Y-28992600D01*
X31600374Y-28992600D01*
X31473207Y-29026675D01*
X31416200Y-29059588D01*
X31416200Y-27385612D01*
X31473207Y-27418525D01*
X31600374Y-27452600D01*
X31732026Y-27452600D01*
X31859193Y-27418525D01*
X31916200Y-27385612D01*
X31916200Y-29059588D01*
G37*
%TD.AperFunction*%
%TA.AperFunction,Conductor*%
G36*
X52236200Y-29059588D02*
G01*
X52179193Y-29026675D01*
X52052026Y-28992600D01*
X51920374Y-28992600D01*
X51793207Y-29026675D01*
X51736200Y-29059588D01*
X51736200Y-27385612D01*
X51793207Y-27418525D01*
X51920374Y-27452600D01*
X52052026Y-27452600D01*
X52179193Y-27418525D01*
X52236200Y-27385612D01*
X52236200Y-29059588D01*
G37*
%TD.AperFunction*%
%TA.AperFunction,Conductor*%
G36*
X52236200Y-24293233D02*
G01*
X52449683Y-24236033D01*
X52449692Y-24236029D01*
X52663778Y-24136200D01*
X52857282Y-24000705D01*
X53024305Y-23833682D01*
X53154319Y-23648005D01*
X53208896Y-23604381D01*
X53278395Y-23597188D01*
X53340749Y-23628710D01*
X53357469Y-23648005D01*
X53487705Y-23834001D01*
X53654799Y-24001095D01*
X53709570Y-24039446D01*
X53848365Y-24136632D01*
X53848367Y-24136633D01*
X53848370Y-24136635D01*
X54062537Y-24236503D01*
X54290792Y-24297663D01*
X54479118Y-24314139D01*
X54526199Y-24318259D01*
X54526200Y-24318259D01*
X54526201Y-24318259D01*
X54565434Y-24314826D01*
X54761608Y-24297663D01*
X54989863Y-24236503D01*
X55204030Y-24136635D01*
X55397601Y-24001095D01*
X55564695Y-23834001D01*
X55647336Y-23715976D01*
X55701913Y-23672352D01*
X55748911Y-23663100D01*
X56478972Y-23663100D01*
X56546011Y-23682785D01*
X56566653Y-23699419D01*
X56614544Y-23747310D01*
X56763866Y-23839412D01*
X56772698Y-23842338D01*
X56830144Y-23882106D01*
X56856971Y-23946620D01*
X56857700Y-23960046D01*
X56857700Y-23983606D01*
X56857700Y-24121594D01*
X56857700Y-24121596D01*
X56857699Y-24121596D01*
X56884618Y-24256922D01*
X56884621Y-24256932D01*
X56937422Y-24384407D01*
X57014087Y-24499145D01*
X57014088Y-24499146D01*
X57837381Y-25322438D01*
X57870866Y-25383761D01*
X57873700Y-25410119D01*
X57873700Y-25659107D01*
X57854694Y-25725078D01*
X57848409Y-25735079D01*
X57788833Y-25905337D01*
X57788830Y-25905350D01*
X57768635Y-26084596D01*
X57768635Y-26084603D01*
X57788830Y-26263849D01*
X57788831Y-26263854D01*
X57848412Y-26434125D01*
X57854692Y-26444119D01*
X57873700Y-26510093D01*
X57873700Y-26739883D01*
X57854015Y-26806922D01*
X57801211Y-26852677D01*
X57790656Y-26856924D01*
X57716678Y-26882811D01*
X57706677Y-26889095D01*
X57640707Y-26908100D01*
X56000699Y-26908100D01*
X55933660Y-26888415D01*
X55887905Y-26835611D01*
X55876699Y-26784100D01*
X55876699Y-26054729D01*
X55876698Y-26054723D01*
X55870291Y-25995116D01*
X55819997Y-25860271D01*
X55819993Y-25860264D01*
X55733747Y-25745055D01*
X55733744Y-25745052D01*
X55618535Y-25658806D01*
X55618528Y-25658802D01*
X55483682Y-25608508D01*
X55483683Y-25608508D01*
X55424083Y-25602101D01*
X55424081Y-25602100D01*
X55424073Y-25602100D01*
X55424064Y-25602100D01*
X53628329Y-25602100D01*
X53628323Y-25602101D01*
X53568716Y-25608508D01*
X53433871Y-25658802D01*
X53433864Y-25658806D01*
X53318655Y-25745052D01*
X53318652Y-25745055D01*
X53232406Y-25860264D01*
X53232402Y-25860271D01*
X53183197Y-25992198D01*
X53141326Y-26048132D01*
X53075861Y-26072549D01*
X53007588Y-26057697D01*
X52979334Y-26036546D01*
X52857282Y-25914494D01*
X52663778Y-25778999D01*
X52449692Y-25679170D01*
X52449686Y-25679167D01*
X52236200Y-25621964D01*
X52236200Y-26519588D01*
X52179193Y-26486675D01*
X52052026Y-26452600D01*
X51920374Y-26452600D01*
X51793207Y-26486675D01*
X51736200Y-26519588D01*
X51736200Y-25621964D01*
X51736199Y-25621963D01*
X51592793Y-25660389D01*
X51522943Y-25658726D01*
X51465081Y-25619563D01*
X51437577Y-25555335D01*
X51436700Y-25540614D01*
X51436700Y-24441659D01*
X51436701Y-24441646D01*
X51436701Y-24374585D01*
X51456386Y-24307546D01*
X51509190Y-24261791D01*
X51578348Y-24251847D01*
X51592794Y-24254810D01*
X51736200Y-24293234D01*
X51736200Y-23395612D01*
X51793207Y-23428525D01*
X51920374Y-23462600D01*
X52052026Y-23462600D01*
X52179193Y-23428525D01*
X52236200Y-23395612D01*
X52236200Y-24293233D01*
G37*
%TD.AperFunction*%
%TA.AperFunction,Conductor*%
G36*
X30431903Y-23536752D02*
G01*
X30463082Y-23578061D01*
X30492163Y-23640426D01*
X30492167Y-23640434D01*
X30567002Y-23747308D01*
X30627705Y-23834001D01*
X30794799Y-24001095D01*
X30849570Y-24039446D01*
X30988365Y-24136632D01*
X30988367Y-24136633D01*
X30988370Y-24136635D01*
X31202537Y-24236503D01*
X31430792Y-24297663D01*
X31619118Y-24314139D01*
X31666199Y-24318259D01*
X31666200Y-24318259D01*
X31666201Y-24318259D01*
X31705434Y-24314826D01*
X31901608Y-24297663D01*
X32029957Y-24263272D01*
X32099806Y-24264935D01*
X32149731Y-24295366D01*
X32419381Y-24565016D01*
X32452866Y-24626339D01*
X32455700Y-24652697D01*
X32455700Y-25636548D01*
X32436015Y-25703587D01*
X32383211Y-25749342D01*
X32314053Y-25759286D01*
X32279296Y-25748930D01*
X32129697Y-25679171D01*
X32129686Y-25679167D01*
X31916200Y-25621964D01*
X31916200Y-26519588D01*
X31859193Y-26486675D01*
X31732026Y-26452600D01*
X31600374Y-26452600D01*
X31473207Y-26486675D01*
X31416200Y-26519588D01*
X31416200Y-25621964D01*
X31416199Y-25621964D01*
X31202713Y-25679167D01*
X31202707Y-25679170D01*
X30988622Y-25778999D01*
X30988620Y-25779000D01*
X30795126Y-25914486D01*
X30795120Y-25914491D01*
X30628091Y-26081520D01*
X30628086Y-26081526D01*
X30492600Y-26275020D01*
X30492599Y-26275022D01*
X30463082Y-26338323D01*
X30416910Y-26390762D01*
X30349716Y-26409914D01*
X30282835Y-26389698D01*
X30237500Y-26336533D01*
X30226700Y-26285918D01*
X30226700Y-23630465D01*
X30246385Y-23563426D01*
X30299189Y-23517671D01*
X30368347Y-23507727D01*
X30431903Y-23536752D01*
G37*
%TD.AperFunction*%
%TA.AperFunction,Conductor*%
G36*
X52236200Y-22529588D02*
G01*
X52179193Y-22496675D01*
X52052026Y-22462600D01*
X51920374Y-22462600D01*
X51793207Y-22496675D01*
X51736200Y-22529588D01*
X51736200Y-20855612D01*
X51793207Y-20888525D01*
X51920374Y-20922600D01*
X52052026Y-20922600D01*
X52179193Y-20888525D01*
X52236200Y-20855612D01*
X52236200Y-22529588D01*
G37*
%TD.AperFunction*%
%TA.AperFunction,Conductor*%
G36*
X51520275Y-20229607D02*
G01*
X51486200Y-20356774D01*
X51486200Y-20488426D01*
X51520275Y-20615593D01*
X51553188Y-20672600D01*
X49879213Y-20672600D01*
X49912126Y-20615593D01*
X49946201Y-20488426D01*
X49946201Y-20356774D01*
X49912126Y-20229607D01*
X49879213Y-20172600D01*
X51553188Y-20172600D01*
X51520275Y-20229607D01*
G37*
%TD.AperFunction*%
%TA.AperFunction,Conductor*%
G36*
X54060275Y-20229607D02*
G01*
X54026200Y-20356774D01*
X54026200Y-20488426D01*
X54060275Y-20615593D01*
X54093188Y-20672600D01*
X52419212Y-20672600D01*
X52452125Y-20615593D01*
X52486200Y-20488426D01*
X52486200Y-20356774D01*
X52452125Y-20229607D01*
X52419212Y-20172600D01*
X54093188Y-20172600D01*
X54060275Y-20229607D01*
G37*
%TD.AperFunction*%
%TD*%
M02*
