%TF.GenerationSoftware,KiCad,Pcbnew,8.0.4*%
%TF.CreationDate,2024-12-17T16:18:45+07:00*%
%TF.ProjectId,16p_26p_adapter,3136705f-3236-4705-9f61-646170746572,rev?*%
%TF.SameCoordinates,Original*%
%TF.FileFunction,Legend,Bot*%
%TF.FilePolarity,Positive*%
%FSLAX46Y46*%
G04 Gerber Fmt 4.6, Leading zero omitted, Abs format (unit mm)*
G04 Created by KiCad (PCBNEW 8.0.4) date 2024-12-17 16:18:45*
%MOMM*%
%LPD*%
G01*
G04 APERTURE LIST*
%ADD10C,0.150000*%
%ADD11C,0.120000*%
G04 APERTURE END LIST*
D10*
X61280866Y-30254180D02*
X61328485Y-30301800D01*
X61328485Y-30301800D02*
X61471342Y-30349419D01*
X61471342Y-30349419D02*
X61566580Y-30349419D01*
X61566580Y-30349419D02*
X61709437Y-30301800D01*
X61709437Y-30301800D02*
X61804675Y-30206561D01*
X61804675Y-30206561D02*
X61852294Y-30111323D01*
X61852294Y-30111323D02*
X61899913Y-29920847D01*
X61899913Y-29920847D02*
X61899913Y-29777990D01*
X61899913Y-29777990D02*
X61852294Y-29587514D01*
X61852294Y-29587514D02*
X61804675Y-29492276D01*
X61804675Y-29492276D02*
X61709437Y-29397038D01*
X61709437Y-29397038D02*
X61566580Y-29349419D01*
X61566580Y-29349419D02*
X61471342Y-29349419D01*
X61471342Y-29349419D02*
X61328485Y-29397038D01*
X61328485Y-29397038D02*
X61280866Y-29444657D01*
X60709437Y-29777990D02*
X60804675Y-29730371D01*
X60804675Y-29730371D02*
X60852294Y-29682752D01*
X60852294Y-29682752D02*
X60899913Y-29587514D01*
X60899913Y-29587514D02*
X60899913Y-29539895D01*
X60899913Y-29539895D02*
X60852294Y-29444657D01*
X60852294Y-29444657D02*
X60804675Y-29397038D01*
X60804675Y-29397038D02*
X60709437Y-29349419D01*
X60709437Y-29349419D02*
X60518961Y-29349419D01*
X60518961Y-29349419D02*
X60423723Y-29397038D01*
X60423723Y-29397038D02*
X60376104Y-29444657D01*
X60376104Y-29444657D02*
X60328485Y-29539895D01*
X60328485Y-29539895D02*
X60328485Y-29587514D01*
X60328485Y-29587514D02*
X60376104Y-29682752D01*
X60376104Y-29682752D02*
X60423723Y-29730371D01*
X60423723Y-29730371D02*
X60518961Y-29777990D01*
X60518961Y-29777990D02*
X60709437Y-29777990D01*
X60709437Y-29777990D02*
X60804675Y-29825609D01*
X60804675Y-29825609D02*
X60852294Y-29873228D01*
X60852294Y-29873228D02*
X60899913Y-29968466D01*
X60899913Y-29968466D02*
X60899913Y-30158942D01*
X60899913Y-30158942D02*
X60852294Y-30254180D01*
X60852294Y-30254180D02*
X60804675Y-30301800D01*
X60804675Y-30301800D02*
X60709437Y-30349419D01*
X60709437Y-30349419D02*
X60518961Y-30349419D01*
X60518961Y-30349419D02*
X60423723Y-30301800D01*
X60423723Y-30301800D02*
X60376104Y-30254180D01*
X60376104Y-30254180D02*
X60328485Y-30158942D01*
X60328485Y-30158942D02*
X60328485Y-29968466D01*
X60328485Y-29968466D02*
X60376104Y-29873228D01*
X60376104Y-29873228D02*
X60423723Y-29825609D01*
X60423723Y-29825609D02*
X60518961Y-29777990D01*
D11*
%TO.C,J13*%
X25535722Y-50005026D02*
X23697245Y-48166549D01*
X27374200Y-48166549D02*
X25535722Y-50005026D01*
X27374200Y-51843504D02*
X26433748Y-50903052D01*
X28314652Y-50903052D02*
X27374200Y-51843504D01*
X29212678Y-50005026D02*
X27374200Y-48166549D01*
X38150507Y-33713286D02*
X23697245Y-48166549D01*
X41827463Y-37390241D02*
X29212678Y-50005026D01*
X41827463Y-37390241D02*
X38150507Y-33713286D01*
%TO.C,C8*%
X57076200Y-20910600D02*
X57076200Y-28970600D01*
X57076200Y-28970600D02*
X61596200Y-28970600D01*
X61596200Y-28970600D02*
X61596200Y-20910600D01*
%TO.C,J16*%
X52459722Y-50001026D02*
X50621245Y-48162549D01*
X54298200Y-48162549D02*
X52459722Y-50001026D01*
X54298200Y-51839504D02*
X53357748Y-50899052D01*
X55238652Y-50899052D02*
X54298200Y-51839504D01*
X56136678Y-50001026D02*
X54298200Y-48162549D01*
X65074507Y-33709286D02*
X50621245Y-48162549D01*
X68751463Y-37386241D02*
X56136678Y-50001026D01*
X68751463Y-37386241D02*
X65074507Y-33709286D01*
%TO.C,J15*%
X38997722Y-50001026D02*
X37159245Y-48162549D01*
X40836200Y-48162549D02*
X38997722Y-50001026D01*
X40836200Y-51839504D02*
X39895748Y-50899052D01*
X41776652Y-50899052D02*
X40836200Y-51839504D01*
X42674678Y-50001026D02*
X40836200Y-48162549D01*
X51612507Y-33709286D02*
X37159245Y-48162549D01*
X55289463Y-37386241D02*
X42674678Y-50001026D01*
X55289463Y-37386241D02*
X51612507Y-33709286D01*
%TD*%
M02*
