%TF.GenerationSoftware,KiCad,Pcbnew,8.0.4*%
%TF.CreationDate,2024-12-17T16:18:05+07:00*%
%TF.ProjectId,8bit_bus,38626974-5f62-4757-932e-6b696361645f,rev?*%
%TF.SameCoordinates,Original*%
%TF.FileFunction,Soldermask,Top*%
%TF.FilePolarity,Negative*%
%FSLAX46Y46*%
G04 Gerber Fmt 4.6, Leading zero omitted, Abs format (unit mm)*
G04 Created by KiCad (PCBNEW 8.0.4) date 2024-12-17 16:18:05*
%MOMM*%
%LPD*%
G01*
G04 APERTURE LIST*
G04 Aperture macros list*
%AMRoundRect*
0 Rectangle with rounded corners*
0 $1 Rounding radius*
0 $2 $3 $4 $5 $6 $7 $8 $9 X,Y pos of 4 corners*
0 Add a 4 corners polygon primitive as box body*
4,1,4,$2,$3,$4,$5,$6,$7,$8,$9,$2,$3,0*
0 Add four circle primitives for the rounded corners*
1,1,$1+$1,$2,$3*
1,1,$1+$1,$4,$5*
1,1,$1+$1,$6,$7*
1,1,$1+$1,$8,$9*
0 Add four rect primitives between the rounded corners*
20,1,$1+$1,$2,$3,$4,$5,0*
20,1,$1+$1,$4,$5,$6,$7,0*
20,1,$1+$1,$6,$7,$8,$9,0*
20,1,$1+$1,$8,$9,$2,$3,0*%
%AMHorizOval*
0 Thick line with rounded ends*
0 $1 width*
0 $2 $3 position (X,Y) of the first rounded end (center of the circle)*
0 $4 $5 position (X,Y) of the second rounded end (center of the circle)*
0 Add line between two ends*
20,1,$1,$2,$3,$4,$5,0*
0 Add two circle primitives to create the rounded ends*
1,1,$1,$2,$3*
1,1,$1,$4,$5*%
%AMRotRect*
0 Rectangle, with rotation*
0 The origin of the aperture is its center*
0 $1 length*
0 $2 width*
0 $3 Rotation angle, in degrees counterclockwise*
0 Add horizontal line*
21,1,$1,$2,0,0,$3*%
G04 Aperture macros list end*
%ADD10RoundRect,0.250000X0.159099X-0.512652X0.512652X-0.159099X-0.159099X0.512652X-0.512652X0.159099X0*%
%ADD11RoundRect,0.250000X0.250000X0.475000X-0.250000X0.475000X-0.250000X-0.475000X0.250000X-0.475000X0*%
%ADD12RotRect,1.000000X1.500000X45.000000*%
%ADD13RoundRect,0.250000X0.450000X-0.262500X0.450000X0.262500X-0.450000X0.262500X-0.450000X-0.262500X0*%
%ADD14RoundRect,0.250000X0.512652X0.159099X0.159099X0.512652X-0.512652X-0.159099X-0.159099X-0.512652X0*%
%ADD15RoundRect,0.100000X0.100000X-0.637500X0.100000X0.637500X-0.100000X0.637500X-0.100000X-0.637500X0*%
%ADD16RoundRect,0.375000X-0.176777X-0.707107X0.707107X0.176777X0.176777X0.707107X-0.707107X-0.176777X0*%
%ADD17RoundRect,0.500000X0.636396X-1.343503X1.343503X-0.636396X-0.636396X1.343503X-1.343503X0.636396X0*%
%ADD18R,1.700000X1.700000*%
%ADD19O,1.700000X1.700000*%
%ADD20RotRect,1.700000X1.700000X315.000000*%
%ADD21HorizOval,1.700000X0.000000X0.000000X0.000000X0.000000X0*%
G04 APERTURE END LIST*
D10*
%TO.C,C6*%
X37830391Y-59162352D03*
X39173893Y-57818850D03*
%TD*%
D11*
%TO.C,C2*%
X29885892Y-29484250D03*
X27985894Y-29484250D03*
%TD*%
D12*
%TO.C,JP4*%
X42714654Y-55848089D03*
X43633893Y-54928850D03*
X44553132Y-54009611D03*
%TD*%
D11*
%TO.C,C3*%
X43053891Y-30868850D03*
X41153893Y-30868850D03*
%TD*%
D13*
%TO.C,R10*%
X52684893Y-31107950D03*
X52684893Y-29282950D03*
%TD*%
D11*
%TO.C,C4*%
X43063893Y-28698850D03*
X41163895Y-28698850D03*
%TD*%
D13*
%TO.C,R9*%
X39095893Y-30726950D03*
X39095893Y-28901950D03*
%TD*%
D14*
%TO.C,C9*%
X31053893Y-58728850D03*
X29710391Y-57385348D03*
%TD*%
D15*
%TO.C,U1*%
X31533893Y-32403850D03*
X32183893Y-32403850D03*
X32833893Y-32403850D03*
X33483893Y-32403850D03*
X34133893Y-32403850D03*
X34783893Y-32403850D03*
X35433893Y-32403850D03*
X36083893Y-32403850D03*
X36733893Y-32403850D03*
X37383893Y-32403850D03*
X37383893Y-26678850D03*
X36733893Y-26678850D03*
X36083893Y-26678850D03*
X35433893Y-26678850D03*
X34783893Y-26678850D03*
X34133893Y-26678850D03*
X33483893Y-26678850D03*
X32833893Y-26678850D03*
X32183893Y-26678850D03*
X31533893Y-26678850D03*
%TD*%
D16*
%TO.C,U6*%
X31260161Y-55549891D03*
X32886507Y-57176236D03*
D17*
X37341279Y-52721464D03*
D16*
X34512852Y-58802582D03*
%TD*%
D15*
%TO.C,U2*%
X44948893Y-33113849D03*
X45598893Y-33113849D03*
X46248893Y-33113849D03*
X46898893Y-33113849D03*
X47548893Y-33113849D03*
X48198893Y-33113849D03*
X48848893Y-33113849D03*
X49498893Y-33113849D03*
X50148893Y-33113849D03*
X50798893Y-33113849D03*
X50798893Y-27388849D03*
X50148893Y-27388849D03*
X49498893Y-27388849D03*
X48848893Y-27388849D03*
X48198893Y-27388849D03*
X47548893Y-27388849D03*
X46898893Y-27388849D03*
X46248893Y-27388849D03*
X45598893Y-27388849D03*
X44948893Y-27388849D03*
%TD*%
D18*
%TO.C,J17*%
X30293893Y-23608850D03*
D19*
X30293893Y-21068850D03*
X32833893Y-23608850D03*
X32833893Y-21068850D03*
X35373892Y-23608850D03*
X35373893Y-21068850D03*
X37913893Y-23608850D03*
X37913893Y-21068850D03*
X40453893Y-23608850D03*
X40453893Y-21068850D03*
X42993893Y-23608850D03*
X42993893Y-21068850D03*
X45533893Y-23608850D03*
X45533893Y-21068850D03*
X48073894Y-23608850D03*
X48073893Y-21068850D03*
X50613893Y-23608850D03*
X50613893Y-21068850D03*
X53153893Y-23608850D03*
X53153893Y-21068850D03*
%TD*%
D11*
%TO.C,C1*%
X29885892Y-27249050D03*
X27985894Y-27249050D03*
%TD*%
D20*
%TO.C,J11*%
X28923893Y-49538850D03*
D21*
X27127842Y-47742799D03*
X30719944Y-47742799D03*
X28923893Y-45946748D03*
X32515995Y-45946748D03*
X30719944Y-44150696D03*
X34312047Y-44150696D03*
X32515995Y-42354645D03*
X36108098Y-42354645D03*
X34312047Y-40558594D03*
X37904149Y-40558594D03*
X36108098Y-38762543D03*
X39700200Y-38762543D03*
X37904149Y-36966491D03*
X41496252Y-36966491D03*
X39700200Y-35170440D03*
%TD*%
D20*
%TO.C,J12*%
X42363893Y-49528850D03*
D21*
X40567842Y-47732799D03*
X44159944Y-47732799D03*
X42363893Y-45936748D03*
X45955995Y-45936748D03*
X44159944Y-44140696D03*
X47752047Y-44140696D03*
X45955995Y-42344645D03*
X49548098Y-42344645D03*
X47752047Y-40548594D03*
X51344149Y-40548594D03*
X49548098Y-38752543D03*
X53140200Y-38752543D03*
X51344149Y-36956491D03*
X54936252Y-36956491D03*
X53140200Y-35160440D03*
%TD*%
M02*
