%TF.GenerationSoftware,KiCad,Pcbnew,8.0.4*%
%TF.CreationDate,2024-12-17T16:18:05+07:00*%
%TF.ProjectId,8bit_bus,38626974-5f62-4757-932e-6b696361645f,rev?*%
%TF.SameCoordinates,Original*%
%TF.FileFunction,Soldermask,Bot*%
%TF.FilePolarity,Negative*%
%FSLAX46Y46*%
G04 Gerber Fmt 4.6, Leading zero omitted, Abs format (unit mm)*
G04 Created by KiCad (PCBNEW 8.0.4) date 2024-12-17 16:18:05*
%MOMM*%
%LPD*%
G01*
G04 APERTURE LIST*
G04 Aperture macros list*
%AMHorizOval*
0 Thick line with rounded ends*
0 $1 width*
0 $2 $3 position (X,Y) of the first rounded end (center of the circle)*
0 $4 $5 position (X,Y) of the second rounded end (center of the circle)*
0 Add line between two ends*
20,1,$1,$2,$3,$4,$5,0*
0 Add two circle primitives to create the rounded ends*
1,1,$1,$2,$3*
1,1,$1,$4,$5*%
%AMRotRect*
0 Rectangle, with rotation*
0 The origin of the aperture is its center*
0 $1 length*
0 $2 width*
0 $3 Rotation angle, in degrees counterclockwise*
0 Add horizontal line*
21,1,$1,$2,0,0,$3*%
G04 Aperture macros list end*
%ADD10R,1.700000X1.700000*%
%ADD11O,1.700000X1.700000*%
%ADD12RotRect,1.700000X1.700000X315.000000*%
%ADD13HorizOval,1.700000X0.000000X0.000000X0.000000X0.000000X0*%
G04 APERTURE END LIST*
D10*
%TO.C,J17*%
X30293893Y-23608850D03*
D11*
X30293893Y-21068850D03*
X32833893Y-23608850D03*
X32833893Y-21068850D03*
X35373892Y-23608850D03*
X35373893Y-21068850D03*
X37913893Y-23608850D03*
X37913893Y-21068850D03*
X40453893Y-23608850D03*
X40453893Y-21068850D03*
X42993893Y-23608850D03*
X42993893Y-21068850D03*
X45533893Y-23608850D03*
X45533893Y-21068850D03*
X48073894Y-23608850D03*
X48073893Y-21068850D03*
X50613893Y-23608850D03*
X50613893Y-21068850D03*
X53153893Y-23608850D03*
X53153893Y-21068850D03*
%TD*%
D12*
%TO.C,J11*%
X28923893Y-49538850D03*
D13*
X27127842Y-47742799D03*
X30719944Y-47742799D03*
X28923893Y-45946748D03*
X32515995Y-45946748D03*
X30719944Y-44150696D03*
X34312047Y-44150696D03*
X32515995Y-42354645D03*
X36108098Y-42354645D03*
X34312047Y-40558594D03*
X37904149Y-40558594D03*
X36108098Y-38762543D03*
X39700200Y-38762543D03*
X37904149Y-36966491D03*
X41496252Y-36966491D03*
X39700200Y-35170440D03*
%TD*%
D12*
%TO.C,J12*%
X42363893Y-49528850D03*
D13*
X40567842Y-47732799D03*
X44159944Y-47732799D03*
X42363893Y-45936748D03*
X45955995Y-45936748D03*
X44159944Y-44140696D03*
X47752047Y-44140696D03*
X45955995Y-42344645D03*
X49548098Y-42344645D03*
X47752047Y-40548594D03*
X51344149Y-40548594D03*
X49548098Y-38752543D03*
X53140200Y-38752543D03*
X51344149Y-36956491D03*
X54936252Y-36956491D03*
X53140200Y-35160440D03*
%TD*%
M02*
