%TF.GenerationSoftware,KiCad,Pcbnew,8.0.4*%
%TF.CreationDate,2024-12-17T16:18:05+07:00*%
%TF.ProjectId,8bit_bus,38626974-5f62-4757-932e-6b696361645f,rev?*%
%TF.SameCoordinates,Original*%
%TF.FileFunction,Copper,L2,Bot*%
%TF.FilePolarity,Positive*%
%FSLAX46Y46*%
G04 Gerber Fmt 4.6, Leading zero omitted, Abs format (unit mm)*
G04 Created by KiCad (PCBNEW 8.0.4) date 2024-12-17 16:18:05*
%MOMM*%
%LPD*%
G01*
G04 APERTURE LIST*
G04 Aperture macros list*
%AMHorizOval*
0 Thick line with rounded ends*
0 $1 width*
0 $2 $3 position (X,Y) of the first rounded end (center of the circle)*
0 $4 $5 position (X,Y) of the second rounded end (center of the circle)*
0 Add line between two ends*
20,1,$1,$2,$3,$4,$5,0*
0 Add two circle primitives to create the rounded ends*
1,1,$1,$2,$3*
1,1,$1,$4,$5*%
%AMRotRect*
0 Rectangle, with rotation*
0 The origin of the aperture is its center*
0 $1 length*
0 $2 width*
0 $3 Rotation angle, in degrees counterclockwise*
0 Add horizontal line*
21,1,$1,$2,0,0,$3*%
G04 Aperture macros list end*
%TA.AperFunction,ComponentPad*%
%ADD10R,1.700000X1.700000*%
%TD*%
%TA.AperFunction,ComponentPad*%
%ADD11O,1.700000X1.700000*%
%TD*%
%TA.AperFunction,ComponentPad*%
%ADD12RotRect,1.700000X1.700000X315.000000*%
%TD*%
%TA.AperFunction,ComponentPad*%
%ADD13HorizOval,1.700000X0.000000X0.000000X0.000000X0.000000X0*%
%TD*%
%TA.AperFunction,ViaPad*%
%ADD14C,0.600000*%
%TD*%
%TA.AperFunction,Conductor*%
%ADD15C,0.500000*%
%TD*%
%TA.AperFunction,Conductor*%
%ADD16C,0.300000*%
%TD*%
%TA.AperFunction,Conductor*%
%ADD17C,0.200000*%
%TD*%
%TA.AperFunction,Conductor*%
%ADD18C,0.250000*%
%TD*%
G04 APERTURE END LIST*
D10*
%TO.P,J17,1,Pin_1*%
%TO.N,/8bit_bus/D0*%
X30293893Y-23608850D03*
D11*
%TO.P,J17,2,Pin_2*%
%TO.N,/8bit_bus/D1*%
X30293893Y-21068850D03*
%TO.P,J17,3,Pin_3*%
%TO.N,/8bit_bus/D2*%
X32833893Y-23608850D03*
%TO.P,J17,4,Pin_4*%
%TO.N,/8bit_bus/D3*%
X32833893Y-21068850D03*
%TO.P,J17,5,Pin_5*%
%TO.N,/8bit_bus/D4*%
X35373892Y-23608850D03*
%TO.P,J17,6,Pin_6*%
%TO.N,/8bit_bus/D5*%
X35373893Y-21068850D03*
%TO.P,J17,7,Pin_7*%
%TO.N,GND*%
X37913893Y-23608850D03*
%TO.P,J17,8,Pin_8*%
%TO.N,/8bit_bus/A*%
X37913893Y-21068850D03*
%TO.P,J17,9,Pin_9*%
%TO.N,/8bit_bus/STB*%
X40453893Y-23608850D03*
%TO.P,J17,10,Pin_10*%
%TO.N,+5V*%
X40453893Y-21068850D03*
%TO.P,J17,11,Pin_11*%
%TO.N,/8bit_bus/CLK*%
X42993893Y-23608850D03*
%TO.P,J17,12,Pin_12*%
%TO.N,/8bit_bus/OE*%
X42993893Y-21068850D03*
%TO.P,J17,13,Pin_13*%
%TO.N,GND*%
X45533893Y-23608850D03*
%TO.P,J17,14,Pin_14*%
%TO.N,/8bit_bus/D6*%
X45533893Y-21068850D03*
%TO.P,J17,15,Pin_15*%
%TO.N,/8bit_bus/D7*%
X48073894Y-23608850D03*
%TO.P,J17,16,Pin_16*%
%TO.N,/8bit_bus/D8*%
X48073893Y-21068850D03*
%TO.P,J17,17,Pin_17*%
%TO.N,/8bit_bus/D9*%
X50613893Y-23608850D03*
%TO.P,J17,18,Pin_18*%
%TO.N,/8bit_bus/D10*%
X50613893Y-21068850D03*
%TO.P,J17,19,Pin_19*%
%TO.N,/8bit_bus/D11*%
X53153893Y-23608850D03*
%TO.P,J17,20,Pin_20*%
%TO.N,GND*%
X53153893Y-21068850D03*
%TD*%
D12*
%TO.P,J11,1,Pin_1*%
%TO.N,/8bit_bus/D1_1*%
X28923893Y-49538850D03*
D13*
%TO.P,J11,2,Pin_2*%
%TO.N,/8bit_bus/D1_2*%
X27127842Y-47742799D03*
%TO.P,J11,3,Pin_3*%
%TO.N,/8bit_bus/D1_3*%
X30719944Y-47742799D03*
%TO.P,J11,4,Pin_4*%
%TO.N,GND*%
X28923893Y-45946748D03*
%TO.P,J11,5,Pin_5*%
%TO.N,/8bit_bus/D1_4*%
X32515995Y-45946748D03*
%TO.P,J11,6,Pin_6*%
%TO.N,/8bit_bus/D1_5*%
X30719944Y-44150696D03*
%TO.P,J11,7,Pin_7*%
%TO.N,/8bit_bus/D1_6*%
X34312047Y-44150696D03*
%TO.P,J11,8,Pin_8*%
%TO.N,/8bit_bus/CM_E_N4*%
X32515995Y-42354645D03*
%TO.P,J11,9,Pin_9*%
%TO.N,/8bit_bus/CM_A_N5*%
X36108098Y-42354645D03*
%TO.P,J11,10,Pin_10*%
%TO.N,/8bit_bus/CM_B_N3*%
X34312047Y-40558594D03*
%TO.P,J11,11,Pin_11*%
%TO.N,/8bit_bus/CM_C_P3*%
X37904149Y-40558594D03*
%TO.P,J11,12,Pin_12*%
%TO.N,/8bit_bus/CM_D_P4*%
X36108098Y-38762543D03*
%TO.P,J11,13,Pin_13*%
%TO.N,/8bit_bus/CM_CLK_M3*%
X39700200Y-38762543D03*
%TO.P,J11,14,Pin_14*%
%TO.N,/8bit_bus/CM_STB_N1*%
X37904149Y-36966491D03*
%TO.P,J11,15,Pin_15*%
%TO.N,/8bit_bus/CM_OE_M4*%
X41496252Y-36966491D03*
%TO.P,J11,16,Pin_16*%
%TO.N,GND*%
X39700200Y-35170440D03*
%TD*%
D12*
%TO.P,J12,1,Pin_1*%
%TO.N,/8bit_bus/D2_1*%
X42363893Y-49528850D03*
D13*
%TO.P,J12,2,Pin_2*%
%TO.N,/8bit_bus/D2_2*%
X40567842Y-47732799D03*
%TO.P,J12,3,Pin_3*%
%TO.N,/8bit_bus/D2_3*%
X44159944Y-47732799D03*
%TO.P,J12,4,Pin_4*%
%TO.N,GND*%
X42363893Y-45936748D03*
%TO.P,J12,5,Pin_5*%
%TO.N,/8bit_bus/D2_4*%
X45955995Y-45936748D03*
%TO.P,J12,6,Pin_6*%
%TO.N,/8bit_bus/D2_5*%
X44159944Y-44140696D03*
%TO.P,J12,7,Pin_7*%
%TO.N,/8bit_bus/D2_6*%
X47752047Y-44140696D03*
%TO.P,J12,8,Pin_8*%
%TO.N,unconnected-(J12-Pin_8-Pad8)*%
X45955995Y-42344645D03*
%TO.P,J12,9,Pin_9*%
%TO.N,unconnected-(J12-Pin_9-Pad9)*%
X49548098Y-42344645D03*
%TO.P,J12,10,Pin_10*%
%TO.N,unconnected-(J12-Pin_10-Pad10)*%
X47752047Y-40548594D03*
%TO.P,J12,11,Pin_11*%
%TO.N,unconnected-(J12-Pin_11-Pad11)*%
X51344149Y-40548594D03*
%TO.P,J12,12,Pin_12*%
%TO.N,unconnected-(J12-Pin_12-Pad12)*%
X49548098Y-38752543D03*
%TO.P,J12,13,Pin_13*%
%TO.N,unconnected-(J12-Pin_13-Pad13)*%
X53140200Y-38752543D03*
%TO.P,J12,14,Pin_14*%
%TO.N,Net-(J12-Pin_14)*%
X51344149Y-36956491D03*
%TO.P,J12,15,Pin_15*%
%TO.N,unconnected-(J12-Pin_15-Pad15)*%
X54936252Y-36956491D03*
%TO.P,J12,16,Pin_16*%
%TO.N,GND*%
X53140200Y-35160440D03*
%TD*%
D14*
%TO.N,GND*%
X27894493Y-56078050D03*
X41508893Y-26548850D03*
X41173893Y-31868850D03*
X32103893Y-54706159D03*
X27615093Y-28290450D03*
X27335693Y-29662050D03*
X38562493Y-57195650D03*
X38133893Y-26678850D03*
X27945293Y-26334650D03*
X39807093Y-57195650D03*
%TO.N,+3V3*%
X31171093Y-29484250D03*
X44883893Y-30948850D03*
X36773893Y-49499450D03*
X36773893Y-50218850D03*
X36773893Y-48813650D03*
%TO.N,/8bit_bus/D1_5*%
X34883893Y-34088850D03*
%TO.N,+5V*%
X38867293Y-59761050D03*
X29467893Y-26132850D03*
X40107497Y-59162352D03*
%TD*%
D15*
%TO.N,GND*%
X38843893Y-25288850D02*
X38903893Y-25348850D01*
X38263893Y-26548850D02*
X43883893Y-26548850D01*
X27894493Y-56078050D02*
X25803893Y-53987450D01*
D16*
X42363893Y-45936748D02*
X41354595Y-44927450D01*
D15*
X54453893Y-22368850D02*
X53153893Y-21068850D01*
X30732002Y-56078050D02*
X32103893Y-54706159D01*
X53140200Y-35160440D02*
X54453893Y-33846747D01*
X38383893Y-25288850D02*
X38843893Y-25288850D01*
X27894493Y-56078050D02*
X28148493Y-55824050D01*
D16*
X41354595Y-44927450D02*
X39146693Y-44927450D01*
X42363893Y-45936748D02*
X42363893Y-42759850D01*
D15*
X25803893Y-47228270D02*
X27085415Y-45946748D01*
X39730893Y-33937666D02*
X39730893Y-32227450D01*
X37913893Y-26458850D02*
X38133893Y-26678850D01*
X38133893Y-26678850D02*
X38263893Y-26548850D01*
X37913893Y-23608850D02*
X37913893Y-24818850D01*
X54453893Y-33846747D02*
X54453893Y-22368850D01*
X27085415Y-45946748D02*
X28923893Y-45946748D01*
D17*
X28923893Y-47573094D02*
X31302771Y-49951972D01*
D15*
X27894493Y-56078050D02*
X30732002Y-56078050D01*
X38903893Y-25348850D02*
X44663893Y-25348850D01*
X28148493Y-53106250D02*
X31302771Y-49951972D01*
D17*
X31302771Y-49951972D02*
X32103893Y-50753094D01*
D15*
X39730893Y-32227450D02*
X40815293Y-32227450D01*
X25803893Y-53987450D02*
X25803893Y-47228270D01*
X37913893Y-24818850D02*
X38383893Y-25288850D01*
X44663893Y-25348850D02*
X45533893Y-24478850D01*
D18*
X45533893Y-24898850D02*
X45093893Y-25338850D01*
D17*
X27945293Y-26334650D02*
X27945293Y-29052450D01*
D15*
X40815293Y-32227450D02*
X41173893Y-31868850D01*
X39700200Y-33968359D02*
X39730893Y-33937666D01*
D16*
X42363893Y-42759850D02*
X42347093Y-42743050D01*
D17*
X28923893Y-45946748D02*
X28923893Y-47573094D01*
D15*
X39700200Y-35170440D02*
X39700200Y-33968359D01*
X37913893Y-23608850D02*
X37913893Y-26458850D01*
X45533893Y-24478850D02*
X45533893Y-23608850D01*
X43883893Y-26548850D02*
X45093893Y-25338850D01*
D18*
X45533893Y-23608850D02*
X45533893Y-24898850D01*
D17*
X32103893Y-50753094D02*
X32103893Y-54706159D01*
X27945293Y-29052450D02*
X27335693Y-29662050D01*
D15*
X28148493Y-55824050D02*
X28148493Y-53106250D01*
D16*
%TO.N,+3V3*%
X33736493Y-29484250D02*
X34193693Y-29941450D01*
D15*
X36773893Y-48813650D02*
X36773893Y-45048850D01*
X40763893Y-41058850D02*
X44883893Y-36938850D01*
X44883893Y-36938850D02*
X44883893Y-30948850D01*
D16*
X43876493Y-29941450D02*
X34193693Y-29941450D01*
D15*
X36773893Y-50218850D02*
X36773893Y-48813650D01*
D16*
X31171093Y-29484250D02*
X33736493Y-29484250D01*
X44883893Y-30948850D02*
X43876493Y-29941450D01*
D15*
X36773893Y-45048850D02*
X40763893Y-41058850D01*
D17*
%TO.N,/8bit_bus/D1_5*%
X30719944Y-42524350D02*
X30719944Y-44150696D01*
X34883893Y-38360401D02*
X30719944Y-42524350D01*
X34883893Y-34088850D02*
X34883893Y-38360401D01*
D15*
%TO.N,+5V*%
X32327767Y-39235341D02*
X32327589Y-39244313D01*
X29582193Y-30593183D02*
X32435660Y-33446650D01*
X32433833Y-35371511D02*
X32433833Y-39129275D01*
X32435660Y-33446650D02*
X32435660Y-35062326D01*
X39508799Y-59761050D02*
X40107497Y-59162352D01*
X29467893Y-26132850D02*
X29582193Y-26247150D01*
X39033119Y-19648076D02*
X40453893Y-21068850D01*
X29467893Y-26132850D02*
X28656493Y-25321450D01*
X32433833Y-39129275D02*
X32327767Y-39235341D01*
X29582193Y-26247150D02*
X29582193Y-30593183D01*
X28595493Y-59720450D02*
X38826693Y-59720450D01*
X25103893Y-46211854D02*
X25103893Y-56228850D01*
X32435660Y-35062326D02*
X32442320Y-35069371D01*
X32327589Y-39244313D02*
X25738229Y-45577518D01*
X25738229Y-45577518D02*
X25103893Y-46211854D01*
X25103893Y-56228850D02*
X28595493Y-59720450D01*
X28834129Y-19648084D02*
X28834395Y-19648084D01*
X28656493Y-19781450D02*
X28789845Y-19648098D01*
X28834395Y-19648084D02*
X28859797Y-19648076D01*
X28789845Y-19648098D02*
X28834129Y-19648084D01*
X32442320Y-35069371D02*
X32433833Y-35371511D01*
X28859797Y-19648076D02*
X39033119Y-19648076D01*
X38867293Y-59761050D02*
X39508799Y-59761050D01*
X28656493Y-25321450D02*
X28656493Y-19781450D01*
X38826693Y-59720450D02*
X38867293Y-59761050D01*
%TD*%
%TA.AperFunction,Conductor*%
%TO.N,GND*%
G36*
X56818344Y-19409261D02*
G01*
X56864116Y-19462050D01*
X56875338Y-19513918D01*
X56825986Y-38662647D01*
X56806128Y-38729635D01*
X56789012Y-38750659D01*
X49755073Y-45680649D01*
X49747939Y-45686867D01*
X49701517Y-45733407D01*
X49700753Y-45734165D01*
X49655591Y-45778660D01*
X49654681Y-45779851D01*
X49654016Y-45780712D01*
X49653070Y-45781925D01*
X49621448Y-45836857D01*
X49620906Y-45837790D01*
X49588878Y-45892322D01*
X49588305Y-45893713D01*
X49587875Y-45894742D01*
X49587291Y-45896120D01*
X49570990Y-45957266D01*
X49570708Y-45958304D01*
X49553859Y-46019366D01*
X49553665Y-46020861D01*
X49553521Y-46021927D01*
X49553309Y-46023449D01*
X49553389Y-46086699D01*
X49553386Y-46087777D01*
X49552896Y-46153661D01*
X49553486Y-46163115D01*
X49565904Y-55866620D01*
X49571856Y-60518508D01*
X49572256Y-60830691D01*
X49552657Y-60897756D01*
X49499912Y-60943578D01*
X49448256Y-60954850D01*
X24842243Y-60954850D01*
X24775204Y-60935165D01*
X24729449Y-60882361D01*
X24718246Y-60831639D01*
X24707620Y-59162348D01*
X24695010Y-57181480D01*
X24714267Y-57114320D01*
X24766779Y-57068230D01*
X24835872Y-57057846D01*
X24899612Y-57086466D01*
X24906688Y-57093013D01*
X28117071Y-60303397D01*
X28117078Y-60303403D01*
X28177834Y-60343998D01*
X28177836Y-60343999D01*
X28177839Y-60344001D01*
X28239998Y-60385534D01*
X28239999Y-60385534D01*
X28240000Y-60385535D01*
X28376575Y-60442106D01*
X28376580Y-60442108D01*
X28376584Y-60442108D01*
X28376585Y-60442109D01*
X28521572Y-60470950D01*
X28521575Y-60470950D01*
X28521576Y-60470950D01*
X28669410Y-60470950D01*
X38456759Y-60470950D01*
X38510272Y-60486364D01*
X38511498Y-60483819D01*
X38517763Y-60486836D01*
X38517770Y-60486838D01*
X38517771Y-60486839D01*
X38588391Y-60511550D01*
X38688038Y-60546418D01*
X38688043Y-60546419D01*
X38867289Y-60566615D01*
X38867293Y-60566615D01*
X38867297Y-60566615D01*
X39046542Y-60546419D01*
X39046545Y-60546418D01*
X39046548Y-60546418D01*
X39126310Y-60518507D01*
X39167265Y-60511550D01*
X39582719Y-60511550D01*
X39680261Y-60492146D01*
X39727712Y-60482708D01*
X39864294Y-60426134D01*
X39917076Y-60390866D01*
X39987215Y-60344002D01*
X40415560Y-59915655D01*
X40451631Y-59893007D01*
X40450743Y-59891163D01*
X40457015Y-59888142D01*
X40457019Y-59888141D01*
X40609759Y-59792168D01*
X40737313Y-59664614D01*
X40833286Y-59511874D01*
X40892865Y-59341607D01*
X40913062Y-59162352D01*
X40895958Y-59010550D01*
X40892866Y-58983102D01*
X40892865Y-58983097D01*
X40847793Y-58854289D01*
X40833286Y-58812830D01*
X40737313Y-58660090D01*
X40609759Y-58532536D01*
X40457020Y-58436563D01*
X40286751Y-58376983D01*
X40286746Y-58376982D01*
X40107501Y-58356787D01*
X40107493Y-58356787D01*
X39928247Y-58376982D01*
X39928242Y-58376983D01*
X39757973Y-58436563D01*
X39605234Y-58532536D01*
X39477681Y-58660089D01*
X39381708Y-58812830D01*
X39378685Y-58819108D01*
X39376859Y-58818228D01*
X39354191Y-58854289D01*
X39239615Y-58968866D01*
X39178292Y-59002351D01*
X39110978Y-58998227D01*
X39046547Y-58975681D01*
X39046542Y-58975680D01*
X38867297Y-58955485D01*
X38867290Y-58955485D01*
X38781022Y-58965205D01*
X38745832Y-58969170D01*
X38731951Y-58969950D01*
X28957723Y-58969950D01*
X28890684Y-58950265D01*
X28870042Y-58933631D01*
X25890712Y-55954301D01*
X25857227Y-55892978D01*
X25854393Y-55866620D01*
X25854393Y-48671928D01*
X25874078Y-48604889D01*
X25926882Y-48559134D01*
X25996040Y-48549190D01*
X26059596Y-48578215D01*
X26079966Y-48600802D01*
X26089347Y-48614200D01*
X26256441Y-48781294D01*
X26353226Y-48849064D01*
X26450007Y-48916831D01*
X26450009Y-48916832D01*
X26450012Y-48916834D01*
X26664179Y-49016702D01*
X26892434Y-49077862D01*
X27127842Y-49098458D01*
X27170889Y-49094691D01*
X27239386Y-49108456D01*
X27289570Y-49157071D01*
X27305505Y-49225099D01*
X27294490Y-49269730D01*
X27236647Y-49396386D01*
X27236645Y-49396394D01*
X27216165Y-49538850D01*
X27236645Y-49681305D01*
X27236646Y-49681309D01*
X27296432Y-49812220D01*
X27296433Y-49812221D01*
X27296434Y-49812223D01*
X27334053Y-49858906D01*
X27334056Y-49858909D01*
X27334061Y-49858915D01*
X28419787Y-50944638D01*
X28603837Y-51128688D01*
X28603841Y-51128691D01*
X28603843Y-51128693D01*
X28650519Y-51166309D01*
X28781433Y-51226096D01*
X28781434Y-51226096D01*
X28781436Y-51226097D01*
X28923893Y-51246578D01*
X29066350Y-51226097D01*
X29197266Y-51166309D01*
X29243949Y-51128690D01*
X30513731Y-49858906D01*
X30551352Y-49812223D01*
X30611140Y-49681307D01*
X30631621Y-49538850D01*
X30611140Y-49396393D01*
X30553295Y-49269731D01*
X30543351Y-49200573D01*
X30572376Y-49137017D01*
X30631154Y-49099242D01*
X30676893Y-49094691D01*
X30719944Y-49098458D01*
X30955352Y-49077862D01*
X31183607Y-49016702D01*
X31397774Y-48916834D01*
X31591345Y-48781294D01*
X31758439Y-48614200D01*
X31893979Y-48420629D01*
X31993847Y-48206462D01*
X32055007Y-47978207D01*
X32075603Y-47742799D01*
X32055007Y-47507391D01*
X32028027Y-47406699D01*
X32029690Y-47336849D01*
X32068853Y-47278987D01*
X32133081Y-47251483D01*
X32179895Y-47254831D01*
X32280587Y-47281811D01*
X32432455Y-47295098D01*
X32515994Y-47302407D01*
X32515995Y-47302407D01*
X32515996Y-47302407D01*
X32555229Y-47298974D01*
X32751403Y-47281811D01*
X32979658Y-47220651D01*
X33193825Y-47120783D01*
X33387396Y-46985243D01*
X33554490Y-46818149D01*
X33690030Y-46624578D01*
X33789898Y-46410411D01*
X33851058Y-46182156D01*
X33871654Y-45946748D01*
X33851058Y-45711340D01*
X33824077Y-45610644D01*
X33825740Y-45540797D01*
X33864902Y-45482934D01*
X33929131Y-45455430D01*
X33975942Y-45458777D01*
X34076639Y-45485759D01*
X34264965Y-45502235D01*
X34312046Y-45506355D01*
X34312047Y-45506355D01*
X34312048Y-45506355D01*
X34351281Y-45502922D01*
X34547455Y-45485759D01*
X34775710Y-45424599D01*
X34989877Y-45324731D01*
X35183448Y-45189191D01*
X35350542Y-45022097D01*
X35486082Y-44828526D01*
X35585950Y-44614359D01*
X35647110Y-44386104D01*
X35667706Y-44150696D01*
X35647110Y-43915288D01*
X35620130Y-43814596D01*
X35621793Y-43744746D01*
X35660956Y-43686884D01*
X35725184Y-43659380D01*
X35771998Y-43662728D01*
X35872690Y-43689708D01*
X36061016Y-43706184D01*
X36108097Y-43710304D01*
X36108098Y-43710304D01*
X36108099Y-43710304D01*
X36147332Y-43706871D01*
X36343506Y-43689708D01*
X36571761Y-43628548D01*
X36785928Y-43528680D01*
X36979499Y-43393140D01*
X37146593Y-43226046D01*
X37282133Y-43032475D01*
X37382001Y-42818308D01*
X37443161Y-42590053D01*
X37463757Y-42354645D01*
X37443161Y-42119237D01*
X37416181Y-42018544D01*
X37417844Y-41948695D01*
X37457007Y-41890833D01*
X37521235Y-41863329D01*
X37568049Y-41866677D01*
X37668741Y-41893657D01*
X37857067Y-41910133D01*
X37904148Y-41914253D01*
X37904149Y-41914253D01*
X37904150Y-41914253D01*
X37943383Y-41910820D01*
X38139557Y-41893657D01*
X38367812Y-41832497D01*
X38581979Y-41732629D01*
X38775550Y-41597089D01*
X38942644Y-41429995D01*
X39078184Y-41236424D01*
X39178052Y-41022257D01*
X39239212Y-40794002D01*
X39259808Y-40558594D01*
X39239212Y-40323186D01*
X39212232Y-40222493D01*
X39213895Y-40152644D01*
X39253058Y-40094782D01*
X39317286Y-40067278D01*
X39364100Y-40070626D01*
X39464792Y-40097606D01*
X39653118Y-40114082D01*
X39700199Y-40118202D01*
X39700200Y-40118202D01*
X39700201Y-40118202D01*
X39739434Y-40114769D01*
X39935608Y-40097606D01*
X40163863Y-40036446D01*
X40378030Y-39936578D01*
X40571601Y-39801038D01*
X40738695Y-39633944D01*
X40874235Y-39440373D01*
X40974103Y-39226206D01*
X41035263Y-38997951D01*
X41055859Y-38762543D01*
X41035263Y-38527135D01*
X41008282Y-38426439D01*
X41009945Y-38356592D01*
X41049107Y-38298729D01*
X41113336Y-38271225D01*
X41160147Y-38274572D01*
X41260844Y-38301554D01*
X41449170Y-38318030D01*
X41496251Y-38322150D01*
X41496252Y-38322150D01*
X41496253Y-38322150D01*
X41535486Y-38318717D01*
X41731660Y-38301554D01*
X41959915Y-38240394D01*
X42174082Y-38140526D01*
X42367653Y-38004986D01*
X42534747Y-37837892D01*
X42670287Y-37644321D01*
X42770155Y-37430154D01*
X42831315Y-37201899D01*
X42851911Y-36966491D01*
X42831315Y-36731083D01*
X42771752Y-36508789D01*
X42770157Y-36502835D01*
X42770156Y-36502834D01*
X42770155Y-36502828D01*
X42670287Y-36288662D01*
X42534747Y-36095090D01*
X42534746Y-36095088D01*
X42367654Y-35927997D01*
X42367647Y-35927992D01*
X42353371Y-35917996D01*
X42328773Y-35900772D01*
X42174086Y-35792458D01*
X42174082Y-35792456D01*
X42152635Y-35782455D01*
X41959915Y-35692588D01*
X41959911Y-35692587D01*
X41959907Y-35692585D01*
X41731665Y-35631429D01*
X41731655Y-35631427D01*
X41496253Y-35610832D01*
X41496251Y-35610832D01*
X41260848Y-35631427D01*
X41260835Y-35631430D01*
X41159592Y-35658557D01*
X41089742Y-35656894D01*
X41031880Y-35617731D01*
X41004377Y-35553502D01*
X41007725Y-35506688D01*
X41034768Y-35405762D01*
X41034769Y-35405755D01*
X41055357Y-35170441D01*
X41055357Y-35170438D01*
X41034769Y-34935124D01*
X41034767Y-34935113D01*
X40973633Y-34706956D01*
X40973629Y-34706947D01*
X40873800Y-34492863D01*
X40873799Y-34492861D01*
X40815125Y-34409066D01*
X40815125Y-34409065D01*
X40183161Y-35041028D01*
X40166125Y-34977447D01*
X40100299Y-34863433D01*
X40007207Y-34770341D01*
X39893193Y-34704515D01*
X39829610Y-34687477D01*
X40461573Y-34055513D01*
X40461573Y-34055512D01*
X40377783Y-33996842D01*
X40377779Y-33996840D01*
X40163692Y-33897010D01*
X40163683Y-33897006D01*
X39935526Y-33835872D01*
X39935515Y-33835870D01*
X39700202Y-33815283D01*
X39700198Y-33815283D01*
X39464884Y-33835870D01*
X39464873Y-33835872D01*
X39236716Y-33897006D01*
X39236707Y-33897010D01*
X39022619Y-33996841D01*
X38938825Y-34055512D01*
X39570790Y-34687477D01*
X39507207Y-34704515D01*
X39393193Y-34770341D01*
X39300101Y-34863433D01*
X39234275Y-34977447D01*
X39217237Y-35041030D01*
X38585272Y-34409065D01*
X38526601Y-34492859D01*
X38426770Y-34706947D01*
X38426766Y-34706956D01*
X38365632Y-34935113D01*
X38365630Y-34935124D01*
X38345043Y-35170438D01*
X38345043Y-35170441D01*
X38365630Y-35405755D01*
X38365632Y-35405766D01*
X38392674Y-35506689D01*
X38391011Y-35576539D01*
X38351848Y-35634401D01*
X38287619Y-35661905D01*
X38240806Y-35658557D01*
X38139562Y-35631429D01*
X38139552Y-35631427D01*
X37904150Y-35610832D01*
X37904148Y-35610832D01*
X37668745Y-35631427D01*
X37668735Y-35631429D01*
X37440493Y-35692585D01*
X37440484Y-35692589D01*
X37226320Y-35792455D01*
X37226318Y-35792456D01*
X37032746Y-35927996D01*
X36865654Y-36095088D01*
X36730114Y-36288660D01*
X36730113Y-36288662D01*
X36630247Y-36502826D01*
X36630243Y-36502835D01*
X36569087Y-36731077D01*
X36569085Y-36731087D01*
X36548490Y-36966490D01*
X36548490Y-36966491D01*
X36569085Y-37201894D01*
X36569087Y-37201904D01*
X36596066Y-37302591D01*
X36594403Y-37372441D01*
X36555240Y-37430303D01*
X36491012Y-37457807D01*
X36444199Y-37454459D01*
X36343514Y-37427482D01*
X36343510Y-37427481D01*
X36343506Y-37427480D01*
X36343504Y-37427479D01*
X36343501Y-37427479D01*
X36108099Y-37406884D01*
X36108097Y-37406884D01*
X35872694Y-37427479D01*
X35872684Y-37427481D01*
X35640486Y-37489697D01*
X35570636Y-37488034D01*
X35512774Y-37448871D01*
X35485270Y-37384642D01*
X35484393Y-37369922D01*
X35484393Y-34671262D01*
X35504078Y-34604223D01*
X35511448Y-34593947D01*
X35513703Y-34591117D01*
X35513709Y-34591112D01*
X35609682Y-34438372D01*
X35669261Y-34268105D01*
X35669262Y-34268099D01*
X35689458Y-34088853D01*
X35689458Y-34088846D01*
X35669262Y-33909600D01*
X35669261Y-33909595D01*
X35661357Y-33887006D01*
X35609682Y-33739328D01*
X35513709Y-33586588D01*
X35386155Y-33459034D01*
X35318824Y-33416727D01*
X35233416Y-33363061D01*
X35063147Y-33303481D01*
X35063142Y-33303480D01*
X34883897Y-33283285D01*
X34883889Y-33283285D01*
X34704643Y-33303480D01*
X34704638Y-33303481D01*
X34534369Y-33363061D01*
X34381630Y-33459034D01*
X34254077Y-33586587D01*
X34158104Y-33739326D01*
X34098524Y-33909595D01*
X34098523Y-33909600D01*
X34078328Y-34088846D01*
X34078328Y-34088853D01*
X34098523Y-34268099D01*
X34098524Y-34268104D01*
X34158104Y-34438373D01*
X34254078Y-34591113D01*
X34256338Y-34593947D01*
X34257227Y-34596125D01*
X34257782Y-34597008D01*
X34257627Y-34597105D01*
X34282748Y-34658633D01*
X34283393Y-34671262D01*
X34283393Y-38060303D01*
X34263708Y-38127342D01*
X34247074Y-38147984D01*
X33396014Y-38999044D01*
X33334691Y-39032529D01*
X33264999Y-39027545D01*
X33209066Y-38985673D01*
X33184649Y-38920209D01*
X33184333Y-38911363D01*
X33184333Y-35383801D01*
X33184382Y-35380319D01*
X33192407Y-35094614D01*
X33194600Y-35016555D01*
X33189537Y-34986755D01*
X33187911Y-34977179D01*
X33186160Y-34956412D01*
X33186160Y-33372729D01*
X33171967Y-33301380D01*
X33157319Y-33227738D01*
X33103068Y-33096767D01*
X33101425Y-33092175D01*
X33100744Y-33091155D01*
X33067846Y-33041920D01*
X33067845Y-33041918D01*
X33018616Y-32968239D01*
X33018612Y-32968234D01*
X30369012Y-30318634D01*
X30335527Y-30257311D01*
X30332693Y-30230953D01*
X30332693Y-30077290D01*
X30352378Y-30010251D01*
X30405182Y-29964496D01*
X30474340Y-29954552D01*
X30537896Y-29983577D01*
X30544374Y-29989609D01*
X30668831Y-30114066D01*
X30821571Y-30210039D01*
X30858786Y-30223061D01*
X30991838Y-30269618D01*
X30991843Y-30269619D01*
X31171089Y-30289815D01*
X31171093Y-30289815D01*
X31171097Y-30289815D01*
X31350342Y-30269619D01*
X31350344Y-30269618D01*
X31350348Y-30269618D01*
X31350351Y-30269616D01*
X31350355Y-30269616D01*
X31499498Y-30217428D01*
X31520615Y-30210039D01*
X31610189Y-30153755D01*
X31676161Y-30134750D01*
X33415685Y-30134750D01*
X33482724Y-30154435D01*
X33503366Y-30171069D01*
X33779017Y-30446721D01*
X33779020Y-30446724D01*
X33779023Y-30446726D01*
X33841992Y-30488800D01*
X33885566Y-30517915D01*
X34003949Y-30566951D01*
X34003953Y-30566951D01*
X34003954Y-30566952D01*
X34129621Y-30591950D01*
X34129624Y-30591950D01*
X43555685Y-30591950D01*
X43622724Y-30611635D01*
X43643366Y-30628269D01*
X44062170Y-31047073D01*
X44095655Y-31108396D01*
X44097708Y-31120862D01*
X44098523Y-31128096D01*
X44098525Y-31128105D01*
X44126435Y-31207867D01*
X44133393Y-31248821D01*
X44133393Y-36576620D01*
X44113708Y-36643659D01*
X44097074Y-36664301D01*
X36190940Y-44570434D01*
X36190938Y-44570436D01*
X36154745Y-44624607D01*
X36154743Y-44624610D01*
X36108812Y-44693349D01*
X36108805Y-44693361D01*
X36052236Y-44829932D01*
X36052233Y-44829942D01*
X36023393Y-44974929D01*
X36023393Y-48513678D01*
X36016435Y-48554632D01*
X35988524Y-48634397D01*
X35968328Y-48813646D01*
X35968328Y-48813653D01*
X35988523Y-48992899D01*
X35988524Y-48992904D01*
X36016435Y-49072667D01*
X36023393Y-49113622D01*
X36023393Y-49199478D01*
X36016435Y-49240432D01*
X35988524Y-49320197D01*
X35968328Y-49499446D01*
X35968328Y-49499453D01*
X35988523Y-49678699D01*
X35988524Y-49678704D01*
X36016435Y-49758467D01*
X36023393Y-49799422D01*
X36023393Y-49918878D01*
X36016435Y-49959832D01*
X35988524Y-50039597D01*
X35968328Y-50218846D01*
X35968328Y-50218853D01*
X35988523Y-50398099D01*
X35988524Y-50398104D01*
X36048104Y-50568373D01*
X36144077Y-50721112D01*
X36271631Y-50848666D01*
X36424371Y-50944639D01*
X36594638Y-51004218D01*
X36594643Y-51004219D01*
X36773889Y-51024415D01*
X36773893Y-51024415D01*
X36773897Y-51024415D01*
X36953142Y-51004219D01*
X36953145Y-51004218D01*
X36953148Y-51004218D01*
X37123415Y-50944639D01*
X37276155Y-50848666D01*
X37403709Y-50721112D01*
X37499682Y-50568372D01*
X37559261Y-50398105D01*
X37579458Y-50218850D01*
X37559261Y-50039595D01*
X37531351Y-49959832D01*
X37524393Y-49918878D01*
X37524393Y-49799422D01*
X37531351Y-49758467D01*
X37559261Y-49678705D01*
X37559262Y-49678699D01*
X37579458Y-49499453D01*
X37579458Y-49499446D01*
X37559261Y-49320197D01*
X37559261Y-49320195D01*
X37531351Y-49240432D01*
X37524393Y-49199478D01*
X37524393Y-49113622D01*
X37531351Y-49072667D01*
X37550935Y-49016700D01*
X37559261Y-48992905D01*
X37567832Y-48916834D01*
X37579458Y-48813653D01*
X37579458Y-48813646D01*
X37559261Y-48634397D01*
X37559261Y-48634395D01*
X37531351Y-48554632D01*
X37524393Y-48513678D01*
X37524393Y-47732798D01*
X39212183Y-47732798D01*
X39212183Y-47732799D01*
X39232778Y-47968202D01*
X39232780Y-47968212D01*
X39293936Y-48196454D01*
X39293938Y-48196458D01*
X39293939Y-48196462D01*
X39298603Y-48206463D01*
X39393807Y-48410629D01*
X39393809Y-48410633D01*
X39494639Y-48554632D01*
X39529347Y-48604200D01*
X39696441Y-48771294D01*
X39710727Y-48781297D01*
X39890007Y-48906831D01*
X39890009Y-48906832D01*
X39890012Y-48906834D01*
X40104179Y-49006702D01*
X40332434Y-49067862D01*
X40567842Y-49088458D01*
X40610889Y-49084691D01*
X40679386Y-49098456D01*
X40729570Y-49147071D01*
X40745505Y-49215099D01*
X40734490Y-49259730D01*
X40676647Y-49386386D01*
X40676645Y-49386394D01*
X40656165Y-49528850D01*
X40676645Y-49671305D01*
X40676646Y-49671309D01*
X40736432Y-49802220D01*
X40736433Y-49802221D01*
X40736434Y-49802223D01*
X40774053Y-49848906D01*
X40774056Y-49848909D01*
X40774061Y-49848915D01*
X41869787Y-50944638D01*
X42043837Y-51118688D01*
X42043841Y-51118691D01*
X42043843Y-51118693D01*
X42090519Y-51156309D01*
X42221433Y-51216096D01*
X42221434Y-51216096D01*
X42221436Y-51216097D01*
X42363893Y-51236578D01*
X42506350Y-51216097D01*
X42637266Y-51156309D01*
X42683949Y-51118690D01*
X43953731Y-49848906D01*
X43991352Y-49802223D01*
X44051140Y-49671307D01*
X44071621Y-49528850D01*
X44051140Y-49386393D01*
X43993295Y-49259731D01*
X43983351Y-49190573D01*
X44012376Y-49127017D01*
X44071154Y-49089242D01*
X44116893Y-49084691D01*
X44159944Y-49088458D01*
X44395352Y-49067862D01*
X44623607Y-49006702D01*
X44837774Y-48906834D01*
X45031345Y-48771294D01*
X45198439Y-48604200D01*
X45333979Y-48410629D01*
X45433847Y-48196462D01*
X45495007Y-47968207D01*
X45515603Y-47732799D01*
X45495007Y-47497391D01*
X45468027Y-47396699D01*
X45469690Y-47326849D01*
X45508853Y-47268987D01*
X45573081Y-47241483D01*
X45619895Y-47244831D01*
X45720587Y-47271811D01*
X45872455Y-47285098D01*
X45955994Y-47292407D01*
X45955995Y-47292407D01*
X45955996Y-47292407D01*
X45995229Y-47288974D01*
X46191403Y-47271811D01*
X46419658Y-47210651D01*
X46633825Y-47110783D01*
X46827396Y-46975243D01*
X46994490Y-46808149D01*
X47130030Y-46614578D01*
X47229898Y-46400411D01*
X47291058Y-46172156D01*
X47311654Y-45936748D01*
X47291058Y-45701340D01*
X47264077Y-45600644D01*
X47265740Y-45530797D01*
X47304902Y-45472934D01*
X47369131Y-45445430D01*
X47415942Y-45448777D01*
X47516639Y-45475759D01*
X47704965Y-45492235D01*
X47752046Y-45496355D01*
X47752047Y-45496355D01*
X47752048Y-45496355D01*
X47791281Y-45492922D01*
X47987455Y-45475759D01*
X48215710Y-45414599D01*
X48429877Y-45314731D01*
X48623448Y-45179191D01*
X48790542Y-45012097D01*
X48926082Y-44818526D01*
X49025950Y-44604359D01*
X49087110Y-44376104D01*
X49107706Y-44140696D01*
X49087110Y-43905288D01*
X49060130Y-43804596D01*
X49061793Y-43734746D01*
X49100956Y-43676884D01*
X49165184Y-43649380D01*
X49211998Y-43652728D01*
X49312690Y-43679708D01*
X49501016Y-43696184D01*
X49548097Y-43700304D01*
X49548098Y-43700304D01*
X49548099Y-43700304D01*
X49587332Y-43696871D01*
X49783506Y-43679708D01*
X50011761Y-43618548D01*
X50225928Y-43518680D01*
X50419499Y-43383140D01*
X50586593Y-43216046D01*
X50722133Y-43022475D01*
X50822001Y-42808308D01*
X50883161Y-42580053D01*
X50903757Y-42344645D01*
X50883161Y-42109237D01*
X50856181Y-42008544D01*
X50857844Y-41938695D01*
X50897007Y-41880833D01*
X50961235Y-41853329D01*
X51008049Y-41856677D01*
X51108741Y-41883657D01*
X51297067Y-41900133D01*
X51344148Y-41904253D01*
X51344149Y-41904253D01*
X51344150Y-41904253D01*
X51383383Y-41900820D01*
X51579557Y-41883657D01*
X51807812Y-41822497D01*
X52021979Y-41722629D01*
X52215550Y-41587089D01*
X52382644Y-41419995D01*
X52518184Y-41226424D01*
X52618052Y-41012257D01*
X52679212Y-40784002D01*
X52699808Y-40548594D01*
X52679212Y-40313186D01*
X52652232Y-40212493D01*
X52653895Y-40142644D01*
X52693058Y-40084782D01*
X52757286Y-40057278D01*
X52804100Y-40060626D01*
X52904792Y-40087606D01*
X53093118Y-40104082D01*
X53140199Y-40108202D01*
X53140200Y-40108202D01*
X53140201Y-40108202D01*
X53179434Y-40104769D01*
X53375608Y-40087606D01*
X53603863Y-40026446D01*
X53818030Y-39926578D01*
X54011601Y-39791038D01*
X54178695Y-39623944D01*
X54314235Y-39430373D01*
X54414103Y-39216206D01*
X54475263Y-38987951D01*
X54495859Y-38752543D01*
X54475263Y-38517135D01*
X54448282Y-38416439D01*
X54449945Y-38346592D01*
X54489107Y-38288729D01*
X54553336Y-38261225D01*
X54600147Y-38264572D01*
X54700844Y-38291554D01*
X54889170Y-38308030D01*
X54936251Y-38312150D01*
X54936252Y-38312150D01*
X54936253Y-38312150D01*
X54975486Y-38308717D01*
X55171660Y-38291554D01*
X55399915Y-38230394D01*
X55614082Y-38130526D01*
X55807653Y-37994986D01*
X55974747Y-37827892D01*
X56110287Y-37634321D01*
X56210155Y-37420154D01*
X56271315Y-37191899D01*
X56291911Y-36956491D01*
X56271315Y-36721083D01*
X56212836Y-36502835D01*
X56210157Y-36492835D01*
X56210156Y-36492834D01*
X56210155Y-36492828D01*
X56110287Y-36278662D01*
X55974747Y-36085090D01*
X55974746Y-36085088D01*
X55807654Y-35917997D01*
X55807647Y-35917992D01*
X55614086Y-35782458D01*
X55614082Y-35782456D01*
X55614080Y-35782455D01*
X55399915Y-35682588D01*
X55399911Y-35682587D01*
X55399907Y-35682585D01*
X55171665Y-35621429D01*
X55171655Y-35621427D01*
X54936253Y-35600832D01*
X54936251Y-35600832D01*
X54700848Y-35621427D01*
X54700835Y-35621430D01*
X54599592Y-35648557D01*
X54529742Y-35646894D01*
X54471880Y-35607731D01*
X54444377Y-35543502D01*
X54447725Y-35496688D01*
X54474768Y-35395762D01*
X54474769Y-35395755D01*
X54495357Y-35160441D01*
X54495357Y-35160438D01*
X54474769Y-34925124D01*
X54474767Y-34925113D01*
X54413633Y-34696956D01*
X54413629Y-34696947D01*
X54313800Y-34482863D01*
X54313799Y-34482861D01*
X54255125Y-34399066D01*
X54255125Y-34399065D01*
X53623161Y-35031028D01*
X53606125Y-34967447D01*
X53540299Y-34853433D01*
X53447207Y-34760341D01*
X53333193Y-34694515D01*
X53269610Y-34677477D01*
X53901573Y-34045513D01*
X53901573Y-34045512D01*
X53817783Y-33986842D01*
X53817779Y-33986840D01*
X53603692Y-33887010D01*
X53603683Y-33887006D01*
X53375526Y-33825872D01*
X53375515Y-33825870D01*
X53140202Y-33805283D01*
X53140198Y-33805283D01*
X52904884Y-33825870D01*
X52904873Y-33825872D01*
X52676716Y-33887006D01*
X52676707Y-33887010D01*
X52462619Y-33986841D01*
X52378825Y-34045512D01*
X53010790Y-34677477D01*
X52947207Y-34694515D01*
X52833193Y-34760341D01*
X52740101Y-34853433D01*
X52674275Y-34967447D01*
X52657237Y-35031030D01*
X52025272Y-34399065D01*
X51966601Y-34482859D01*
X51866770Y-34696947D01*
X51866766Y-34696956D01*
X51805632Y-34925113D01*
X51805630Y-34925124D01*
X51785043Y-35160438D01*
X51785043Y-35160441D01*
X51805630Y-35395755D01*
X51805632Y-35395766D01*
X51832674Y-35496689D01*
X51831011Y-35566539D01*
X51791848Y-35624401D01*
X51727619Y-35651905D01*
X51680806Y-35648557D01*
X51579562Y-35621429D01*
X51579552Y-35621427D01*
X51344150Y-35600832D01*
X51344148Y-35600832D01*
X51108745Y-35621427D01*
X51108735Y-35621429D01*
X50880493Y-35682585D01*
X50880484Y-35682589D01*
X50666320Y-35782455D01*
X50666318Y-35782456D01*
X50472746Y-35917996D01*
X50305654Y-36085088D01*
X50170114Y-36278660D01*
X50170113Y-36278662D01*
X50070247Y-36492826D01*
X50070243Y-36492835D01*
X50009087Y-36721077D01*
X50009085Y-36721087D01*
X49988490Y-36956490D01*
X49988490Y-36956491D01*
X50009085Y-37191894D01*
X50009087Y-37191904D01*
X50036066Y-37292591D01*
X50034403Y-37362441D01*
X49995240Y-37420303D01*
X49931012Y-37447807D01*
X49884199Y-37444459D01*
X49783514Y-37417482D01*
X49783510Y-37417481D01*
X49783506Y-37417480D01*
X49783504Y-37417479D01*
X49783501Y-37417479D01*
X49548099Y-37396884D01*
X49548097Y-37396884D01*
X49312694Y-37417479D01*
X49312684Y-37417481D01*
X49084442Y-37478637D01*
X49084433Y-37478641D01*
X48870269Y-37578507D01*
X48870267Y-37578508D01*
X48676695Y-37714048D01*
X48509603Y-37881140D01*
X48374063Y-38074712D01*
X48374062Y-38074714D01*
X48274196Y-38288878D01*
X48274192Y-38288887D01*
X48213036Y-38517129D01*
X48213034Y-38517139D01*
X48192439Y-38752542D01*
X48192439Y-38752543D01*
X48213034Y-38987946D01*
X48213037Y-38987959D01*
X48240014Y-39088643D01*
X48238351Y-39158493D01*
X48199188Y-39216355D01*
X48134959Y-39243858D01*
X48088147Y-39240510D01*
X47987463Y-39213533D01*
X47987459Y-39213532D01*
X47987455Y-39213531D01*
X47987453Y-39213530D01*
X47987450Y-39213530D01*
X47752048Y-39192935D01*
X47752046Y-39192935D01*
X47516643Y-39213530D01*
X47516633Y-39213532D01*
X47288391Y-39274688D01*
X47288382Y-39274692D01*
X47074218Y-39374558D01*
X47074216Y-39374559D01*
X46880644Y-39510099D01*
X46713552Y-39677191D01*
X46578012Y-39870763D01*
X46578011Y-39870765D01*
X46505417Y-40026444D01*
X46478214Y-40084782D01*
X46478145Y-40084929D01*
X46478141Y-40084938D01*
X46416985Y-40313180D01*
X46416983Y-40313190D01*
X46396388Y-40548593D01*
X46396388Y-40548594D01*
X46416983Y-40783997D01*
X46416986Y-40784010D01*
X46443963Y-40884695D01*
X46442300Y-40954545D01*
X46403136Y-41012407D01*
X46338908Y-41039910D01*
X46292095Y-41036562D01*
X46191408Y-41009583D01*
X46191398Y-41009581D01*
X45955996Y-40988986D01*
X45955994Y-40988986D01*
X45720591Y-41009581D01*
X45720581Y-41009583D01*
X45492339Y-41070739D01*
X45492330Y-41070743D01*
X45278166Y-41170609D01*
X45278164Y-41170610D01*
X45084592Y-41306150D01*
X44917500Y-41473242D01*
X44781960Y-41666814D01*
X44781959Y-41666816D01*
X44709365Y-41822495D01*
X44682162Y-41880833D01*
X44682093Y-41880980D01*
X44682089Y-41880989D01*
X44620933Y-42109231D01*
X44620931Y-42109241D01*
X44600336Y-42344644D01*
X44600336Y-42344645D01*
X44620931Y-42580048D01*
X44620934Y-42580061D01*
X44647911Y-42680745D01*
X44646248Y-42750595D01*
X44607085Y-42808457D01*
X44542856Y-42835960D01*
X44496044Y-42832612D01*
X44395360Y-42805635D01*
X44395356Y-42805634D01*
X44395352Y-42805633D01*
X44395350Y-42805632D01*
X44395347Y-42805632D01*
X44159945Y-42785037D01*
X44159943Y-42785037D01*
X43924540Y-42805632D01*
X43924530Y-42805634D01*
X43696288Y-42866790D01*
X43696279Y-42866794D01*
X43482115Y-42966660D01*
X43482113Y-42966661D01*
X43288541Y-43102201D01*
X43121449Y-43269293D01*
X42985909Y-43462865D01*
X42985908Y-43462867D01*
X42913314Y-43618546D01*
X42886111Y-43676884D01*
X42886042Y-43677031D01*
X42886038Y-43677040D01*
X42824882Y-43905282D01*
X42824880Y-43905292D01*
X42804285Y-44140695D01*
X42804285Y-44140696D01*
X42824880Y-44376099D01*
X42824882Y-44376109D01*
X42852010Y-44477354D01*
X42850347Y-44547204D01*
X42811184Y-44605067D01*
X42746955Y-44632570D01*
X42700142Y-44629222D01*
X42599219Y-44602180D01*
X42599208Y-44602178D01*
X42363895Y-44581591D01*
X42363891Y-44581591D01*
X42128577Y-44602178D01*
X42128566Y-44602180D01*
X41900409Y-44663314D01*
X41900400Y-44663318D01*
X41686312Y-44763149D01*
X41602518Y-44821820D01*
X42234483Y-45453785D01*
X42170900Y-45470823D01*
X42056886Y-45536649D01*
X41963794Y-45629741D01*
X41897968Y-45743755D01*
X41880930Y-45807338D01*
X41248965Y-45175373D01*
X41190294Y-45259167D01*
X41090463Y-45473255D01*
X41090459Y-45473264D01*
X41029325Y-45701421D01*
X41029323Y-45701432D01*
X41008736Y-45936746D01*
X41008736Y-45936749D01*
X41029323Y-46172063D01*
X41029325Y-46172074D01*
X41056367Y-46272997D01*
X41054704Y-46342847D01*
X41015541Y-46400709D01*
X40951312Y-46428213D01*
X40904499Y-46424865D01*
X40803255Y-46397737D01*
X40803245Y-46397735D01*
X40567843Y-46377140D01*
X40567841Y-46377140D01*
X40332438Y-46397735D01*
X40332428Y-46397737D01*
X40104186Y-46458893D01*
X40104177Y-46458897D01*
X39890013Y-46558763D01*
X39890011Y-46558764D01*
X39696439Y-46694304D01*
X39529347Y-46861396D01*
X39393807Y-47054968D01*
X39393806Y-47054970D01*
X39321212Y-47210649D01*
X39294009Y-47268987D01*
X39293940Y-47269134D01*
X39293936Y-47269143D01*
X39232780Y-47497385D01*
X39232778Y-47497395D01*
X39212183Y-47732798D01*
X37524393Y-47732798D01*
X37524393Y-45411078D01*
X37544078Y-45344039D01*
X37560707Y-45323402D01*
X41232099Y-41652009D01*
X41232104Y-41652006D01*
X41242307Y-41641802D01*
X41242309Y-41641802D01*
X45466845Y-37417266D01*
X45516079Y-37343579D01*
X45548977Y-37294345D01*
X45605551Y-37157763D01*
X45634393Y-37012768D01*
X45634393Y-31248821D01*
X45641351Y-31207867D01*
X45669261Y-31128104D01*
X45669262Y-31128099D01*
X45689458Y-30948853D01*
X45689458Y-30948846D01*
X45669262Y-30769600D01*
X45669261Y-30769595D01*
X45609681Y-30599326D01*
X45558527Y-30517915D01*
X45513709Y-30446588D01*
X45386155Y-30319034D01*
X45327717Y-30282315D01*
X45233414Y-30223060D01*
X45063148Y-30163482D01*
X45063139Y-30163480D01*
X45055905Y-30162665D01*
X44991493Y-30135594D01*
X44982116Y-30127127D01*
X44291167Y-29436177D01*
X44291166Y-29436176D01*
X44291162Y-29436173D01*
X44184620Y-29364985D01*
X44066237Y-29315949D01*
X44066231Y-29315947D01*
X43940564Y-29290950D01*
X43940562Y-29290950D01*
X34514501Y-29290950D01*
X34447462Y-29271265D01*
X34426820Y-29254631D01*
X34151167Y-28978977D01*
X34151166Y-28978976D01*
X34151039Y-28978891D01*
X34044620Y-28907785D01*
X33926237Y-28858749D01*
X33926231Y-28858747D01*
X33800564Y-28833750D01*
X33800562Y-28833750D01*
X31676161Y-28833750D01*
X31610189Y-28814744D01*
X31520615Y-28758460D01*
X31520611Y-28758459D01*
X31350355Y-28698883D01*
X31350342Y-28698880D01*
X31171097Y-28678685D01*
X31171089Y-28678685D01*
X30991843Y-28698880D01*
X30991838Y-28698881D01*
X30821569Y-28758461D01*
X30668830Y-28854434D01*
X30544374Y-28978891D01*
X30483051Y-29012376D01*
X30413359Y-29007392D01*
X30357426Y-28965520D01*
X30333009Y-28900056D01*
X30332693Y-28891210D01*
X30332693Y-26173232D01*
X30324660Y-26132850D01*
X30324660Y-26132847D01*
X30303853Y-26028245D01*
X30303852Y-26028238D01*
X30256507Y-25913938D01*
X30247277Y-25891655D01*
X30223076Y-25855435D01*
X30209141Y-25827507D01*
X30193682Y-25783328D01*
X30193680Y-25783325D01*
X30193680Y-25783324D01*
X30097708Y-25630587D01*
X29970155Y-25503034D01*
X29817409Y-25407057D01*
X29811140Y-25404038D01*
X29812022Y-25402206D01*
X29775953Y-25379542D01*
X29567441Y-25171030D01*
X29533956Y-25109707D01*
X29538940Y-25040015D01*
X29580812Y-24984082D01*
X29646276Y-24959665D01*
X29655122Y-24959349D01*
X31191764Y-24959349D01*
X31191765Y-24959349D01*
X31251376Y-24952941D01*
X31386224Y-24902646D01*
X31501439Y-24816396D01*
X31587689Y-24701181D01*
X31636703Y-24569766D01*
X31678574Y-24513834D01*
X31744038Y-24489416D01*
X31812311Y-24504267D01*
X31840566Y-24525419D01*
X31962492Y-24647345D01*
X32059277Y-24715115D01*
X32156058Y-24782882D01*
X32156060Y-24782883D01*
X32156063Y-24782885D01*
X32370230Y-24882753D01*
X32598485Y-24943913D01*
X32778527Y-24959665D01*
X32833892Y-24964509D01*
X32833893Y-24964509D01*
X32833894Y-24964509D01*
X32889259Y-24959665D01*
X33069301Y-24943913D01*
X33297556Y-24882753D01*
X33511723Y-24782885D01*
X33705294Y-24647345D01*
X33872388Y-24480251D01*
X34002317Y-24294692D01*
X34056894Y-24251068D01*
X34126392Y-24243874D01*
X34188747Y-24275397D01*
X34205467Y-24294692D01*
X34335397Y-24480251D01*
X34502491Y-24647345D01*
X34599276Y-24715115D01*
X34696057Y-24782882D01*
X34696059Y-24782883D01*
X34696062Y-24782885D01*
X34910229Y-24882753D01*
X35138484Y-24943913D01*
X35318526Y-24959665D01*
X35373891Y-24964509D01*
X35373892Y-24964509D01*
X35373893Y-24964509D01*
X35429258Y-24959665D01*
X35609300Y-24943913D01*
X35837555Y-24882753D01*
X36051722Y-24782885D01*
X36245293Y-24647345D01*
X36412387Y-24480251D01*
X36542624Y-24294253D01*
X36597199Y-24250630D01*
X36666697Y-24243436D01*
X36729052Y-24274959D01*
X36745771Y-24294254D01*
X36875783Y-24479928D01*
X37042810Y-24646955D01*
X37236314Y-24782450D01*
X37450400Y-24882279D01*
X37450409Y-24882283D01*
X37663893Y-24939484D01*
X37663893Y-24041862D01*
X37720900Y-24074775D01*
X37848067Y-24108850D01*
X37979719Y-24108850D01*
X38106886Y-24074775D01*
X38163893Y-24041862D01*
X38163893Y-24939483D01*
X38377376Y-24882283D01*
X38377385Y-24882279D01*
X38591471Y-24782450D01*
X38784975Y-24646955D01*
X38951998Y-24479932D01*
X39082012Y-24294255D01*
X39136589Y-24250631D01*
X39206088Y-24243438D01*
X39268442Y-24274960D01*
X39285161Y-24294254D01*
X39415398Y-24480251D01*
X39582492Y-24647345D01*
X39679277Y-24715115D01*
X39776058Y-24782882D01*
X39776060Y-24782883D01*
X39776063Y-24782885D01*
X39990230Y-24882753D01*
X40218485Y-24943913D01*
X40398527Y-24959665D01*
X40453892Y-24964509D01*
X40453893Y-24964509D01*
X40453894Y-24964509D01*
X40509259Y-24959665D01*
X40689301Y-24943913D01*
X40917556Y-24882753D01*
X41131723Y-24782885D01*
X41325294Y-24647345D01*
X41492388Y-24480251D01*
X41622318Y-24294692D01*
X41676895Y-24251067D01*
X41746393Y-24243873D01*
X41808748Y-24275396D01*
X41825468Y-24294692D01*
X41955393Y-24480245D01*
X41955398Y-24480251D01*
X42122492Y-24647345D01*
X42219277Y-24715115D01*
X42316058Y-24782882D01*
X42316060Y-24782883D01*
X42316063Y-24782885D01*
X42530230Y-24882753D01*
X42758485Y-24943913D01*
X42938527Y-24959665D01*
X42993892Y-24964509D01*
X42993893Y-24964509D01*
X42993894Y-24964509D01*
X43049259Y-24959665D01*
X43229301Y-24943913D01*
X43457556Y-24882753D01*
X43671723Y-24782885D01*
X43865294Y-24647345D01*
X44032388Y-24480251D01*
X44162623Y-24294255D01*
X44217200Y-24250631D01*
X44286698Y-24243437D01*
X44349053Y-24274960D01*
X44365772Y-24294255D01*
X44495783Y-24479928D01*
X44662810Y-24646955D01*
X44856314Y-24782450D01*
X45070400Y-24882279D01*
X45070409Y-24882283D01*
X45283893Y-24939484D01*
X45283893Y-24041862D01*
X45340900Y-24074775D01*
X45468067Y-24108850D01*
X45599719Y-24108850D01*
X45726886Y-24074775D01*
X45783893Y-24041862D01*
X45783893Y-24939483D01*
X45997376Y-24882283D01*
X45997385Y-24882279D01*
X46211471Y-24782450D01*
X46404975Y-24646955D01*
X46571998Y-24479932D01*
X46702013Y-24294254D01*
X46756590Y-24250629D01*
X46826089Y-24243437D01*
X46888443Y-24274959D01*
X46905163Y-24294255D01*
X47035394Y-24480245D01*
X47035399Y-24480251D01*
X47202493Y-24647345D01*
X47299278Y-24715115D01*
X47396059Y-24782882D01*
X47396061Y-24782883D01*
X47396064Y-24782885D01*
X47610231Y-24882753D01*
X47838486Y-24943913D01*
X48018528Y-24959665D01*
X48073893Y-24964509D01*
X48073894Y-24964509D01*
X48073895Y-24964509D01*
X48129260Y-24959665D01*
X48309302Y-24943913D01*
X48537557Y-24882753D01*
X48751724Y-24782885D01*
X48945295Y-24647345D01*
X49112389Y-24480251D01*
X49242318Y-24294692D01*
X49296895Y-24251068D01*
X49366393Y-24243874D01*
X49428748Y-24275397D01*
X49445468Y-24294692D01*
X49575398Y-24480251D01*
X49742492Y-24647345D01*
X49839277Y-24715115D01*
X49936058Y-24782882D01*
X49936060Y-24782883D01*
X49936063Y-24782885D01*
X50150230Y-24882753D01*
X50378485Y-24943913D01*
X50558527Y-24959665D01*
X50613892Y-24964509D01*
X50613893Y-24964509D01*
X50613894Y-24964509D01*
X50669259Y-24959665D01*
X50849301Y-24943913D01*
X51077556Y-24882753D01*
X51291723Y-24782885D01*
X51485294Y-24647345D01*
X51652388Y-24480251D01*
X51782318Y-24294692D01*
X51836895Y-24251067D01*
X51906393Y-24243873D01*
X51968748Y-24275396D01*
X51985468Y-24294692D01*
X52115393Y-24480245D01*
X52115398Y-24480251D01*
X52282492Y-24647345D01*
X52379277Y-24715115D01*
X52476058Y-24782882D01*
X52476060Y-24782883D01*
X52476063Y-24782885D01*
X52690230Y-24882753D01*
X52918485Y-24943913D01*
X53098527Y-24959665D01*
X53153892Y-24964509D01*
X53153893Y-24964509D01*
X53153894Y-24964509D01*
X53209259Y-24959665D01*
X53389301Y-24943913D01*
X53617556Y-24882753D01*
X53831723Y-24782885D01*
X54025294Y-24647345D01*
X54192388Y-24480251D01*
X54327928Y-24286680D01*
X54427796Y-24072513D01*
X54488956Y-23844258D01*
X54509552Y-23608850D01*
X54488956Y-23373442D01*
X54427796Y-23145187D01*
X54327928Y-22931021D01*
X54322624Y-22923445D01*
X54192387Y-22737447D01*
X54025295Y-22570356D01*
X54025294Y-22570355D01*
X53857737Y-22453030D01*
X53839298Y-22440119D01*
X53795674Y-22385542D01*
X53788481Y-22316043D01*
X53820003Y-22253689D01*
X53839298Y-22236969D01*
X54024975Y-22106955D01*
X54191998Y-21939932D01*
X54327493Y-21746428D01*
X54427322Y-21532342D01*
X54427325Y-21532336D01*
X54484529Y-21318850D01*
X53586905Y-21318850D01*
X53619818Y-21261843D01*
X53653893Y-21134676D01*
X53653893Y-21003024D01*
X53619818Y-20875857D01*
X53586905Y-20818850D01*
X54484529Y-20818850D01*
X54484528Y-20818849D01*
X54427325Y-20605363D01*
X54427322Y-20605357D01*
X54327493Y-20391272D01*
X54327492Y-20391270D01*
X54192006Y-20197776D01*
X54192001Y-20197770D01*
X54024975Y-20030744D01*
X53831471Y-19895249D01*
X53617385Y-19795420D01*
X53617379Y-19795417D01*
X53403893Y-19738214D01*
X53403893Y-20635838D01*
X53346886Y-20602925D01*
X53219719Y-20568850D01*
X53088067Y-20568850D01*
X52960900Y-20602925D01*
X52903893Y-20635838D01*
X52903893Y-19738214D01*
X52903892Y-19738214D01*
X52690406Y-19795417D01*
X52690400Y-19795420D01*
X52476315Y-19895249D01*
X52476313Y-19895250D01*
X52282819Y-20030736D01*
X52282813Y-20030741D01*
X52115784Y-20197770D01*
X52115783Y-20197772D01*
X51985773Y-20383445D01*
X51931196Y-20427069D01*
X51861697Y-20434262D01*
X51799343Y-20402740D01*
X51782623Y-20383444D01*
X51652387Y-20197447D01*
X51485295Y-20030356D01*
X51485288Y-20030351D01*
X51291727Y-19894817D01*
X51291723Y-19894815D01*
X51291721Y-19894814D01*
X51077556Y-19794947D01*
X51077552Y-19794946D01*
X51077548Y-19794944D01*
X50849306Y-19733788D01*
X50849296Y-19733786D01*
X50613894Y-19713191D01*
X50613892Y-19713191D01*
X50378489Y-19733786D01*
X50378479Y-19733788D01*
X50150237Y-19794944D01*
X50150228Y-19794948D01*
X49936064Y-19894814D01*
X49936062Y-19894815D01*
X49742490Y-20030355D01*
X49575398Y-20197447D01*
X49445468Y-20383008D01*
X49390891Y-20426633D01*
X49321393Y-20433827D01*
X49259038Y-20402304D01*
X49242318Y-20383008D01*
X49112387Y-20197447D01*
X48945295Y-20030356D01*
X48945288Y-20030351D01*
X48751727Y-19894817D01*
X48751723Y-19894815D01*
X48751721Y-19894814D01*
X48537556Y-19794947D01*
X48537552Y-19794946D01*
X48537548Y-19794944D01*
X48309306Y-19733788D01*
X48309296Y-19733786D01*
X48073894Y-19713191D01*
X48073892Y-19713191D01*
X47838489Y-19733786D01*
X47838479Y-19733788D01*
X47610237Y-19794944D01*
X47610228Y-19794948D01*
X47396064Y-19894814D01*
X47396062Y-19894815D01*
X47202490Y-20030355D01*
X47035398Y-20197447D01*
X46905468Y-20383008D01*
X46850891Y-20426633D01*
X46781393Y-20433827D01*
X46719038Y-20402304D01*
X46702318Y-20383008D01*
X46572387Y-20197447D01*
X46405295Y-20030356D01*
X46405288Y-20030351D01*
X46211727Y-19894817D01*
X46211723Y-19894815D01*
X46211721Y-19894814D01*
X45997556Y-19794947D01*
X45997552Y-19794946D01*
X45997548Y-19794944D01*
X45769306Y-19733788D01*
X45769296Y-19733786D01*
X45533894Y-19713191D01*
X45533892Y-19713191D01*
X45298489Y-19733786D01*
X45298479Y-19733788D01*
X45070237Y-19794944D01*
X45070228Y-19794948D01*
X44856064Y-19894814D01*
X44856062Y-19894815D01*
X44662490Y-20030355D01*
X44495398Y-20197447D01*
X44365468Y-20383008D01*
X44310891Y-20426633D01*
X44241393Y-20433827D01*
X44179038Y-20402304D01*
X44162318Y-20383008D01*
X44032387Y-20197447D01*
X43865295Y-20030356D01*
X43865288Y-20030351D01*
X43671727Y-19894817D01*
X43671723Y-19894815D01*
X43671721Y-19894814D01*
X43457556Y-19794947D01*
X43457552Y-19794946D01*
X43457548Y-19794944D01*
X43229306Y-19733788D01*
X43229296Y-19733786D01*
X42993894Y-19713191D01*
X42993892Y-19713191D01*
X42758489Y-19733786D01*
X42758479Y-19733788D01*
X42530237Y-19794944D01*
X42530228Y-19794948D01*
X42316064Y-19894814D01*
X42316062Y-19894815D01*
X42122490Y-20030355D01*
X41955398Y-20197447D01*
X41825468Y-20383008D01*
X41770891Y-20426633D01*
X41701393Y-20433827D01*
X41639038Y-20402304D01*
X41622318Y-20383008D01*
X41492387Y-20197447D01*
X41325295Y-20030356D01*
X41325288Y-20030351D01*
X41131727Y-19894817D01*
X41131723Y-19894815D01*
X41131721Y-19894814D01*
X40917556Y-19794947D01*
X40917552Y-19794946D01*
X40917548Y-19794944D01*
X40689306Y-19733788D01*
X40689296Y-19733786D01*
X40453894Y-19713191D01*
X40453891Y-19713191D01*
X40240879Y-19731827D01*
X40172379Y-19718060D01*
X40142391Y-19695980D01*
X40053036Y-19606625D01*
X40019551Y-19545302D01*
X40024535Y-19475610D01*
X40066407Y-19419677D01*
X40131871Y-19395260D01*
X40140657Y-19394944D01*
X56751300Y-19389598D01*
X56818344Y-19409261D01*
G37*
%TD.AperFunction*%
%TA.AperFunction,Conductor*%
G36*
X28587644Y-47254273D02*
G01*
X28688570Y-47281316D01*
X28688577Y-47281317D01*
X28923891Y-47301905D01*
X28923895Y-47301905D01*
X29159208Y-47281317D01*
X29159215Y-47281316D01*
X29260141Y-47254273D01*
X29329991Y-47255936D01*
X29387854Y-47295098D01*
X29415358Y-47359326D01*
X29412010Y-47406141D01*
X29384882Y-47507385D01*
X29384880Y-47507395D01*
X29364285Y-47742798D01*
X29364285Y-47742800D01*
X29368051Y-47785846D01*
X29354284Y-47854346D01*
X29305669Y-47904529D01*
X29237641Y-47920462D01*
X29193011Y-47909447D01*
X29066353Y-47851603D01*
X29066348Y-47851602D01*
X28923893Y-47831122D01*
X28781437Y-47851602D01*
X28781429Y-47851604D01*
X28654773Y-47909447D01*
X28585615Y-47919391D01*
X28522059Y-47890366D01*
X28484285Y-47831588D01*
X28479734Y-47785848D01*
X28483501Y-47742799D01*
X28462905Y-47507391D01*
X28435775Y-47406139D01*
X28437438Y-47336292D01*
X28476600Y-47278429D01*
X28540829Y-47250925D01*
X28587644Y-47254273D01*
G37*
%TD.AperFunction*%
%TA.AperFunction,Conductor*%
G36*
X30041072Y-42583427D02*
G01*
X30096164Y-42626398D01*
X30119279Y-42692334D01*
X30119444Y-42698727D01*
X30119444Y-42861604D01*
X30099759Y-42928643D01*
X30047858Y-42973982D01*
X30042117Y-42976659D01*
X30042113Y-42976661D01*
X29848541Y-43112201D01*
X29681449Y-43279293D01*
X29545909Y-43472865D01*
X29545908Y-43472867D01*
X29477977Y-43618546D01*
X29446111Y-43686884D01*
X29446042Y-43687031D01*
X29446038Y-43687040D01*
X29384882Y-43915282D01*
X29384880Y-43915292D01*
X29364285Y-44150695D01*
X29364285Y-44150696D01*
X29384880Y-44386099D01*
X29384882Y-44386109D01*
X29412010Y-44487354D01*
X29410347Y-44557204D01*
X29371184Y-44615067D01*
X29306955Y-44642570D01*
X29260142Y-44639222D01*
X29159219Y-44612180D01*
X29159208Y-44612178D01*
X28923895Y-44591591D01*
X28923891Y-44591591D01*
X28688577Y-44612178D01*
X28688566Y-44612180D01*
X28460409Y-44673314D01*
X28460400Y-44673318D01*
X28246312Y-44773149D01*
X28162518Y-44831820D01*
X28794483Y-45463785D01*
X28730900Y-45480823D01*
X28616886Y-45546649D01*
X28523794Y-45639741D01*
X28457968Y-45753755D01*
X28440930Y-45817338D01*
X27808965Y-45185373D01*
X27750294Y-45269167D01*
X27650463Y-45483255D01*
X27650459Y-45483264D01*
X27589325Y-45711421D01*
X27589323Y-45711432D01*
X27568736Y-45946746D01*
X27568736Y-45946749D01*
X27589323Y-46182063D01*
X27589325Y-46182074D01*
X27616367Y-46282997D01*
X27614704Y-46352847D01*
X27575541Y-46410709D01*
X27511312Y-46438213D01*
X27464499Y-46434865D01*
X27363255Y-46407737D01*
X27363245Y-46407735D01*
X27127843Y-46387140D01*
X27127841Y-46387140D01*
X26892438Y-46407735D01*
X26892428Y-46407737D01*
X26664186Y-46468893D01*
X26664177Y-46468897D01*
X26450013Y-46568763D01*
X26450011Y-46568764D01*
X26256439Y-46704304D01*
X26089347Y-46871396D01*
X26079968Y-46884792D01*
X26025391Y-46928417D01*
X25955893Y-46935610D01*
X25893538Y-46904088D01*
X25858124Y-46843858D01*
X25854393Y-46813669D01*
X25854393Y-46574082D01*
X25874078Y-46507043D01*
X25890708Y-46486405D01*
X26262795Y-46114317D01*
X26264448Y-46112696D01*
X29909518Y-42609324D01*
X29971492Y-42577062D01*
X30041072Y-42583427D01*
G37*
%TD.AperFunction*%
%TA.AperFunction,Conductor*%
G36*
X27884281Y-19418573D02*
G01*
X27930053Y-19471362D01*
X27940019Y-19540517D01*
X27935939Y-19558894D01*
X27934835Y-19562533D01*
X27905993Y-19707529D01*
X27905993Y-19707532D01*
X27905993Y-25395368D01*
X27905993Y-25395370D01*
X27905992Y-25395370D01*
X27934833Y-25540357D01*
X27934836Y-25540367D01*
X27991407Y-25676942D01*
X28024305Y-25726177D01*
X28024306Y-25726180D01*
X28073539Y-25799864D01*
X28073545Y-25799871D01*
X28714585Y-26440910D01*
X28737249Y-26476979D01*
X28739081Y-26476097D01*
X28742101Y-26482369D01*
X28812686Y-26594702D01*
X28831693Y-26660675D01*
X28831693Y-30667101D01*
X28831693Y-30667103D01*
X28831692Y-30667103D01*
X28860533Y-30812090D01*
X28860536Y-30812100D01*
X28917107Y-30948675D01*
X28950005Y-30997910D01*
X28950006Y-30997913D01*
X28999239Y-31071597D01*
X28999245Y-31071604D01*
X31648841Y-33721199D01*
X31682326Y-33782522D01*
X31685160Y-33808880D01*
X31685160Y-34098794D01*
X31665475Y-34165833D01*
X31612671Y-34211588D01*
X31543513Y-34221532D01*
X31479957Y-34192507D01*
X31475698Y-34188639D01*
X28250598Y-31120862D01*
X27368804Y-30282082D01*
X27366126Y-30279457D01*
X27151012Y-30061865D01*
X27009752Y-29918978D01*
X26976619Y-29857464D01*
X26973934Y-29832022D01*
X26973633Y-29663505D01*
X26955508Y-19523366D01*
X26975073Y-19456295D01*
X27027795Y-19410446D01*
X27079467Y-19399148D01*
X27817237Y-19398910D01*
X27884281Y-19418573D01*
G37*
%TD.AperFunction*%
%TD*%
M02*
