M48
; DRILL file {KiCad 8.0.4} date 2024-12-17T16:13:30+0700
; FORMAT={-:-/ absolute / inch / decimal}
; #@! TF.CreationDate,2024-12-17T16:13:30+07:00
; #@! TF.GenerationSoftware,Kicad,Pcbnew,8.0.4
; #@! TF.FileFunction,Plated,1,2,PTH
FMAT,2
INCH
; #@! TA.AperFunction,Plated,PTH,ViaDrill
T1C0.0118
; #@! TA.AperFunction,Plated,PTH,ComponentDrill
T2C0.0394
%
G90
G05
T1
X1.0762Y-1.1678
X1.0872Y-1.1138
X1.0982Y-2.2078
X1.1002Y-1.0368
X1.1602Y-1.0289
X1.2272Y-1.1608
X1.2639Y-2.1538
X1.3734Y-1.3421
X1.4478Y-1.9218
X1.4478Y-1.9488
X1.4478Y-1.9771
X1.5013Y-1.0503
X1.5182Y-2.2518
X1.5302Y-2.3528
X1.5672Y-2.2518
X1.579Y-2.3292
X1.621Y-1.2547
X1.6342Y-1.0452
X1.7671Y-1.2185
T2
X1.068Y-1.8796
X1.1387Y-1.8089
X1.1387Y-1.9503
X1.1927Y-0.8295
X1.1927Y-0.9295
X1.2094Y-1.7382
X1.2094Y-1.8796
X1.2802Y-1.6675
X1.2802Y-1.8089
X1.2927Y-0.8295
X1.2927Y-0.9295
X1.3509Y-1.5968
X1.3509Y-1.7382
X1.3927Y-0.9295
X1.3927Y-0.8295
X1.4216Y-1.5261
X1.4216Y-1.6675
X1.4923Y-1.4554
X1.4923Y-1.5968
X1.4927Y-0.8295
X1.4927Y-0.9295
X1.563Y-1.3847
X1.563Y-1.5261
X1.5927Y-0.8295
X1.5927Y-0.9295
X1.5972Y-1.8792
X1.6337Y-1.4554
X1.6679Y-1.8085
X1.6679Y-1.95
X1.6927Y-0.8295
X1.6927Y-0.9295
X1.7386Y-1.7378
X1.7386Y-1.8792
X1.7927Y-0.8295
X1.7927Y-0.9295
X1.8093Y-1.6671
X1.8093Y-1.8085
X1.88Y-1.5964
X1.88Y-1.7378
X1.8927Y-0.8295
X1.8927Y-0.9295
X1.9507Y-1.5257
X1.9507Y-1.6671
X1.9927Y-0.8295
X1.9927Y-0.9295
X2.0214Y-1.455
X2.0214Y-1.5964
X2.0921Y-1.3843
X2.0921Y-1.5257
X2.0927Y-0.8295
X2.0927Y-0.9295
X2.1628Y-1.455
M30
